ISO-10303-21;
HEADER;
FILE_DESCRIPTION (( 'STEP AP214' ),
    '1' );
FILE_NAME ('barcode3040.STEP',
    '2026-09-15T00:22:29',
    ( '' ),
    ( '' ),
    'SwSTEP 2.0',
    'SolidWorks 2023',
    '' );
FILE_SCHEMA (( 'AUTOMOTIVE_DESIGN' ));
ENDSEC;

DATA;
#1 = ORIENTED_EDGE ( 'NONE', *, *, #357, .T. ) ;
#2 = DIRECTION ( 'NONE',  ( 0.000000000000000000, 0.000000000000000000, -1.000000000000000000 ) ) ;
#3 = VECTOR ( 'NONE', #638, 1000.000000000000000 ) ;
#4 = VECTOR ( 'NONE', #718, 1000.000000000000000 ) ;
#5 = LINE ( 'NONE', #742, #29 ) ;
#6 = ORIENTED_EDGE ( 'NONE', *, *, #719, .F. ) ;
#7 = CARTESIAN_POINT ( 'NONE',  ( 19.79999999999999716, 3.500000000000000000, 15.30000000000000071 ) ) ;
#8 = PLANE ( 'NONE',  #301 ) ;
#9 = UNCERTAINTY_MEASURE_WITH_UNIT (LENGTH_MEASURE( 1.000000000000000082E-05 ), #356, 'distance_accuracy_value', 'NONE');
#10 = CARTESIAN_POINT ( 'NONE',  ( -19.79999999999999716, 1.500000000000000000, 15.30000000000000071 ) ) ;
#11 = DIRECTION ( 'NONE',  ( 0.000000000000000000, 0.000000000000000000, -1.000000000000000000 ) ) ;
#12 = EDGE_CURVE ( 'NONE', #552, #204, #646, .T. ) ;
#13 = DIRECTION ( 'NONE',  ( 0.000000000000000000, -1.000000000000000000, 0.000000000000000000 ) ) ;
#14 = CARTESIAN_POINT ( 'NONE',  ( -22.73551995199040121, 0.000000000000000000, -22.05163996399279824 ) ) ;
#15 = AXIS2_PLACEMENT_3D ( 'NONE', #390, #80, #627 ) ;
#16 = CARTESIAN_POINT ( 'NONE',  ( 19.79999999999999716, 1.500000000000000000, 15.30000000000000071 ) ) ;
#17 = LINE ( 'NONE', #145, #383 ) ;
#18 = DIRECTION ( 'NONE',  ( 0.000000000000000000, 0.000000000000000000, 1.000000000000000000 ) ) ;
#19 = AXIS2_PLACEMENT_3D ( 'NONE', #603, #188, #776 ) ;
#20 = CARTESIAN_POINT ( 'NONE',  ( 19.80000000000000071, 0.000000000000000000, -17.30000000000000426 ) ) ;
#21 = AXIS2_PLACEMENT_3D ( 'NONE', #588, #774, #352 ) ;
#22 = VERTEX_POINT ( 'NONE', #95 ) ;
#23 = CARTESIAN_POINT ( 'NONE',  ( 22.30000000000000071, 1.500000000000000000, -2.236088642444092108E-15 ) ) ;
#24 = ADVANCED_FACE ( 'NONE', ( #110 ), #350, .F. ) ;
#25 = CARTESIAN_POINT ( 'NONE',  ( -24.80000000000000782, 3.500000000000000000, -9.841374911210742482 ) ) ;
#26 = EDGE_LOOP ( 'NONE', ( #240, #529, #312, #766 ) ) ;
#27 = LINE ( 'NONE', #523, #222 ) ;
#28 = ORIENTED_EDGE ( 'NONE', *, *, #484, .F. ) ;
#29 = VECTOR ( 'NONE', #449, 1000.000000000000000 ) ;
#30 = FACE_OUTER_BOUND ( 'NONE', #255, .T. ) ;
#31 = AXIS2_PLACEMENT_3D ( 'NONE', #124, #374, #316 ) ;
#32 = PLANE ( 'NONE',  #138 ) ;
#33 = DIRECTION ( 'NONE',  ( 0.000000000000000000, 1.000000000000000000, 0.000000000000000000 ) ) ;
#34 = PLANE ( 'NONE',  #21 ) ;
#35 = EDGE_CURVE ( 'NONE', #282, #415, #451, .T. ) ;
#36 = ORIENTED_EDGE ( 'NONE', *, *, #307, .T. ) ;
#37 = LINE ( 'NONE', #586, #652 ) ;
#38 = ORIENTED_EDGE ( 'NONE', *, *, #780, .F. ) ;
#39 =( NAMED_UNIT ( * ) PLANE_ANGLE_UNIT ( ) SI_UNIT ( $, .RADIAN. ) );
#40 = EDGE_LOOP ( 'NONE', ( #699, #294, #733, #187 ) ) ;
#41 = DIRECTION ( 'NONE',  ( 0.000000000000000000, 1.000000000000000000, -0.000000000000000000 ) ) ;
#42 = DIRECTION ( 'NONE',  ( 0.000000000000000000, 0.000000000000000000, 1.000000000000000000 ) ) ;
#43 = EDGE_LOOP ( 'NONE', ( #485, #560, #534, #165 ) ) ;
#44 = AXIS2_PLACEMENT_3D ( 'NONE', #506, #75, #18 ) ;
#45 = CIRCLE ( 'NONE', #462, 2.999999999999997335 ) ;
#46 = ORIENTED_EDGE ( 'NONE', *, *, #35, .F. ) ;
#47 = CIRCLE ( 'NONE', #414, 2.999999999999997335 ) ;
#48 = LINE ( 'NONE', #314, #142 ) ;
#49 = ADVANCED_FACE ( 'NONE', ( #697 ), #587, .T. ) ;
#50 = VECTOR ( 'NONE', #681, 1000.000000000000000 ) ;
#51 = FACE_OUTER_BOUND ( 'NONE', #64, .T. ) ;
#52 = ORIENTED_EDGE ( 'NONE', *, *, #202, .T. ) ;
#53 = DIRECTION ( 'NONE',  ( 0.000000000000000000, 1.000000000000000000, -0.000000000000000000 ) ) ;
#54 = AXIS2_PLACEMENT_3D ( 'NONE', #78, #336, #673 ) ;
#55 = VERTEX_POINT ( 'NONE', #682 ) ;
#56 = EDGE_CURVE ( 'NONE', #432, #773, #572, .T. ) ;
#57 = CIRCLE ( 'NONE', #173, 0.5000000000000004441 ) ;
#58 = ORIENTED_EDGE ( 'NONE', *, *, #493, .F. ) ;
#59 = FACE_OUTER_BOUND ( 'NONE', #369, .T. ) ;
#60 = VERTEX_POINT ( 'NONE', #14 ) ;
#61 = ORIENTED_EDGE ( 'NONE', *, *, #537, .F. ) ;
#62 = CARTESIAN_POINT ( 'NONE',  ( 20.29999999999999716, 1.500000000000000000, 14.80000000000000071 ) ) ;
#63 = CARTESIAN_POINT ( 'NONE',  ( -15.75723097026440378, 0.000000000000000000, -17.30000000000000426 ) ) ;
#64 = EDGE_LOOP ( 'NONE', ( #285, #36, #777, #784 ) ) ;
#65 = CARTESIAN_POINT ( 'NONE',  ( -19.79999999999999716, 3.500000000000000000, 15.30000000000000071 ) ) ;
#66 = FACE_BOUND ( 'NONE', #259, .T. ) ;
#67 = AXIS2_PLACEMENT_3D ( 'NONE', #645, #166, #696 ) ;
#68 = LINE ( 'NONE', #268, #238 ) ;
#69 = VECTOR ( 'NONE', #714, 1000.000000000000000 ) ;
#70 = EDGE_CURVE ( 'NONE', #694, #650, #207, .T. ) ;
#71 = DIRECTION ( 'NONE',  ( 0.000000000000000000, 1.000000000000000000, -0.000000000000000000 ) ) ;
#72 = CARTESIAN_POINT ( 'NONE',  ( -19.80000000000000782, 1.500000000000000000, 17.30000000000000426 ) ) ;
#73 = DIRECTION ( 'NONE',  ( -1.000000000000000000, 0.000000000000000000, -0.000000000000000000 ) ) ;
#74 = PRODUCT_DEFINITION_SHAPE ( 'NONE', 'NONE',  #213 ) ;
#75 = DIRECTION ( 'NONE',  ( -0.000000000000000000, -1.000000000000000000, 0.000000000000000000 ) ) ;
#76 = CARTESIAN_POINT ( 'NONE',  ( 0.000000000000000000, 1.500000000000000000, 15.30000000000000071 ) ) ;
#77 = CARTESIAN_POINT ( 'NONE',  ( -22.73551995199040121, 0.000000000000000000, -17.05163996399279824 ) ) ;
#78 = CARTESIAN_POINT ( 'NONE',  ( 0.000000000000000000, 1.500000000000000000, 17.30000000000000426 ) ) ;
#79 = VECTOR ( 'NONE', #211, 1000.000000000000000 ) ;
#80 = DIRECTION ( 'NONE',  ( 0.000000000000000000, 1.000000000000000000, -0.000000000000000000 ) ) ;
#81 =( LENGTH_UNIT ( ) NAMED_UNIT ( * ) SI_UNIT ( .MILLI., .METRE. ) );
#82 = PRODUCT_DEFINITION_CONTEXT ( 'detailed design', #684, 'design' ) ;
#83 = ADVANCED_FACE ( 'NONE', ( #219 ), #281, .F. ) ;
#84 = COLOUR_RGB ( '',0.7921568627450980005, 0.8196078431372548767, 0.9333333333333333481 ) ;
#85 = ORIENTED_EDGE ( 'NONE', *, *, #290, .F. ) ;
#86 = EDGE_CURVE ( 'NONE', #737, #153, #185, .T. ) ;
#87 = LINE ( 'NONE', #750, #717 ) ;
#88 = PRODUCT_DEFINITION_FORMATION_WITH_SPECIFIED_SOURCE ( 'ANY', '', #208, .NOT_KNOWN. ) ;
#89 = ORIENTED_EDGE ( 'NONE', *, *, #109, .F. ) ;
#90 = CARTESIAN_POINT ( 'NONE',  ( -19.80000000000000782, 3.500000000000000000, 14.80000000000000249 ) ) ;
#91 = ORIENTED_EDGE ( 'NONE', *, *, #769, .F. ) ;
#92 = EDGE_CURVE ( 'NONE', #658, #60, #447, .T. ) ;
#93 = DIRECTION ( 'NONE',  ( 0.000000000000000000, 0.000000000000000000, 1.000000000000000000 ) ) ;
#94 = CARTESIAN_POINT ( 'NONE',  ( 19.79999999999999716, 3.500000000000000000, -15.29999999999999538 ) ) ;
#95 = CARTESIAN_POINT ( 'NONE',  ( 22.30000000000000071, 0.000000000000000000, -14.80000000000000249 ) ) ;
#96 = MANIFOLD_SOLID_BREP ( 'Fillet2', #324 ) ;
#97 = DIRECTION ( 'NONE',  ( 0.000000000000000000, 0.000000000000000000, 1.000000000000000000 ) ) ;
#98 = AXIS2_PLACEMENT_3D ( 'NONE', #401, #41, #761 ) ;
#99 = EDGE_CURVE ( 'NONE', #538, #634, #201, .T. ) ;
#100 = ORIENTED_EDGE ( 'NONE', *, *, #271, .F. ) ;
#101 = CARTESIAN_POINT ( 'NONE',  ( -20.29999999999999716, 3.500000000000000000, 14.80000000000000071 ) ) ;
#102 = ORIENTED_EDGE ( 'NONE', *, *, #549, .T. ) ;
#103 = DIRECTION ( 'NONE',  ( -0.000000000000000000, -1.000000000000000000, 0.000000000000000000 ) ) ;
#104 = ORIENTED_EDGE ( 'NONE', *, *, #626, .T. ) ;
#105 = FACE_OUTER_BOUND ( 'NONE', #230, .T. ) ;
#106 = CARTESIAN_POINT ( 'NONE',  ( 20.29999999999999716, 3.500000000000000000, 14.80000000000000071 ) ) ;
#107 = LINE ( 'NONE', #411, #610 ) ;
#108 = ORIENTED_EDGE ( 'NONE', *, *, #746, .F. ) ;
#109 = EDGE_CURVE ( 'NONE', #429, #304, #68, .T. ) ;
#110 = FACE_OUTER_BOUND ( 'NONE', #520, .T. ) ;
#111 = AXIS2_PLACEMENT_3D ( 'NONE', #620, #209, #269 ) ;
#112 = ORIENTED_EDGE ( 'NONE', *, *, #584, .T. ) ;
#113 = AXIS2_PLACEMENT_3D ( 'NONE', #685, #385, #389 ) ;
#114 = EDGE_CURVE ( 'NONE', #634, #160, #630, .T. ) ;
#115 = FACE_OUTER_BOUND ( 'NONE', #643, .T. ) ;
#116 = AXIS2_PLACEMENT_3D ( 'NONE', #675, #136, #11 ) ;
#117 = DIRECTION ( 'NONE',  ( -1.002730332934570397E-16, 0.000000000000000000, -1.000000000000000000 ) ) ;
#118 = CIRCLE ( 'NONE', #231, 2.999999999999997335 ) ;
#119 = EDGE_LOOP ( 'NONE', ( #471, #170, #108, #127 ) ) ;
#120 = CARTESIAN_POINT ( 'NONE',  ( -15.75723097026440378, 1.500000000000000000, -19.80000000000000071 ) ) ;
#121 = EDGE_CURVE ( 'NONE', #431, #775, #497, .T. ) ;
#122 = EDGE_LOOP ( 'NONE', ( #491, #89, #723, #61 ) ) ;
#123 = ORIENTED_EDGE ( 'NONE', *, *, #788, .F. ) ;
#124 = CARTESIAN_POINT ( 'NONE',  ( -15.75723097026440378, 3.500000000000000000, -19.80000000000000071 ) ) ;
#125 = ORIENTED_EDGE ( 'NONE', *, *, #410, .T. ) ;
#126 = AXIS2_PLACEMENT_3D ( 'NONE', #237, #478, #97 ) ;
#127 = ORIENTED_EDGE ( 'NONE', *, *, #375, .F. ) ;
#128 = CYLINDRICAL_SURFACE ( 'NONE', #393, 2.999999999999997335 ) ;
#129 = LINE ( 'NONE', #384, #607 ) ;
#130 = EDGE_LOOP ( 'NONE', ( #543, #358, #526, #498, #167, #637, #728, #474, #436, #690, #772 ) ) ;
#131 = LINE ( 'NONE', #621, #655 ) ;
#132 = CARTESIAN_POINT ( 'NONE',  ( -22.73551995199040121, 3.500000000000000000, -14.05163996399280180 ) ) ;
#133 = CARTESIAN_POINT ( 'NONE',  ( 22.30000000000000071, 0.000000000000000000, 14.80000000000000249 ) ) ;
#134 = EDGE_CURVE ( 'NONE', #193, #463, #273, .T. ) ;
#135 = CARTESIAN_POINT ( 'NONE',  ( -22.73551995199040121, 0.000000000000000000, -14.05163996399280180 ) ) ;
#136 = DIRECTION ( 'NONE',  ( -0.000000000000000000, -1.000000000000000000, -0.000000000000000000 ) ) ;
#137 = DIRECTION ( 'NONE',  ( 0.000000000000000000, 0.000000000000000000, 1.000000000000000000 ) ) ;
#138 = AXIS2_PLACEMENT_3D ( 'NONE', #519, #464, #475 ) ;
#139 = ADVANCED_FACE ( 'NONE', ( #212 ), #453, .F. ) ;
#140 = SURFACE_STYLE_USAGE ( .BOTH. , #456 ) ;
#141 = VECTOR ( 'NONE', #360, 1000.000000000000000 ) ;
#142 = VECTOR ( 'NONE', #551, 1000.000000000000000 ) ;
#143 = DIRECTION ( 'NONE',  ( 0.000000000000000000, 0.000000000000000000, 1.000000000000000000 ) ) ;
#144 = CARTESIAN_POINT ( 'NONE',  ( -22.73551995199040121, 3.500000000000000000, -20.05163996399279824 ) ) ;
#145 = CARTESIAN_POINT ( 'NONE',  ( -19.79999999999999716, 3.500000000000000000, 15.30000000000000071 ) ) ;
#146 = SURFACE_STYLE_FILL_AREA ( #216 ) ;
#147 = CARTESIAN_POINT ( 'NONE',  ( -22.73551995199040121, 1.500000000000000000, -17.05163996399279824 ) ) ;
#148 = DIRECTION ( 'NONE',  ( 0.000000000000000000, 0.000000000000000000, 1.000000000000000000 ) ) ;
#149 = CARTESIAN_POINT ( 'NONE',  ( -22.73551995199040121, 0.000000000000000000, -17.05163996399279824 ) ) ;
#150 = EDGE_CURVE ( 'NONE', #494, #55, #507, .T. ) ;
#151 = DIRECTION ( 'NONE',  ( 0.000000000000000000, 0.000000000000000000, -1.000000000000000000 ) ) ;
#152 = CIRCLE ( 'NONE', #363, 2.500000000000000444 ) ;
#153 = VERTEX_POINT ( 'NONE', #135 ) ;
#154 = AXIS2_PLACEMENT_3D ( 'NONE', #380, #511, #747 ) ;
#155 = DIRECTION ( 'NONE',  ( -0.000000000000000000, -1.000000000000000000, 0.000000000000000000 ) ) ;
#156 = EDGE_CURVE ( 'NONE', #415, #463, #129, .T. ) ;
#157 = VERTEX_POINT ( 'NONE', #10 ) ;
#158 = CARTESIAN_POINT ( 'NONE',  ( -22.30000000000000782, 0.000000000000000000, -9.841374911210742482 ) ) ;
#159 = EDGE_CURVE ( 'NONE', #60, #432, #705, .T. ) ;
#160 = VERTEX_POINT ( 'NONE', #328 ) ;
#161 = DIRECTION ( 'NONE',  ( -1.000000000000000000, 0.000000000000000000, 0.000000000000000000 ) ) ;
#162 = CARTESIAN_POINT ( 'NONE',  ( 19.80000000000000071, 1.500000000000000000, 14.80000000000000249 ) ) ;
#163 = ADVANCED_FACE ( 'NONE', ( #203 ), #559, .F. ) ;
#164 = CIRCLE ( 'NONE', #15, 0.5000000000000004441 ) ;
#165 = ORIENTED_EDGE ( 'NONE', *, *, #537, .T. ) ;
#166 = DIRECTION ( 'NONE',  ( 0.000000000000000000, 1.000000000000000000, -0.000000000000000000 ) ) ;
#167 = ORIENTED_EDGE ( 'NONE', *, *, #574, .F. ) ;
#168 = DIRECTION ( 'NONE',  ( 1.387778780781445478E-15, 0.000000000000000000, 1.000000000000000000 ) ) ;
#169 = VECTOR ( 'NONE', #321, 1000.000000000000000 ) ;
#170 = ORIENTED_EDGE ( 'NONE', *, *, #604, .F. ) ;
#171 = CARTESIAN_POINT ( 'NONE',  ( 19.79999999999999716, 3.500000000000000000, 15.30000000000000071 ) ) ;
#172 = EDGE_LOOP ( 'NONE', ( #601, #597, #661, #190 ) ) ;
#173 = AXIS2_PLACEMENT_3D ( 'NONE', #473, #178, #42 ) ;
#174 = CYLINDRICAL_SURFACE ( 'NONE', #365, 0.5000000000000004441 ) ;
#175 = VERTEX_POINT ( 'NONE', #378 ) ;
#176 = DIRECTION ( 'NONE',  ( 0.000000000000000000, -0.000000000000000000, 1.000000000000000000 ) ) ;
#177 = ADVANCED_BREP_SHAPE_REPRESENTATION ( 'barcode3040', ( #96, #578 ), #197 ) ;
#178 = DIRECTION ( 'NONE',  ( -0.000000000000000000, -1.000000000000000000, 0.000000000000000000 ) ) ;
#179 = EDGE_CURVE ( 'NONE', #304, #775, #5, .T. ) ;
#180 = VERTEX_POINT ( 'NONE', #613 ) ;
#181 = CARTESIAN_POINT ( 'NONE',  ( 0.000000000000000000, 0.000000000000000000, 17.30000000000000426 ) ) ;
#182 = SHAPE_DEFINITION_REPRESENTATION ( #74, #177 ) ;
#183 = CIRCLE ( 'NONE', #618, 2.499999999999998668 ) ;
#184 = EDGE_LOOP ( 'NONE', ( #46, #346, #581, #302 ) ) ;
#185 = CIRCLE ( 'NONE', #664, 2.999999999999997335 ) ;
#186 = DIRECTION ( 'NONE',  ( -0.000000000000000000, 1.000000000000000000, -0.000000000000000000 ) ) ;
#187 = ORIENTED_EDGE ( 'NONE', *, *, #756, .T. ) ;
#188 = DIRECTION ( 'NONE',  ( 0.000000000000000000, -1.000000000000000000, 0.000000000000000000 ) ) ;
#189 = EDGE_LOOP ( 'NONE', ( #713, #548, #667, #666 ) ) ;
#190 = ORIENTED_EDGE ( 'NONE', *, *, #56, .T. ) ;
#191 = DIRECTION ( 'NONE',  ( 0.000000000000000000, 0.000000000000000000, 1.000000000000000000 ) ) ;
#192 = VECTOR ( 'NONE', #483, 1000.000000000000000 ) ;
#193 = VERTEX_POINT ( 'NONE', #63 ) ;
#194 = ORIENTED_EDGE ( 'NONE', *, *, #99, .F. ) ;
#195 = CARTESIAN_POINT ( 'NONE',  ( 20.29999999999999716, 1.500000000000000000, -14.79999999999999538 ) ) ;
#196 = VECTOR ( 'NONE', #382, 1000.000000000000000 ) ;
#197 =( GEOMETRIC_REPRESENTATION_CONTEXT ( 3 ) GLOBAL_UNCERTAINTY_ASSIGNED_CONTEXT ( ( #9 ) ) GLOBAL_UNIT_ASSIGNED_CONTEXT ( ( #356, #39, #224 ) ) REPRESENTATION_CONTEXT ( 'NONE', 'WORKASPACE' ) );
#198 = VERTEX_POINT ( 'NONE', #264 ) ;
#199 = LINE ( 'NONE', #76, #496 ) ;
#200 = CARTESIAN_POINT ( 'NONE',  ( -22.30000000000000782, 3.500000000000000000, 2.236088642444092897E-15 ) ) ;
#201 = LINE ( 'NONE', #133, #196 ) ;
#202 = EDGE_CURVE ( 'NONE', #246, #60, #249, .T. ) ;
#203 = FACE_OUTER_BOUND ( 'NONE', #40, .T. ) ;
#204 = VERTEX_POINT ( 'NONE', #754 ) ;
#205 = DIRECTION ( 'NONE',  ( -1.000000000000000000, 0.000000000000000000, 0.000000000000000000 ) ) ;
#206 = DIRECTION ( 'NONE',  ( 0.000000000000000000, 1.000000000000000000, -0.000000000000000000 ) ) ;
#207 = LINE ( 'NONE', #563, #654 ) ;
#208 = PRODUCT ( 'barcode3040', 'barcode3040', '', ( #545 ) ) ;
#209 = DIRECTION ( 'NONE',  ( -0.000000000000000000, 1.000000000000000000, -0.000000000000000000 ) ) ;
#210 = CARTESIAN_POINT ( 'NONE',  ( 22.30000000000000071, 0.000000000000000000, 14.80000000000000249 ) ) ;
#211 = DIRECTION ( 'NONE',  ( 1.002730332934570397E-16, 0.000000000000000000, 1.000000000000000000 ) ) ;
#212 = FACE_OUTER_BOUND ( 'NONE', #189, .T. ) ;
#213 = PRODUCT_DEFINITION ( 'UNKNOWN', '', #88, #82 ) ;
#214 = DIRECTION ( 'NONE',  ( 0.000000000000000000, -1.000000000000000000, 0.000000000000000000 ) ) ;
#215 = CYLINDRICAL_SURFACE ( 'NONE', #726, 2.500000000000000444 ) ;
#216 = FILL_AREA_STYLE ('',( #338 ) ) ;
#217 = ADVANCED_FACE ( 'NONE', ( #590 ), #32, .T. ) ;
#218 = DIRECTION ( 'NONE',  ( 0.000000000000000000, 0.000000000000000000, 1.000000000000000000 ) ) ;
#219 = FACE_OUTER_BOUND ( 'NONE', #706, .T. ) ;
#220 = ORIENTED_EDGE ( 'NONE', *, *, #626, .F. ) ;
#221 = CARTESIAN_POINT ( 'NONE',  ( 19.80000000000000071, 0.000000000000000000, -14.80000000000000249 ) ) ;
#222 = VECTOR ( 'NONE', #295, 1000.000000000000000 ) ;
#223 = VECTOR ( 'NONE', #516, 1000.000000000000000 ) ;
#224 =( NAMED_UNIT ( * ) SI_UNIT ( $, .STERADIAN. ) SOLID_ANGLE_UNIT ( ) );
#225 = ORIENTED_EDGE ( 'NONE', *, *, #347, .T. ) ;
#226 = CYLINDRICAL_SURFACE ( 'NONE', #448, 0.5000000000000004441 ) ;
#227 = EDGE_CURVE ( 'NONE', #22, #634, #692, .T. ) ;
#228 = ORIENTED_EDGE ( 'NONE', *, *, #752, .T. ) ;
#229 = DIRECTION ( 'NONE',  ( 0.000000000000000000, 1.000000000000000000, 0.000000000000000000 ) ) ;
#230 = EDGE_LOOP ( 'NONE', ( #38, #397, #344, #364 ) ) ;
#231 = AXIS2_PLACEMENT_3D ( 'NONE', #77, #341, #218 ) ;
#232 = CARTESIAN_POINT ( 'NONE',  ( 19.80000000000000071, 1.500000000000000000, -17.30000000000000426 ) ) ;
#233 = ORIENTED_EDGE ( 'NONE', *, *, #319, .F. ) ;
#234 = LINE ( 'NONE', #171, #3 ) ;
#235 = EDGE_CURVE ( 'NONE', #439, #22, #351, .T. ) ;
#236 = VERTEX_POINT ( 'NONE', #460 ) ;
#237 = CARTESIAN_POINT ( 'NONE',  ( -19.79999999999999716, 1.500000000000000000, -14.79999999999999538 ) ) ;
#238 = VECTOR ( 'NONE', #327, 1000.000000000000000 ) ;
#239 = ORIENTED_EDGE ( 'NONE', *, *, #333, .T. ) ;
#240 = ORIENTED_EDGE ( 'NONE', *, *, #227, .F. ) ;
#241 = ADVANCED_FACE ( 'NONE', ( #532 ), #286, .T. ) ;
#242 = AXIS2_PLACEMENT_3D ( 'NONE', #708, #348, #93 ) ;
#243 = LINE ( 'NONE', #232, #500 ) ;
#244 = ORIENTED_EDGE ( 'NONE', *, *, #109, .T. ) ;
#245 = PLANE ( 'NONE',  #525 ) ;
#246 = VERTEX_POINT ( 'NONE', #399 ) ;
#247 = ADVANCED_FACE ( 'NONE', ( #105 ), #226, .F. ) ;
#248 = LINE ( 'NONE', #659, #4 ) ;
#249 = CIRCLE ( 'NONE', #487, 4.999999999999997335 ) ;
#250 = LINE ( 'NONE', #725, #192 ) ;
#251 = EDGE_CURVE ( 'NONE', #429, #589, #37, .T. ) ;
#252 = DIRECTION ( 'NONE',  ( 1.000000000000000000, 0.000000000000000000, 0.000000000000000000 ) ) ;
#253 = ORIENTED_EDGE ( 'NONE', *, *, #549, .F. ) ;
#254 = CARTESIAN_POINT ( 'NONE',  ( -19.79999999999999716, 1.500000000000000000, -15.29999999999999538 ) ) ;
#255 = EDGE_LOOP ( 'NONE', ( #112, #490, #518, #420, #786, #125, #444, #376, #480, #782, #287 ) ) ;
#256 = EDGE_LOOP ( 'NONE', ( #591, #753, #306, #531, #608, #724, #632, #651 ) ) ;
#257 = DIRECTION ( 'NONE',  ( 0.000000000000000000, -1.000000000000000000, 0.000000000000000000 ) ) ;
#258 = EDGE_CURVE ( 'NONE', #153, #468, #354, .T. ) ;
#259 = EDGE_LOOP ( 'NONE', ( #579, #296 ) ) ;
#260 = CARTESIAN_POINT ( 'NONE',  ( -22.73551995199040121, 3.500000000000000000, -17.05163996399279824 ) ) ;
#261 = VECTOR ( 'NONE', #214, 1000.000000000000000 ) ;
#262 = CIRCLE ( 'NONE', #693, 2.500000000000000444 ) ;
#263 = EDGE_CURVE ( 'NONE', #204, #670, #633, .T. ) ;
#264 = CARTESIAN_POINT ( 'NONE',  ( -19.80000000000000782, 0.000000000000000000, 17.30000000000000426 ) ) ;
#265 = VERTEX_POINT ( 'NONE', #101 ) ;
#266 = CARTESIAN_POINT ( 'NONE',  ( -18.08332729750640411, 1.500000000000000000, -18.88387998799759870 ) ) ;
#267 = DIRECTION ( 'NONE',  ( -1.133806193448893688E-16, 0.000000000000000000, -1.000000000000000000 ) ) ;
#268 = CARTESIAN_POINT ( 'NONE',  ( 19.79999999999999716, 3.500000000000000000, -15.29999999999999538 ) ) ;
#269 = DIRECTION ( 'NONE',  ( 0.000000000000000000, 0.000000000000000000, 1.000000000000000000 ) ) ;
#270 = CARTESIAN_POINT ( 'NONE',  ( -19.80000000000000782, 1.500000000000000000, 14.80000000000000249 ) ) ;
#271 = EDGE_CURVE ( 'NONE', #236, #55, #288, .T. ) ;
#272 = FACE_OUTER_BOUND ( 'NONE', #662, .T. ) ;
#273 = LINE ( 'NONE', #510, #339 ) ;
#274 = DIRECTION ( 'NONE',  ( -0.000000000000000000, 1.000000000000000000, -0.000000000000000000 ) ) ;
#275 = EDGE_CURVE ( 'NONE', #22, #282, #27, .T. ) ;
#276 = CARTESIAN_POINT ( 'NONE',  ( 19.80000000000000071, 3.500000000000000000, 17.30000000000000426 ) ) ;
#277 = CARTESIAN_POINT ( 'NONE',  ( -19.79999999999999716, 3.500000000000000000, -14.79999999999999538 ) ) ;
#278 = AXIS2_PLACEMENT_3D ( 'NONE', #277, #331, #568 ) ;
#279 = DIRECTION ( 'NONE',  ( -1.002730332934570521E-16, 0.000000000000000000, -1.000000000000000000 ) ) ;
#280 = CIRCLE ( 'NONE', #514, 0.5000000000000004441 ) ;
#281 = PLANE ( 'NONE',  #758 ) ;
#282 = VERTEX_POINT ( 'NONE', #359 ) ;
#283 = DIRECTION ( 'NONE',  ( 1.000000000000000000, 0.000000000000000000, -1.002730332934570397E-16 ) ) ;
#284 = DIRECTION ( 'NONE',  ( 0.000000000000000000, -1.000000000000000000, 0.000000000000000000 ) ) ;
#285 = ORIENTED_EDGE ( 'NONE', *, *, #86, .F. ) ;
#286 = PLANE ( 'NONE',  #67 ) ;
#287 = ORIENTED_EDGE ( 'NONE', *, *, #683, .T. ) ;
#288 = CIRCLE ( 'NONE', #423, 2.500000000000000444 ) ;
#289 = AXIS2_PLACEMENT_3D ( 'NONE', #612, #53, #191 ) ;
#290 = EDGE_CURVE ( 'NONE', #694, #674, #234, .T. ) ;
#291 = CARTESIAN_POINT ( 'NONE',  ( 22.30000000000000071, 0.000000000000000000, -2.236088642444092108E-15 ) ) ;
#292 = DIRECTION ( 'NONE',  ( 0.000000000000000000, 0.000000000000000000, 1.000000000000000000 ) ) ;
#293 = CARTESIAN_POINT ( 'NONE',  ( -22.73551995199040121, 3.500000000000000000, -17.05163996399279824 ) ) ;
#294 = ORIENTED_EDGE ( 'NONE', *, *, #388, .F. ) ;
#295 = DIRECTION ( 'NONE',  ( -0.000000000000000000, 1.000000000000000000, -0.000000000000000000 ) ) ;
#296 = ORIENTED_EDGE ( 'NONE', *, *, #86, .T. ) ;
#297 = AXIS2_PLACEMENT_3D ( 'NONE', #23, #283, #441 ) ;
#298 = DIRECTION ( 'NONE',  ( 0.000000000000000000, 0.000000000000000000, 1.000000000000000000 ) ) ;
#299 = ORIENTED_EDGE ( 'NONE', *, *, #730, .F. ) ;
#300 = EDGE_CURVE ( 'NONE', #304, #670, #755, .T. ) ;
#301 = AXIS2_PLACEMENT_3D ( 'NONE', #505, #206, #476 ) ;
#302 = ORIENTED_EDGE ( 'NONE', *, *, #739, .F. ) ;
#303 = FACE_OUTER_BOUND ( 'NONE', #119, .T. ) ;
#304 = VERTEX_POINT ( 'NONE', #94 ) ;
#305 = EDGE_CURVE ( 'NONE', #246, #193, #183, .T. ) ;
#306 = ORIENTED_EDGE ( 'NONE', *, *, #70, .T. ) ;
#307 = EDGE_CURVE ( 'NONE', #737, #644, #87, .T. ) ;
#308 = LINE ( 'NONE', #729, #69 ) ;
#309 = EDGE_CURVE ( 'NONE', #157, #650, #17, .T. ) ;
#310 = DIRECTION ( 'NONE',  ( 0.000000000000000000, 0.000000000000000000, 1.000000000000000000 ) ) ;
#311 = APPLICATION_PROTOCOL_DEFINITION ( 'draft international standard', 'automotive_design', 1998, #684 ) ;
#312 = ORIENTED_EDGE ( 'NONE', *, *, #584, .F. ) ;
#313 = ORIENTED_EDGE ( 'NONE', *, *, #92, .F. ) ;
#314 = CARTESIAN_POINT ( 'NONE',  ( 22.30000000000000071, 3.500000000000000000, -2.236088642444092503E-15 ) ) ;
#315 = ORIENTED_EDGE ( 'NONE', *, *, #719, .T. ) ;
#316 = DIRECTION ( 'NONE',  ( 0.000000000000000000, 0.000000000000000000, 1.000000000000000000 ) ) ;
#317 = ORIENTED_EDGE ( 'NONE', *, *, #179, .T. ) ;
#318 = CYLINDRICAL_SURFACE ( 'NONE', #691, 4.999999999999997335 ) ;
#319 = EDGE_CURVE ( 'NONE', #160, #494, #457, .T. ) ;
#320 = VECTOR ( 'NONE', #704, 1000.000000000000000 ) ;
#321 = DIRECTION ( 'NONE',  ( -1.000000000000000000, 0.000000000000000000, 0.000000000000000000 ) ) ;
#322 = EDGE_LOOP ( 'NONE', ( #123, #641, #299, #6 ) ) ;
#323 = CYLINDRICAL_SURFACE ( 'NONE', #325, 2.500000000000000444 ) ;
#324 = CLOSED_SHELL ( 'NONE', ( #504, #648, #398, #715, #564, #139, #465, #472, #783, #24, #657, #217, #83, #241, #517, #528, #247, #731, #163, #521, #49, #665, #458, #573 ) ) ;
#325 = AXIS2_PLACEMENT_3D ( 'NONE', #270, #555, #2 ) ;
#326 = CARTESIAN_POINT ( 'NONE',  ( -22.30000000000000782, 0.000000000000000000, 2.236088642444092897E-15 ) ) ;
#327 = DIRECTION ( 'NONE',  ( -0.000000000000000000, 1.000000000000000000, -0.000000000000000000 ) ) ;
#328 = CARTESIAN_POINT ( 'NONE',  ( 19.80000000000000071, 0.000000000000000000, 17.30000000000000426 ) ) ;
#329 = FACE_OUTER_BOUND ( 'NONE', #409, .T. ) ;
#330 = CARTESIAN_POINT ( 'NONE',  ( -20.29999999999999716, 1.500000000000000000, 14.80000000000000071 ) ) ;
#331 = DIRECTION ( 'NONE',  ( -0.000000000000000000, -1.000000000000000000, 0.000000000000000000 ) ) ;
#332 = PLANE ( 'NONE',  #113 ) ;
#333 = EDGE_CURVE ( 'NONE', #552, #479, #580, .T. ) ;
#334 = CARTESIAN_POINT ( 'NONE',  ( -20.29999999999999716, 1.500000000000000000, 14.80000000000000071 ) ) ;
#335 = VECTOR ( 'NONE', #740, 1000.000000000000000 ) ;
#336 = DIRECTION ( 'NONE',  ( 0.000000000000000000, 0.000000000000000000, -1.000000000000000000 ) ) ;
#337 = CARTESIAN_POINT ( 'NONE',  ( 0.000000000000000000, 1.500000000000000000, -17.30000000000000426 ) ) ;
#338 = FILL_AREA_STYLE_COLOUR ( '', #84 ) ;
#339 = VECTOR ( 'NONE', #745, 1000.000000000000000 ) ;
#340 = ORIENTED_EDGE ( 'NONE', *, *, #426, .T. ) ;
#341 = DIRECTION ( 'NONE',  ( 0.000000000000000000, 1.000000000000000000, -0.000000000000000000 ) ) ;
#342 = CIRCLE ( 'NONE', #710, 2.500000000000000444 ) ;
#343 = CARTESIAN_POINT ( 'NONE',  ( -24.11183998399680561, 3.500000000000000000, -12.24479659547143129 ) ) ;
#344 = ORIENTED_EDGE ( 'NONE', *, *, #752, .F. ) ;
#345 = DIRECTION ( 'NONE',  ( 0.000000000000000000, 1.000000000000000000, -0.000000000000000000 ) ) ;
#346 = ORIENTED_EDGE ( 'NONE', *, *, #275, .F. ) ;
#347 = EDGE_CURVE ( 'NONE', #479, #429, #164, .T. ) ;
#348 = DIRECTION ( 'NONE',  ( 0.000000000000000000, 1.000000000000000000, -0.000000000000000000 ) ) ;
#349 = DIRECTION ( 'NONE',  ( -0.000000000000000000, -1.000000000000000000, 0.000000000000000000 ) ) ;
#350 = PLANE ( 'NONE',  #557 ) ;
#351 = CIRCLE ( 'NONE', #585, 2.500000000000000444 ) ;
#352 = DIRECTION ( 'NONE',  ( 0.000000000000000000, 0.000000000000000000, 1.000000000000000000 ) ) ;
#353 = ORIENTED_EDGE ( 'NONE', *, *, #598, .F. ) ;
#354 = LINE ( 'NONE', #700, #556 ) ;
#355 = ORIENTED_EDGE ( 'NONE', *, *, #756, .F. ) ;
#356 =( LENGTH_UNIT ( ) NAMED_UNIT ( * ) SI_UNIT ( .MILLI., .METRE. ) );
#357 = EDGE_CURVE ( 'NONE', #265, #417, #512, .T. ) ;
#358 = ORIENTED_EDGE ( 'NONE', *, *, #235, .T. ) ;
#359 = CARTESIAN_POINT ( 'NONE',  ( 22.30000000000000071, 3.500000000000000000, -14.80000000000000249 ) ) ;
#360 = DIRECTION ( 'NONE',  ( -0.000000000000000000, 1.000000000000000000, -0.000000000000000000 ) ) ;
#361 = DIRECTION ( 'NONE',  ( 0.000000000000000000, 1.000000000000000000, -0.000000000000000000 ) ) ;
#362 = ORIENTED_EDGE ( 'NONE', *, *, #251, .F. ) ;
#363 = AXIS2_PLACEMENT_3D ( 'NONE', #779, #422, #623 ) ;
#364 = ORIENTED_EDGE ( 'NONE', *, *, #357, .F. ) ;
#365 = AXIS2_PLACEMENT_3D ( 'NONE', #595, #636, #535 ) ;
#366 = DIRECTION ( 'NONE',  ( 0.000000000000000000, 0.000000000000000000, -1.000000000000000000 ) ) ;
#367 = CYLINDRICAL_SURFACE ( 'NONE', #619, 0.5000000000000004441 ) ;
#368 = VECTOR ( 'NONE', #267, 1000.000000000000000 ) ;
#369 = EDGE_LOOP ( 'NONE', ( #353, #373, #502, #770 ) ) ;
#370 = DIRECTION ( 'NONE',  ( 1.000000000000000000, -0.000000000000000000, 0.000000000000000000 ) ) ;
#371 = ORIENTED_EDGE ( 'NONE', *, *, #604, .T. ) ;
#372 = AXIS2_PLACEMENT_3D ( 'NONE', #565, #71, #143 ) ;
#373 = ORIENTED_EDGE ( 'NONE', *, *, #134, .F. ) ;
#374 = DIRECTION ( 'NONE',  ( -0.000000000000000000, -1.000000000000000000, 0.000000000000000000 ) ) ;
#375 = EDGE_CURVE ( 'NONE', #775, #589, #509, .T. ) ;
#376 = ORIENTED_EDGE ( 'NONE', *, *, #426, .F. ) ;
#377 = CARTESIAN_POINT ( 'NONE',  ( 22.30000000000000071, 3.500000000000000000, 14.80000000000000249 ) ) ;
#378 = CARTESIAN_POINT ( 'NONE',  ( -18.08332729750640411, 3.500000000000000000, -18.88387998799759870 ) ) ;
#379 = ORIENTED_EDGE ( 'NONE', *, *, #778, .F. ) ;
#380 = CARTESIAN_POINT ( 'NONE',  ( 19.80000000000000071, 3.500000000000000000, 14.80000000000000249 ) ) ;
#381 = FACE_OUTER_BOUND ( 'NONE', #26, .T. ) ;
#382 = DIRECTION ( 'NONE',  ( 0.000000000000000000, -1.000000000000000000, 0.000000000000000000 ) ) ;
#383 = VECTOR ( 'NONE', #567, 1000.000000000000000 ) ;
#384 = CARTESIAN_POINT ( 'NONE',  ( 0.000000000000000000, 3.500000000000000000, -17.30000000000000426 ) ) ;
#385 = DIRECTION ( 'NONE',  ( -1.000000000000000000, 0.000000000000000000, 1.133806193448893935E-16 ) ) ;
#386 = DIRECTION ( 'NONE',  ( -0.000000000000000000, 1.000000000000000000, -0.000000000000000000 ) ) ;
#387 =( NAMED_UNIT ( * ) SI_UNIT ( $, .STERADIAN. ) SOLID_ANGLE_UNIT ( ) );
#388 = EDGE_CURVE ( 'NONE', #153, #737, #118, .T. ) ;
#389 = DIRECTION ( 'NONE',  ( 1.133806193448893935E-16, 0.000000000000000000, 1.000000000000000000 ) ) ;
#390 = CARTESIAN_POINT ( 'NONE',  ( 19.79999999999999716, 1.500000000000000000, -14.79999999999999538 ) ) ;
#391 = DIRECTION ( 'NONE',  ( 0.000000000000000000, 1.000000000000000000, -0.000000000000000000 ) ) ;
#392 = DIRECTION ( 'NONE',  ( 0.000000000000000000, 1.000000000000000000, -0.000000000000000000 ) ) ;
#393 = AXIS2_PLACEMENT_3D ( 'NONE', #430, #186, #553 ) ;
#394 = CARTESIAN_POINT ( 'NONE',  ( -15.75723097026440378, 3.500000000000000000, -17.30000000000000426 ) ) ;
#395 =( GEOMETRIC_REPRESENTATION_CONTEXT ( 3 ) GLOBAL_UNCERTAINTY_ASSIGNED_CONTEXT ( ( #428 ) ) GLOBAL_UNIT_ASSIGNED_CONTEXT ( ( #81, #751, #387 ) ) REPRESENTATION_CONTEXT ( 'NONE', 'WORKASPACE' ) );
#396 = VECTOR ( 'NONE', #592, 1000.000000000000000 ) ;
#397 = ORIENTED_EDGE ( 'NONE', *, *, #309, .F. ) ;
#398 = ADVANCED_FACE ( 'NONE', ( #272 ), #676, .T. ) ;
#399 = CARTESIAN_POINT ( 'NONE',  ( -18.08332729750640411, 0.000000000000000000, -18.88387998799759870 ) ) ;
#400 = CIRCLE ( 'NONE', #126, 0.5000000000000004441 ) ;
#401 = CARTESIAN_POINT ( 'NONE',  ( 19.80000000000000071, 3.500000000000000000, -14.80000000000000249 ) ) ;
#402 = CARTESIAN_POINT ( 'NONE',  ( -20.29999999999999716, 1.500000000000000000, -14.79999999999999538 ) ) ;
#403 = ORIENTED_EDGE ( 'NONE', *, *, #695, .F. ) ;
#404 = DIRECTION ( 'NONE',  ( 0.000000000000000000, 0.000000000000000000, 1.000000000000000000 ) ) ;
#405 = ORIENTED_EDGE ( 'NONE', *, *, #778, .T. ) ;
#406 = EDGE_CURVE ( 'NONE', #764, #701, #744, .T. ) ;
#407 = ORIENTED_EDGE ( 'NONE', *, *, #739, .T. ) ;
#408 = DIRECTION ( 'NONE',  ( 0.000000000000000000, 0.000000000000000000, 1.000000000000000000 ) ) ;
#409 = EDGE_LOOP ( 'NONE', ( #100, #614, #727, #540 ) ) ;
#410 = EDGE_CURVE ( 'NONE', #658, #773, #660, .T. ) ;
#411 = CARTESIAN_POINT ( 'NONE',  ( -20.29999999999999716, 1.500000000000000000, 0.000000000000000000 ) ) ;
#412 = ORIENTED_EDGE ( 'NONE', *, *, #70, .F. ) ;
#413 = CARTESIAN_POINT ( 'NONE',  ( 19.79999999999999716, 3.500000000000000000, -14.79999999999999538 ) ) ;
#414 = AXIS2_PLACEMENT_3D ( 'NONE', #293, #416, #647 ) ;
#415 = VERTEX_POINT ( 'NONE', #576 ) ;
#416 = DIRECTION ( 'NONE',  ( 0.000000000000000000, 1.000000000000000000, -0.000000000000000000 ) ) ;
#417 = VERTEX_POINT ( 'NONE', #334 ) ;
#418 = DIRECTION ( 'NONE',  ( 1.000000000000000000, 0.000000000000000000, -0.000000000000000000 ) ) ;
#419 = DIRECTION ( 'NONE',  ( -0.000000000000000000, -1.000000000000000000, 0.000000000000000000 ) ) ;
#420 = ORIENTED_EDGE ( 'NONE', *, *, #598, .T. ) ;
#421 = VECTOR ( 'NONE', #668, 1000.000000000000000 ) ;
#422 = DIRECTION ( 'NONE',  ( -0.000000000000000000, -1.000000000000000000, 0.000000000000000000 ) ) ;
#423 = AXIS2_PLACEMENT_3D ( 'NONE', #90, #345, #404 ) ;
#424 = CIRCLE ( 'NONE', #289, 4.999999999999997335 ) ;
#425 = EDGE_LOOP ( 'NONE', ( #355, #403 ) ) ;
#426 = EDGE_CURVE ( 'NONE', #236, #180, #735, .T. ) ;
#427 = DIRECTION ( 'NONE',  ( 0.000000000000000000, 0.000000000000000000, 1.000000000000000000 ) ) ;
#428 = UNCERTAINTY_MEASURE_WITH_UNIT (LENGTH_MEASURE( 1.000000000000000082E-05 ), #81, 'distance_accuracy_value', 'NONE');
#429 = VERTEX_POINT ( 'NONE', #748 ) ;
#430 = CARTESIAN_POINT ( 'NONE',  ( -22.73551995199040121, -1.200000000000000030E-05, -17.05163996399279824 ) ) ;
#431 = VERTEX_POINT ( 'NONE', #616 ) ;
#432 = VERTEX_POINT ( 'NONE', #571 ) ;
#433 = DIRECTION ( 'NONE',  ( 1.000000000000000000, 0.000000000000000000, -1.002730332934570397E-16 ) ) ;
#434 = ORIENTED_EDGE ( 'NONE', *, *, #12, .F. ) ;
#435 = STYLED_ITEM ( 'NONE', ( #628 ), #96 ) ;
#436 = ORIENTED_EDGE ( 'NONE', *, *, #159, .F. ) ;
#437 = CARTESIAN_POINT ( 'NONE',  ( 19.79999999999999716, 3.500000000000000000, 14.80000000000000071 ) ) ;
#438 = CIRCLE ( 'NONE', #242, 0.5000000000000004441 ) ;
#439 = VERTEX_POINT ( 'NONE', #20 ) ;
#440 = DIRECTION ( 'NONE',  ( -0.000000000000000000, -1.000000000000000000, -0.000000000000000000 ) ) ;
#441 = DIRECTION ( 'NONE',  ( -1.002730332934570397E-16, 0.000000000000000000, -1.000000000000000000 ) ) ;
#442 = CARTESIAN_POINT ( 'NONE',  ( -22.73551995199040121, 1.500000000000000000, -22.05163996399279824 ) ) ;
#443 = DIRECTION ( 'NONE',  ( 0.000000000000000000, 1.000000000000000000, -0.000000000000000000 ) ) ;
#444 = ORIENTED_EDGE ( 'NONE', *, *, #788, .T. ) ;
#445 = CYLINDRICAL_SURFACE ( 'NONE', #116, 4.999999999999997335 ) ;
#446 = CARTESIAN_POINT ( 'NONE',  ( -15.75723097026440378, 0.000000000000000000, -19.80000000000000071 ) ) ;
#447 = LINE ( 'NONE', #442, #732 ) ;
#448 = AXIS2_PLACEMENT_3D ( 'NONE', #768, #229, #408 ) ;
#449 = DIRECTION ( 'NONE',  ( -1.000000000000000000, 0.000000000000000000, 0.000000000000000000 ) ) ;
#450 = LINE ( 'NONE', #266, #600 ) ;
#451 = CIRCLE ( 'NONE', #98, 2.500000000000000444 ) ;
#452 = DIRECTION ( 'NONE',  ( 0.000000000000000000, 1.000000000000000000, -0.000000000000000000 ) ) ;
#453 = PLANE ( 'NONE',  #54 ) ;
#454 = DIRECTION ( 'NONE',  ( 0.000000000000000000, 0.000000000000000000, -1.000000000000000000 ) ) ;
#455 = CARTESIAN_POINT ( 'NONE',  ( -24.80000000000000782, 1.500000000000000000, -9.841374911210742482 ) ) ;
#456 = SURFACE_SIDE_STYLE ('',( #146 ) ) ;
#457 = LINE ( 'NONE', #276, #50 ) ;
#458 = ADVANCED_FACE ( 'NONE', ( #515 ), #215, .F. ) ;
#459 = ORIENTED_EDGE ( 'NONE', *, *, #683, .F. ) ;
#460 = CARTESIAN_POINT ( 'NONE',  ( -22.30000000000000782, 3.500000000000000000, 14.80000000000000249 ) ) ;
#461 = AXIS2_PLACEMENT_3D ( 'NONE', #495, #544, #427 ) ;
#462 = AXIS2_PLACEMENT_3D ( 'NONE', #260, #499, #615 ) ;
#463 = VERTEX_POINT ( 'NONE', #394 ) ;
#464 = DIRECTION ( 'NONE',  ( 0.000000000000000000, -0.000000000000000000, 1.000000000000000000 ) ) ;
#465 = ADVANCED_FACE ( 'NONE', ( #381 ), #631, .T. ) ;
#466 = EDGE_LOOP ( 'NONE', ( #459, #233, #583, #194 ) ) ;
#467 = CARTESIAN_POINT ( 'NONE',  ( 0.000000000000000000, 0.000000000000000000, 0.000000000000000000 ) ) ;
#468 = VERTEX_POINT ( 'NONE', #132 ) ;
#469 = DIRECTION ( 'NONE',  ( -0.000000000000000000, 1.000000000000000000, -0.000000000000000000 ) ) ;
#470 = VECTOR ( 'NONE', #13, 1000.000000000000000 ) ;
#471 = ORIENTED_EDGE ( 'NONE', *, *, #121, .F. ) ;
#472 = ADVANCED_FACE ( 'NONE', ( #66, #562 ), #8, .F. ) ;
#473 = CARTESIAN_POINT ( 'NONE',  ( 19.79999999999999716, 3.500000000000000000, 14.80000000000000071 ) ) ;
#474 = ORIENTED_EDGE ( 'NONE', *, *, #730, .T. ) ;
#475 = DIRECTION ( 'NONE',  ( 1.000000000000000000, 0.000000000000000000, -0.000000000000000000 ) ) ;
#476 = DIRECTION ( 'NONE',  ( 0.000000000000000000, 0.000000000000000000, 1.000000000000000000 ) ) ;
#477 = MECHANICAL_DESIGN_GEOMETRIC_PRESENTATION_REPRESENTATION (  '', ( #435 ), #395 ) ;
#478 = DIRECTION ( 'NONE',  ( 0.000000000000000000, 1.000000000000000000, -0.000000000000000000 ) ) ;
#479 = VERTEX_POINT ( 'NONE', #195 ) ;
#480 = ORIENTED_EDGE ( 'NONE', *, *, #271, .T. ) ;
#481 = FACE_BOUND ( 'NONE', #425, .T. ) ;
#482 = ORIENTED_EDGE ( 'NONE', *, *, #542, .F. ) ;
#483 = DIRECTION ( 'NONE',  ( 1.000000000000000000, -0.000000000000000000, 0.000000000000000000 ) ) ;
#484 = EDGE_CURVE ( 'NONE', #265, #431, #492, .T. ) ;
#485 = ORIENTED_EDGE ( 'NONE', *, *, #333, .F. ) ;
#486 = CARTESIAN_POINT ( 'NONE',  ( -20.29999999999999716, 3.500000000000000000, 0.000000000000000000 ) ) ;
#487 = AXIS2_PLACEMENT_3D ( 'NONE', #501, #443, #763 ) ;
#488 = CIRCLE ( 'NONE', #461, 0.5000000000000004441 ) ;
#489 = DIRECTION ( 'NONE',  ( 0.000000000000000000, 0.000000000000000000, -1.000000000000000000 ) ) ;
#490 = ORIENTED_EDGE ( 'NONE', *, *, #35, .T. ) ;
#491 = ORIENTED_EDGE ( 'NONE', *, *, #300, .F. ) ;
#492 = LINE ( 'NONE', #486, #421 ) ;
#493 = EDGE_CURVE ( 'NONE', #193, #439, #250, .T. ) ;
#494 = VERTEX_POINT ( 'NONE', #547 ) ;
#495 = CARTESIAN_POINT ( 'NONE',  ( 19.79999999999999716, 1.500000000000000000, 14.80000000000000071 ) ) ;
#496 = VECTOR ( 'NONE', #205, 1000.000000000000000 ) ;
#497 = CIRCLE ( 'NONE', #278, 0.5000000000000004441 ) ;
#498 = ORIENTED_EDGE ( 'NONE', *, *, #114, .T. ) ;
#499 = DIRECTION ( 'NONE',  ( 0.000000000000000000, 1.000000000000000000, -0.000000000000000000 ) ) ;
#500 = VECTOR ( 'NONE', #284, 1000.000000000000000 ) ;
#501 = CARTESIAN_POINT ( 'NONE',  ( -22.73551995199040121, 0.000000000000000000, -17.05163996399279824 ) ) ;
#502 = ORIENTED_EDGE ( 'NONE', *, *, #305, .F. ) ;
#503 = DIRECTION ( 'NONE',  ( -0.000000000000000000, -1.000000000000000000, -0.000000000000000000 ) ) ;
#504 = ADVANCED_FACE ( 'NONE', ( #51 ), #128, .F. ) ;
#505 = CARTESIAN_POINT ( 'NONE',  ( 0.000000000000000000, 0.000000000000000000, 0.000000000000000000 ) ) ;
#506 = CARTESIAN_POINT ( 'NONE',  ( 19.80000000000000071, 0.000000000000000000, 14.80000000000000249 ) ) ;
#507 = LINE ( 'NONE', #736, #169 ) ;
#508 = LINE ( 'NONE', #743, #396 ) ;
#509 = LINE ( 'NONE', #672, #470 ) ;
#510 = CARTESIAN_POINT ( 'NONE',  ( -15.75723097026440378, 1.500000000000000000, -17.30000000000000426 ) ) ;
#511 = DIRECTION ( 'NONE',  ( 0.000000000000000000, 1.000000000000000000, -0.000000000000000000 ) ) ;
#512 = LINE ( 'NONE', #330, #335 ) ;
#513 = DIRECTION ( 'NONE',  ( -0.000000000000000000, 0.000000000000000000, 1.000000000000000000 ) ) ;
#514 = AXIS2_PLACEMENT_3D ( 'NONE', #765, #103, #702 ) ;
#515 = FACE_OUTER_BOUND ( 'NONE', #322, .T. ) ;
#516 = DIRECTION ( 'NONE',  ( 0.000000000000000000, 1.000000000000000000, 0.000000000000000000 ) ) ;
#517 = ADVANCED_FACE ( 'NONE', ( #787 ), #785, .F. ) ;
#518 = ORIENTED_EDGE ( 'NONE', *, *, #156, .T. ) ;
#519 = CARTESIAN_POINT ( 'NONE',  ( 0.000000000000000000, 3.500000000000000000, -15.29999999999999538 ) ) ;
#520 = EDGE_LOOP ( 'NONE', ( #412, #605, #104, #757 ) ) ;
#521 = ADVANCED_FACE ( 'NONE', ( #781 ), #606, .T. ) ;
#522 = AXIS2_PLACEMENT_3D ( 'NONE', #413, #349, #760 ) ;
#523 = CARTESIAN_POINT ( 'NONE',  ( 22.30000000000000071, 1.500000000000000000, -14.80000000000000249 ) ) ;
#524 = AXIS2_PLACEMENT_3D ( 'NONE', #162, #33, #292 ) ;
#525 = AXIS2_PLACEMENT_3D ( 'NONE', #656, #433, #117 ) ;
#526 = ORIENTED_EDGE ( 'NONE', *, *, #227, .T. ) ;
#527 = DIRECTION ( 'NONE',  ( 0.000000000000000000, 0.000000000000000000, 1.000000000000000000 ) ) ;
#528 = ADVANCED_FACE ( 'NONE', ( #609 ), #367, .F. ) ;
#529 = ORIENTED_EDGE ( 'NONE', *, *, #275, .T. ) ;
#530 = CARTESIAN_POINT ( 'NONE',  ( -19.79999999999999716, 3.500000000000000000, -15.29999999999999538 ) ) ;
#531 = ORIENTED_EDGE ( 'NONE', *, *, #780, .T. ) ;
#532 = FACE_OUTER_BOUND ( 'NONE', #611, .T. ) ;
#533 = AXIS2_PLACEMENT_3D ( 'NONE', #624, #452, #148 ) ;
#534 = ORIENTED_EDGE ( 'NONE', *, *, #263, .T. ) ;
#535 = DIRECTION ( 'NONE',  ( 0.000000000000000000, 0.000000000000000000, -1.000000000000000000 ) ) ;
#536 = ORIENTED_EDGE ( 'NONE', *, *, #156, .F. ) ;
#537 = EDGE_CURVE ( 'NONE', #670, #479, #248, .T. ) ;
#538 = VERTEX_POINT ( 'NONE', #377 ) ;
#539 = DIRECTION ( 'NONE',  ( 0.000000000000000000, -0.000000000000000000, -1.000000000000000000 ) ) ;
#540 = ORIENTED_EDGE ( 'NONE', *, *, #635, .F. ) ;
#541 = DIRECTION ( 'NONE',  ( -0.000000000000000000, -1.000000000000000000, -0.000000000000000000 ) ) ;
#542 = EDGE_CURVE ( 'NONE', #175, #658, #424, .T. ) ;
#543 = ORIENTED_EDGE ( 'NONE', *, *, #493, .T. ) ;
#544 = DIRECTION ( 'NONE',  ( 0.000000000000000000, 1.000000000000000000, -0.000000000000000000 ) ) ;
#545 = PRODUCT_CONTEXT ( 'NONE', #741, 'mechanical' ) ;
#546 = PRODUCT_RELATED_PRODUCT_CATEGORY ( 'part', '', ( #208 ) ) ;
#547 = CARTESIAN_POINT ( 'NONE',  ( 19.80000000000000071, 3.500000000000000000, 17.30000000000000426 ) ) ;
#548 = ORIENTED_EDGE ( 'NONE', *, *, #319, .T. ) ;
#549 = EDGE_CURVE ( 'NONE', #674, #552, #488, .T. ) ;
#550 = ORIENTED_EDGE ( 'NONE', *, *, #746, .T. ) ;
#551 = DIRECTION ( 'NONE',  ( -1.002730332934570521E-16, 0.000000000000000000, -1.000000000000000000 ) ) ;
#552 = VERTEX_POINT ( 'NONE', #62 ) ;
#553 = DIRECTION ( 'NONE',  ( 0.000000000000000000, 0.000000000000000000, 1.000000000000000000 ) ) ;
#554 = EDGE_LOOP ( 'NONE', ( #91, #434, #253, #85 ) ) ;
#555 = DIRECTION ( 'NONE',  ( 0.000000000000000000, -1.000000000000000000, 0.000000000000000000 ) ) ;
#556 = VECTOR ( 'NONE', #469, 1000.000000000000000 ) ;
#557 = AXIS2_PLACEMENT_3D ( 'NONE', #594, #176, #418 ) ;
#558 = CIRCLE ( 'NONE', #31, 2.499999999999998668 ) ;
#559 = CYLINDRICAL_SURFACE ( 'NONE', #111, 2.999999999999997335 ) ;
#560 = ORIENTED_EDGE ( 'NONE', *, *, #12, .T. ) ;
#561 = CARTESIAN_POINT ( 'NONE',  ( -22.30000000000000782, 0.000000000000000000, 14.80000000000000249 ) ) ;
#562 = FACE_OUTER_BOUND ( 'NONE', #130, .T. ) ;
#563 = CARTESIAN_POINT ( 'NONE',  ( 0.000000000000000000, 3.500000000000000000, 15.30000000000000071 ) ) ;
#564 = ADVANCED_FACE ( 'NONE', ( #115 ), #245, .F. ) ;
#565 = CARTESIAN_POINT ( 'NONE',  ( -22.73551995199040121, 0.000000000000000000, -17.05163996399279824 ) ) ;
#566 = LINE ( 'NONE', #72, #261 ) ;
#567 = DIRECTION ( 'NONE',  ( -0.000000000000000000, 1.000000000000000000, -0.000000000000000000 ) ) ;
#568 = DIRECTION ( 'NONE',  ( 0.000000000000000000, 0.000000000000000000, 1.000000000000000000 ) ) ;
#569 = AXIS2_PLACEMENT_3D ( 'NONE', #337, #622, #73 ) ;
#570 = CARTESIAN_POINT ( 'NONE',  ( 20.29999999999999716, 3.500000000000000000, -14.79999999999999538 ) ) ;
#571 = CARTESIAN_POINT ( 'NONE',  ( -24.11183998399680561, 0.000000000000000000, -12.24479659547143129 ) ) ;
#572 = LINE ( 'NONE', #625, #223 ) ;
#573 = ADVANCED_FACE ( 'NONE', ( #59 ), #663, .F. ) ;
#574 = EDGE_CURVE ( 'NONE', #198, #160, #602, .T. ) ;
#575 = PRESENTATION_LAYER_ASSIGNMENT (  '', '', ( #435 ) ) ;
#576 = CARTESIAN_POINT ( 'NONE',  ( 19.80000000000000071, 3.500000000000000000, -17.30000000000000426 ) ) ;
#577 = DIRECTION ( 'NONE',  ( -0.000000000000000000, -1.000000000000000000, -0.000000000000000000 ) ) ;
#578 = AXIS2_PLACEMENT_3D ( 'NONE', #467, #698, #252 ) ;
#579 = ORIENTED_EDGE ( 'NONE', *, *, #388, .T. ) ;
#580 = LINE ( 'NONE', #686, #368 ) ;
#581 = ORIENTED_EDGE ( 'NONE', *, *, #235, .F. ) ;
#582 = DIRECTION ( 'NONE',  ( 1.002730332934570397E-16, 0.000000000000000000, 1.000000000000000000 ) ) ;
#583 = ORIENTED_EDGE ( 'NONE', *, *, #114, .F. ) ;
#584 = EDGE_CURVE ( 'NONE', #538, #282, #48, .T. ) ;
#585 = AXIS2_PLACEMENT_3D ( 'NONE', #221, #155, #527 ) ;
#586 = CARTESIAN_POINT ( 'NONE',  ( 0.000000000000000000, 1.500000000000000000, -15.29999999999999538 ) ) ;
#587 = CYLINDRICAL_SURFACE ( 'NONE', #524, 2.500000000000000444 ) ;
#588 = CARTESIAN_POINT ( 'NONE',  ( -22.73551995199040121, 3.500000000000000000, -17.05163996399279824 ) ) ;
#589 = VERTEX_POINT ( 'NONE', #254 ) ;
#590 = FACE_OUTER_BOUND ( 'NONE', #629, .T. ) ;
#591 = ORIENTED_EDGE ( 'NONE', *, *, #263, .F. ) ;
#592 = DIRECTION ( 'NONE',  ( -0.000000000000000000, -1.000000000000000000, -0.000000000000000000 ) ) ;
#593 = ORIENTED_EDGE ( 'NONE', *, *, #251, .T. ) ;
#594 = CARTESIAN_POINT ( 'NONE',  ( 0.000000000000000000, 3.500000000000000000, 15.30000000000000071 ) ) ;
#595 = CARTESIAN_POINT ( 'NONE',  ( -19.79999999999999716, 3.500000000000000000, -14.79999999999999538 ) ) ;
#596 = AXIS2_PLACEMENT_3D ( 'NONE', #437, #257, #489 ) ;
#597 = ORIENTED_EDGE ( 'NONE', *, *, #92, .T. ) ;
#598 = EDGE_CURVE ( 'NONE', #463, #175, #558, .T. ) ;
#599 = AXIS2_PLACEMENT_3D ( 'NONE', #120, #541, #366 ) ;
#600 = VECTOR ( 'NONE', #503, 1000.000000000000000 ) ;
#601 = ORIENTED_EDGE ( 'NONE', *, *, #410, .F. ) ;
#602 = LINE ( 'NONE', #181, #720 ) ;
#603 = CARTESIAN_POINT ( 'NONE',  ( 19.80000000000000071, 1.500000000000000000, -14.80000000000000249 ) ) ;
#604 = EDGE_CURVE ( 'NONE', #721, #431, #308, .T. ) ;
#605 = ORIENTED_EDGE ( 'NONE', *, *, #290, .T. ) ;
#606 = CYLINDRICAL_SURFACE ( 'NONE', #19, 2.500000000000000444 ) ;
#607 = VECTOR ( 'NONE', #679, 1000.000000000000000 ) ;
#608 = ORIENTED_EDGE ( 'NONE', *, *, #484, .T. ) ;
#609 = FACE_OUTER_BOUND ( 'NONE', #122, .T. ) ;
#610 = VECTOR ( 'NONE', #539, 1000.000000000000000 ) ;
#611 = EDGE_LOOP ( 'NONE', ( #220, #102, #239, #225, #593, #550, #379, #228 ) ) ;
#612 = CARTESIAN_POINT ( 'NONE',  ( -22.73551995199040121, 3.500000000000000000, -17.05163996399279824 ) ) ;
#613 = CARTESIAN_POINT ( 'NONE',  ( -22.30000000000000782, 3.500000000000000000, -9.841374911210742482 ) ) ;
#614 = ORIENTED_EDGE ( 'NONE', *, *, #669, .F. ) ;
#615 = DIRECTION ( 'NONE',  ( 0.000000000000000000, 0.000000000000000000, 1.000000000000000000 ) ) ;
#616 = CARTESIAN_POINT ( 'NONE',  ( -20.29999999999999716, 3.500000000000000000, -14.79999999999999538 ) ) ;
#617 = EDGE_CURVE ( 'NONE', #198, #701, #152, .T. ) ;
#618 = AXIS2_PLACEMENT_3D ( 'NONE', #446, #391, #137 ) ;
#619 = AXIS2_PLACEMENT_3D ( 'NONE', #722, #653, #310 ) ;
#620 = CARTESIAN_POINT ( 'NONE',  ( -22.73551995199040121, -1.200000000000000030E-05, -17.05163996399279824 ) ) ;
#621 = CARTESIAN_POINT ( 'NONE',  ( -22.30000000000000782, 1.500000000000000000, 14.80000000000000249 ) ) ;
#622 = DIRECTION ( 'NONE',  ( 0.000000000000000000, 0.000000000000000000, -1.000000000000000000 ) ) ;
#623 = DIRECTION ( 'NONE',  ( 0.000000000000000000, 0.000000000000000000, 1.000000000000000000 ) ) ;
#624 = CARTESIAN_POINT ( 'NONE',  ( -22.73551995199040121, 3.500000000000000000, -17.05163996399279824 ) ) ;
#625 = CARTESIAN_POINT ( 'NONE',  ( -24.11183998399680561, 1.500000000000000000, -12.24479659547142774 ) ) ;
#626 = EDGE_CURVE ( 'NONE', #674, #157, #199, .T. ) ;
#627 = DIRECTION ( 'NONE',  ( 0.000000000000000000, 0.000000000000000000, 1.000000000000000000 ) ) ;
#628 = PRESENTATION_STYLE_ASSIGNMENT (( #140 ) ) ;
#629 = EDGE_LOOP ( 'NONE', ( #362, #244, #317, #649 ) ) ;
#630 = CIRCLE ( 'NONE', #44, 2.500000000000000444 ) ;
#631 = PLANE ( 'NONE',  #297 ) ;
#632 = ORIENTED_EDGE ( 'NONE', *, *, #179, .F. ) ;
#633 = LINE ( 'NONE', #642, #320 ) ;
#634 = VERTEX_POINT ( 'NONE', #210 ) ;
#635 = EDGE_CURVE ( 'NONE', #55, #198, #566, .T. ) ;
#636 = DIRECTION ( 'NONE',  ( 0.000000000000000000, -1.000000000000000000, 0.000000000000000000 ) ) ;
#637 = ORIENTED_EDGE ( 'NONE', *, *, #617, .T. ) ;
#638 = DIRECTION ( 'NONE',  ( 0.000000000000000000, -1.000000000000000000, 0.000000000000000000 ) ) ;
#639 = ORIENTED_EDGE ( 'NONE', *, *, #134, .T. ) ;
#640 = FACE_BOUND ( 'NONE', #256, .T. ) ;
#641 = ORIENTED_EDGE ( 'NONE', *, *, #56, .F. ) ;
#642 = CARTESIAN_POINT ( 'NONE',  ( 20.29999999999999716, 3.500000000000000000, -2.301626572701254308E-15 ) ) ;
#643 = EDGE_LOOP ( 'NONE', ( #709, #703, #340, #315 ) ) ;
#644 = VERTEX_POINT ( 'NONE', #144 ) ;
#645 = CARTESIAN_POINT ( 'NONE',  ( 0.000000000000000000, 1.500000000000000000, 0.000000000000000000 ) ) ;
#646 = LINE ( 'NONE', #106, #141 ) ;
#647 = DIRECTION ( 'NONE',  ( 0.000000000000000000, 0.000000000000000000, 1.000000000000000000 ) ) ;
#648 = ADVANCED_FACE ( 'NONE', ( #680 ), #318, .T. ) ;
#649 = ORIENTED_EDGE ( 'NONE', *, *, #375, .T. ) ;
#650 = VERTEX_POINT ( 'NONE', #65 ) ;
#651 = ORIENTED_EDGE ( 'NONE', *, *, #300, .T. ) ;
#652 = VECTOR ( 'NONE', #161, 1000.000000000000000 ) ;
#653 = DIRECTION ( 'NONE',  ( 0.000000000000000000, 1.000000000000000000, 0.000000000000000000 ) ) ;
#654 = VECTOR ( 'NONE', #687, 1000.000000000000000 ) ;
#655 = VECTOR ( 'NONE', #274, 1000.000000000000000 ) ;
#656 = CARTESIAN_POINT ( 'NONE',  ( -22.30000000000000782, 1.500000000000000000, 2.236088642444092897E-15 ) ) ;
#657 = ADVANCED_FACE ( 'NONE', ( #734 ), #332, .T. ) ;
#658 = VERTEX_POINT ( 'NONE', #671 ) ;
#659 = CARTESIAN_POINT ( 'NONE',  ( 20.29999999999999716, 1.500000000000000000, -14.79999999999999538 ) ) ;
#660 = CIRCLE ( 'NONE', #533, 4.999999999999997335 ) ;
#661 = ORIENTED_EDGE ( 'NONE', *, *, #159, .T. ) ;
#662 = EDGE_LOOP ( 'NONE', ( #536, #407, #58, #639 ) ) ;
#663 = CYLINDRICAL_SURFACE ( 'NONE', #599, 2.499999999999998668 ) ;
#664 = AXIS2_PLACEMENT_3D ( 'NONE', #149, #392, #749 ) ;
#665 = ADVANCED_FACE ( 'NONE', ( #329 ), #323, .T. ) ;
#666 = ORIENTED_EDGE ( 'NONE', *, *, #635, .T. ) ;
#667 = ORIENTED_EDGE ( 'NONE', *, *, #150, .T. ) ;
#668 = DIRECTION ( 'NONE',  ( 0.000000000000000000, -0.000000000000000000, -1.000000000000000000 ) ) ;
#669 = EDGE_CURVE ( 'NONE', #701, #236, #131, .T. ) ;
#670 = VERTEX_POINT ( 'NONE', #570 ) ;
#671 = CARTESIAN_POINT ( 'NONE',  ( -22.73551995199040121, 3.500000000000000000, -22.05163996399279824 ) ) ;
#672 = CARTESIAN_POINT ( 'NONE',  ( -19.79999999999999716, 3.500000000000000000, -15.29999999999999538 ) ) ;
#673 = DIRECTION ( 'NONE',  ( -1.000000000000000000, 0.000000000000000000, -0.000000000000000000 ) ) ;
#674 = VERTEX_POINT ( 'NONE', #16 ) ;
#675 = CARTESIAN_POINT ( 'NONE',  ( -22.73551995199040121, 1.500000000000000000, -17.05163996399279824 ) ) ;
#676 = PLANE ( 'NONE',  #569 ) ;
#677 = CARTESIAN_POINT ( 'NONE',  ( -20.29999999999999716, 3.500000000000000000, 0.000000000000000000 ) ) ;
#678 = VECTOR ( 'NONE', #582, 1000.000000000000000 ) ;
#679 = DIRECTION ( 'NONE',  ( -1.000000000000000000, 0.000000000000000000, 0.000000000000000000 ) ) ;
#680 = FACE_OUTER_BOUND ( 'NONE', #172, .T. ) ;
#681 = DIRECTION ( 'NONE',  ( -0.000000000000000000, 1.000000000000000000, -0.000000000000000000 ) ) ;
#682 = CARTESIAN_POINT ( 'NONE',  ( -19.80000000000000782, 3.500000000000000000, 17.30000000000000426 ) ) ;
#683 = EDGE_CURVE ( 'NONE', #494, #538, #759, .T. ) ;
#684 = APPLICATION_CONTEXT ( 'automotive_design' ) ;
#685 = CARTESIAN_POINT ( 'NONE',  ( 20.29999999999999716, 3.500000000000000000, -2.301626572701254308E-15 ) ) ;
#686 = CARTESIAN_POINT ( 'NONE',  ( 20.29999999999999716, 1.500000000000000000, -2.301626572701254308E-15 ) ) ;
#687 = DIRECTION ( 'NONE',  ( -1.000000000000000000, 0.000000000000000000, 0.000000000000000000 ) ) ;
#688 = DIRECTION ( 'NONE',  ( -0.000000000000000000, -1.000000000000000000, -0.000000000000000000 ) ) ;
#689 = DIRECTION ( 'NONE',  ( -1.000000000000000000, 0.000000000000000000, -0.000000000000000000 ) ) ;
#690 = ORIENTED_EDGE ( 'NONE', *, *, #202, .F. ) ;
#691 = AXIS2_PLACEMENT_3D ( 'NONE', #147, #440, #454 ) ;
#692 = LINE ( 'NONE', #291, #678 ) ;
#693 = AXIS2_PLACEMENT_3D ( 'NONE', #712, #361, #298 ) ;
#694 = VERTEX_POINT ( 'NONE', #7 ) ;
#695 = EDGE_CURVE ( 'NONE', #644, #468, #45, .T. ) ;
#696 = DIRECTION ( 'NONE',  ( 0.000000000000000000, 0.000000000000000000, 1.000000000000000000 ) ) ;
#697 = FACE_OUTER_BOUND ( 'NONE', #466, .T. ) ;
#698 = DIRECTION ( 'NONE',  ( 0.000000000000000000, 0.000000000000000000, 1.000000000000000000 ) ) ;
#699 = ORIENTED_EDGE ( 'NONE', *, *, #307, .F. ) ;
#700 = CARTESIAN_POINT ( 'NONE',  ( -22.73551995199040121, -1.200000000000000030E-05, -14.05163996399280180 ) ) ;
#701 = VERTEX_POINT ( 'NONE', #561 ) ;
#702 = DIRECTION ( 'NONE',  ( 0.000000000000000000, 0.000000000000000000, 1.000000000000000000 ) ) ;
#703 = ORIENTED_EDGE ( 'NONE', *, *, #669, .T. ) ;
#704 = DIRECTION ( 'NONE',  ( -1.133806193448893688E-16, 0.000000000000000000, -1.000000000000000000 ) ) ;
#705 = CIRCLE ( 'NONE', #372, 4.999999999999997335 ) ;
#706 = EDGE_LOOP ( 'NONE', ( #28, #1, #405, #371 ) ) ;
#707 = EDGE_CURVE ( 'NONE', #175, #246, #450, .T. ) ;
#708 = CARTESIAN_POINT ( 'NONE',  ( -19.79999999999999716, 1.500000000000000000, 14.80000000000000071 ) ) ;
#709 = ORIENTED_EDGE ( 'NONE', *, *, #406, .T. ) ;
#710 = AXIS2_PLACEMENT_3D ( 'NONE', #25, #419, #168 ) ;
#711 = ORIENTED_EDGE ( 'NONE', *, *, #707, .T. ) ;
#712 = CARTESIAN_POINT ( 'NONE',  ( -24.80000000000000782, 0.000000000000000000, -9.841374911210742482 ) ) ;
#713 = ORIENTED_EDGE ( 'NONE', *, *, #574, .T. ) ;
#714 = DIRECTION ( 'NONE',  ( -0.000000000000000000, 1.000000000000000000, -0.000000000000000000 ) ) ;
#715 = ADVANCED_FACE ( 'NONE', ( #738 ), #445, .T. ) ;
#716 = EDGE_LOOP ( 'NONE', ( #313, #482, #711, #52 ) ) ;
#717 = VECTOR ( 'NONE', #386, 1000.000000000000000 ) ;
#718 = DIRECTION ( 'NONE',  ( 0.000000000000000000, -1.000000000000000000, 0.000000000000000000 ) ) ;
#719 = EDGE_CURVE ( 'NONE', #180, #764, #508, .T. ) ;
#720 = VECTOR ( 'NONE', #370, 1000.000000000000000 ) ;
#721 = VERTEX_POINT ( 'NONE', #402 ) ;
#722 = CARTESIAN_POINT ( 'NONE',  ( 19.79999999999999716, 3.500000000000000000, -14.79999999999999538 ) ) ;
#723 = ORIENTED_EDGE ( 'NONE', *, *, #347, .F. ) ;
#724 = ORIENTED_EDGE ( 'NONE', *, *, #121, .T. ) ;
#725 = CARTESIAN_POINT ( 'NONE',  ( 0.000000000000000000, 0.000000000000000000, -17.30000000000000426 ) ) ;
#726 = AXIS2_PLACEMENT_3D ( 'NONE', #455, #688, #151 ) ;
#727 = ORIENTED_EDGE ( 'NONE', *, *, #617, .F. ) ;
#728 = ORIENTED_EDGE ( 'NONE', *, *, #406, .F. ) ;
#729 = CARTESIAN_POINT ( 'NONE',  ( -20.29999999999999716, 3.500000000000000000, -14.79999999999999538 ) ) ;
#730 = EDGE_CURVE ( 'NONE', #764, #432, #262, .T. ) ;
#731 = ADVANCED_FACE ( 'NONE', ( #303 ), #174, .F. ) ;
#732 = VECTOR ( 'NONE', #577, 1000.000000000000000 ) ;
#733 = ORIENTED_EDGE ( 'NONE', *, *, #258, .T. ) ;
#734 = FACE_OUTER_BOUND ( 'NONE', #43, .T. ) ;
#735 = LINE ( 'NONE', #200, #767 ) ;
#736 = CARTESIAN_POINT ( 'NONE',  ( 0.000000000000000000, 3.500000000000000000, 17.30000000000000426 ) ) ;
#737 = VERTEX_POINT ( 'NONE', #771 ) ;
#738 = FACE_OUTER_BOUND ( 'NONE', #716, .T. ) ;
#739 = EDGE_CURVE ( 'NONE', #415, #439, #243, .T. ) ;
#740 = DIRECTION ( 'NONE',  ( 0.000000000000000000, -1.000000000000000000, 0.000000000000000000 ) ) ;
#741 = APPLICATION_CONTEXT ( 'automotive_design' ) ;
#742 = CARTESIAN_POINT ( 'NONE',  ( 0.000000000000000000, 3.500000000000000000, -15.29999999999999538 ) ) ;
#743 = CARTESIAN_POINT ( 'NONE',  ( -22.30000000000000782, 0.000000000000000000, -9.841374911210742482 ) ) ;
#744 = LINE ( 'NONE', #326, #79 ) ;
#745 = DIRECTION ( 'NONE',  ( -0.000000000000000000, 1.000000000000000000, -0.000000000000000000 ) ) ;
#746 = EDGE_CURVE ( 'NONE', #589, #721, #400, .T. ) ;
#747 = DIRECTION ( 'NONE',  ( 0.000000000000000000, 0.000000000000000000, 1.000000000000000000 ) ) ;
#748 = CARTESIAN_POINT ( 'NONE',  ( 19.79999999999999716, 1.500000000000000000, -15.29999999999999538 ) ) ;
#749 = DIRECTION ( 'NONE',  ( 0.000000000000000000, 0.000000000000000000, 1.000000000000000000 ) ) ;
#750 = CARTESIAN_POINT ( 'NONE',  ( -22.73551995199040121, -1.200000000000000030E-05, -20.05163996399279824 ) ) ;
#751 =( NAMED_UNIT ( * ) PLANE_ANGLE_UNIT ( ) SI_UNIT ( $, .RADIAN. ) );
#752 = EDGE_CURVE ( 'NONE', #417, #157, #438, .T. ) ;
#753 = ORIENTED_EDGE ( 'NONE', *, *, #769, .T. ) ;
#754 = CARTESIAN_POINT ( 'NONE',  ( 20.29999999999999716, 3.500000000000000000, 14.80000000000000071 ) ) ;
#755 = CIRCLE ( 'NONE', #522, 0.5000000000000004441 ) ;
#756 = EDGE_CURVE ( 'NONE', #468, #644, #47, .T. ) ;
#757 = ORIENTED_EDGE ( 'NONE', *, *, #309, .T. ) ;
#758 = AXIS2_PLACEMENT_3D ( 'NONE', #677, #689, #513 ) ;
#759 = CIRCLE ( 'NONE', #154, 2.500000000000000444 ) ;
#760 = DIRECTION ( 'NONE',  ( 0.000000000000000000, 0.000000000000000000, 1.000000000000000000 ) ) ;
#761 = DIRECTION ( 'NONE',  ( 0.000000000000000000, 0.000000000000000000, 1.000000000000000000 ) ) ;
#762 = APPLICATION_PROTOCOL_DEFINITION ( 'draft international standard', 'automotive_design', 1998, #741 ) ;
#763 = DIRECTION ( 'NONE',  ( 0.000000000000000000, 0.000000000000000000, 1.000000000000000000 ) ) ;
#764 = VERTEX_POINT ( 'NONE', #158 ) ;
#765 = CARTESIAN_POINT ( 'NONE',  ( -19.79999999999999716, 3.500000000000000000, 14.80000000000000071 ) ) ;
#766 = ORIENTED_EDGE ( 'NONE', *, *, #99, .T. ) ;
#767 = VECTOR ( 'NONE', #279, 1000.000000000000000 ) ;
#768 = CARTESIAN_POINT ( 'NONE',  ( -19.79999999999999716, 3.500000000000000000, 14.80000000000000071 ) ) ;
#769 = EDGE_CURVE ( 'NONE', #204, #694, #57, .T. ) ;
#770 = ORIENTED_EDGE ( 'NONE', *, *, #707, .F. ) ;
#771 = CARTESIAN_POINT ( 'NONE',  ( -22.73551995199040121, 0.000000000000000000, -20.05163996399279824 ) ) ;
#772 = ORIENTED_EDGE ( 'NONE', *, *, #305, .T. ) ;
#773 = VERTEX_POINT ( 'NONE', #343 ) ;
#774 = DIRECTION ( 'NONE',  ( 0.000000000000000000, 1.000000000000000000, -0.000000000000000000 ) ) ;
#775 = VERTEX_POINT ( 'NONE', #530 ) ;
#776 = DIRECTION ( 'NONE',  ( 0.000000000000000000, 0.000000000000000000, -1.000000000000000000 ) ) ;
#777 = ORIENTED_EDGE ( 'NONE', *, *, #695, .T. ) ;
#778 = EDGE_CURVE ( 'NONE', #417, #721, #107, .T. ) ;
#779 = CARTESIAN_POINT ( 'NONE',  ( -19.80000000000000782, 0.000000000000000000, 14.80000000000000249 ) ) ;
#780 = EDGE_CURVE ( 'NONE', #650, #265, #280, .T. ) ;
#781 = FACE_OUTER_BOUND ( 'NONE', #184, .T. ) ;
#782 = ORIENTED_EDGE ( 'NONE', *, *, #150, .F. ) ;
#783 = ADVANCED_FACE ( 'NONE', ( #481, #640, #30 ), #34, .T. ) ;
#784 = ORIENTED_EDGE ( 'NONE', *, *, #258, .F. ) ;
#785 = CYLINDRICAL_SURFACE ( 'NONE', #596, 0.5000000000000004441 ) ;
#786 = ORIENTED_EDGE ( 'NONE', *, *, #542, .T. ) ;
#787 = FACE_OUTER_BOUND ( 'NONE', #554, .T. ) ;
#788 = EDGE_CURVE ( 'NONE', #773, #180, #342, .T. ) ;
ENDSEC;
END-ISO-10303-21;
