ISO-10303-21;
HEADER;
FILE_DESCRIPTION (( 'STEP AP214' ),
    '1' );
FILE_NAME ('column.STEP',
    '2026-09-05T01:31:41',
    ( '' ),
    ( '' ),
    'SwSTEP 2.0',
    'SolidWorks 2023',
    '' );
FILE_SCHEMA (( 'AUTOMOTIVE_DESIGN' ));
ENDSEC;

DATA;
#1 = PROPERTY_DEFINITION_REPRESENTATION ( #168, #78 ) ;
#2 = PRODUCT_DEFINITION_FORMATION_WITH_SPECIFIED_SOURCE ( 'Symmetric', '', #145, .NOT_KNOWN. ) ;
#3 = CONTEXT_DEPENDENT_SHAPE_REPRESENTATION ( #105, #12 ) ;
#4 = DIRECTION ( 'NONE',  ( -0.7071067811865406894, -1.205632815803881177E-16, -0.7071067811865542341 ) ) ;
#5 =( REPRESENTATION_RELATIONSHIP ('NONE','NONE', #166, #218 ) REPRESENTATION_RELATIONSHIP_WITH_TRANSFORMATION ( #133 )SHAPE_REPRESENTATION_RELATIONSHIP( ) );
#6 = APPLIED_EXTERNAL_IDENTIFICATION_ASSIGNMENT ( 'flower leaf v2_\X2\9ed88ba4\X0\.STEP' , #52, #36,( #179) ) ;
#7 = CARTESIAN_POINT ( 'NONE',  ( -18.18508680769446428, 61.50405728449523224, -1.269857824686153226E-13 ) ) ;
#8 = PROPERTY_DEFINITION_REPRESENTATION ( #163, #218 ) ;
#9 = APPLIED_DOCUMENT_REFERENCE ( #179,'',( #121) ) ;
#10 = PROPERTY_DEFINITION_REPRESENTATION ( #174, #78 ) ;
#11 = APPLIED_DOCUMENT_REFERENCE ( #72,'',( #220) ) ;
#12 = PRODUCT_DEFINITION_SHAPE ( 'NONE', 'NONE',  #269 ) ;
#13 = PROPERTY_DEFINITION_REPRESENTATION ( #189, #236 ) ;
#14 =( GEOMETRIC_REPRESENTATION_CONTEXT ( 3 ) GLOBAL_UNCERTAINTY_ASSIGNED_CONTEXT ( ( #156 ) ) GLOBAL_UNIT_ASSIGNED_CONTEXT ( ( #35, #15, #77 ) ) REPRESENTATION_CONTEXT ( 'NONE', 'WORKASPACE' ) );
#15 =( NAMED_UNIT ( * ) PLANE_ANGLE_UNIT ( ) SI_UNIT ( $, .RADIAN. ) );
#16 = UNCERTAINTY_MEASURE_WITH_UNIT (LENGTH_MEASURE( 1.000000000000000082E-05 ), #101, 'distance_accuracy_value', 'NONE');
#17 = DIRECTION ( 'NONE',  ( 0.000000000000000000, 0.000000000000000000, 1.000000000000000000 ) ) ;
#18 = OBJECT_ROLE ('mandatory',$ ) ;
#19 = PRODUCT_RELATED_PRODUCT_CATEGORY ( 'part', '', ( #145 ) ) ;
#20 = DOCUMENT_FILE ( '0.6 flower leaf v2_\X2\9ed88ba4\X0\.STEP' , '', '', #161, '' ,$ ) ;
#21 = PROPERTY_DEFINITION ('external definition','', #205 ) ;
#22 = APPLICATION_CONTEXT ( 'automotive_design' ) ;
#23 = CARTESIAN_POINT ( 'NONE',  ( 11.80038929892997857, 59.27886400485528640, -11.80038929893006561 ) ) ;
#24 = AXIS2_PLACEMENT_3D ( 'NONE', #263, #128, #87 ) ;
#25 = DIRECTION ( 'NONE',  ( 6.970284687672309781E-15, -5.644604826268048749E-18, -1.000000000000000000 ) ) ;
#26 = DIRECTION ( 'NONE',  ( 0.1119485812006608544, 0.9873879836894501327, -0.1119485812006600911 ) ) ;
#27 = SHAPE_DEFINITION_REPRESENTATION ( #210, #78 ) ;
#28 = EXTERNAL_SOURCE (IDENTIFIER('') ) ;
#29 = PROPERTY_DEFINITION_REPRESENTATION ( #253, #78 ) ;
#30 = PROPERTY_DEFINITION_REPRESENTATION ( #194, #236 ) ;
#31 = APPLIED_EXTERNAL_IDENTIFICATION_ASSIGNMENT ( 'flower leaf v2_\X2\9ed88ba4\X0\.STEP' , #109, #223,( #132) ) ;
#32 = CONTEXT_DEPENDENT_SHAPE_REPRESENTATION ( #199, #76 ) ;
#33 = OBJECT_ROLE ('mandatory',$ ) ;
#34 = DOCUMENT_FILE ( 'flower leaf v2_\X2\9ed88ba4\X0\.STEP' , '', '', #226, '' ,$ ) ;
#35 =( LENGTH_UNIT ( ) NAMED_UNIT ( * ) SI_UNIT ( .MILLI., .METRE. ) );
#36 = EXTERNAL_SOURCE (IDENTIFIER('') ) ;
#37 = PRODUCT_DEFINITION_FORMATION_WITH_SPECIFIED_SOURCE ( 'Symmetric', '', #250, .NOT_KNOWN. ) ;
#38 = PRODUCT_CONTEXT ( 'NONE', #212, 'mechanical' ) ;
#39 = PROPERTY_DEFINITION ('external definition','', #246 ) ;
#40 = DIRECTION ( 'NONE',  ( 0.7071067811865482389, 0.000000000000000000, 0.7071067811865471286 ) ) ;
#41 = PRODUCT_DEFINITION_SHAPE ( 'NONE', 'NONE',  #255 ) ;
#42 = AXIS2_PLACEMENT_3D ( 'NONE', #188, #162, #118 ) ;
#43 = OBJECT_ROLE ('mandatory',$ ) ;
#44 = DIRECTION ( 'NONE',  ( -6.096467125811828162E-16, 0.9848077530122190115, 0.1736481776668679089 ) ) ;
#45 = AXIS2_PLACEMENT_3D ( 'NONE', #96, #190, #167 ) ;
#46 = PRODUCT_CONTEXT ( 'NONE', #193, 'mechanical' ) ;
#47 =( REPRESENTATION_RELATIONSHIP ('NONE','NONE', #166, #236 ) REPRESENTATION_RELATIONSHIP_WITH_TRANSFORMATION ( #91 )SHAPE_REPRESENTATION_RELATIONSHIP( ) );
#48 = DIRECTION ( 'NONE',  ( 1.267799001395708964E-17, -5.644604826268048749E-18, 1.000000000000000000 ) ) ;
#49 = ITEM_DEFINED_TRANSFORMATION ( 'NONE', 'NONE', #97,  #123 ) ;
#50 = AXIS2_PLACEMENT_3D ( 'NONE', #57, #234, #40 ) ;
#51 = PROPERTY_DEFINITION_REPRESENTATION ( #39, #78 ) ;
#52 = IDENTIFICATION_ROLE ( 'external document id and location', $) ;
#53 = ROLE_ASSOCIATION ( #100, #112 ) ;
#54 = EXTERNAL_SOURCE (IDENTIFIER('') ) ;
#55 = PRODUCT_DEFINITION ( 'General', '', #2, #120 ) ;
#56 =( GEOMETRIC_REPRESENTATION_CONTEXT ( 3 ) GLOBAL_UNCERTAINTY_ASSIGNED_CONTEXT ( ( #154 ) ) GLOBAL_UNIT_ASSIGNED_CONTEXT ( ( #261, #84, #131 ) ) REPRESENTATION_CONTEXT ( 'NONE', 'WORKASPACE' ) );
#57 = CARTESIAN_POINT ( 'NONE',  ( 0.000000000000000000, 0.000000000000000000, 0.000000000000000000 ) ) ;
#58 =( LENGTH_UNIT ( ) NAMED_UNIT ( * ) SI_UNIT ( .MILLI., .METRE. ) );
#59 = IDENTIFICATION_ROLE ( 'external document id and location', $) ;
#60 =( NAMED_UNIT ( * ) PLANE_ANGLE_UNIT ( ) SI_UNIT ( $, .RADIAN. ) );
#61 = PRODUCT ( '0.6 flower leaf v2_\X2\9ed88ba4\X0\', '0.6 flower leaf v2_\X2\9ed88ba4\X0\', '', ( #46 ) ) ;
#62 = DIRECTION ( 'NONE',  ( 0.000000000000000000, 0.000000000000000000, 1.000000000000000000 ) ) ;
#63 = EXTERNAL_SOURCE (IDENTIFIER('') ) ;
#64 = DIRECTION ( 'NONE',  ( -0.1736481776668679089, 0.9848077530122190115, -1.215936084429169114E-15 ) ) ;
#65 = APPLICATION_PROTOCOL_DEFINITION ( 'draft international standard', 'automotive_design', 1998, #139 ) ;
#66 = AXIS2_PLACEMENT_3D ( 'NONE', #23, #26, #173 ) ;
#67 = DIRECTION ( 'NONE',  ( 1.000000000000000000, 0.000000000000000000, 0.000000000000000000 ) ) ;
#68 = PROPERTY_DEFINITION_REPRESENTATION ( #159, #78 ) ;
#69 = CONTEXT_DEPENDENT_SHAPE_REPRESENTATION ( #5, #164 ) ;
#70 = PROPERTY_DEFINITION_REPRESENTATION ( #235, #236 ) ;
#71 =( REPRESENTATION_RELATIONSHIP ('NONE','NONE', #166, #78 ) REPRESENTATION_RELATIONSHIP_WITH_TRANSFORMATION ( #89 )SHAPE_REPRESENTATION_RELATIONSHIP( ) );
#72 = DOCUMENT_FILE ( '0.6 flower leaf v2_\X2\9ed88ba4\X0\.STEP' , '', '', #158, '' ,$ ) ;
#73 = AXIS2_PLACEMENT_3D ( 'NONE', #83, #243, #4 ) ;
#74 = PRODUCT_DEFINITION_FORMATION_WITH_SPECIFIED_SOURCE ( 'Symmetric', '', #61, .NOT_KNOWN. ) ;
#75 = IDENTIFICATION_ROLE ( 'external document id and location', $) ;
#76 = PRODUCT_DEFINITION_SHAPE ( 'NONE', 'NONE',  #276 ) ;
#77 =( NAMED_UNIT ( * ) SI_UNIT ( $, .STERADIAN. ) SOLID_ANGLE_UNIT ( ) );
#78 = SHAPE_REPRESENTATION ( '0.6 flower leaf v2_\X2\9ed88ba4\X0\', ( #45 ), #176 ) ;
#79 = PRODUCT_DEFINITION_SHAPE ( 'NONE', 'NONE',  #55 ) ;
#80 = CARTESIAN_POINT ( 'NONE',  ( 0.000000000000000000, 0.000000000000000000, 0.000000000000000000 ) ) ;
#81 = DOCUMENT_TYPE ( 'geometry' ) ;
#82 = AXIS2_PLACEMENT_3D ( 'NONE', #213, #17, #67 ) ;
#83 = CARTESIAN_POINT ( 'NONE',  ( -11.80038929893006205, 59.27886400485528640, 11.80038929892998212 ) ) ;
#84 =( NAMED_UNIT ( * ) PLANE_ANGLE_UNIT ( ) SI_UNIT ( $, .RADIAN. ) );
#85 = APPLICATION_PROTOCOL_DEFINITION ( 'draft international standard', 'automotive_design', 1998, #181 ) ;
#86 = APPLIED_DOCUMENT_REFERENCE ( #222,'',( #220) ) ;
#87 = DIRECTION ( 'NONE',  ( 1.000000000000000000, -5.644604826268048749E-18, 1.046176602651544314E-14 ) ) ;
#88 = ROLE_ASSOCIATION ( #33, #224 ) ;
#89 = ITEM_DEFINED_TRANSFORMATION ( 'NONE', 'NONE', #66,  #45 ) ;
#90 = ROLE_ASSOCIATION ( #237, #11 ) ;
#91 = ITEM_DEFINED_TRANSFORMATION ( 'NONE', 'NONE', #204,  #123 ) ;
#92 = DOCUMENT_TYPE ( 'geometry' ) ;
#93 = PRODUCT_RELATED_PRODUCT_CATEGORY ( 'part', '', ( #61 ) ) ;
#94 = DIRECTION ( 'NONE',  ( 0.7071067811865567876, -1.205632815803881177E-16, -0.7071067811865381358 ) ) ;
#95 = PROPERTY_DEFINITION ('document property','', #72 ) ;
#96 = CARTESIAN_POINT ( 'NONE',  ( 0.000000000000000000, 0.000000000000000000, 0.000000000000000000 ) ) ;
#97 = AXIS2_PLACEMENT_3D ( 'NONE', #147, #44, #197 ) ;
#98 = PRODUCT_DEFINITION_SHAPE ( 'NONE', 'NONE',  #272 ) ;
#99 =( NAMED_UNIT ( * ) PLANE_ANGLE_UNIT ( ) SI_UNIT ( $, .RADIAN. ) );
#100 = OBJECT_ROLE ('mandatory',$ ) ;
#101 =( LENGTH_UNIT ( ) NAMED_UNIT ( * ) SI_UNIT ( .MILLI., .METRE. ) );
#102 = PRODUCT_DEFINITION_SHAPE ( 'NONE', 'NONE',  #270 ) ;
#103 = APPLIED_DOCUMENT_REFERENCE ( #20,'',( #220) ) ;
#104 = PRODUCT_RELATED_PRODUCT_CATEGORY ( 'part', '', ( #137 ) ) ;
#105 =( REPRESENTATION_RELATIONSHIP ('NONE','NONE', #166, #78 ) REPRESENTATION_RELATIONSHIP_WITH_TRANSFORMATION ( #221 )SHAPE_REPRESENTATION_RELATIONSHIP( ) );
#106 = SHAPE_DEFINITION_REPRESENTATION ( #79, #218 ) ;
#107 = DIRECTION ( 'NONE',  ( 0.1736481776668679089, 0.9848077530122190115, 3.357340733196565900E-18 ) ) ;
#108 = PROPERTY_DEFINITION_REPRESENTATION ( #186, #78 ) ;
#109 = IDENTIFICATION_ROLE ( 'external document id and location', $) ;
#110 = PROPERTY_DEFINITION_REPRESENTATION ( #238, #236 ) ;
#111 = APPLIED_DOCUMENT_REFERENCE ( #247,'',( #121) ) ;
#112 = APPLIED_DOCUMENT_REFERENCE ( #246,'',( #220) ) ;
#113 = ITEM_DEFINED_TRANSFORMATION ( 'NONE', 'NONE', #73,  #45 ) ;
#114 = EXTERNAL_SOURCE (IDENTIFIER('') ) ;
#115 = PROPERTY_DEFINITION ('external definition','', #132 ) ;
#116 = PRODUCT_DEFINITION_SHAPE ( 'NONE', 'NONE',  #274 ) ;
#117 = CARTESIAN_POINT ( 'NONE',  ( -11.80038929892994304, 59.27886400485528640, -11.80038929893010291 ) ) ;
#118 = DIRECTION ( 'NONE',  ( -0.7071067811865517916, -1.205632815803881177E-16, 0.7071067811865431318 ) ) ;
#119 = PROPERTY_DEFINITION ('external definition','', #247 ) ;
#120 = PRODUCT_DEFINITION_CONTEXT ( 'detailed design', #268, 'design' ) ;
#121 = PRODUCT_DEFINITION ( 'General', '', #157, #134 ) ;
#122 =( NAMED_UNIT ( * ) SI_UNIT ( $, .STERADIAN. ) SOLID_ANGLE_UNIT ( ) );
#123 = AXIS2_PLACEMENT_3D ( 'NONE', #80, #169, #257 ) ;
#124 = APPLIED_EXTERNAL_IDENTIFICATION_ASSIGNMENT ( '0.6 flower leaf v2_\X2\9ed88ba4\X0\.STEP' , #187, #171,( #20) ) ;
#125 =( NAMED_UNIT ( * ) SI_UNIT ( $, .STERADIAN. ) SOLID_ANGLE_UNIT ( ) );
#126 = PRODUCT_DEFINITION_SHAPE ( 'NONE', 'NONE',  #275 ) ;
#127 = DIRECTION ( 'NONE',  ( 1.000000000000000000, 0.000000000000000000, 0.000000000000000000 ) ) ;
#128 = DIRECTION ( 'NONE',  ( 1.822225456277155610E-15, 0.9848077530122190115, -0.1736481776668679089 ) ) ;
#129 = APPLICATION_PROTOCOL_DEFINITION ( 'draft international standard', 'automotive_design', 1998, #22 ) ;
#130 = OBJECT_ROLE ('mandatory',$ ) ;
#131 =( NAMED_UNIT ( * ) SI_UNIT ( $, .STERADIAN. ) SOLID_ANGLE_UNIT ( ) );
#132 = DOCUMENT_FILE ( 'flower leaf v2_\X2\9ed88ba4\X0\.STEP' , '', '', #242, '' ,$ ) ;
#133 = ITEM_DEFINED_TRANSFORMATION ( 'NONE', 'NONE', #50,  #82 ) ;
#134 = PRODUCT_DEFINITION_CONTEXT ( 'detailed design', #153, 'design' ) ;
#135 = PROPERTY_DEFINITION_REPRESENTATION ( #192, #236 ) ;
#136 = AXIS2_PLACEMENT_3D ( 'NONE', #239, #62, #127 ) ;
#137 = PRODUCT ( 'flower leaf v2_\X2\9ed88ba4\X0\', 'flower leaf v2_\X2\9ed88ba4\X0\', '', ( #264 ) ) ;
#138 = ITEM_DEFINED_TRANSFORMATION ( 'NONE', 'NONE', #140,  #123 ) ;
#139 = APPLICATION_CONTEXT ( 'automotive_design' ) ;
#140 = AXIS2_PLACEMENT_3D ( 'NONE', #241, #107, #48 ) ;
#141 = AXIS2_PLACEMENT_3D ( 'NONE', #117, #211, #94 ) ;
#142 = PRODUCT_DEFINITION_SHAPE ( 'NONE', 'NONE',  #273 ) ;
#143 = IDENTIFICATION_ROLE ( 'external document id and location', $) ;
#144 = APPLIED_EXTERNAL_IDENTIFICATION_ASSIGNMENT ( '0.6 flower leaf v2_\X2\9ed88ba4\X0\.STEP' , #143, #114,( #72) ) ;
#145 = PRODUCT ( 'column i suppose_\X2\9ed88ba4\X0\', 'column i suppose_\X2\9ed88ba4\X0\', '', ( #151 ) ) ;
#146 =( REPRESENTATION_RELATIONSHIP ('NONE','NONE', #166, #78 ) REPRESENTATION_RELATIONSHIP_WITH_TRANSFORMATION ( #201 )SHAPE_REPRESENTATION_RELATIONSHIP( ) );
#147 = CARTESIAN_POINT ( 'NONE',  ( -6.349289123430766130E-14, 61.50405728449523224, 18.18508680769446428 ) ) ;
#148 = EXTERNAL_SOURCE (IDENTIFIER('') ) ;
#149 = APPLIED_EXTERNAL_IDENTIFICATION_ASSIGNMENT ( 'column i suppose_\X2\9ed88ba4\X0\.STEP' , #203, #63,( #205) ) ;
#150 = APPLICATION_PROTOCOL_DEFINITION ( 'draft international standard', 'automotive_design', 1998, #193 ) ;
#151 = PRODUCT_CONTEXT ( 'NONE', #139, 'mechanical' ) ;
#152 = ROLE_ASSOCIATION ( #165, #111 ) ;
#153 = APPLICATION_CONTEXT ( 'automotive_design' ) ;
#154 = UNCERTAINTY_MEASURE_WITH_UNIT (LENGTH_MEASURE( 1.000000000000000082E-05 ), #261, 'distance_accuracy_value', 'NONE');
#155 = CONTEXT_DEPENDENT_SHAPE_REPRESENTATION ( #208, #126 ) ;
#156 = UNCERTAINTY_MEASURE_WITH_UNIT (LENGTH_MEASURE( 1.000000000000000082E-05 ), #35, 'distance_accuracy_value', 'NONE');
#157 = PRODUCT_DEFINITION_FORMATION_WITH_SPECIFIED_SOURCE ( 'Symmetric', '', #137, .NOT_KNOWN. ) ;
#158 = DOCUMENT_TYPE ( 'geometry' ) ;
#159 = PROPERTY_DEFINITION ('external definition','', #222 ) ;
#160 = PRODUCT_DEFINITION_SHAPE ( 'NONE', 'NONE',  #121 ) ;
#161 = DOCUMENT_TYPE ( 'geometry' ) ;
#162 = DIRECTION ( 'NONE',  ( 0.1119485812006597025, 0.9873879836894501327, 0.1119485812006612430 ) ) ;
#163 = PROPERTY_DEFINITION ('document property','', #205 ) ;
#164 = PRODUCT_DEFINITION_SHAPE ( 'NONE', 'NONE',  #271 ) ;
#165 = OBJECT_ROLE ('mandatory',$ ) ;
#166 = SHAPE_REPRESENTATION ( 'column', ( #136, #141, #42, #50, #140, #24, #204, #97, #73, #66 ), #56 ) ;
#167 = DIRECTION ( 'NONE',  ( 1.000000000000000000, 0.000000000000000000, 0.000000000000000000 ) ) ;
#168 = PROPERTY_DEFINITION ('external definition','', #20 ) ;
#169 = DIRECTION ( 'NONE',  ( 0.000000000000000000, 0.000000000000000000, 1.000000000000000000 ) ) ;
#170 =( GEOMETRIC_REPRESENTATION_CONTEXT ( 3 ) GLOBAL_UNCERTAINTY_ASSIGNED_CONTEXT ( ( #256 ) ) GLOBAL_UNIT_ASSIGNED_CONTEXT ( ( #58, #60, #122 ) ) REPRESENTATION_CONTEXT ( 'NONE', 'WORKASPACE' ) );
#171 = EXTERNAL_SOURCE (IDENTIFIER('') ) ;
#172 = APPLIED_EXTERNAL_IDENTIFICATION_ASSIGNMENT ( '0.6 flower leaf v2_\X2\9ed88ba4\X0\.STEP' , #254, #28,( #222) ) ;
#173 = DIRECTION ( 'NONE',  ( 0.7071067811865455743, -1.205632815803881177E-16, 0.7071067811865493491 ) ) ;
#174 = PROPERTY_DEFINITION ('document property','', #246 ) ;
#175 = SHAPE_DEFINITION_REPRESENTATION ( #41, #166 ) ;
#176 =( GEOMETRIC_REPRESENTATION_CONTEXT ( 3 ) GLOBAL_UNCERTAINTY_ASSIGNED_CONTEXT ( ( #16 ) ) GLOBAL_UNIT_ASSIGNED_CONTEXT ( ( #101, #99, #125 ) ) REPRESENTATION_CONTEXT ( 'NONE', 'WORKASPACE' ) );
#177 = ROLE_ASSOCIATION ( #232, #86 ) ;
#178 = OBJECT_ROLE ('mandatory',$ ) ;
#179 = DOCUMENT_FILE ( 'flower leaf v2_\X2\9ed88ba4\X0\.STEP' , '', '', #183, '' ,$ ) ;
#180 = PROPERTY_DEFINITION_REPRESENTATION ( #119, #236 ) ;
#181 = APPLICATION_CONTEXT ( 'automotive_design' ) ;
#182 = PROPERTY_DEFINITION_REPRESENTATION ( #115, #236 ) ;
#183 = DOCUMENT_TYPE ( 'geometry' ) ;
#184 = PROPERTY_DEFINITION_REPRESENTATION ( #217, #78 ) ;
#185 = CONTEXT_DEPENDENT_SHAPE_REPRESENTATION ( #245, #142 ) ;
#186 = PROPERTY_DEFINITION ('document property','', #222 ) ;
#187 = IDENTIFICATION_ROLE ( 'external document id and location', $) ;
#188 = CARTESIAN_POINT ( 'NONE',  ( 11.80038929893002475, 59.27886400485528640, 11.80038929893002120 ) ) ;
#189 = PROPERTY_DEFINITION ('document property','', #247 ) ;
#190 = DIRECTION ( 'NONE',  ( 0.000000000000000000, 0.000000000000000000, 1.000000000000000000 ) ) ;
#191 = DOCUMENT_TYPE ( 'geometry' ) ;
#192 = PROPERTY_DEFINITION ('external definition','', #179 ) ;
#193 = APPLICATION_CONTEXT ( 'automotive_design' ) ;
#194 = PROPERTY_DEFINITION ('external definition','', #34 ) ;
#195 = ROLE_ASSOCIATION ( #43, #103 ) ;
#196 = APPLIED_EXTERNAL_IDENTIFICATION_ASSIGNMENT ( '0.6 flower leaf v2_\X2\9ed88ba4\X0\.STEP' , #59, #54,( #246) ) ;
#197 = DIRECTION ( 'NONE',  ( -1.000000000000000000, -5.644604826268048749E-18, -3.478803348829176426E-15 ) ) ;
#198 = EXTERNAL_SOURCE (IDENTIFIER('') ) ;
#199 =( REPRESENTATION_RELATIONSHIP ('NONE','NONE', #166, #78 ) REPRESENTATION_RELATIONSHIP_WITH_TRANSFORMATION ( #113 )SHAPE_REPRESENTATION_RELATIONSHIP( ) );
#200 = APPLICATION_PROTOCOL_DEFINITION ( 'draft international standard', 'automotive_design', 1998, #153 ) ;
#201 = ITEM_DEFINED_TRANSFORMATION ( 'NONE', 'NONE', #42,  #45 ) ;
#202 = ITEM_DEFINED_TRANSFORMATION ( 'NONE', 'NONE', #24,  #123 ) ;
#203 = IDENTIFICATION_ROLE ( 'external document id and location', $) ;
#204 = AXIS2_PLACEMENT_3D ( 'NONE', #7, #64, #25 ) ;
#205 = DOCUMENT_FILE ( 'column i suppose_\X2\9ed88ba4\X0\.STEP' , '', '', #81, '' ,$ ) ;
#206 = PROPERTY_DEFINITION_REPRESENTATION ( #95, #78 ) ;
#207 = CONTEXT_DEPENDENT_SHAPE_REPRESENTATION ( #71, #214 ) ;
#208 =( REPRESENTATION_RELATIONSHIP ('NONE','NONE', #166, #236 ) REPRESENTATION_RELATIONSHIP_WITH_TRANSFORMATION ( #49 )SHAPE_REPRESENTATION_RELATIONSHIP( ) );
#209 = ROLE_ASSOCIATION ( #130, #9 ) ;
#210 = PRODUCT_DEFINITION_SHAPE ( 'NONE', 'NONE',  #220 ) ;
#211 = DIRECTION ( 'NONE',  ( -0.1119485812006589254, 0.9873879836894501327, -0.1119485812006620201 ) ) ;
#212 = APPLICATION_CONTEXT ( 'automotive_design' ) ;
#213 = CARTESIAN_POINT ( 'NONE',  ( 0.000000000000000000, 0.000000000000000000, 0.000000000000000000 ) ) ;
#214 = PRODUCT_DEFINITION_SHAPE ( 'NONE', 'NONE',  #277 ) ;
#215 = CONTEXT_DEPENDENT_SHAPE_REPRESENTATION ( #146, #102 ) ;
#216 = APPLICATION_CONTEXT ( 'automotive_design' ) ;
#217 = PROPERTY_DEFINITION ('external definition','', #72 ) ;
#218 = SHAPE_REPRESENTATION ( 'column i suppose_\X2\9ed88ba4\X0\', ( #82 ), #170 ) ;
#219 = APPLICATION_PROTOCOL_DEFINITION ( 'draft international standard', 'automotive_design', 1998, #268 ) ;
#220 = PRODUCT_DEFINITION ( 'General', '', #74, #227 ) ;
#221 = ITEM_DEFINED_TRANSFORMATION ( 'NONE', 'NONE', #141,  #45 ) ;
#222 = DOCUMENT_FILE ( '0.6 flower leaf v2_\X2\9ed88ba4\X0\.STEP' , '', '', #92, '' ,$ ) ;
#223 = EXTERNAL_SOURCE (IDENTIFIER('') ) ;
#224 = APPLIED_DOCUMENT_REFERENCE ( #132,'',( #121) ) ;
#225 = APPLIED_DOCUMENT_REFERENCE ( #205,'',( #55) ) ;
#226 = DOCUMENT_TYPE ( 'geometry' ) ;
#227 = PRODUCT_DEFINITION_CONTEXT ( 'detailed design', #22, 'design' ) ;
#228 = CONTEXT_DEPENDENT_SHAPE_REPRESENTATION ( #47, #116 ) ;
#229 = ROLE_ASSOCIATION ( #18, #225 ) ;
#230 = APPLIED_EXTERNAL_IDENTIFICATION_ASSIGNMENT ( 'flower leaf v2_\X2\9ed88ba4\X0\.STEP' , #75, #198,( #34) ) ;
#231 = PROPERTY_DEFINITION_REPRESENTATION ( #21, #218 ) ;
#232 = OBJECT_ROLE ('mandatory',$ ) ;
#233 =( REPRESENTATION_RELATIONSHIP ('NONE','NONE', #166, #236 ) REPRESENTATION_RELATIONSHIP_WITH_TRANSFORMATION ( #138 )SHAPE_REPRESENTATION_RELATIONSHIP( ) );
#234 = DIRECTION ( 'NONE',  ( -0.7071067811865471286, 0.000000000000000000, 0.7071067811865482389 ) ) ;
#235 = PROPERTY_DEFINITION ('document property','', #34 ) ;
#236 = SHAPE_REPRESENTATION ( 'flower leaf v2_\X2\9ed88ba4\X0\', ( #123 ), #14 ) ;
#237 = OBJECT_ROLE ('mandatory',$ ) ;
#238 = PROPERTY_DEFINITION ('document property','', #132 ) ;
#239 = CARTESIAN_POINT ( 'NONE',  ( 0.000000000000000000, 0.000000000000000000, 0.000000000000000000 ) ) ;
#240 = SHAPE_DEFINITION_REPRESENTATION ( #160, #236 ) ;
#241 = CARTESIAN_POINT ( 'NONE',  ( 18.18508680769446428, 61.50405728449523224, 0.000000000000000000 ) ) ;
#242 = DOCUMENT_TYPE ( 'geometry' ) ;
#243 = DIRECTION ( 'NONE',  ( -0.1119485812006616315, 0.9873879836894501327, 0.1119485812006593140 ) ) ;
#244 = PROPERTY_DEFINITION_REPRESENTATION ( #259, #236 ) ;
#245 =( REPRESENTATION_RELATIONSHIP ('NONE','NONE', #166, #236 ) REPRESENTATION_RELATIONSHIP_WITH_TRANSFORMATION ( #202 )SHAPE_REPRESENTATION_RELATIONSHIP( ) );
#246 = DOCUMENT_FILE ( '0.6 flower leaf v2_\X2\9ed88ba4\X0\.STEP' , '', '', #266, '' ,$ ) ;
#247 = DOCUMENT_FILE ( 'flower leaf v2_\X2\9ed88ba4\X0\.STEP' , '', '', #191, '' ,$ ) ;
#248 = CONTEXT_DEPENDENT_SHAPE_REPRESENTATION ( #233, #98 ) ;
#249 = APPLIED_DOCUMENT_REFERENCE ( #34,'',( #121) ) ;
#250 = PRODUCT ( 'column', 'column', '', ( #38 ) ) ;
#251 = APPLICATION_PROTOCOL_DEFINITION ( 'draft international standard', 'automotive_design', 1998, #212 ) ;
#252 = APPLICATION_PROTOCOL_DEFINITION ( 'draft international standard', 'automotive_design', 1998, #216 ) ;
#253 = PROPERTY_DEFINITION ('document property','', #20 ) ;
#254 = IDENTIFICATION_ROLE ( 'external document id and location', $) ;
#255 = PRODUCT_DEFINITION ( 'General', '', #37, #267 ) ;
#256 = UNCERTAINTY_MEASURE_WITH_UNIT (LENGTH_MEASURE( 1.000000000000000082E-05 ), #58, 'distance_accuracy_value', 'NONE');
#257 = DIRECTION ( 'NONE',  ( 1.000000000000000000, 0.000000000000000000, 0.000000000000000000 ) ) ;
#258 = APPLIED_EXTERNAL_IDENTIFICATION_ASSIGNMENT ( 'flower leaf v2_\X2\9ed88ba4\X0\.STEP' , #260, #148,( #247) ) ;
#259 = PROPERTY_DEFINITION ('document property','', #179 ) ;
#260 = IDENTIFICATION_ROLE ( 'external document id and location', $) ;
#261 =( LENGTH_UNIT ( ) NAMED_UNIT ( * ) SI_UNIT ( .MILLI., .METRE. ) );
#262 = PRODUCT_RELATED_PRODUCT_CATEGORY ( 'part', '', ( #250 ) ) ;
#263 = CARTESIAN_POINT ( 'NONE',  ( 1.904786737029229965E-13, 61.50405728449523224, -18.18508680769446428 ) ) ;
#264 = PRODUCT_CONTEXT ( 'NONE', #181, 'mechanical' ) ;
#265 = ROLE_ASSOCIATION ( #178, #249 ) ;
#266 = DOCUMENT_TYPE ( 'geometry' ) ;
#267 = PRODUCT_DEFINITION_CONTEXT ( 'detailed design', #216, 'design' ) ;
#268 = APPLICATION_CONTEXT ( 'automotive_design' ) ;
#269 = NEXT_ASSEMBLY_USAGE_OCCURRENCE ( 'NAUO1', ' ', ' ', #255, #220, $ ) ;
#270 = NEXT_ASSEMBLY_USAGE_OCCURRENCE ( 'NAUO2', ' ', ' ', #255, #220, $ ) ;
#271 = NEXT_ASSEMBLY_USAGE_OCCURRENCE ( 'NAUO3', ' ', ' ', #255, #55, $ ) ;
#272 = NEXT_ASSEMBLY_USAGE_OCCURRENCE ( 'NAUO4', ' ', ' ', #255, #121, $ ) ;
#273 = NEXT_ASSEMBLY_USAGE_OCCURRENCE ( 'NAUO5', ' ', ' ', #255, #121, $ ) ;
#274 = NEXT_ASSEMBLY_USAGE_OCCURRENCE ( 'NAUO6', ' ', ' ', #255, #121, $ ) ;
#275 = NEXT_ASSEMBLY_USAGE_OCCURRENCE ( 'NAUO7', ' ', ' ', #255, #121, $ ) ;
#276 = NEXT_ASSEMBLY_USAGE_OCCURRENCE ( 'NAUO8', ' ', ' ', #255, #220, $ ) ;
#277 = NEXT_ASSEMBLY_USAGE_OCCURRENCE ( 'NAUO9', ' ', ' ', #255, #220, $ ) ;
ENDSEC;
END-ISO-10303-21;
