ISO-10303-21;
HEADER;
FILE_DESCRIPTION (( 'STEP AP214' ),
    '1' );
FILE_NAME ('cylinder.STEP',
    '2026-08-03T22:22:16',
    ( '' ),
    ( '' ),
    'SwSTEP 2.0',
    'SolidWorks 2023',
    '' );
FILE_SCHEMA (( 'AUTOMOTIVE_DESIGN' ));
ENDSEC;

DATA;
#1 = ORIENTED_EDGE ( 'NONE', *, *, #479, .T. ) ;
#2 = EDGE_LOOP ( 'NONE', ( #190, #383, #289, #569 ) ) ;
#3 = EDGE_LOOP ( 'NONE', ( #567, #314, #332, #471, #482, #98 ) ) ;
#4 = APPLICATION_CONTEXT ( 'automotive_design' ) ;
#5 = ADVANCED_FACE ( 'NONE', ( #135 ), #420, .T. ) ;
#6 = VERTEX_POINT ( 'NONE', #593 ) ;
#7 = CARTESIAN_POINT ( 'NONE',  ( -20.00000000000001421, 76.80950084241706577, 0.6000000000000103029 ) ) ;
#8 = ORIENTED_EDGE ( 'NONE', *, *, #192, .F. ) ;
#9 = AXIS2_PLACEMENT_3D ( 'NONE', #250, #490, #58 ) ;
#10 = CARTESIAN_POINT ( 'NONE',  ( -36.28097742116184321, 69.01527220835711773, 3.900000000000005240 ) ) ;
#11 = LINE ( 'NONE', #10, #103 ) ;
#12 = CARTESIAN_POINT ( 'NONE',  ( -36.28097742116184321, 69.01527220835713194, 3.900000000000001688 ) ) ;
#13 = EDGE_CURVE ( 'NONE', #244, #159, #596, .T. ) ;
#14 = DIRECTION ( 'NONE',  ( 1.000000000000000000, 0.000000000000000000, 0.000000000000000000 ) ) ;
#15 = AXIS2_PLACEMENT_3D ( 'NONE', #112, #304, #157 ) ;
#16 = DIRECTION ( 'NONE',  ( 0.000000000000000000, -0.8660254037844379305, -0.5000000000000013323 ) ) ;
#17 = DIRECTION ( 'NONE',  ( 1.000000000000000000, 0.000000000000000000, 0.000000000000000000 ) ) ;
#18 = VECTOR ( 'NONE', #331, 1000.000000000000000 ) ;
#19 = CYLINDRICAL_SURFACE ( 'NONE', #252, 3.900000000000004352 ) ;
#20 = CARTESIAN_POINT ( 'NONE',  ( 0.000000000000000000, 0.000000000000000000, 0.000000000000000000 ) ) ;
#21 = CARTESIAN_POINT ( 'NONE',  ( -70.00000000000001421, 69.01527220835711773, 0.000000000000000000 ) ) ;
#22 = DIRECTION ( 'NONE',  ( 0.000000000000000000, 0.000000000000000000, -1.000000000000000000 ) ) ;
#23 = EDGE_CURVE ( 'NONE', #46, #233, #27, .T. ) ;
#24 = CARTESIAN_POINT ( 'NONE',  ( -20.00000000000001421, 74.85950084241706293, 7.877499074759326980 ) ) ;
#25 = CIRCLE ( 'NONE', #480, 1.950000000000000622 ) ;
#26 = DIRECTION ( 'NONE',  ( 1.000000000000000000, 0.000000000000000000, 0.000000000000000000 ) ) ;
#27 = LINE ( 'NONE', #317, #353 ) ;
#28 = VERTEX_POINT ( 'NONE', #508 ) ;
#29 = CARTESIAN_POINT ( 'NONE',  ( -20.00000000000001421, 78.75950084241711124, 1.122500925240729863 ) ) ;
#30 = DIRECTION ( 'NONE',  ( 1.000000000000000000, -0.000000000000000000, -0.000000000000000000 ) ) ;
#31 = EDGE_CURVE ( 'NONE', #285, #246, #44, .T. ) ;
#32 = LINE ( 'NONE', #592, #36 ) ;
#33 = DIRECTION ( 'NONE',  ( 0.000000000000000000, -1.000000000000000000, -1.084202172485504557E-16 ) ) ;
#34 = EDGE_CURVE ( 'NONE', #233, #51, #507, .T. ) ;
#35 = CIRCLE ( 'NONE', #325, 3.900000000000000799 ) ;
#36 = VECTOR ( 'NONE', #134, 999.9999999999998863 ) ;
#37 = ORIENTED_EDGE ( 'NONE', *, *, #407, .F. ) ;
#38 = LINE ( 'NONE', #514, #251 ) ;
#39 = VERTEX_POINT ( 'NONE', #24 ) ;
#40 = DIRECTION ( 'NONE',  ( 0.000000000000000000, 0.000000000000000000, -1.000000000000000000 ) ) ;
#41 = EDGE_CURVE ( 'NONE', #194, #111, #226, .T. ) ;
#42 = EDGE_LOOP ( 'NONE', ( #8, #110, #163, #521 ) ) ;
#43 = CARTESIAN_POINT ( 'NONE',  ( -20.00000000000001421, 57.01527220835712484, 3.899999999999995470 ) ) ;
#44 = CIRCLE ( 'NONE', #162, 3.900000000000004352 ) ;
#45 = MECHANICAL_DESIGN_GEOMETRIC_PRESENTATION_REPRESENTATION (  '', ( #409 ), #574 ) ;
#46 = VERTEX_POINT ( 'NONE', #460 ) ;
#47 = PLANE ( 'NONE',  #166 ) ;
#48 = ORIENTED_EDGE ( 'NONE', *, *, #461, .T. ) ;
#49 = EDGE_LOOP ( 'NONE', ( #248, #87 ) ) ;
#50 = CARTESIAN_POINT ( 'NONE',  ( -15.00000000000001421, 57.01527220835713194, 0.000000000000000000 ) ) ;
#51 = VERTEX_POINT ( 'NONE', #551 ) ;
#52 = UNCERTAINTY_MEASURE_WITH_UNIT (LENGTH_MEASURE( 1.000000000000000082E-05 ), #147, 'distance_accuracy_value', 'NONE');
#53 = EDGE_CURVE ( 'NONE', #431, #476, #548, .T. ) ;
#54 = ORIENTED_EDGE ( 'NONE', *, *, #23, .F. ) ;
#55 = CYLINDRICAL_SURFACE ( 'NONE', #374, 3.900000000000004352 ) ;
#56 = VERTEX_POINT ( 'NONE', #602 ) ;
#57 = ORIENTED_EDGE ( 'NONE', *, *, #206, .T. ) ;
#58 = DIRECTION ( 'NONE',  ( 0.000000000000000000, 0.000000000000000000, -1.000000000000000000 ) ) ;
#59 = EDGE_LOOP ( 'NONE', ( #265, #437, #323, #293 ) ) ;
#60 = CARTESIAN_POINT ( 'NONE',  ( -20.00000000000001421, 57.01527220835713194, 0.000000000000000000 ) ) ;
#61 = LINE ( 'NONE', #12, #329 ) ;
#62 = ADVANCED_FACE ( 'NONE', ( #410 ), #228, .T. ) ;
#63 = CARTESIAN_POINT ( 'NONE',  ( -20.00000000000001421, 67.97027035787573368, 3.899999999999993694 ) ) ;
#64 = CARTESIAN_POINT ( 'NONE',  ( -20.00000000000001421, 74.85950084241707714, 7.877499074759335862 ) ) ;
#65 = LINE ( 'NONE', #255, #451 ) ;
#66 = DIRECTION ( 'NONE',  ( 1.000000000000000000, 0.000000000000000000, 0.000000000000000000 ) ) ;
#67 = AXIS2_PLACEMENT_3D ( 'NONE', #313, #361, #456 ) ;
#68 = FACE_OUTER_BOUND ( 'NONE', #529, .T. ) ;
#69 = CIRCLE ( 'NONE', #272, 1.949999999999996403 ) ;
#70 = EDGE_CURVE ( 'NONE', #449, #350, #151, .T. ) ;
#71 = ORIENTED_EDGE ( 'NONE', *, *, #488, .F. ) ;
#72 = DIRECTION ( 'NONE',  ( -0.000000000000000000, 1.000000000000000000, 1.084202172485504804E-16 ) ) ;
#73 = VERTEX_POINT ( 'NONE', #124 ) ;
#74 = DIRECTION ( 'NONE',  ( 0.000000000000000000, 0.000000000000000000, -1.000000000000000000 ) ) ;
#75 = CARTESIAN_POINT ( 'NONE',  ( -70.00000000000001421, 69.01527220835711773, 3.900000000000005240 ) ) ;
#76 = PLANE ( 'NONE',  #344 ) ;
#77 = AXIS2_PLACEMENT_3D ( 'NONE', #318, #366, #273 ) ;
#78 = ORIENTED_EDGE ( 'NONE', *, *, #453, .F. ) ;
#79 = EDGE_CURVE ( 'NONE', #562, #421, #526, .T. ) ;
#80 = AXIS2_PLACEMENT_3D ( 'NONE', #193, #335, #522 ) ;
#81 = DIRECTION ( 'NONE',  ( 0.000000000000000000, -0.5000000000000014433, 0.8660254037844379305 ) ) ;
#82 = DIRECTION ( 'NONE',  ( 1.000000000000000000, -0.000000000000000000, 0.000000000000000000 ) ) ;
#83 = PRODUCT_DEFINITION ( 'UNKNOWN', '', #428, #434 ) ;
#84 = LINE ( 'NONE', #506, #364 ) ;
#85 = DIRECTION ( 'NONE',  ( 0.000000000000000000, 0.000000000000000000, -1.000000000000000000 ) ) ;
#86 = AXIS2_PLACEMENT_3D ( 'NONE', #345, #474, #40 ) ;
#87 = ORIENTED_EDGE ( 'NONE', *, *, #461, .F. ) ;
#88 = LINE ( 'NONE', #279, #542 ) ;
#89 = EDGE_CURVE ( 'NONE', #73, #111, #584, .T. ) ;
#90 = DIRECTION ( 'NONE',  ( 0.000000000000000000, 0.000000000000000000, -1.000000000000000000 ) ) ;
#91 = VERTEX_POINT ( 'NONE', #7 ) ;
#92 = CARTESIAN_POINT ( 'NONE',  ( -10.00000000000000000, 57.01527220835713194, 0.000000000000000000 ) ) ;
#93 = ORIENTED_EDGE ( 'NONE', *, *, #368, .T. ) ;
#94 = SHAPE_DEFINITION_REPRESENTATION ( #505, #207 ) ;
#95 = CARTESIAN_POINT ( 'NONE',  ( -15.00000000000001421, 67.97027035787573368, 3.899999999999995914 ) ) ;
#96 = ORIENTED_EDGE ( 'NONE', *, *, #13, .T. ) ;
#97 = DIRECTION ( 'NONE',  ( 0.000000000000000000, -0.8660254037844379305, -0.5000000000000014433 ) ) ;
#98 = ORIENTED_EDGE ( 'NONE', *, *, #430, .F. ) ;
#99 = FACE_OUTER_BOUND ( 'NONE', #557, .T. ) ;
#100 = VERTEX_POINT ( 'NONE', #424 ) ;
#101 = MANIFOLD_SOLID_BREP ( 'Cut-Extrude1', #221 ) ;
#102 = FACE_OUTER_BOUND ( 'NONE', #136, .T. ) ;
#103 = VECTOR ( 'NONE', #582, 1000.000000000000000 ) ;
#104 = ORIENTED_EDGE ( 'NONE', *, *, #534, .F. ) ;
#105 = EDGE_CURVE ( 'NONE', #246, #285, #212, .T. ) ;
#106 = ORIENTED_EDGE ( 'NONE', *, *, #70, .T. ) ;
#107 = ORIENTED_EDGE ( 'NONE', *, *, #368, .F. ) ;
#108 = VERTEX_POINT ( 'NONE', #327 ) ;
#109 = PLANE ( 'NONE',  #553 ) ;
#110 = ORIENTED_EDGE ( 'NONE', *, *, #330, .F. ) ;
#111 = VERTEX_POINT ( 'NONE', #143 ) ;
#112 = CARTESIAN_POINT ( 'NONE',  ( 0.000000000000000000, 0.000000000000000000, 0.000000000000000000 ) ) ;
#113 = AXIS2_PLACEMENT_3D ( 'NONE', #467, #458, #504 ) ;
#114 = VECTOR ( 'NONE', #16, 999.9999999999998863 ) ;
#115 = CARTESIAN_POINT ( 'NONE',  ( -20.00000000000001421, 67.97027035787573368, 3.899999999999993694 ) ) ;
#116 = PLANE ( 'NONE',  #9 ) ;
#117 = CYLINDRICAL_SURFACE ( 'NONE', #614, 1.950000000000000622 ) ;
#118 = DIRECTION ( 'NONE',  ( 0.000000000000000000, 0.000000000000000000, -1.000000000000000000 ) ) ;
#119 = CARTESIAN_POINT ( 'NONE',  ( -10.00000000000000000, 57.01527220835713194, 0.000000000000000000 ) ) ;
#120 = EDGE_CURVE ( 'NONE', #156, #496, #38, .T. ) ;
#121 = CIRCLE ( 'NONE', #260, 3.900000000000000799 ) ;
#122 = LINE ( 'NONE', #29, #153 ) ;
#123 = DIRECTION ( 'NONE',  ( 1.000000000000000000, 0.000000000000000000, 0.000000000000000000 ) ) ;
#124 = CARTESIAN_POINT ( 'NONE',  ( 0.000000000000000000, 69.01527220835711773, 1.949999999999996403 ) ) ;
#125 = VECTOR ( 'NONE', #161, 1000.000000000000000 ) ;
#126 = DIRECTION ( 'NONE',  ( 0.000000000000000000, 0.000000000000000000, -1.000000000000000000 ) ) ;
#127 = EDGE_CURVE ( 'NONE', #445, #560, #25, .T. ) ;
#128 = CARTESIAN_POINT ( 'NONE',  ( -10.00000000000000000, 57.01527220835713194, 0.000000000000000000 ) ) ;
#129 = DIRECTION ( 'NONE',  ( -1.000000000000000000, -0.000000000000000000, -0.000000000000000000 ) ) ;
#130 = VECTOR ( 'NONE', #416, 999.9999999999998863 ) ;
#131 = AXIS2_PLACEMENT_3D ( 'NONE', #447, #300, #258 ) ;
#132 = DIRECTION ( 'NONE',  ( 1.000000000000000000, 0.000000000000000000, 0.000000000000000000 ) ) ;
#133 = DIRECTION ( 'NONE',  ( 1.000000000000000000, 0.000000000000000000, 0.000000000000000000 ) ) ;
#134 = DIRECTION ( 'NONE',  ( 0.000000000000000000, -0.8660254037844379305, -0.5000000000000014433 ) ) ;
#135 = FACE_OUTER_BOUND ( 'NONE', #515, .T. ) ;
#136 = EDGE_LOOP ( 'NONE', ( #339, #106, #531, #57, #200, #608 ) ) ;
#137 = DIRECTION ( 'NONE',  ( 1.000000000000000000, 0.000000000000000000, 0.000000000000000000 ) ) ;
#138 = EDGE_CURVE ( 'NONE', #233, #6, #572, .T. ) ;
#139 = VECTOR ( 'NONE', #442, 1000.000000000000000 ) ;
#140 = ORIENTED_EDGE ( 'NONE', *, *, #392, .F. ) ;
#141 = CARTESIAN_POINT ( 'NONE',  ( -15.00000000000001421, 76.80950084241706577, 4.500000000000014211 ) ) ;
#142 = ORIENTED_EDGE ( 'NONE', *, *, #579, .T. ) ;
#143 = CARTESIAN_POINT ( 'NONE',  ( 0.000000000000000000, 69.01527220835711773, -1.949999999999996403 ) ) ;
#144 = ORIENTED_EDGE ( 'NONE', *, *, #453, .T. ) ;
#145 = ADVANCED_FACE ( 'NONE', ( #284 ), #296, .F. ) ;
#146 = ORIENTED_EDGE ( 'NONE', *, *, #267, .T. ) ;
#147 =( LENGTH_UNIT ( ) NAMED_UNIT ( * ) SI_UNIT ( .MILLI., .METRE. ) );
#148 = ORIENTED_EDGE ( 'NONE', *, *, #170, .F. ) ;
#149 = ORIENTED_EDGE ( 'NONE', *, *, #488, .T. ) ;
#150 = FILL_AREA_STYLE_COLOUR ( '', #611 ) ;
#151 = CIRCLE ( 'NONE', #355, 3.900000000000005240 ) ;
#152 = ORIENTED_EDGE ( 'NONE', *, *, #282, .F. ) ;
#153 = VECTOR ( 'NONE', #415, 1000.000000000000000 ) ;
#154 = ORIENTED_EDGE ( 'NONE', *, *, #175, .T. ) ;
#155 = DIRECTION ( 'NONE',  ( 0.000000000000000000, 0.000000000000000000, -1.000000000000000000 ) ) ;
#156 = VERTEX_POINT ( 'NONE', #520 ) ;
#157 = DIRECTION ( 'NONE',  ( 0.000000000000000000, 0.000000000000000000, -1.000000000000000000 ) ) ;
#158 = EDGE_CURVE ( 'NONE', #560, #421, #288, .T. ) ;
#159 = VERTEX_POINT ( 'NONE', #43 ) ;
#160 = DIRECTION ( 'NONE',  ( 1.000000000000000000, 0.000000000000000000, 0.000000000000000000 ) ) ;
#161 = DIRECTION ( 'NONE',  ( 1.000000000000000000, 0.000000000000000000, 0.000000000000000000 ) ) ;
#162 = AXIS2_PLACEMENT_3D ( 'NONE', #276, #370, #85 ) ;
#163 = ORIENTED_EDGE ( 'NONE', *, *, #23, .T. ) ;
#164 = AXIS2_PLACEMENT_3D ( 'NONE', #178, #132, #321 ) ;
#165 = CARTESIAN_POINT ( 'NONE',  ( -15.00000000000001421, -4.139883864537376112, -46.73948115097396538 ) ) ;
#166 = AXIS2_PLACEMENT_3D ( 'NONE', #603, #66, #587 ) ;
#167 = DIRECTION ( 'NONE',  ( 0.000000000000000000, -1.000000000000000000, -1.084202172485504804E-16 ) ) ;
#168 = DIRECTION ( 'NONE',  ( 1.000000000000000000, 0.000000000000000000, 0.000000000000000000 ) ) ;
#169 = CARTESIAN_POINT ( 'NONE',  ( -36.28097742116184321, 4.228388472693473702E-16, -3.900000000000005240 ) ) ;
#170 = EDGE_CURVE ( 'NONE', #56, #6, #35, .T. ) ;
#171 = CARTESIAN_POINT ( 'NONE',  ( -15.00000000000001421, -4.228388472693457925E-16, 3.899999999999990585 ) ) ;
#172 = CARTESIAN_POINT ( 'NONE',  ( 0.000000000000000000, 57.01527220835713194, -1.950000000000000622 ) ) ;
#173 = VECTOR ( 'NONE', #491, 1000.000000000000000 ) ;
#174 = FACE_OUTER_BOUND ( 'NONE', #213, .T. ) ;
#175 = EDGE_CURVE ( 'NONE', #159, #563, #121, .T. ) ;
#176 = CARTESIAN_POINT ( 'NONE',  ( -10.00000000000000000, 57.01527220835713194, -1.950000000000000622 ) ) ;
#177 = ADVANCED_FACE ( 'NONE', ( #102 ), #292, .T. ) ;
#178 = CARTESIAN_POINT ( 'NONE',  ( 0.000000000000000000, 57.01527220835713194, 0.000000000000000000 ) ) ;
#179 = VECTOR ( 'NONE', #404, 1000.000000000000000 ) ;
#180 = AXIS2_PLACEMENT_3D ( 'NONE', #468, #315, #561 ) ;
#181 = DIRECTION ( 'NONE',  ( 0.000000000000000000, -1.000000000000000000, -1.084202172485504681E-16 ) ) ;
#182 = DIRECTION ( 'NONE',  ( 1.000000000000000000, 0.000000000000000000, 0.000000000000000000 ) ) ;
#183 = ORIENTED_EDGE ( 'NONE', *, *, #312, .F. ) ;
#184 = AXIS2_PLACEMENT_3D ( 'NONE', #169, #259, #167 ) ;
#185 = ADVANCED_FACE ( 'NONE', ( #485 ), #55, .T. ) ;
#186 = ORIENTED_EDGE ( 'NONE', *, *, #105, .F. ) ;
#187 = AXIS2_PLACEMENT_3D ( 'NONE', #60, #168, #155 ) ;
#188 = ORIENTED_EDGE ( 'NONE', *, *, #89, .F. ) ;
#189 = VECTOR ( 'NONE', #375, 1000.000000000000000 ) ;
#190 = ORIENTED_EDGE ( 'NONE', *, *, #120, .F. ) ;
#191 = AXIS2_PLACEMENT_3D ( 'NONE', #141, #517, #613 ) ;
#192 = EDGE_CURVE ( 'NONE', #563, #6, #88, .T. ) ;
#193 = CARTESIAN_POINT ( 'NONE',  ( -20.00000000000001776, 69.01527220835711773, 0.000000000000000000 ) ) ;
#194 = VERTEX_POINT ( 'NONE', #532 ) ;
#195 = DIRECTION ( 'NONE',  ( 1.000000000000000000, 0.000000000000000000, 0.000000000000000000 ) ) ;
#196 = ORIENTED_EDGE ( 'NONE', *, *, #502, .F. ) ;
#197 = ORIENTED_EDGE ( 'NONE', *, *, #89, .T. ) ;
#198 = DIRECTION ( 'NONE',  ( 1.000000000000000000, 0.000000000000000000, 0.000000000000000000 ) ) ;
#199 = ORIENTED_EDGE ( 'NONE', *, *, #455, .T. ) ;
#200 = ORIENTED_EDGE ( 'NONE', *, *, #495, .T. ) ;
#201 = CARTESIAN_POINT ( 'NONE',  ( -15.00000000000001421, 70.96527220835712058, -3.377499074759314990 ) ) ;
#202 = ORIENTED_EDGE ( 'NONE', *, *, #479, .F. ) ;
#203 = CIRCLE ( 'NONE', #411, 3.900000000000005240 ) ;
#204 = CIRCLE ( 'NONE', #263, 3.900000000000004352 ) ;
#205 = PLANE ( 'NONE',  #187 ) ;
#206 = EDGE_CURVE ( 'NONE', #108, #28, #487, .T. ) ;
#207 = ADVANCED_BREP_SHAPE_REPRESENTATION ( 'cylinder', ( #101, #537 ), #302 ) ;
#208 = CARTESIAN_POINT ( 'NONE',  ( -20.00000000000001776, 69.01527220835711773, 0.000000000000000000 ) ) ;
#209 = DIRECTION ( 'NONE',  ( 1.000000000000000000, 0.000000000000000000, 0.000000000000000000 ) ) ;
#210 = FACE_OUTER_BOUND ( 'NONE', #390, .T. ) ;
#211 =( NAMED_UNIT ( * ) SI_UNIT ( $, .STERADIAN. ) SOLID_ANGLE_UNIT ( ) );
#212 = CIRCLE ( 'NONE', #277, 3.900000000000004352 ) ;
#213 = EDGE_LOOP ( 'NONE', ( #581, #571, #283, #235 ) ) ;
#214 = ADVANCED_FACE ( 'NONE', ( #486 ), #116, .T. ) ;
#215 = LINE ( 'NONE', #309, #179 ) ;
#216 =( NAMED_UNIT ( * ) PLANE_ANGLE_UNIT ( ) SI_UNIT ( $, .RADIAN. ) );
#217 = CARTESIAN_POINT ( 'NONE',  ( -20.00000000000001421, 76.80950084241706577, 4.500000000000014211 ) ) ;
#218 = PLANE ( 'NONE',  #184 ) ;
#219 = CARTESIAN_POINT ( 'NONE',  ( -36.28097742116184321, -4.228388472693457925E-16, 3.899999999999990585 ) ) ;
#220 = CARTESIAN_POINT ( 'NONE',  ( -10.00000000000000000, 57.01527220835713194, 0.000000000000000000 ) ) ;
#221 = CLOSED_SHELL ( 'NONE', ( #384, #549, #185, #352, #62, #539, #594, #371, #274, #444, #470, #230, #249, #177, #518, #399, #422, #214, #145, #5 ) ) ;
#222 = AXIS2_PLACEMENT_3D ( 'NONE', #208, #540, #118 ) ;
#223 = CARTESIAN_POINT ( 'NONE',  ( -20.00000000000001421, 78.75950084241711124, 1.122500925240729863 ) ) ;
#224 = ORIENTED_EDGE ( 'NONE', *, *, #282, .T. ) ;
#225 = CYLINDRICAL_SURFACE ( 'NONE', #77, 3.900000000000005240 ) ;
#226 = LINE ( 'NONE', #367, #401 ) ;
#227 = DIRECTION ( 'NONE',  ( 0.000000000000000000, 0.000000000000000000, -1.000000000000000000 ) ) ;
#228 = CYLINDRICAL_SURFACE ( 'NONE', #269, 3.900000000000005240 ) ;
#229 = AXIS2_PLACEMENT_3D ( 'NONE', #376, #133, #322 ) ;
#230 = ADVANCED_FACE ( 'NONE', ( #210 ), #109, .F. ) ;
#231 = CIRCLE ( 'NONE', #576, 3.900000000000005240 ) ;
#232 = CIRCLE ( 'NONE', #357, 1.950000000000000622 ) ;
#233 = VERTEX_POINT ( 'NONE', #535 ) ;
#234 = DIRECTION ( 'NONE',  ( 0.000000000000000000, 0.000000000000000000, -1.000000000000000000 ) ) ;
#235 = ORIENTED_EDGE ( 'NONE', *, *, #79, .T. ) ;
#236 = ORIENTED_EDGE ( 'NONE', *, *, #392, .T. ) ;
#237 =( NAMED_UNIT ( * ) PLANE_ANGLE_UNIT ( ) SI_UNIT ( $, .RADIAN. ) );
#238 = EDGE_CURVE ( 'NONE', #441, #243, #11, .T. ) ;
#239 = AXIS2_PLACEMENT_3D ( 'NONE', #501, #82, #74 ) ;
#240 = PRESENTATION_LAYER_ASSIGNMENT (  '', '', ( #409 ) ) ;
#241 = ORIENTED_EDGE ( 'NONE', *, *, #70, .F. ) ;
#242 = DIRECTION ( 'NONE',  ( 0.000000000000000000, 0.000000000000000000, -1.000000000000000000 ) ) ;
#243 = VERTEX_POINT ( 'NONE', #536 ) ;
#244 = VERTEX_POINT ( 'NONE', #63 ) ;
#245 = ORIENTED_EDGE ( 'NONE', *, *, #556, .T. ) ;
#246 = VERTEX_POINT ( 'NONE', #575 ) ;
#247 = CARTESIAN_POINT ( 'NONE',  ( -70.00000000000001421, 76.80950084241706577, 4.500000000000014211 ) ) ;
#248 = ORIENTED_EDGE ( 'NONE', *, *, #79, .F. ) ;
#249 = ADVANCED_FACE ( 'NONE', ( #68 ), #205, .F. ) ;
#250 = CARTESIAN_POINT ( 'NONE',  ( -10.00000000000000000, 57.01527220835713194, 0.000000000000000000 ) ) ;
#251 = VECTOR ( 'NONE', #97, 999.9999999999998863 ) ;
#252 = AXIS2_PLACEMENT_3D ( 'NONE', #217, #380, #90 ) ;
#253 = LINE ( 'NONE', #115, #290 ) ;
#254 = PRODUCT_RELATED_PRODUCT_CATEGORY ( 'part', '', ( #493 ) ) ;
#255 = CARTESIAN_POINT ( 'NONE',  ( -36.28097742116184321, 69.01527220835711773, -3.900000000000005240 ) ) ;
#256 = FACE_OUTER_BOUND ( 'NONE', #42, .T. ) ;
#257 = EDGE_CURVE ( 'NONE', #244, #496, #253, .T. ) ;
#258 = DIRECTION ( 'NONE',  ( 0.000000000000000000, 0.000000000000000000, -1.000000000000000000 ) ) ;
#259 = DIRECTION ( 'NONE',  ( 0.000000000000000000, -1.084202172485504804E-16, 1.000000000000000000 ) ) ;
#260 = AXIS2_PLACEMENT_3D ( 'NONE', #559, #195, #391 ) ;
#261 = VECTOR ( 'NONE', #72, 1000.000000000000000 ) ;
#262 = LINE ( 'NONE', #400, #363 ) ;
#263 = AXIS2_PLACEMENT_3D ( 'NONE', #310, #123, #448 ) ;
#264 = CYLINDRICAL_SURFACE ( 'NONE', #489, 1.950000000000000622 ) ;
#265 = ORIENTED_EDGE ( 'NONE', *, *, #238, .F. ) ;
#266 = FACE_OUTER_BOUND ( 'NONE', #2, .T. ) ;
#267 = EDGE_CURVE ( 'NONE', #476, #350, #349, .T. ) ;
#268 = CARTESIAN_POINT ( 'NONE',  ( -36.28097742116184321, 69.01527220835711773, 0.000000000000000000 ) ) ;
#269 = AXIS2_PLACEMENT_3D ( 'NONE', #268, #182, #598 ) ;
#270 = DIRECTION ( 'NONE',  ( 1.000000000000000000, -0.000000000000000000, -0.000000000000000000 ) ) ;
#271 = DIRECTION ( 'NONE',  ( 1.000000000000000000, 0.000000000000000000, 0.000000000000000000 ) ) ;
#272 = AXIS2_PLACEMENT_3D ( 'NONE', #475, #341, #566 ) ;
#273 = DIRECTION ( 'NONE',  ( 0.000000000000000000, 0.000000000000000000, -1.000000000000000000 ) ) ;
#274 = ADVANCED_FACE ( 'NONE', ( #538, #398, #307 ), #580, .T. ) ;
#275 = DIRECTION ( 'NONE',  ( 0.000000000000000000, -1.084202172485504804E-16, 1.000000000000000000 ) ) ;
#276 = CARTESIAN_POINT ( 'NONE',  ( -70.00000000000001421, 76.80950084241706577, 4.500000000000014211 ) ) ;
#277 = AXIS2_PLACEMENT_3D ( 'NONE', #247, #388, #242 ) ;
#278 = ORIENTED_EDGE ( 'NONE', *, *, #347, .T. ) ;
#279 = CARTESIAN_POINT ( 'NONE',  ( -36.28097742116184321, 57.01527220835713194, -3.899999999999999911 ) ) ;
#280 = PRODUCT_CONTEXT ( 'NONE', #377, 'mechanical' ) ;
#281 = CARTESIAN_POINT ( 'NONE',  ( -20.00000000000001421, 70.96527220835712058, -3.377499074759312325 ) ) ;
#282 = EDGE_CURVE ( 'NONE', #476, #243, #385, .T. ) ;
#283 = ORIENTED_EDGE ( 'NONE', *, *, #306, .T. ) ;
#284 = FACE_OUTER_BOUND ( 'NONE', #512, .T. ) ;
#285 = VERTEX_POINT ( 'NONE', #494 ) ;
#286 = APPLICATION_PROTOCOL_DEFINITION ( 'draft international standard', 'automotive_design', 1998, #4 ) ;
#287 = EDGE_LOOP ( 'NONE', ( #425, #413 ) ) ;
#288 = LINE ( 'NONE', #337, #438 ) ;
#289 = ORIENTED_EDGE ( 'NONE', *, *, #407, .T. ) ;
#290 = VECTOR ( 'NONE', #14, 1000.000000000000000 ) ;
#291 = ORIENTED_EDGE ( 'NONE', *, *, #53, .F. ) ;
#292 = PLANE ( 'NONE',  #469 ) ;
#293 = ORIENTED_EDGE ( 'NONE', *, *, #511, .F. ) ;
#294 = CIRCLE ( 'NONE', #191, 3.900000000000004352 ) ;
#295 = ORIENTED_EDGE ( 'NONE', *, *, #599, .T. ) ;
#296 = CYLINDRICAL_SURFACE ( 'NONE', #86, 1.949999999999996403 ) ;
#297 = EDGE_CURVE ( 'NONE', #246, #28, #262, .T. ) ;
#298 = DIRECTION ( 'NONE',  ( 0.000000000000000000, -0.5000000000000013323, 0.8660254037844379305 ) ) ;
#299 = ORIENTED_EDGE ( 'NONE', *, *, #495, .F. ) ;
#300 = DIRECTION ( 'NONE',  ( 1.000000000000000000, 0.000000000000000000, 0.000000000000000000 ) ) ;
#301 = VECTOR ( 'NONE', #316, 1000.000000000000000 ) ;
#302 =( GEOMETRIC_REPRESENTATION_CONTEXT ( 3 ) GLOBAL_UNCERTAINTY_ASSIGNED_CONTEXT ( ( #516 ) ) GLOBAL_UNIT_ASSIGNED_CONTEXT ( ( #308, #216, #211 ) ) REPRESENTATION_CONTEXT ( 'NONE', 'WORKASPACE' ) );
#303 = ORIENTED_EDGE ( 'NONE', *, *, #31, .F. ) ;
#304 = DIRECTION ( 'NONE',  ( 1.000000000000000000, -0.000000000000000000, 0.000000000000000000 ) ) ;
#305 = LINE ( 'NONE', #64, #125 ) ;
#306 = EDGE_CURVE ( 'NONE', #445, #562, #354, .T. ) ;
#307 = FACE_OUTER_BOUND ( 'NONE', #604, .T. ) ;
#308 =( LENGTH_UNIT ( ) NAMED_UNIT ( * ) SI_UNIT ( .MILLI., .METRE. ) );
#309 = CARTESIAN_POINT ( 'NONE',  ( -20.00000000000001421, -24.77408292774981646, -3.900000000000008349 ) ) ;
#310 = CARTESIAN_POINT ( 'NONE',  ( -20.00000000000001421, 76.80950084241706577, 4.500000000000014211 ) ) ;
#311 = DIRECTION ( 'NONE',  ( 0.000000000000000000, 0.000000000000000000, -1.000000000000000000 ) ) ;
#312 = EDGE_CURVE ( 'NONE', #343, #46, #65, .T. ) ;
#313 = CARTESIAN_POINT ( 'NONE',  ( -20.00000000000001421, 76.80950084241706577, 4.500000000000014211 ) ) ;
#314 = ORIENTED_EDGE ( 'NONE', *, *, #297, .T. ) ;
#315 = DIRECTION ( 'NONE',  ( 1.000000000000000000, 0.000000000000000000, 0.000000000000000000 ) ) ;
#316 = DIRECTION ( 'NONE',  ( 1.000000000000000000, -0.000000000000000000, -0.000000000000000000 ) ) ;
#317 = CARTESIAN_POINT ( 'NONE',  ( -36.28097742116184321, 69.01527220835713194, -3.900000000000001688 ) ) ;
#318 = CARTESIAN_POINT ( 'NONE',  ( -36.28097742116184321, 69.01527220835711773, 0.000000000000000000 ) ) ;
#319 = DIRECTION ( 'NONE',  ( 1.000000000000000000, 0.000000000000000000, 0.000000000000000000 ) ) ;
#320 = EDGE_CURVE ( 'NONE', #108, #350, #586, .T. ) ;
#321 = DIRECTION ( 'NONE',  ( 0.000000000000000000, 0.000000000000000000, -1.000000000000000000 ) ) ;
#322 = DIRECTION ( 'NONE',  ( 0.000000000000000000, 0.000000000000000000, -1.000000000000000000 ) ) ;
#323 = ORIENTED_EDGE ( 'NONE', *, *, #312, .T. ) ;
#324 = DIRECTION ( 'NONE',  ( 0.000000000000000000, 0.000000000000000000, -1.000000000000000000 ) ) ;
#325 = AXIS2_PLACEMENT_3D ( 'NONE', #524, #379, #427 ) ;
#326 = ORIENTED_EDGE ( 'NONE', *, *, #534, .T. ) ;
#327 = CARTESIAN_POINT ( 'NONE',  ( -15.00000000000001421, 78.75950084241711124, 1.122500925240729863 ) ) ;
#328 = EDGE_LOOP ( 'NONE', ( #196, #188 ) ) ;
#329 = VECTOR ( 'NONE', #443, 1000.000000000000000 ) ;
#330 = EDGE_CURVE ( 'NONE', #46, #563, #215, .T. ) ;
#331 = DIRECTION ( 'NONE',  ( 1.000000000000000000, 0.000000000000000000, 0.000000000000000000 ) ) ;
#332 = ORIENTED_EDGE ( 'NONE', *, *, #206, .F. ) ;
#333 = CARTESIAN_POINT ( 'NONE',  ( 0.000000000000000000, 4.228388472693473702E-16, -3.900000000000005240 ) ) ;
#334 = ORIENTED_EDGE ( 'NONE', *, *, #267, .F. ) ;
#335 = DIRECTION ( 'NONE',  ( 1.000000000000000000, 0.000000000000000000, 0.000000000000000000 ) ) ;
#336 = EDGE_LOOP ( 'NONE', ( #573, #484, #96, #1, #107, #104 ) ) ;
#337 = CARTESIAN_POINT ( 'NONE',  ( -10.00000000000000000, 57.01527220835713194, 1.950000000000000622 ) ) ;
#338 = ORIENTED_EDGE ( 'NONE', *, *, #127, .T. ) ;
#339 = ORIENTED_EDGE ( 'NONE', *, *, #365, .T. ) ;
#340 = AXIS2_PLACEMENT_3D ( 'NONE', #360, #497, #454 ) ;
#341 = DIRECTION ( 'NONE',  ( 1.000000000000000000, 0.000000000000000000, 0.000000000000000000 ) ) ;
#342 = AXIS2_PLACEMENT_3D ( 'NONE', #459, #463, #311 ) ;
#343 = VERTEX_POINT ( 'NONE', #588 ) ;
#344 = AXIS2_PLACEMENT_3D ( 'NONE', #412, #81, #597 ) ;
#345 = CARTESIAN_POINT ( 'NONE',  ( -10.00000000000000000, 69.01527220835711773, 0.000000000000000000 ) ) ;
#346 = ORIENTED_EDGE ( 'NONE', *, *, #556, .F. ) ;
#347 = EDGE_CURVE ( 'NONE', #194, #100, #601, .T. ) ;
#348 = EDGE_LOOP ( 'NONE', ( #202, #154, #533, #148 ) ) ;
#349 = LINE ( 'NONE', #450, #139 ) ;
#350 = VERTEX_POINT ( 'NONE', #201 ) ;
#351 = DIRECTION ( 'NONE',  ( 0.000000000000000000, -0.8660254037844379305, -0.5000000000000013323 ) ) ;
#352 = ADVANCED_FACE ( 'NONE', ( #396 ), #225, .T. ) ;
#353 = VECTOR ( 'NONE', #271, 1000.000000000000000 ) ;
#354 = LINE ( 'NONE', #358, #173 ) ;
#355 = AXIS2_PLACEMENT_3D ( 'NONE', #554, #129, #545 ) ;
#356 = DIRECTION ( 'NONE',  ( 0.000000000000000000, 0.000000000000000000, -1.000000000000000000 ) ) ;
#357 = AXIS2_PLACEMENT_3D ( 'NONE', #220, #541, #406 ) ;
#358 = CARTESIAN_POINT ( 'NONE',  ( -10.00000000000000000, 57.01527220835713194, -1.950000000000000622 ) ) ;
#359 = CARTESIAN_POINT ( 'NONE',  ( -20.00000000000001421, 57.01527220835712484, -3.900000000000000799 ) ) ;
#360 = CARTESIAN_POINT ( 'NONE',  ( -10.00000000000000000, 69.01527220835711773, 0.000000000000000000 ) ) ;
#361 = DIRECTION ( 'NONE',  ( 1.000000000000000000, 0.000000000000000000, 0.000000000000000000 ) ) ;
#362 = CARTESIAN_POINT ( 'NONE',  ( -70.00000000000001421, 69.01527220835711773, 0.000000000000000000 ) ) ;
#363 = VECTOR ( 'NONE', #160, 1000.000000000000000 ) ;
#364 = VECTOR ( 'NONE', #181, 1000.000000000000000 ) ;
#365 = EDGE_CURVE ( 'NONE', #496, #449, #372, .T. ) ;
#366 = DIRECTION ( 'NONE',  ( 1.000000000000000000, 0.000000000000000000, 0.000000000000000000 ) ) ;
#367 = CARTESIAN_POINT ( 'NONE',  ( -10.00000000000000000, 69.01527220835711773, -1.949999999999996403 ) ) ;
#368 = EDGE_CURVE ( 'NONE', #51, #56, #84, .T. ) ;
#369 = LINE ( 'NONE', #405, #301 ) ;
#370 = DIRECTION ( 'NONE',  ( 1.000000000000000000, 0.000000000000000000, 0.000000000000000000 ) ) ;
#371 = ADVANCED_FACE ( 'NONE', ( #408 ), #590, .T. ) ;
#372 = LINE ( 'NONE', #171, #261 ) ;
#373 = CARTESIAN_POINT ( 'NONE',  ( -20.00000000000001421, -24.77408292774981646, 3.899999999999987033 ) ) ;
#374 = AXIS2_PLACEMENT_3D ( 'NONE', #436, #137, #324 ) ;
#375 = DIRECTION ( 'NONE',  ( 1.000000000000000000, 0.000000000000000000, 0.000000000000000000 ) ) ;
#376 = CARTESIAN_POINT ( 'NONE',  ( 0.000000000000000000, 57.01527220835713194, 0.000000000000000000 ) ) ;
#377 = APPLICATION_CONTEXT ( 'automotive_design' ) ;
#378 = CIRCLE ( 'NONE', #80, 3.900000000000005240 ) ;
#379 = DIRECTION ( 'NONE',  ( 1.000000000000000000, -0.000000000000000000, 0.000000000000000000 ) ) ;
#380 = DIRECTION ( 'NONE',  ( 1.000000000000000000, 0.000000000000000000, 0.000000000000000000 ) ) ;
#381 = ORIENTED_EDGE ( 'NONE', *, *, #34, .T. ) ;
#382 =( NAMED_UNIT ( * ) SI_UNIT ( $, .STERADIAN. ) SOLID_ANGLE_UNIT ( ) );
#383 = ORIENTED_EDGE ( 'NONE', *, *, #585, .F. ) ;
#384 = ADVANCED_FACE ( 'NONE', ( #417 ), #595, .F. ) ;
#385 = CIRCLE ( 'NONE', #222, 3.900000000000005240 ) ;
#386 = DIRECTION ( 'NONE',  ( 1.000000000000000000, 0.000000000000000000, 0.000000000000000000 ) ) ;
#387 = EDGE_LOOP ( 'NONE', ( #71, #144, #197, #483 ) ) ;
#388 = DIRECTION ( 'NONE',  ( 1.000000000000000000, 0.000000000000000000, 0.000000000000000000 ) ) ;
#389 = CIRCLE ( 'NONE', #164, 1.950000000000000622 ) ;
#390 = EDGE_LOOP ( 'NONE', ( #465, #334, #291, #199 ) ) ;
#391 = DIRECTION ( 'NONE',  ( 0.000000000000000000, 0.000000000000000000, -1.000000000000000000 ) ) ;
#392 = EDGE_CURVE ( 'NONE', #39, #91, #527, .T. ) ;
#393 = ORIENTED_EDGE ( 'NONE', *, *, #53, .T. ) ;
#394 = DIRECTION ( 'NONE',  ( 1.000000000000000000, 0.000000000000000000, 0.000000000000000000 ) ) ;
#395 = ORIENTED_EDGE ( 'NONE', *, *, #175, .F. ) ;
#396 = FACE_OUTER_BOUND ( 'NONE', #446, .T. ) ;
#397 = ORIENTED_EDGE ( 'NONE', *, *, #105, .T. ) ;
#398 = FACE_BOUND ( 'NONE', #49, .T. ) ;
#399 = ADVANCED_FACE ( 'NONE', ( #498 ), #503, .F. ) ;
#400 = CARTESIAN_POINT ( 'NONE',  ( -20.00000000000001421, 76.80950084241706577, 8.400000000000018119 ) ) ;
#401 = VECTOR ( 'NONE', #30, 1000.000000000000000 ) ;
#402 = DIRECTION ( 'NONE',  ( 1.000000000000000000, 0.000000000000000000, 0.000000000000000000 ) ) ;
#403 = APPLICATION_PROTOCOL_DEFINITION ( 'draft international standard', 'automotive_design', 1998, #377 ) ;
#404 = DIRECTION ( 'NONE',  ( 0.000000000000000000, -1.000000000000000000, -1.084202172485504557E-16 ) ) ;
#405 = CARTESIAN_POINT ( 'NONE',  ( -10.00000000000000000, 69.01527220835711773, 1.949999999999996403 ) ) ;
#406 = DIRECTION ( 'NONE',  ( 0.000000000000000000, 0.000000000000000000, -1.000000000000000000 ) ) ;
#407 = EDGE_CURVE ( 'NONE', #39, #244, #32, .T. ) ;
#408 = FACE_OUTER_BOUND ( 'NONE', #336, .T. ) ;
#409 = STYLED_ITEM ( 'NONE', ( #568 ), #101 ) ;
#410 = FACE_OUTER_BOUND ( 'NONE', #59, .T. ) ;
#411 = AXIS2_PLACEMENT_3D ( 'NONE', #21, #26, #227 ) ;
#412 = CARTESIAN_POINT ( 'NONE',  ( -20.00000000000001421, -8.039883864537376468, -39.98448300145535228 ) ) ;
#413 = ORIENTED_EDGE ( 'NONE', *, *, #414, .F. ) ;
#414 = EDGE_CURVE ( 'NONE', #441, #343, #203, .T. ) ;
#415 = DIRECTION ( 'NONE',  ( 1.000000000000000000, 0.000000000000000000, 0.000000000000000000 ) ) ;
#416 = DIRECTION ( 'NONE',  ( 0.000000000000000000, -0.8660254037844379305, -0.5000000000000013323 ) ) ;
#417 = FACE_OUTER_BOUND ( 'NONE', #387, .T. ) ;
#418 = CARTESIAN_POINT ( 'NONE',  ( -20.00000000000001421, -4.139883864537376112, -46.73948115097396538 ) ) ;
#419 = CARTESIAN_POINT ( 'NONE',  ( -10.00000000000000000, 69.01527220835711773, 0.000000000000000000 ) ) ;
#420 = PLANE ( 'NONE',  #113 ) ;
#421 = VERTEX_POINT ( 'NONE', #509 ) ;
#422 = ADVANCED_FACE ( 'NONE', ( #174 ), #264, .F. ) ;
#423 = ORIENTED_EDGE ( 'NONE', *, *, #13, .F. ) ;
#424 = CARTESIAN_POINT ( 'NONE',  ( -10.00000000000000000, 69.01527220835711773, 1.949999999999996403 ) ) ;
#425 = ORIENTED_EDGE ( 'NONE', *, *, #579, .F. ) ;
#426 = ORIENTED_EDGE ( 'NONE', *, *, #158, .T. ) ;
#427 = DIRECTION ( 'NONE',  ( 0.000000000000000000, 0.000000000000000000, -1.000000000000000000 ) ) ;
#428 = PRODUCT_DEFINITION_FORMATION_WITH_SPECIFIED_SOURCE ( 'ANY', '', #493, .NOT_KNOWN. ) ;
#429 = EDGE_LOOP ( 'NONE', ( #338, #245 ) ) ;
#430 = EDGE_CURVE ( 'NONE', #285, #91, #600, .T. ) ;
#431 = VERTEX_POINT ( 'NONE', #223 ) ;
#432 = SURFACE_SIDE_STYLE ('',( #616 ) ) ;
#433 = ORIENTED_EDGE ( 'NONE', *, *, #511, .T. ) ;
#434 = PRODUCT_DEFINITION_CONTEXT ( 'detailed design', #4, 'design' ) ;
#435 = ORIENTED_EDGE ( 'NONE', *, *, #330, .T. ) ;
#436 = CARTESIAN_POINT ( 'NONE',  ( -20.00000000000001421, 76.80950084241706577, 4.500000000000014211 ) ) ;
#437 = ORIENTED_EDGE ( 'NONE', *, *, #414, .T. ) ;
#438 = VECTOR ( 'NONE', #477, 1000.000000000000000 ) ;
#439 = AXIS2_PLACEMENT_3D ( 'NONE', #550, #552, #466 ) ;
#440 = CARTESIAN_POINT ( 'NONE',  ( -20.00000000000001421, -4.139883864537376112, -46.73948115097396538 ) ) ;
#441 = VERTEX_POINT ( 'NONE', #75 ) ;
#442 = DIRECTION ( 'NONE',  ( 1.000000000000000000, 0.000000000000000000, 0.000000000000000000 ) ) ;
#443 = DIRECTION ( 'NONE',  ( 1.000000000000000000, 0.000000000000000000, 0.000000000000000000 ) ) ;
#444 = ADVANCED_FACE ( 'NONE', ( #266 ), #76, .T. ) ;
#445 = VERTEX_POINT ( 'NONE', #176 ) ;
#446 = EDGE_LOOP ( 'NONE', ( #142, #523, #152, #146, #241, #326, #558, #54, #183 ) ) ;
#447 = CARTESIAN_POINT ( 'NONE',  ( -15.00000000000001421, 76.80950084241706577, 4.500000000000014211 ) ) ;
#448 = DIRECTION ( 'NONE',  ( 0.000000000000000000, 0.000000000000000000, -1.000000000000000000 ) ) ;
#449 = VERTEX_POINT ( 'NONE', #555 ) ;
#450 = CARTESIAN_POINT ( 'NONE',  ( -20.00000000000001421, 70.96527220835713479, -3.377499074759303888 ) ) ;
#451 = VECTOR ( 'NONE', #402, 1000.000000000000000 ) ;
#452 = CARTESIAN_POINT ( 'NONE',  ( -36.28097742116184321, 57.01527220835713194, 0.000000000000000000 ) ) ;
#453 = EDGE_CURVE ( 'NONE', #100, #73, #369, .T. ) ;
#454 = DIRECTION ( 'NONE',  ( 0.000000000000000000, 0.000000000000000000, -1.000000000000000000 ) ) ;
#455 = EDGE_CURVE ( 'NONE', #431, #108, #122, .T. ) ;
#456 = DIRECTION ( 'NONE',  ( 0.000000000000000000, 0.000000000000000000, -1.000000000000000000 ) ) ;
#457 = DIRECTION ( 'NONE',  ( 0.000000000000000000, 0.000000000000000000, -1.000000000000000000 ) ) ;
#458 = DIRECTION ( 'NONE',  ( 1.000000000000000000, 0.000000000000000000, 0.000000000000000000 ) ) ;
#459 = CARTESIAN_POINT ( 'NONE',  ( -10.00000000000000000, 69.01527220835711773, 0.000000000000000000 ) ) ;
#460 = CARTESIAN_POINT ( 'NONE',  ( -20.00000000000001421, 69.01527220835713194, -3.900000000000005240 ) ) ;
#461 = EDGE_CURVE ( 'NONE', #421, #562, #389, .T. ) ;
#462 = CIRCLE ( 'NONE', #578, 1.949999999999996403 ) ;
#463 = DIRECTION ( 'NONE',  ( 1.000000000000000000, -0.000000000000000000, -0.000000000000000000 ) ) ;
#464 = DIRECTION ( 'NONE',  ( 0.000000000000000000, 0.000000000000000000, 1.000000000000000000 ) ) ;
#465 = ORIENTED_EDGE ( 'NONE', *, *, #320, .T. ) ;
#466 = DIRECTION ( 'NONE',  ( 0.000000000000000000, 0.000000000000000000, -1.000000000000000000 ) ) ;
#467 = CARTESIAN_POINT ( 'NONE',  ( -10.00000000000000000, 69.01527220835711773, 0.000000000000000000 ) ) ;
#468 = CARTESIAN_POINT ( 'NONE',  ( 0.000000000000000000, 69.01527220835711773, 0.000000000000000000 ) ) ;
#469 = AXIS2_PLACEMENT_3D ( 'NONE', #50, #198, #530 ) ;
#470 = ADVANCED_FACE ( 'NONE', ( #510 ), #19, .T. ) ;
#471 = ORIENTED_EDGE ( 'NONE', *, *, #455, .F. ) ;
#472 = DIRECTION ( 'NONE',  ( 1.000000000000000000, 0.000000000000000000, 0.000000000000000000 ) ) ;
#473 = EDGE_LOOP ( 'NONE', ( #478, #397, #615, #140, #519, #299 ) ) ;
#474 = DIRECTION ( 'NONE',  ( 1.000000000000000000, -0.000000000000000000, -0.000000000000000000 ) ) ;
#475 = CARTESIAN_POINT ( 'NONE',  ( 0.000000000000000000, 69.01527220835711773, 0.000000000000000000 ) ) ;
#476 = VERTEX_POINT ( 'NONE', #281 ) ;
#477 = DIRECTION ( 'NONE',  ( 1.000000000000000000, -0.000000000000000000, -0.000000000000000000 ) ) ;
#478 = ORIENTED_EDGE ( 'NONE', *, *, #297, .F. ) ;
#479 = EDGE_CURVE ( 'NONE', #159, #56, #570, .T. ) ;
#480 = AXIS2_PLACEMENT_3D ( 'NONE', #92, #394, #234 ) ;
#481 = AXIS2_PLACEMENT_3D ( 'NONE', #219, #275, #543 ) ;
#482 = ORIENTED_EDGE ( 'NONE', *, *, #599, .F. ) ;
#483 = ORIENTED_EDGE ( 'NONE', *, *, #41, .F. ) ;
#484 = ORIENTED_EDGE ( 'NONE', *, *, #257, .F. ) ;
#485 = FACE_OUTER_BOUND ( 'NONE', #3, .T. ) ;
#486 = FACE_OUTER_BOUND ( 'NONE', #429, .T. ) ;
#487 = CIRCLE ( 'NONE', #131, 3.900000000000004352 ) ;
#488 = EDGE_CURVE ( 'NONE', #100, #194, #462, .T. ) ;
#489 = AXIS2_PLACEMENT_3D ( 'NONE', #128, #270, #126 ) ;
#490 = DIRECTION ( 'NONE',  ( 1.000000000000000000, 0.000000000000000000, 0.000000000000000000 ) ) ;
#491 = DIRECTION ( 'NONE',  ( 1.000000000000000000, -0.000000000000000000, -0.000000000000000000 ) ) ;
#492 = FACE_OUTER_BOUND ( 'NONE', #500, .T. ) ;
#493 = PRODUCT ( 'cylinder', 'cylinder', '', ( #280 ) ) ;
#494 = CARTESIAN_POINT ( 'NONE',  ( -70.00000000000001421, 76.80950084241706577, 0.6000000000000103029 ) ) ;
#495 = EDGE_CURVE ( 'NONE', #28, #156, #294, .T. ) ;
#496 = VERTEX_POINT ( 'NONE', #95 ) ;
#497 = DIRECTION ( 'NONE',  ( 1.000000000000000000, 0.000000000000000000, 0.000000000000000000 ) ) ;
#498 = FACE_OUTER_BOUND ( 'NONE', #287, .T. ) ;
#499 = CARTESIAN_POINT ( 'NONE',  ( -10.00000000000000000, 57.01527220835713194, 1.950000000000000622 ) ) ;
#500 = EDGE_LOOP ( 'NONE', ( #346, #426, #48, #577 ) ) ;
#501 = CARTESIAN_POINT ( 'NONE',  ( 0.000000000000000000, 69.01527220835711773, 0.000000000000000000 ) ) ;
#502 = EDGE_CURVE ( 'NONE', #111, #73, #69, .T. ) ;
#503 = PLANE ( 'NONE',  #439 ) ;
#504 = DIRECTION ( 'NONE',  ( 0.000000000000000000, 0.000000000000000000, -1.000000000000000000 ) ) ;
#505 = PRODUCT_DEFINITION_SHAPE ( 'NONE', 'NONE',  #83 ) ;
#506 = CARTESIAN_POINT ( 'NONE',  ( 0.000000000000000000, -4.228388472693457925E-16, 3.899999999999990585 ) ) ;
#507 = CIRCLE ( 'NONE', #239, 3.900000000000005240 ) ;
#508 = CARTESIAN_POINT ( 'NONE',  ( -15.00000000000001421, 76.80950084241706577, 8.400000000000018119 ) ) ;
#509 = CARTESIAN_POINT ( 'NONE',  ( 0.000000000000000000, 57.01527220835713194, 1.950000000000000622 ) ) ;
#510 = FACE_OUTER_BOUND ( 'NONE', #473, .T. ) ;
#511 = EDGE_CURVE ( 'NONE', #243, #46, #378, .T. ) ;
#512 = EDGE_LOOP ( 'NONE', ( #78, #606, #513, #612 ) ) ;
#513 = ORIENTED_EDGE ( 'NONE', *, *, #41, .T. ) ;
#514 = CARTESIAN_POINT ( 'NONE',  ( -15.00000000000001421, -8.039883864537376468, -39.98448300145535228 ) ) ;
#515 = EDGE_LOOP ( 'NONE', ( #278, #149 ) ) ;
#516 = UNCERTAINTY_MEASURE_WITH_UNIT (LENGTH_MEASURE( 1.000000000000000082E-05 ), #308, 'distance_accuracy_value', 'NONE');
#517 = DIRECTION ( 'NONE',  ( 1.000000000000000000, 0.000000000000000000, 0.000000000000000000 ) ) ;
#518 = ADVANCED_FACE ( 'NONE', ( #99 ), #47, .F. ) ;
#519 = ORIENTED_EDGE ( 'NONE', *, *, #585, .T. ) ;
#520 = CARTESIAN_POINT ( 'NONE',  ( -15.00000000000001421, 74.85950084241707714, 7.877499074759335862 ) ) ;
#521 = ORIENTED_EDGE ( 'NONE', *, *, #138, .T. ) ;
#522 = DIRECTION ( 'NONE',  ( 0.000000000000000000, 0.000000000000000000, -1.000000000000000000 ) ) ;
#523 = ORIENTED_EDGE ( 'NONE', *, *, #238, .T. ) ;
#524 = CARTESIAN_POINT ( 'NONE',  ( 0.000000000000000000, 57.01527220835713194, 0.000000000000000000 ) ) ;
#525 = ORIENTED_EDGE ( 'NONE', *, *, #138, .F. ) ;
#526 = CIRCLE ( 'NONE', #229, 1.950000000000000622 ) ;
#527 = CIRCLE ( 'NONE', #67, 3.900000000000004352 ) ;
#528 = DIRECTION ( 'NONE',  ( 0.000000000000000000, 0.000000000000000000, -1.000000000000000000 ) ) ;
#529 = EDGE_LOOP ( 'NONE', ( #393, #224, #433, #435, #395, #423, #37, #236, #295 ) ) ;
#530 = DIRECTION ( 'NONE',  ( 0.000000000000000000, 0.000000000000000000, -1.000000000000000000 ) ) ;
#531 = ORIENTED_EDGE ( 'NONE', *, *, #320, .F. ) ;
#532 = CARTESIAN_POINT ( 'NONE',  ( -10.00000000000000000, 69.01527220835711773, -1.949999999999996403 ) ) ;
#533 = ORIENTED_EDGE ( 'NONE', *, *, #192, .T. ) ;
#534 = EDGE_CURVE ( 'NONE', #449, #51, #61, .T. ) ;
#535 = CARTESIAN_POINT ( 'NONE',  ( 0.000000000000000000, 69.01527220835713194, -3.900000000000001688 ) ) ;
#536 = CARTESIAN_POINT ( 'NONE',  ( -20.00000000000001776, 69.01527220835711773, 3.900000000000005240 ) ) ;
#537 = AXIS2_PLACEMENT_3D ( 'NONE', #20, #464, #319 ) ;
#538 = FACE_BOUND ( 'NONE', #328, .T. ) ;
#539 = ADVANCED_FACE ( 'NONE', ( #256 ), #218, .F. ) ;
#540 = DIRECTION ( 'NONE',  ( 1.000000000000000000, 0.000000000000000000, 0.000000000000000000 ) ) ;
#541 = DIRECTION ( 'NONE',  ( 1.000000000000000000, 0.000000000000000000, 0.000000000000000000 ) ) ;
#542 = VECTOR ( 'NONE', #472, 1000.000000000000000 ) ;
#543 = DIRECTION ( 'NONE',  ( 0.000000000000000000, -1.000000000000000000, -1.084202172485504804E-16 ) ) ;
#544 = FACE_OUTER_BOUND ( 'NONE', #348, .T. ) ;
#545 = DIRECTION ( 'NONE',  ( 0.000000000000000000, 0.000000000000000000, -1.000000000000000000 ) ) ;
#546 = AXIS2_PLACEMENT_3D ( 'NONE', #452, #17, #22 ) ;
#547 = CARTESIAN_POINT ( 'NONE',  ( -20.00000000000001421, 76.80950084241706577, 0.6000000000000103029 ) ) ;
#548 = LINE ( 'NONE', #418, #130 ) ;
#549 = ADVANCED_FACE ( 'NONE', ( #492 ), #117, .F. ) ;
#550 = CARTESIAN_POINT ( 'NONE',  ( -70.00000000000001421, 69.01527220835711773, 0.000000000000000000 ) ) ;
#551 = CARTESIAN_POINT ( 'NONE',  ( 0.000000000000000000, 69.01527220835713194, 3.900000000000001688 ) ) ;
#552 = DIRECTION ( 'NONE',  ( 1.000000000000000000, 0.000000000000000000, 0.000000000000000000 ) ) ;
#553 = AXIS2_PLACEMENT_3D ( 'NONE', #440, #298, #351 ) ;
#554 = CARTESIAN_POINT ( 'NONE',  ( -15.00000000000001421, 69.01527220835711773, 0.000000000000000000 ) ) ;
#555 = CARTESIAN_POINT ( 'NONE',  ( -15.00000000000001421, 69.01527220835713194, 3.899999999999998135 ) ) ;
#556 = EDGE_CURVE ( 'NONE', #560, #445, #232, .T. ) ;
#557 = EDGE_LOOP ( 'NONE', ( #303, #186 ) ) ;
#558 = ORIENTED_EDGE ( 'NONE', *, *, #34, .F. ) ;
#559 = CARTESIAN_POINT ( 'NONE',  ( -20.00000000000001421, 57.01527220835713194, 0.000000000000000000 ) ) ;
#560 = VERTEX_POINT ( 'NONE', #499 ) ;
#561 = DIRECTION ( 'NONE',  ( 0.000000000000000000, 0.000000000000000000, -1.000000000000000000 ) ) ;
#562 = VERTEX_POINT ( 'NONE', #172 ) ;
#563 = VERTEX_POINT ( 'NONE', #359 ) ;
#564 = FILL_AREA_STYLE ('',( #150 ) ) ;
#565 = ORIENTED_EDGE ( 'NONE', *, *, #170, .T. ) ;
#566 = DIRECTION ( 'NONE',  ( 0.000000000000000000, 0.000000000000000000, -1.000000000000000000 ) ) ;
#567 = ORIENTED_EDGE ( 'NONE', *, *, #31, .T. ) ;
#568 = PRESENTATION_STYLE_ASSIGNMENT (( #605 ) ) ;
#569 = ORIENTED_EDGE ( 'NONE', *, *, #257, .T. ) ;
#570 = LINE ( 'NONE', #607, #18 ) ;
#571 = ORIENTED_EDGE ( 'NONE', *, *, #127, .F. ) ;
#572 = LINE ( 'NONE', #333, #591 ) ;
#573 = ORIENTED_EDGE ( 'NONE', *, *, #365, .F. ) ;
#574 =( GEOMETRIC_REPRESENTATION_CONTEXT ( 3 ) GLOBAL_UNCERTAINTY_ASSIGNED_CONTEXT ( ( #52 ) ) GLOBAL_UNIT_ASSIGNED_CONTEXT ( ( #147, #237, #382 ) ) REPRESENTATION_CONTEXT ( 'NONE', 'WORKASPACE' ) );
#575 = CARTESIAN_POINT ( 'NONE',  ( -70.00000000000001421, 76.80950084241706577, 8.400000000000018119 ) ) ;
#576 = AXIS2_PLACEMENT_3D ( 'NONE', #362, #209, #457 ) ;
#577 = ORIENTED_EDGE ( 'NONE', *, *, #306, .F. ) ;
#578 = AXIS2_PLACEMENT_3D ( 'NONE', #419, #386, #528 ) ;
#579 = EDGE_CURVE ( 'NONE', #343, #441, #231, .T. ) ;
#580 = PLANE ( 'NONE',  #15 ) ;
#581 = ORIENTED_EDGE ( 'NONE', *, *, #158, .F. ) ;
#582 = DIRECTION ( 'NONE',  ( 1.000000000000000000, 0.000000000000000000, 0.000000000000000000 ) ) ;
#583 = DIRECTION ( 'NONE',  ( 1.000000000000000000, -0.000000000000000000, -0.000000000000000000 ) ) ;
#584 = CIRCLE ( 'NONE', #180, 1.949999999999996403 ) ;
#585 = EDGE_CURVE ( 'NONE', #39, #156, #305, .T. ) ;
#586 = LINE ( 'NONE', #165, #114 ) ;
#587 = DIRECTION ( 'NONE',  ( 0.000000000000000000, 0.000000000000000000, -1.000000000000000000 ) ) ;
#588 = CARTESIAN_POINT ( 'NONE',  ( -70.00000000000001421, 69.01527220835711773, -3.900000000000005240 ) ) ;
#589 = CYLINDRICAL_SURFACE ( 'NONE', #546, 3.900000000000000799 ) ;
#590 = PLANE ( 'NONE',  #481 ) ;
#591 = VECTOR ( 'NONE', #609, 1000.000000000000000 ) ;
#592 = CARTESIAN_POINT ( 'NONE',  ( -20.00000000000001421, -8.039883864537376468, -39.98448300145535228 ) ) ;
#593 = CARTESIAN_POINT ( 'NONE',  ( 0.000000000000000000, 57.01527220835713194, -3.899999999999999911 ) ) ;
#594 = ADVANCED_FACE ( 'NONE', ( #544 ), #589, .T. ) ;
#595 = CYLINDRICAL_SURFACE ( 'NONE', #342, 1.949999999999996403 ) ;
#596 = LINE ( 'NONE', #373, #610 ) ;
#597 = DIRECTION ( 'NONE',  ( 0.000000000000000000, -0.8660254037844379305, -0.5000000000000014433 ) ) ;
#598 = DIRECTION ( 'NONE',  ( 0.000000000000000000, 0.000000000000000000, -1.000000000000000000 ) ) ;
#599 = EDGE_CURVE ( 'NONE', #91, #431, #204, .T. ) ;
#600 = LINE ( 'NONE', #547, #189 ) ;
#601 = CIRCLE ( 'NONE', #340, 1.949999999999996403 ) ;
#602 = CARTESIAN_POINT ( 'NONE',  ( 0.000000000000000000, 57.01527220835713194, 3.899999999999999023 ) ) ;
#603 = CARTESIAN_POINT ( 'NONE',  ( -70.00000000000001421, 76.80950084241706577, 4.500000000000014211 ) ) ;
#604 = EDGE_LOOP ( 'NONE', ( #381, #93, #565, #525 ) ) ;
#605 = SURFACE_STYLE_USAGE ( .BOTH. , #432 ) ;
#606 = ORIENTED_EDGE ( 'NONE', *, *, #347, .F. ) ;
#607 = CARTESIAN_POINT ( 'NONE',  ( -36.28097742116184321, 57.01527220835713194, 3.899999999999999023 ) ) ;
#608 = ORIENTED_EDGE ( 'NONE', *, *, #120, .T. ) ;
#609 = DIRECTION ( 'NONE',  ( 0.000000000000000000, -1.000000000000000000, -1.084202172485504681E-16 ) ) ;
#610 = VECTOR ( 'NONE', #33, 1000.000000000000000 ) ;
#611 = COLOUR_RGB ( '',0.7921568627450980005, 0.8196078431372548767, 0.9333333333333333481 ) ;
#612 = ORIENTED_EDGE ( 'NONE', *, *, #502, .T. ) ;
#613 = DIRECTION ( 'NONE',  ( 0.000000000000000000, 0.000000000000000000, -1.000000000000000000 ) ) ;
#614 = AXIS2_PLACEMENT_3D ( 'NONE', #119, #583, #356 ) ;
#615 = ORIENTED_EDGE ( 'NONE', *, *, #430, .T. ) ;
#616 = SURFACE_STYLE_FILL_AREA ( #564 ) ;
ENDSEC;
END-ISO-10303-21;
