ISO-10303-21;
HEADER;
FILE_DESCRIPTION (( 'STEP AP214' ),
    '1' );
FILE_NAME ('cylinder out.STEP',
    '2026-08-03T22:22:07',
    ( '' ),
    ( '' ),
    'SwSTEP 2.0',
    'SolidWorks 2023',
    '' );
FILE_SCHEMA (( 'AUTOMOTIVE_DESIGN' ));
ENDSEC;

DATA;
#1 = DIRECTION ( 'NONE',  ( 0.000000000000000000, 1.000000000000000000, 0.000000000000000000 ) ) ;
#2 = ADVANCED_FACE ( 'NONE', ( #21 ), #88, .F. ) ;
#3 = ORIENTED_EDGE ( 'NONE', *, *, #247, .T. ) ;
#4 = VECTOR ( 'NONE', #74, 1000.000000000000000 ) ;
#5 = CARTESIAN_POINT ( 'NONE',  ( 3.000000000000000000, 1.387778780781445676E-14, -10.39999999999998614 ) ) ;
#6 = ORIENTED_EDGE ( 'NONE', *, *, #130, .F. ) ;
#7 = FACE_BOUND ( 'NONE', #258, .T. ) ;
#8 = VERTEX_POINT ( 'NONE', #201 ) ;
#9 = ADVANCED_FACE ( 'NONE', ( #194 ), #448, .F. ) ;
#10 = CARTESIAN_POINT ( 'NONE',  ( 0.000000000000000000, -1.387778780781445676E-14, -6.500000000000000888 ) ) ;
#11 = DIRECTION ( 'NONE',  ( 0.000000000000000000, 0.8988764044943828857, -0.4382022471910094752 ) ) ;
#12 = VECTOR ( 'NONE', #333, 1000.000000000000000 ) ;
#13 = CARTESIAN_POINT ( 'NONE',  ( 3.000000000000000000, -3.469446951953641306E-16, 2.400000000000018119 ) ) ;
#14 = DIRECTION ( 'NONE',  ( 0.000000000000000000, 0.000000000000000000, 1.000000000000000000 ) ) ;
#15 = CARTESIAN_POINT ( 'NONE',  ( 3.000000000000000000, 1.084202172485504434E-16, 2.400000000000018119 ) ) ;
#16 = FACE_OUTER_BOUND ( 'NONE', #318, .T. ) ;
#17 = CARTESIAN_POINT ( 'NONE',  ( 3.000000000000000000, -11.99999999999999645, -6.500000000000000888 ) ) ;
#18 = CARTESIAN_POINT ( 'NONE',  ( 3.000000000000000000, -10.64108067163238758, 5.187526827420763098 ) ) ;
#19 = CARTESIAN_POINT ( 'NONE',  ( 3.000000000000000000, 0.000000000000000000, -6.499999999999984013 ) ) ;
#20 = AXIS2_PLACEMENT_3D ( 'NONE', #368, #226, #33 ) ;
#21 = FACE_OUTER_BOUND ( 'NONE', #321, .T. ) ;
#22 = COLOUR_RGB ( '',0.7921568627450980005, 0.8196078431372548767, 0.9333333333333333481 ) ;
#23 = DIRECTION ( 'NONE',  ( 0.000000000000000000, -1.000000000000000000, -1.445602896647339656E-16 ) ) ;
#24 = ADVANCED_FACE ( 'NONE', ( #16 ), #191, .F. ) ;
#25 = FACE_OUTER_BOUND ( 'NONE', #403, .T. ) ;
#26 = CARTESIAN_POINT ( 'NONE',  ( 3.000000000000000000, 0.000000000000000000, -6.499999999999984013 ) ) ;
#27 = VECTOR ( 'NONE', #132, 1000.000000000000000 ) ;
#28 = ORIENTED_EDGE ( 'NONE', *, *, #176, .F. ) ;
#29 = DIRECTION ( 'NONE',  ( 1.000000000000000000, -0.000000000000000000, 0.000000000000000000 ) ) ;
#30 = ORIENTED_EDGE ( 'NONE', *, *, #66, .T. ) ;
#31 = DIRECTION ( 'NONE',  ( 0.000000000000000000, 0.000000000000000000, -1.000000000000000000 ) ) ;
#32 = EDGE_LOOP ( 'NONE', ( #401, #189, #220, #30 ) ) ;
#33 = DIRECTION ( 'NONE',  ( 0.000000000000000000, 0.000000000000000000, 1.000000000000000000 ) ) ;
#34 = ORIENTED_EDGE ( 'NONE', *, *, #200, .T. ) ;
#35 = AXIS2_PLACEMENT_3D ( 'NONE', #10, #307, #153 ) ;
#36 = DIRECTION ( 'NONE',  ( 0.000000000000000000, 0.000000000000000000, -1.000000000000000000 ) ) ;
#37 = ORIENTED_EDGE ( 'NONE', *, *, #431, .T. ) ;
#38 = ADVANCED_FACE ( 'NONE', ( #154 ), #122, .F. ) ;
#39 = CARTESIAN_POINT ( 'NONE',  ( 3.000000000000000000, -11.99999999999998224, -10.39999999999998614 ) ) ;
#40 = ORIENTED_EDGE ( 'NONE', *, *, #89, .F. ) ;
#41 = DIRECTION ( 'NONE',  ( 1.000000000000000000, -0.000000000000000000, 0.000000000000000000 ) ) ;
#42 = ORIENTED_EDGE ( 'NONE', *, *, #374, .T. ) ;
#43 = VECTOR ( 'NONE', #262, 1000.000000000000000 ) ;
#44 = DIRECTION ( 'NONE',  ( 1.000000000000000000, -0.000000000000000000, 0.000000000000000000 ) ) ;
#45 = EDGE_CURVE ( 'NONE', #55, #103, #304, .T. ) ;
#46 = EDGE_LOOP ( 'NONE', ( #255, #329, #101, #393 ) ) ;
#47 = LINE ( 'NONE', #343, #169 ) ;
#48 =( NAMED_UNIT ( * ) SI_UNIT ( $, .STERADIAN. ) SOLID_ANGLE_UNIT ( ) );
#49 = DIRECTION ( 'NONE',  ( 0.000000000000000000, 0.000000000000000000, -1.000000000000000000 ) ) ;
#50 = CARTESIAN_POINT ( 'NONE',  ( 3.000000000000000000, -11.99999999999999645, -6.500000000000000888 ) ) ;
#51 = PRODUCT_DEFINITION_FORMATION_WITH_SPECIFIED_SOURCE ( 'ANY', '', #463, .NOT_KNOWN. ) ;
#52 = APPLICATION_PROTOCOL_DEFINITION ( 'draft international standard', 'automotive_design', 1998, #410 ) ;
#53 = SURFACE_SIDE_STYLE ('',( #452 ) ) ;
#54 = DIRECTION ( 'NONE',  ( 1.000000000000000000, -0.000000000000000000, 0.000000000000000000 ) ) ;
#55 = VERTEX_POINT ( 'NONE', #158 ) ;
#56 = DIRECTION ( 'NONE',  ( 1.000000000000000000, -0.000000000000000000, 0.000000000000000000 ) ) ;
#57 = VECTOR ( 'NONE', #429, 1000.000000000000000 ) ;
#58 = LINE ( 'NONE', #168, #286 ) ;
#59 = PRESENTATION_LAYER_ASSIGNMENT (  '', '', ( #204 ) ) ;
#60 = CARTESIAN_POINT ( 'NONE',  ( 3.000000000000000000, -1.360224227800630267E-14, -8.749999999999998224 ) ) ;
#61 = ORIENTED_EDGE ( 'NONE', *, *, #242, .F. ) ;
#62 = LINE ( 'NONE', #238, #195 ) ;
#63 = VERTEX_POINT ( 'NONE', #384 ) ;
#64 = CARTESIAN_POINT ( 'NONE',  ( 3.000000000000000000, 1.084202172485504434E-16, 2.400000000000018119 ) ) ;
#65 = VERTEX_POINT ( 'NONE', #198 ) ;
#66 = EDGE_CURVE ( 'NONE', #144, #113, #165, .T. ) ;
#67 = CARTESIAN_POINT ( 'NONE',  ( 3.000000000000000000, -11.99999999999999645, -4.250000000000000000 ) ) ;
#68 = EDGE_LOOP ( 'NONE', ( #440, #433, #28, #134 ) ) ;
#69 = LINE ( 'NONE', #328, #453 ) ;
#70 = EDGE_LOOP ( 'NONE', ( #34, #181 ) ) ;
#71 = PLANE ( 'NONE',  #303 ) ;
#72 = ORIENTED_EDGE ( 'NONE', *, *, #192, .T. ) ;
#73 = CIRCLE ( 'NONE', #365, 3.900000000000001688 ) ;
#74 = DIRECTION ( 'NONE',  ( 1.000000000000000000, 0.000000000000000000, 0.000000000000000000 ) ) ;
#75 = ORIENTED_EDGE ( 'NONE', *, *, #223, .T. ) ;
#76 = DIRECTION ( 'NONE',  ( 0.000000000000000000, -0.4382022471910113071, 0.8988764044943819975 ) ) ;
#77 = ORIENTED_EDGE ( 'NONE', *, *, #374, .F. ) ;
#78 = EDGE_CURVE ( 'NONE', #407, #207, #352, .T. ) ;
#79 = DIRECTION ( 'NONE',  ( -1.000000000000000000, -0.000000000000000000, -0.000000000000000000 ) ) ;
#80 = VERTEX_POINT ( 'NONE', #347 ) ;
#81 = CIRCLE ( 'NONE', #466, 2.250000000000000444 ) ;
#82 = VECTOR ( 'NONE', #269, 1000.000000000000000 ) ;
#83 = CARTESIAN_POINT ( 'NONE',  ( 0.000000000000000000, 0.000000000000000000, -6.499999999999984013 ) ) ;
#84 = ORIENTED_EDGE ( 'NONE', *, *, #386, .T. ) ;
#85 = DIRECTION ( 'NONE',  ( 0.000000000000000000, 0.000000000000000000, 1.000000000000000000 ) ) ;
#86 = ORIENTED_EDGE ( 'NONE', *, *, #45, .F. ) ;
#87 = LINE ( 'NONE', #13, #97 ) ;
#88 = PLANE ( 'NONE',  #267 ) ;
#89 = EDGE_CURVE ( 'NONE', #152, #113, #380, .T. ) ;
#90 = AXIS2_PLACEMENT_3D ( 'NONE', #180, #41, #373 ) ;
#91 = PRESENTATION_STYLE_ASSIGNMENT (( #419 ) ) ;
#92 = CYLINDRICAL_SURFACE ( 'NONE', #412, 3.900000000000001688 ) ;
#93 = FACE_OUTER_BOUND ( 'NONE', #263, .T. ) ;
#94 = ADVANCED_FACE ( 'NONE', ( #418 ), #160, .F. ) ;
#95 = CARTESIAN_POINT ( 'NONE',  ( 3.000000000000000000, 0.000000000000000000, -10.39999999999998614 ) ) ;
#96 = MANIFOLD_SOLID_BREP ( 'Boss-Extrude2', #164 ) ;
#97 = VECTOR ( 'NONE', #159, 1000.000000000000000 ) ;
#98 = CARTESIAN_POINT ( 'NONE',  ( 0.000000000000000000, -11.99999999999999645, -4.250000000000000000 ) ) ;
#99 = ORIENTED_EDGE ( 'NONE', *, *, #462, .T. ) ;
#100 = CYLINDRICAL_SURFACE ( 'NONE', #202, 2.250000000000000444 ) ;
#101 = ORIENTED_EDGE ( 'NONE', *, *, #277, .F. ) ;
#102 = CYLINDRICAL_SURFACE ( 'NONE', #187, 3.899999999999999023 ) ;
#103 = VERTEX_POINT ( 'NONE', #353 ) ;
#104 = CARTESIAN_POINT ( 'NONE',  ( 3.000000000000000000, -1.360224227800630267E-14, -8.749999999999998224 ) ) ;
#105 = CIRCLE ( 'NONE', #177, 3.900000000000001688 ) ;
#106 = VECTOR ( 'NONE', #125, 1000.000000000000000 ) ;
#107 = CARTESIAN_POINT ( 'NONE',  ( 3.000000000000000000, 0.000000000000000000, 0.000000000000000000 ) ) ;
#108 = ORIENTED_EDGE ( 'NONE', *, *, #342, .F. ) ;
#109 = CARTESIAN_POINT ( 'NONE',  ( 3.000000000000000000, -11.99999999999999645, -8.750000000000000000 ) ) ;
#110 = ADVANCED_FACE ( 'NONE', ( #93 ), #100, .F. ) ;
#111 = ORIENTED_EDGE ( 'NONE', *, *, #446, .F. ) ;
#112 = DIRECTION ( 'NONE',  ( 0.000000000000000000, 1.000000000000000000, 3.186887367220454672E-17 ) ) ;
#113 = VERTEX_POINT ( 'NONE', #428 ) ;
#114 = VECTOR ( 'NONE', #468, 1000.000000000000000 ) ;
#115 = PLANE ( 'NONE',  #389 ) ;
#116 = ORIENTED_EDGE ( 'NONE', *, *, #455, .T. ) ;
#117 = DIRECTION ( 'NONE',  ( 0.000000000000000000, 1.445602896647339410E-16, -1.000000000000000000 ) ) ;
#118 = EDGE_LOOP ( 'NONE', ( #77, #375, #40, #235, #86, #61 ) ) ;
#119 = VERTEX_POINT ( 'NONE', #60 ) ;
#120 = VECTOR ( 'NONE', #79, 1000.000000000000000 ) ;
#121 = AXIS2_PLACEMENT_3D ( 'NONE', #95, #234, #131 ) ;
#122 = CYLINDRICAL_SURFACE ( 'NONE', #467, 2.249999999999996891 ) ;
#123 = PRODUCT_CONTEXT ( 'NONE', #427, 'mechanical' ) ;
#124 = EDGE_CURVE ( 'NONE', #369, #335, #392, .T. ) ;
#125 = DIRECTION ( 'NONE',  ( 0.000000000000000000, 1.000000000000000000, 0.000000000000000000 ) ) ;
#126 = APPLICATION_PROTOCOL_DEFINITION ( 'draft international standard', 'automotive_design', 1998, #427 ) ;
#127 = DIRECTION ( 'NONE',  ( -1.000000000000000000, -0.000000000000000000, -0.000000000000000000 ) ) ;
#128 = AXIS2_PLACEMENT_3D ( 'NONE', #246, #138, #287 ) ;
#129 = DIRECTION ( 'NONE',  ( 0.000000000000000000, -0.4382022471910113071, 0.8988764044943819975 ) ) ;
#130 = EDGE_CURVE ( 'NONE', #298, #144, #58, .T. ) ;
#131 = DIRECTION ( 'NONE',  ( 1.000000000000000000, 0.000000000000000000, -0.000000000000000000 ) ) ;
#132 = DIRECTION ( 'NONE',  ( -1.000000000000000000, -0.000000000000000000, -0.000000000000000000 ) ) ;
#133 = DIRECTION ( 'NONE',  ( -1.000000000000000000, -0.000000000000000000, -0.000000000000000000 ) ) ;
#134 = ORIENTED_EDGE ( 'NONE', *, *, #275, .T. ) ;
#135 = DIRECTION ( 'NONE',  ( -1.000000000000000000, -0.000000000000000000, -0.000000000000000000 ) ) ;
#136 = PRODUCT_RELATED_PRODUCT_CATEGORY ( 'part', '', ( #463 ) ) ;
#137 = CARTESIAN_POINT ( 'NONE',  ( 3.000000000000000000, -11.99999999999999645, -4.250000000000000000 ) ) ;
#138 = DIRECTION ( 'NONE',  ( 1.000000000000000000, -0.000000000000000000, 0.000000000000000000 ) ) ;
#139 = VECTOR ( 'NONE', #370, 1000.000000000000000 ) ;
#140 = ORIENTED_EDGE ( 'NONE', *, *, #78, .T. ) ;
#141 = AXIS2_PLACEMENT_3D ( 'NONE', #421, #344, #14 ) ;
#142 = EDGE_CURVE ( 'NONE', #207, #148, #461, .T. ) ;
#143 = CARTESIAN_POINT ( 'NONE',  ( 0.000000000000000000, -1.387778780781445676E-14, -4.250000000000003553 ) ) ;
#144 = VERTEX_POINT ( 'NONE', #174 ) ;
#145 = FACE_OUTER_BOUND ( 'NONE', #357, .T. ) ;
#146 = ORIENTED_EDGE ( 'NONE', *, *, #124, .F. ) ;
#147 = FACE_OUTER_BOUND ( 'NONE', #337, .T. ) ;
#148 = VERTEX_POINT ( 'NONE', #98 ) ;
#149 = LINE ( 'NONE', #362, #228 ) ;
#150 = ORIENTED_EDGE ( 'NONE', *, *, #334, .F. ) ;
#151 = DIRECTION ( 'NONE',  ( 0.000000000000000000, -0.4382022471910094752, -0.8988764044943828857 ) ) ;
#152 = VERTEX_POINT ( 'NONE', #214 ) ;
#153 = DIRECTION ( 'NONE',  ( 0.000000000000000000, 0.000000000000000000, -1.000000000000000000 ) ) ;
#154 = FACE_OUTER_BOUND ( 'NONE', #469, .T. ) ;
#155 = VECTOR ( 'NONE', #135, 1000.000000000000000 ) ;
#156 = DIRECTION ( 'NONE',  ( 0.000000000000000000, 0.4382022471910113626, -0.8988764044943819975 ) ) ;
#157 = DIRECTION ( 'NONE',  ( -1.000000000000000000, -0.000000000000000000, -0.000000000000000000 ) ) ;
#158 = CARTESIAN_POINT ( 'NONE',  ( 0.000000000000000000, -11.99999999999998224, -10.39999999999998614 ) ) ;
#159 = DIRECTION ( 'NONE',  ( 0.000000000000000000, -1.000000000000000000, -1.445602896647339656E-16 ) ) ;
#160 = PLANE ( 'NONE',  #121 ) ;
#161 = EDGE_CURVE ( 'NONE', #335, #8, #62, .T. ) ;
#162 = CIRCLE ( 'NONE', #411, 3.899999999999999023 ) ;
#163 = LINE ( 'NONE', #420, #239 ) ;
#164 = CLOSED_SHELL ( 'NONE', ( #38, #110, #2, #185, #94, #394, #9, #308, #259, #24, #320, #236, #350, #230 ) ) ;
#165 = LINE ( 'NONE', #378, #82 ) ;
#166 = LINE ( 'NONE', #279, #397 ) ;
#167 = ORIENTED_EDGE ( 'NONE', *, *, #292, .T. ) ;
#168 = CARTESIAN_POINT ( 'NONE',  ( -15.00000000000000000, 1.531254257842133842E-32, -4.804858413234937364E-16 ) ) ;
#169 = VECTOR ( 'NONE', #346, 1000.000000000000114 ) ;
#170 = EDGE_CURVE ( 'NONE', #273, #80, #423, .T. ) ;
#171 = PLANE ( 'NONE',  #218 ) ;
#172 = EDGE_LOOP ( 'NONE', ( #84, #409, #396, #465, #37, #99 ) ) ;
#173 = ORIENTED_EDGE ( 'NONE', *, *, #66, .F. ) ;
#174 = CARTESIAN_POINT ( 'NONE',  ( -15.00000000000000000, 1.170000000000009033, -4.384400640606078868E-16 ) ) ;
#175 = ORIENTED_EDGE ( 'NONE', *, *, #208, .F. ) ;
#176 = EDGE_CURVE ( 'NONE', #266, #250, #73, .T. ) ;
#177 = AXIS2_PLACEMENT_3D ( 'NONE', #83, #54, #338 ) ;
#178 = DIRECTION ( 'NONE',  ( 1.000000000000000000, -0.000000000000000000, 0.000000000000000000 ) ) ;
#179 = ORIENTED_EDGE ( 'NONE', *, *, #161, .F. ) ;
#180 = CARTESIAN_POINT ( 'NONE',  ( 3.000000000000000000, -11.99999999999998224, -6.499999999999986677 ) ) ;
#181 = ORIENTED_EDGE ( 'NONE', *, *, #364, .T. ) ;
#182 = CARTESIAN_POINT ( 'NONE',  ( -15.00000000000000000, 0.9453351849514022298, 0.4608509026638086814 ) ) ;
#183 = EDGE_LOOP ( 'NONE', ( #290, #179, #253, #6 ) ) ;
#184 = CYLINDRICAL_SURFACE ( 'NONE', #20, 2.250000000000000444 ) ;
#185 = ADVANCED_FACE ( 'NONE', ( #25 ), #102, .T. ) ;
#186 = ORIENTED_EDGE ( 'NONE', *, *, #142, .T. ) ;
#187 = AXIS2_PLACEMENT_3D ( 'NONE', #388, #133, #464 ) ;
#188 = CARTESIAN_POINT ( 'NONE',  ( 0.000000000000000000, -13.16999999999999815, -1.751142060775819177E-15 ) ) ;
#189 = ORIENTED_EDGE ( 'NONE', *, *, #264, .F. ) ;
#190 = DIRECTION ( 'NONE',  ( 0.000000000000000000, 0.000000000000000000, 1.000000000000000000 ) ) ;
#191 = CYLINDRICAL_SURFACE ( 'NONE', #141, 2.249999999999996891 ) ;
#192 = EDGE_CURVE ( 'NONE', #63, #119, #332, .T. ) ;
#193 = DIRECTION ( 'NONE',  ( 0.000000000000000000, -0.4382022471910094752, -0.8988764044943828857 ) ) ;
#194 = FACE_OUTER_BOUND ( 'NONE', #243, .T. ) ;
#195 = VECTOR ( 'NONE', #23, 1000.000000000000000 ) ;
#196 = SHAPE_DEFINITION_REPRESENTATION ( #280, #252 ) ;
#197 = DIRECTION ( 'NONE',  ( 1.000000000000000000, -0.000000000000000000, 0.000000000000000000 ) ) ;
#198 = CARTESIAN_POINT ( 'NONE',  ( 3.000000000000000000, -11.99999999999999645, 2.400000000000016342 ) ) ;
#199 = DIRECTION ( 'NONE',  ( 0.000000000000000000, 0.000000000000000000, -1.000000000000000000 ) ) ;
#200 = EDGE_CURVE ( 'NONE', #148, #367, #81, .T. ) ;
#201 = CARTESIAN_POINT ( 'NONE',  ( -15.00000000000000000, -11.99999999999999645, 2.400000000000016342 ) ) ;
#202 = AXIS2_PLACEMENT_3D ( 'NONE', #457, #422, #284 ) ;
#203 = VECTOR ( 'NONE', #377, 1000.000000000000000 ) ;
#204 = STYLED_ITEM ( 'NONE', ( #91 ), #96 ) ;
#205 = DIRECTION ( 'NONE',  ( 0.000000000000000000, 1.000000000000000000, 3.186887367220454672E-17 ) ) ;
#206 = FACE_OUTER_BOUND ( 'NONE', #118, .T. ) ;
#207 = VERTEX_POINT ( 'NONE', #137 ) ;
#208 = EDGE_CURVE ( 'NONE', #331, #288, #166, .T. ) ;
#209 = CARTESIAN_POINT ( 'NONE',  ( 0.000000000000000000, -11.99999999999999645, -6.500000000000000888 ) ) ;
#210 = ORIENTED_EDGE ( 'NONE', *, *, #415, .T. ) ;
#211 = CIRCLE ( 'NONE', #90, 3.899999999999999023 ) ;
#212 = PLANE ( 'NONE',  #265 ) ;
#213 = ORIENTED_EDGE ( 'NONE', *, *, #313, .T. ) ;
#214 = CARTESIAN_POINT ( 'NONE',  ( 0.000000000000000000, 3.505617977528090901, -4.791011235955038750 ) ) ;
#215 = EDGE_CURVE ( 'NONE', #283, #55, #425, .T. ) ;
#216 = ORIENTED_EDGE ( 'NONE', *, *, #142, .F. ) ;
#217 = LINE ( 'NONE', #404, #12 ) ;
#218 = AXIS2_PLACEMENT_3D ( 'NONE', #358, #29, #398 ) ;
#219 = FACE_BOUND ( 'NONE', #391, .T. ) ;
#220 = ORIENTED_EDGE ( 'NONE', *, *, #130, .T. ) ;
#221 = CARTESIAN_POINT ( 'NONE',  ( 3.000000000000000000, -15.50561797752807358, -4.791011235955049408 ) ) ;
#222 = ORIENTED_EDGE ( 'NONE', *, *, #161, .T. ) ;
#223 = EDGE_CURVE ( 'NONE', #119, #80, #456, .T. ) ;
#224 = CARTESIAN_POINT ( 'NONE',  ( 3.000000000000000000, -3.469446951953641306E-16, 2.400000000000018119 ) ) ;
#225 = ORIENTED_EDGE ( 'NONE', *, *, #78, .F. ) ;
#226 = DIRECTION ( 'NONE',  ( -1.000000000000000000, -0.000000000000000000, -0.000000000000000000 ) ) ;
#227 = ORIENTED_EDGE ( 'NONE', *, *, #192, .F. ) ;
#228 = VECTOR ( 'NONE', #151, 1000.000000000000114 ) ;
#229 = CARTESIAN_POINT ( 'NONE',  ( 3.000000000000000000, 0.9453351849514022298, 0.4608509026638086814 ) ) ;
#230 = ADVANCED_FACE ( 'NONE', ( #241 ), #212, .F. ) ;
#231 = ORIENTED_EDGE ( 'NONE', *, *, #170, .F. ) ;
#232 = CARTESIAN_POINT ( 'NONE',  ( 3.000000000000000000, 0.9453351849514022298, 0.4608509026638086814 ) ) ;
#233 = CARTESIAN_POINT ( 'NONE',  ( 0.000000000000000000, 1.531254257842133842E-32, -4.804858413234937364E-16 ) ) ;
#234 = DIRECTION ( 'NONE',  ( 0.000000000000000000, 0.000000000000000000, 1.000000000000000000 ) ) ;
#235 = ORIENTED_EDGE ( 'NONE', *, *, #400, .F. ) ;
#236 = ADVANCED_FACE ( 'NONE', ( #206, #395, #354 ), #171, .F. ) ;
#237 = LINE ( 'NONE', #233, #203 ) ;
#238 = CARTESIAN_POINT ( 'NONE',  ( -15.00000000000000000, -3.469446951953641306E-16, 2.400000000000018119 ) ) ;
#239 = VECTOR ( 'NONE', #193, 1000.000000000000114 ) ;
#240 =( GEOMETRIC_REPRESENTATION_CONTEXT ( 3 ) GLOBAL_UNCERTAINTY_ASSIGNED_CONTEXT ( ( #270 ) ) GLOBAL_UNIT_ASSIGNED_CONTEXT ( ( #276, #387, #48 ) ) REPRESENTATION_CONTEXT ( 'NONE', 'WORKASPACE' ) );
#241 = FACE_OUTER_BOUND ( 'NONE', #183, .T. ) ;
#242 = EDGE_CURVE ( 'NONE', #288, #55, #162, .T. ) ;
#243 = EDGE_LOOP ( 'NONE', ( #359, #173, #3, #146, #442, #471 ) ) ;
#244 = DIRECTION ( 'NONE',  ( -1.000000000000000000, -0.000000000000000000, -0.000000000000000000 ) ) ;
#245 = ORIENTED_EDGE ( 'NONE', *, *, #264, .T. ) ;
#246 = CARTESIAN_POINT ( 'NONE',  ( 3.000000000000000000, -1.387778780781445676E-14, -6.500000000000000888 ) ) ;
#247 = EDGE_CURVE ( 'NONE', #144, #335, #251, .T. ) ;
#248 = AXIS2_PLACEMENT_3D ( 'NONE', #107, #44, #36 ) ;
#249 = CARTESIAN_POINT ( 'NONE',  ( 0.000000000000000000, -11.99999999999998224, -6.499999999999986677 ) ) ;
#250 = VERTEX_POINT ( 'NONE', #402 ) ;
#251 = LINE ( 'NONE', #182, #323 ) ;
#252 = ADVANCED_BREP_SHAPE_REPRESENTATION ( 'cylinder out', ( #96, #256 ), #458 ) ;
#253 = ORIENTED_EDGE ( 'NONE', *, *, #247, .F. ) ;
#254 = FACE_OUTER_BOUND ( 'NONE', #172, .T. ) ;
#255 = ORIENTED_EDGE ( 'NONE', *, *, #45, .T. ) ;
#256 = AXIS2_PLACEMENT_3D ( 'NONE', #268, #85, #449 ) ;
#257 = CARTESIAN_POINT ( 'NONE',  ( 0.000000000000000000, -11.99999999999999645, -6.500000000000000888 ) ) ;
#258 = EDGE_LOOP ( 'NONE', ( #111, #225 ) ) ;
#259 = ADVANCED_FACE ( 'NONE', ( #145 ), #71, .F. ) ;
#260 = CARTESIAN_POINT ( 'NONE',  ( -15.00000000000000000, 1.531254257842133842E-32, -4.804858413234937364E-16 ) ) ;
#261 = ORIENTED_EDGE ( 'NONE', *, *, #200, .F. ) ;
#262 = DIRECTION ( 'NONE',  ( -1.000000000000000000, -0.000000000000000000, -0.000000000000000000 ) ) ;
#263 = EDGE_LOOP ( 'NONE', ( #437, #213, #261, #216 ) ) ;
#264 = EDGE_CURVE ( 'NONE', #298, #363, #336, .T. ) ;
#265 = AXIS2_PLACEMENT_3D ( 'NONE', #356, #278, #390 ) ;
#266 = VERTEX_POINT ( 'NONE', #295 ) ;
#267 = AXIS2_PLACEMENT_3D ( 'NONE', #18, #11, #339 ) ;
#268 = CARTESIAN_POINT ( 'NONE',  ( 0.000000000000000000, 0.000000000000000000, 0.000000000000000000 ) ) ;
#269 = DIRECTION ( 'NONE',  ( 1.000000000000000000, 0.000000000000000000, 0.000000000000000000 ) ) ;
#270 = UNCERTAINTY_MEASURE_WITH_UNIT (LENGTH_MEASURE( 1.000000000000000082E-05 ), #276, 'distance_accuracy_value', 'NONE');
#271 = LINE ( 'NONE', #229, #372 ) ;
#272 = DIRECTION ( 'NONE',  ( 1.000000000000000000, -0.000000000000000000, 0.000000000000000000 ) ) ;
#273 = VERTEX_POINT ( 'NONE', #143 ) ;
#274 = UNCERTAINTY_MEASURE_WITH_UNIT (LENGTH_MEASURE( 1.000000000000000082E-05 ), #302, 'distance_accuracy_value', 'NONE');
#275 = EDGE_CURVE ( 'NONE', #266, #103, #439, .T. ) ;
#276 =( LENGTH_UNIT ( ) NAMED_UNIT ( * ) SI_UNIT ( .MILLI., .METRE. ) );
#277 = EDGE_CURVE ( 'NONE', #283, #266, #69, .T. ) ;
#278 = DIRECTION ( 'NONE',  ( 1.000000000000000000, -0.000000000000000000, 0.000000000000000000 ) ) ;
#279 = CARTESIAN_POINT ( 'NONE',  ( 3.000000000000000000, -15.50561797752807358, -4.791011235955049408 ) ) ;
#280 = PRODUCT_DEFINITION_SHAPE ( 'NONE', 'NONE',  #327 ) ;
#281 = ORIENTED_EDGE ( 'NONE', *, *, #415, .F. ) ;
#282 = DIRECTION ( 'NONE',  ( -1.000000000000000000, -0.000000000000000000, -0.000000000000000000 ) ) ;
#283 = VERTEX_POINT ( 'NONE', #39 ) ;
#284 = DIRECTION ( 'NONE',  ( 0.000000000000000000, 0.000000000000000000, 1.000000000000000000 ) ) ;
#285 = EDGE_CURVE ( 'NONE', #250, #152, #217, .T. ) ;
#286 = VECTOR ( 'NONE', #205, 1000.000000000000000 ) ;
#287 = DIRECTION ( 'NONE',  ( 0.000000000000000000, 0.000000000000000000, -1.000000000000000000 ) ) ;
#288 = VERTEX_POINT ( 'NONE', #408 ) ;
#289 = LINE ( 'NONE', #109, #120 ) ;
#290 = ORIENTED_EDGE ( 'NONE', *, *, #292, .F. ) ;
#291 = FACE_OUTER_BOUND ( 'NONE', #32, .T. ) ;
#292 = EDGE_CURVE ( 'NONE', #8, #298, #149, .T. ) ;
#293 = ORIENTED_EDGE ( 'NONE', *, *, #124, .T. ) ;
#294 = CIRCLE ( 'NONE', #445, 2.250000000000000444 ) ;
#295 = CARTESIAN_POINT ( 'NONE',  ( 3.000000000000000000, 1.387778780781445676E-14, -10.39999999999998614 ) ) ;
#296 = ORIENTED_EDGE ( 'NONE', *, *, #208, .T. ) ;
#297 = CARTESIAN_POINT ( 'NONE',  ( -15.00000000000000000, -13.16999999999999815, -1.751142060775819177E-15 ) ) ;
#298 = VERTEX_POINT ( 'NONE', #297 ) ;
#299 = EDGE_CURVE ( 'NONE', #63, #273, #366, .T. ) ;
#300 = CARTESIAN_POINT ( 'NONE',  ( 3.000000000000000000, -1.387778780781445676E-14, -4.250000000000003553 ) ) ;
#301 = ORIENTED_EDGE ( 'NONE', *, *, #299, .F. ) ;
#302 =( LENGTH_UNIT ( ) NAMED_UNIT ( * ) SI_UNIT ( .MILLI., .METRE. ) );
#303 = AXIS2_PLACEMENT_3D ( 'NONE', #224, #117, #406 ) ;
#304 = LINE ( 'NONE', #306, #106 ) ;
#305 = VECTOR ( 'NONE', #129, 1000.000000000000000 ) ;
#306 = CARTESIAN_POINT ( 'NONE',  ( 0.000000000000000000, 0.000000000000000000, -10.39999999999998614 ) ) ;
#307 = DIRECTION ( 'NONE',  ( 1.000000000000000000, -0.000000000000000000, 0.000000000000000000 ) ) ;
#308 = ADVANCED_FACE ( 'NONE', ( #147 ), #184, .F. ) ;
#309 = FILL_AREA_STYLE_COLOUR ( '', #22 ) ;
#310 = AXIS2_PLACEMENT_3D ( 'NONE', #257, #451, #199 ) ;
#311 = VECTOR ( 'NONE', #244, 1000.000000000000000 ) ;
#312 = DIRECTION ( 'NONE',  ( 0.000000000000000000, 0.000000000000000000, -1.000000000000000000 ) ) ;
#313 = EDGE_CURVE ( 'NONE', #407, #367, #289, .T. ) ;
#314 = CARTESIAN_POINT ( 'NONE',  ( 3.000000000000000000, -11.99999999999998224, -10.39999999999998614 ) ) ;
#315 = DIRECTION ( 'NONE',  ( 1.000000000000000000, -0.000000000000000000, 0.000000000000000000 ) ) ;
#316 = ORIENTED_EDGE ( 'NONE', *, *, #386, .F. ) ;
#317 = DIRECTION ( 'NONE',  ( 1.000000000000000000, -0.000000000000000000, 0.000000000000000000 ) ) ;
#318 = EDGE_LOOP ( 'NONE', ( #405, #210, #444, #459 ) ) ;
#319 = DIRECTION ( 'NONE',  ( 0.000000000000000000, 0.000000000000000000, -1.000000000000000000 ) ) ;
#320 = ADVANCED_FACE ( 'NONE', ( #254, #7, #219 ), #441, .T. ) ;
#321 = EDGE_LOOP ( 'NONE', ( #413, #167, #245, #42, #175, #316 ) ) ;
#322 = DIRECTION ( 'NONE',  ( 0.000000000000000000, 0.000000000000000000, -1.000000000000000000 ) ) ;
#323 = VECTOR ( 'NONE', #76, 1000.000000000000000 ) ;
#324 = CARTESIAN_POINT ( 'NONE',  ( -15.00000000000000000, -13.16999999999999815, -1.751142060775819177E-15 ) ) ;
#325 = MECHANICAL_DESIGN_GEOMETRIC_PRESENTATION_REPRESENTATION (  '', ( #204 ), #240 ) ;
#326 = ORIENTED_EDGE ( 'NONE', *, *, #215, .F. ) ;
#327 = PRODUCT_DEFINITION ( 'UNKNOWN', '', #51, #345 ) ;
#328 = CARTESIAN_POINT ( 'NONE',  ( 3.000000000000000000, 0.000000000000000000, -10.39999999999998614 ) ) ;
#329 = ORIENTED_EDGE ( 'NONE', *, *, #275, .F. ) ;
#330 = LINE ( 'NONE', #470, #43 ) ;
#331 = VERTEX_POINT ( 'NONE', #221 ) ;
#332 = CIRCLE ( 'NONE', #128, 2.249999999999996891 ) ;
#333 = DIRECTION ( 'NONE',  ( -1.000000000000000000, -0.000000000000000000, -0.000000000000000000 ) ) ;
#334 = EDGE_CURVE ( 'NONE', #331, #283, #211, .T. ) ;
#335 = VERTEX_POINT ( 'NONE', #399 ) ;
#336 = LINE ( 'NONE', #324, #4 ) ;
#337 = EDGE_LOOP ( 'NONE', ( #371, #140, #186, #424 ) ) ;
#338 = DIRECTION ( 'NONE',  ( 0.000000000000000000, 0.000000000000000000, -1.000000000000000000 ) ) ;
#339 = DIRECTION ( 'NONE',  ( 0.000000000000000000, 0.4382022471910094752, 0.8988764044943828857 ) ) ;
#340 = CIRCLE ( 'NONE', #351, 2.249999999999996891 ) ;
#341 = CARTESIAN_POINT ( 'NONE',  ( 3.000000000000000000, -1.387778780781445676E-14, -6.500000000000000888 ) ) ;
#342 = EDGE_CURVE ( 'NONE', #65, #8, #330, .T. ) ;
#343 = CARTESIAN_POINT ( 'NONE',  ( 0.000000000000000000, -10.64108067163238758, 5.187526827420763098 ) ) ;
#344 = DIRECTION ( 'NONE',  ( -1.000000000000000000, -0.000000000000000000, -0.000000000000000000 ) ) ;
#345 = PRODUCT_DEFINITION_CONTEXT ( 'detailed design', #410, 'design' ) ;
#346 = DIRECTION ( 'NONE',  ( 0.000000000000000000, -0.4382022471910094752, -0.8988764044943828857 ) ) ;
#347 = CARTESIAN_POINT ( 'NONE',  ( 0.000000000000000000, -1.360224227800630267E-14, -8.749999999999998224 ) ) ;
#348 = CARTESIAN_POINT ( 'NONE',  ( 0.000000000000000000, -11.99999999999999645, -8.750000000000000000 ) ) ;
#349 = DIRECTION ( 'NONE',  ( 0.000000000000000000, -0.8988764044943819975, -0.4382022471910113626 ) ) ;
#350 = ADVANCED_FACE ( 'NONE', ( #291 ), #115, .T. ) ;
#351 = AXIS2_PLACEMENT_3D ( 'NONE', #379, #197, #49 ) ;
#352 = CIRCLE ( 'NONE', #432, 2.250000000000000444 ) ;
#353 = CARTESIAN_POINT ( 'NONE',  ( 0.000000000000000000, 1.387778780781445676E-14, -10.39999999999998614 ) ) ;
#354 = FACE_BOUND ( 'NONE', #435, .T. ) ;
#355 = ORIENTED_EDGE ( 'NONE', *, *, #242, .T. ) ;
#356 = CARTESIAN_POINT ( 'NONE',  ( -15.00000000000000000, 0.000000000000000000, 0.000000000000000000 ) ) ;
#357 = EDGE_LOOP ( 'NONE', ( #293, #222, #108, #361 ) ) ;
#358 = CARTESIAN_POINT ( 'NONE',  ( 0.000000000000000000, 0.000000000000000000, 0.000000000000000000 ) ) ;
#359 = ORIENTED_EDGE ( 'NONE', *, *, #89, .T. ) ;
#360 = DIRECTION ( 'NONE',  ( 1.000000000000000000, -0.000000000000000000, 0.000000000000000000 ) ) ;
#361 = ORIENTED_EDGE ( 'NONE', *, *, #462, .F. ) ;
#362 = CARTESIAN_POINT ( 'NONE',  ( -15.00000000000000000, -10.64108067163238758, 5.187526827420763098 ) ) ;
#363 = VERTEX_POINT ( 'NONE', #188 ) ;
#364 = EDGE_CURVE ( 'NONE', #367, #148, #381, .T. ) ;
#365 = AXIS2_PLACEMENT_3D ( 'NONE', #26, #360, #319 ) ;
#366 = LINE ( 'NONE', #300, #139 ) ;
#367 = VERTEX_POINT ( 'NONE', #348 ) ;
#368 = CARTESIAN_POINT ( 'NONE',  ( 3.000000000000000000, -11.99999999999999645, -6.500000000000000888 ) ) ;
#369 = VERTEX_POINT ( 'NONE', #15 ) ;
#370 = DIRECTION ( 'NONE',  ( -1.000000000000000000, -0.000000000000000000, -0.000000000000000000 ) ) ;
#371 = ORIENTED_EDGE ( 'NONE', *, *, #313, .F. ) ;
#372 = VECTOR ( 'NONE', #383, 1000.000000000000000 ) ;
#373 = DIRECTION ( 'NONE',  ( 0.000000000000000000, 0.000000000000000000, -1.000000000000000000 ) ) ;
#374 = EDGE_CURVE ( 'NONE', #363, #288, #47, .T. ) ;
#375 = ORIENTED_EDGE ( 'NONE', *, *, #426, .T. ) ;
#376 = AXIS2_PLACEMENT_3D ( 'NONE', #232, #349, #156 ) ;
#377 = DIRECTION ( 'NONE',  ( 0.000000000000000000, 1.000000000000000000, 3.186887367220454672E-17 ) ) ;
#378 = CARTESIAN_POINT ( 'NONE',  ( -15.00000000000000000, 1.170000000000009033, -4.384400640606078868E-16 ) ) ;
#379 = CARTESIAN_POINT ( 'NONE',  ( 3.000000000000000000, -1.387778780781445676E-14, -6.500000000000000888 ) ) ;
#380 = LINE ( 'NONE', #416, #305 ) ;
#381 = CIRCLE ( 'NONE', #310, 2.250000000000000444 ) ;
#382 = FILL_AREA_STYLE ('',( #309 ) ) ;
#383 = DIRECTION ( 'NONE',  ( 0.000000000000000000, -0.4382022471910113071, 0.8988764044943819975 ) ) ;
#384 = CARTESIAN_POINT ( 'NONE',  ( 3.000000000000000000, -1.387778780781445676E-14, -4.250000000000003553 ) ) ;
#385 = FACE_OUTER_BOUND ( 'NONE', #68, .T. ) ;
#386 = EDGE_CURVE ( 'NONE', #65, #331, #163, .T. ) ;
#387 =( NAMED_UNIT ( * ) PLANE_ANGLE_UNIT ( ) SI_UNIT ( $, .RADIAN. ) );
#388 = CARTESIAN_POINT ( 'NONE',  ( 3.000000000000000000, -11.99999999999998224, -6.499999999999986677 ) ) ;
#389 = AXIS2_PLACEMENT_3D ( 'NONE', #260, #436, #112 ) ;
#390 = DIRECTION ( 'NONE',  ( 0.000000000000000000, 0.000000000000000000, -1.000000000000000000 ) ) ;
#391 = EDGE_LOOP ( 'NONE', ( #227, #281 ) ) ;
#392 = LINE ( 'NONE', #64, #311 ) ;
#393 = ORIENTED_EDGE ( 'NONE', *, *, #215, .T. ) ;
#394 = ADVANCED_FACE ( 'NONE', ( #385 ), #92, .T. ) ;
#395 = FACE_BOUND ( 'NONE', #70, .T. ) ;
#396 = ORIENTED_EDGE ( 'NONE', *, *, #277, .T. ) ;
#397 = VECTOR ( 'NONE', #282, 1000.000000000000000 ) ;
#398 = DIRECTION ( 'NONE',  ( 0.000000000000000000, 0.000000000000000000, -1.000000000000000000 ) ) ;
#399 = CARTESIAN_POINT ( 'NONE',  ( -15.00000000000000000, 1.084202172485504434E-16, 2.400000000000018119 ) ) ;
#400 = EDGE_CURVE ( 'NONE', #103, #152, #105, .T. ) ;
#401 = ORIENTED_EDGE ( 'NONE', *, *, #426, .F. ) ;
#402 = CARTESIAN_POINT ( 'NONE',  ( 3.000000000000000000, 3.505617977528090901, -4.791011235955038750 ) ) ;
#403 = EDGE_LOOP ( 'NONE', ( #355, #326, #150, #296 ) ) ;
#404 = CARTESIAN_POINT ( 'NONE',  ( 3.000000000000000000, 3.505617977528090901, -4.791011235955038750 ) ) ;
#405 = ORIENTED_EDGE ( 'NONE', *, *, #223, .F. ) ;
#406 = DIRECTION ( 'NONE',  ( 0.000000000000000000, 1.000000000000000000, 1.445602896647339410E-16 ) ) ;
#407 = VERTEX_POINT ( 'NONE', #417 ) ;
#408 = CARTESIAN_POINT ( 'NONE',  ( 0.000000000000000000, -15.50561797752807358, -4.791011235955049408 ) ) ;
#409 = ORIENTED_EDGE ( 'NONE', *, *, #334, .T. ) ;
#410 = APPLICATION_CONTEXT ( 'automotive_design' ) ;
#411 = AXIS2_PLACEMENT_3D ( 'NONE', #249, #178, #434 ) ;
#412 = AXIS2_PLACEMENT_3D ( 'NONE', #19, #157, #190 ) ;
#413 = ORIENTED_EDGE ( 'NONE', *, *, #342, .T. ) ;
#414 =( NAMED_UNIT ( * ) SI_UNIT ( $, .STERADIAN. ) SOLID_ANGLE_UNIT ( ) );
#415 = EDGE_CURVE ( 'NONE', #119, #63, #340, .T. ) ;
#416 = CARTESIAN_POINT ( 'NONE',  ( 0.000000000000000000, 0.9453351849514022298, 0.4608509026638086814 ) ) ;
#417 = CARTESIAN_POINT ( 'NONE',  ( 3.000000000000000000, -11.99999999999999645, -8.750000000000000000 ) ) ;
#418 = FACE_OUTER_BOUND ( 'NONE', #46, .T. ) ;
#419 = SURFACE_STYLE_USAGE ( .BOTH. , #53 ) ;
#420 = CARTESIAN_POINT ( 'NONE',  ( 3.000000000000000000, -10.64108067163238758, 5.187526827420763098 ) ) ;
#421 = CARTESIAN_POINT ( 'NONE',  ( 3.000000000000000000, -1.387778780781445676E-14, -6.500000000000000888 ) ) ;
#422 = DIRECTION ( 'NONE',  ( -1.000000000000000000, -0.000000000000000000, -0.000000000000000000 ) ) ;
#423 = CIRCLE ( 'NONE', #438, 2.249999999999996891 ) ;
#424 = ORIENTED_EDGE ( 'NONE', *, *, #364, .F. ) ;
#425 = LINE ( 'NONE', #314, #57 ) ;
#426 = EDGE_CURVE ( 'NONE', #363, #113, #237, .T. ) ;
#427 = APPLICATION_CONTEXT ( 'automotive_design' ) ;
#428 = CARTESIAN_POINT ( 'NONE',  ( 0.000000000000000000, 1.170000000000009033, -4.384400640606078868E-16 ) ) ;
#429 = DIRECTION ( 'NONE',  ( -1.000000000000000000, -0.000000000000000000, -0.000000000000000000 ) ) ;
#430 = CIRCLE ( 'NONE', #35, 2.249999999999996891 ) ;
#431 = EDGE_CURVE ( 'NONE', #250, #369, #271, .T. ) ;
#432 = AXIS2_PLACEMENT_3D ( 'NONE', #50, #272, #312 ) ;
#433 = ORIENTED_EDGE ( 'NONE', *, *, #285, .F. ) ;
#434 = DIRECTION ( 'NONE',  ( 0.000000000000000000, 0.000000000000000000, -1.000000000000000000 ) ) ;
#435 = EDGE_LOOP ( 'NONE', ( #454, #116 ) ) ;
#436 = DIRECTION ( 'NONE',  ( 0.000000000000000000, 3.186887367220454672E-17, -1.000000000000000000 ) ) ;
#437 = ORIENTED_EDGE ( 'NONE', *, *, #446, .T. ) ;
#438 = AXIS2_PLACEMENT_3D ( 'NONE', #460, #315, #322 ) ;
#439 = LINE ( 'NONE', #5, #114 ) ;
#440 = ORIENTED_EDGE ( 'NONE', *, *, #400, .T. ) ;
#441 = PLANE ( 'NONE',  #248 ) ;
#442 = ORIENTED_EDGE ( 'NONE', *, *, #431, .F. ) ;
#443 = DIRECTION ( 'NONE',  ( 0.000000000000000000, 0.000000000000000000, -1.000000000000000000 ) ) ;
#444 = ORIENTED_EDGE ( 'NONE', *, *, #299, .T. ) ;
#445 = AXIS2_PLACEMENT_3D ( 'NONE', #17, #56, #443 ) ;
#446 = EDGE_CURVE ( 'NONE', #207, #407, #294, .T. ) ;
#447 =( NAMED_UNIT ( * ) PLANE_ANGLE_UNIT ( ) SI_UNIT ( $, .RADIAN. ) );
#448 = PLANE ( 'NONE',  #376 ) ;
#449 = DIRECTION ( 'NONE',  ( 1.000000000000000000, 0.000000000000000000, 0.000000000000000000 ) ) ;
#450 = DIRECTION ( 'NONE',  ( 0.000000000000000000, 0.000000000000000000, 1.000000000000000000 ) ) ;
#451 = DIRECTION ( 'NONE',  ( 1.000000000000000000, -0.000000000000000000, 0.000000000000000000 ) ) ;
#452 = SURFACE_STYLE_FILL_AREA ( #382 ) ;
#453 = VECTOR ( 'NONE', #1, 1000.000000000000000 ) ;
#454 = ORIENTED_EDGE ( 'NONE', *, *, #170, .T. ) ;
#455 = EDGE_CURVE ( 'NONE', #80, #273, #430, .T. ) ;
#456 = LINE ( 'NONE', #104, #27 ) ;
#457 = CARTESIAN_POINT ( 'NONE',  ( 3.000000000000000000, -11.99999999999999645, -6.500000000000000888 ) ) ;
#458 =( GEOMETRIC_REPRESENTATION_CONTEXT ( 3 ) GLOBAL_UNCERTAINTY_ASSIGNED_CONTEXT ( ( #274 ) ) GLOBAL_UNIT_ASSIGNED_CONTEXT ( ( #302, #447, #414 ) ) REPRESENTATION_CONTEXT ( 'NONE', 'WORKASPACE' ) );
#459 = ORIENTED_EDGE ( 'NONE', *, *, #455, .F. ) ;
#460 = CARTESIAN_POINT ( 'NONE',  ( 0.000000000000000000, -1.387778780781445676E-14, -6.500000000000000888 ) ) ;
#461 = LINE ( 'NONE', #67, #155 ) ;
#462 = EDGE_CURVE ( 'NONE', #369, #65, #87, .T. ) ;
#463 = PRODUCT ( 'cylinder out', 'cylinder out', '', ( #123 ) ) ;
#464 = DIRECTION ( 'NONE',  ( 0.000000000000000000, 0.000000000000000000, 1.000000000000000000 ) ) ;
#465 = ORIENTED_EDGE ( 'NONE', *, *, #176, .T. ) ;
#466 = AXIS2_PLACEMENT_3D ( 'NONE', #209, #317, #31 ) ;
#467 = AXIS2_PLACEMENT_3D ( 'NONE', #341, #127, #450 ) ;
#468 = DIRECTION ( 'NONE',  ( -1.000000000000000000, -0.000000000000000000, -0.000000000000000000 ) ) ;
#469 = EDGE_LOOP ( 'NONE', ( #72, #75, #231, #301 ) ) ;
#470 = CARTESIAN_POINT ( 'NONE',  ( 3.000000000000000000, -11.99999999999999645, 2.400000000000016342 ) ) ;
#471 = ORIENTED_EDGE ( 'NONE', *, *, #285, .T. ) ;
ENDSEC;
END-ISO-10303-21;
