ISO-10303-21;
HEADER;
FILE_DESCRIPTION (( 'STEP AP214' ),
    '1' );
FILE_NAME ('main.STEP',
    '2026-08-03T04:32:10',
    ( '' ),
    ( '' ),
    'SwSTEP 2.0',
    'SolidWorks 2023',
    '' );
FILE_SCHEMA (( 'AUTOMOTIVE_DESIGN' ));
ENDSEC;

DATA;
#1 = DIRECTION ( 'NONE',  ( -1.000000000000000000, 0.000000000000000000, 0.000000000000000000 ) ) ;
#2 = PROPERTY_DEFINITION ('document property','', #69 ) ;
#3 = DIRECTION ( 'NONE',  ( 1.000000000000000000, 0.000000000000000000, 0.000000000000000000 ) ) ;
#4 = PROPERTY_DEFINITION_REPRESENTATION ( #117, #32 ) ;
#5 = ROLE_ASSOCIATION ( #99, #121 ) ;
#6 = OBJECT_ROLE ('mandatory',$ ) ;
#7 = AXIS2_PLACEMENT_3D ( 'NONE', #177, #183, #14 ) ;
#8 = APPLICATION_PROTOCOL_DEFINITION ( 'draft international standard', 'automotive_design', 1998, #113 ) ;
#9 = CONTEXT_DEPENDENT_SHAPE_REPRESENTATION ( #185, #67 ) ;
#10 = PRODUCT_RELATED_PRODUCT_CATEGORY ( 'part', '', ( #130 ) ) ;
#11 = PRODUCT_DEFINITION_SHAPE ( 'NONE', 'NONE',  #186 ) ;
#12 = EXTERNAL_SOURCE (IDENTIFIER('') ) ;
#13 = PRODUCT_DEFINITION_CONTEXT ( 'detailed design', #105, 'design' ) ;
#14 = DIRECTION ( 'NONE',  ( 1.000000000000000000, 0.000000000000000000, 0.000000000000000000 ) ) ;
#15 =( REPRESENTATION_RELATIONSHIP ('NONE','NONE', #108, #163 ) REPRESENTATION_RELATIONSHIP_WITH_TRANSFORMATION ( #39 )SHAPE_REPRESENTATION_RELATIONSHIP( ) );
#16 = SHAPE_REPRESENTATION ( 'Mirrorscrew_\X2\9ed88ba4\X0\', ( #131 ), #68 ) ;
#17 = DIRECTION ( 'NONE',  ( 1.000000000000000000, 0.000000000000000000, 0.000000000000000000 ) ) ;
#18 = DOCUMENT_FILE ( 'Mirrorscrew_\X2\9ed88ba4\X0\.STEP' , '', '', #171, '' ,$ ) ;
#19 = APPLIED_EXTERNAL_IDENTIFICATION_ASSIGNMENT ( 'right_\X2\9ed88ba4\X0\.STEP' , #65, #12,( #111) ) ;
#20 = ROLE_ASSOCIATION ( #151, #110 ) ;
#21 = ITEM_DEFINED_TRANSFORMATION ( 'NONE', 'NONE', #148,  #153 ) ;
#22 = PROPERTY_DEFINITION ('external definition','', #18 ) ;
#23 =( GEOMETRIC_REPRESENTATION_CONTEXT ( 3 ) GLOBAL_UNCERTAINTY_ASSIGNED_CONTEXT ( ( #145 ) ) GLOBAL_UNIT_ASSIGNED_CONTEXT ( ( #136, #48, #57 ) ) REPRESENTATION_CONTEXT ( 'NONE', 'WORKASPACE' ) );
#24 = ITEM_DEFINED_TRANSFORMATION ( 'NONE', 'NONE', #178,  #131 ) ;
#25 = PROPERTY_DEFINITION ('document property','', #18 ) ;
#26 = DOCUMENT_TYPE ( 'geometry' ) ;
#27 = APPLIED_EXTERNAL_IDENTIFICATION_ASSIGNMENT ( 'Mirrorright_\X2\9ed88ba4\X0\.STEP' , #137, #51,( #40) ) ;
#28 = PRODUCT_DEFINITION_CONTEXT ( 'detailed design', #122, 'design' ) ;
#29 =( GEOMETRIC_REPRESENTATION_CONTEXT ( 3 ) GLOBAL_UNCERTAINTY_ASSIGNED_CONTEXT ( ( #56 ) ) GLOBAL_UNIT_ASSIGNED_CONTEXT ( ( #190, #97, #114 ) ) REPRESENTATION_CONTEXT ( 'NONE', 'WORKASPACE' ) );
#30 = PRODUCT_RELATED_PRODUCT_CATEGORY ( 'part', '', ( #168 ) ) ;
#31 = DIRECTION ( 'NONE',  ( -1.000000000000000000, 0.000000000000000000, 0.000000000000000000 ) ) ;
#32 = SHAPE_REPRESENTATION ( 'right_\X2\9ed88ba4\X0\', ( #86 ), #29 ) ;
#33 = PRODUCT ( 'right_\X2\9ed88ba4\X0\', 'right_\X2\9ed88ba4\X0\', '', ( #144 ) ) ;
#34 = APPLICATION_CONTEXT ( 'automotive_design' ) ;
#35 = SHAPE_DEFINITION_REPRESENTATION ( #11, #128 ) ;
#36 = PROPERTY_DEFINITION ('document property','', #40 ) ;
#37 = AXIS2_PLACEMENT_3D ( 'NONE', #85, #179, #100 ) ;
#38 = APPLICATION_PROTOCOL_DEFINITION ( 'draft international standard', 'automotive_design', 1998, #119 ) ;
#39 = ITEM_DEFINED_TRANSFORMATION ( 'NONE', 'NONE', #116,  #37 ) ;
#40 = DOCUMENT_FILE ( 'Mirrorright_\X2\9ed88ba4\X0\.STEP' , '', '', #26, '' ,$ ) ;
#41 = IDENTIFICATION_ROLE ( 'external document id and location', $) ;
#42 = PRODUCT ( 'Mirrorright_\X2\9ed88ba4\X0\', 'Mirrorright_\X2\9ed88ba4\X0\', '', ( #52 ) ) ;
#43 = CONTEXT_DEPENDENT_SHAPE_REPRESENTATION ( #93, #63 ) ;
#44 = EXTERNAL_SOURCE (IDENTIFIER('') ) ;
#45 = PRODUCT_DEFINITION_CONTEXT ( 'detailed design', #54, 'design' ) ;
#46 =( GEOMETRIC_REPRESENTATION_CONTEXT ( 3 ) GLOBAL_UNCERTAINTY_ASSIGNED_CONTEXT ( ( #72 ) ) GLOBAL_UNIT_ASSIGNED_CONTEXT ( ( #155, #90, #150 ) ) REPRESENTATION_CONTEXT ( 'NONE', 'WORKASPACE' ) );
#47 =( NAMED_UNIT ( * ) SI_UNIT ( $, .STERADIAN. ) SOLID_ANGLE_UNIT ( ) );
#48 =( NAMED_UNIT ( * ) PLANE_ANGLE_UNIT ( ) SI_UNIT ( $, .RADIAN. ) );
#49 = DOCUMENT_TYPE ( 'geometry' ) ;
#50 = PRODUCT_CONTEXT ( 'NONE', #113, 'mechanical' ) ;
#51 = EXTERNAL_SOURCE (IDENTIFIER('') ) ;
#52 = PRODUCT_CONTEXT ( 'NONE', #129, 'mechanical' ) ;
#53 = APPLICATION_PROTOCOL_DEFINITION ( 'draft international standard', 'automotive_design', 1998, #129 ) ;
#54 = APPLICATION_CONTEXT ( 'automotive_design' ) ;
#55 = PRODUCT_DEFINITION_SHAPE ( 'NONE', 'NONE',  #71 ) ;
#56 = UNCERTAINTY_MEASURE_WITH_UNIT (LENGTH_MEASURE( 1.000000000000000082E-05 ), #190, 'distance_accuracy_value', 'NONE');
#57 =( NAMED_UNIT ( * ) SI_UNIT ( $, .STERADIAN. ) SOLID_ANGLE_UNIT ( ) );
#58 = AXIS2_PLACEMENT_3D ( 'NONE', #152, #133, #17 ) ;
#59 = DIRECTION ( 'NONE',  ( 0.000000000000000000, 0.000000000000000000, -1.000000000000000000 ) ) ;
#60 = PRODUCT_RELATED_PRODUCT_CATEGORY ( 'part', '', ( #33 ) ) ;
#61 = APPLICATION_CONTEXT ( 'automotive_design' ) ;
#62 = PRODUCT_DEFINITION_FORMATION_WITH_SPECIFIED_SOURCE ( 'Symmetric', '', #139, .NOT_KNOWN. ) ;
#63 = PRODUCT_DEFINITION_SHAPE ( 'NONE', 'NONE',  #193 ) ;
#64 = PROPERTY_DEFINITION_REPRESENTATION ( #147, #32 ) ;
#65 = IDENTIFICATION_ROLE ( 'external document id and location', $) ;
#66 = APPLICATION_PROTOCOL_DEFINITION ( 'draft international standard', 'automotive_design', 1998, #126 ) ;
#67 = PRODUCT_DEFINITION_SHAPE ( 'NONE', 'NONE',  #194 ) ;
#68 =( GEOMETRIC_REPRESENTATION_CONTEXT ( 3 ) GLOBAL_UNCERTAINTY_ASSIGNED_CONTEXT ( ( #98 ) ) GLOBAL_UNIT_ASSIGNED_CONTEXT ( ( #154, #180, #47 ) ) REPRESENTATION_CONTEXT ( 'NONE', 'WORKASPACE' ) );
#69 = DOCUMENT_FILE ( 'screw_\X2\9ed88ba4\X0\.STEP' , '', '', #161, '' ,$ ) ;
#70 = SHAPE_DEFINITION_REPRESENTATION ( #146, #16 ) ;
#71 = PRODUCT_DEFINITION ( 'General', '', #80, #82 ) ;
#72 = UNCERTAINTY_MEASURE_WITH_UNIT (LENGTH_MEASURE( 1.000000000000000082E-05 ), #155, 'distance_accuracy_value', 'NONE');
#73 =( REPRESENTATION_RELATIONSHIP ('NONE','NONE', #108, #32 ) REPRESENTATION_RELATIONSHIP_WITH_TRANSFORMATION ( #92 )SHAPE_REPRESENTATION_RELATIONSHIP( ) );
#74 = DIRECTION ( 'NONE',  ( 1.000000000000000000, 0.000000000000000000, 0.000000000000000000 ) ) ;
#75 =( GEOMETRIC_REPRESENTATION_CONTEXT ( 3 ) GLOBAL_UNCERTAINTY_ASSIGNED_CONTEXT ( ( #165 ) ) GLOBAL_UNIT_ASSIGNED_CONTEXT ( ( #149, #132, #101 ) ) REPRESENTATION_CONTEXT ( 'NONE', 'WORKASPACE' ) );
#76 = CARTESIAN_POINT ( 'NONE',  ( -82.95284523260897913, 0.000000000000000000, 0.000000000000000000 ) ) ;
#77 = APPLICATION_PROTOCOL_DEFINITION ( 'draft international standard', 'automotive_design', 1998, #105 ) ;
#78 = SHAPE_DEFINITION_REPRESENTATION ( #164, #108 ) ;
#79 = PROPERTY_DEFINITION_REPRESENTATION ( #22, #16 ) ;
#80 = PRODUCT_DEFINITION_FORMATION_WITH_SPECIFIED_SOURCE ( 'Symmetric', '', #33, .NOT_KNOWN. ) ;
#81 = APPLICATION_PROTOCOL_DEFINITION ( 'draft international standard', 'automotive_design', 1998, #54 ) ;
#82 = PRODUCT_DEFINITION_CONTEXT ( 'detailed design', #119, 'design' ) ;
#83 = PRODUCT_DEFINITION_SHAPE ( 'NONE', 'NONE',  #191 ) ;
#84 = APPLIED_EXTERNAL_IDENTIFICATION_ASSIGNMENT ( 'screw_\X2\9ed88ba4\X0\.STEP' , #135, #167,( #69) ) ;
#85 = CARTESIAN_POINT ( 'NONE',  ( 0.000000000000000000, 0.000000000000000000, 0.000000000000000000 ) ) ;
#86 = AXIS2_PLACEMENT_3D ( 'NONE', #127, #112, #74 ) ;
#87 = DIRECTION ( 'NONE',  ( 1.000000000000000000, 0.000000000000000000, 0.000000000000000000 ) ) ;
#88 = APPLICATION_PROTOCOL_DEFINITION ( 'draft international standard', 'automotive_design', 1998, #61 ) ;
#89 = DIRECTION ( 'NONE',  ( 0.000000000000000000, 0.000000000000000000, -1.000000000000000000 ) ) ;
#90 =( NAMED_UNIT ( * ) PLANE_ANGLE_UNIT ( ) SI_UNIT ( $, .RADIAN. ) );
#91 = CONTEXT_DEPENDENT_SHAPE_REPRESENTATION ( #73, #83 ) ;
#92 = ITEM_DEFINED_TRANSFORMATION ( 'NONE', 'NONE', #58,  #86 ) ;
#93 =( REPRESENTATION_RELATIONSHIP ('NONE','NONE', #108, #128 ) REPRESENTATION_RELATIONSHIP_WITH_TRANSFORMATION ( #21 )SHAPE_REPRESENTATION_RELATIONSHIP( ) );
#94 = PROPERTY_DEFINITION_REPRESENTATION ( #36, #128 ) ;
#95 = PRODUCT_DEFINITION_FORMATION_WITH_SPECIFIED_SOURCE ( 'Symmetric', '', #42, .NOT_KNOWN. ) ;
#96 = PROPERTY_DEFINITION_REPRESENTATION ( #160, #128 ) ;
#97 =( NAMED_UNIT ( * ) PLANE_ANGLE_UNIT ( ) SI_UNIT ( $, .RADIAN. ) );
#98 = UNCERTAINTY_MEASURE_WITH_UNIT (LENGTH_MEASURE( 1.000000000000000082E-05 ), #154, 'distance_accuracy_value', 'NONE');
#99 = OBJECT_ROLE ('mandatory',$ ) ;
#100 = DIRECTION ( 'NONE',  ( 1.000000000000000000, 0.000000000000000000, 0.000000000000000000 ) ) ;
#101 =( NAMED_UNIT ( * ) SI_UNIT ( $, .STERADIAN. ) SOLID_ANGLE_UNIT ( ) );
#102 = PRODUCT_DEFINITION_FORMATION_WITH_SPECIFIED_SOURCE ( 'Symmetric', '', #130, .NOT_KNOWN. ) ;
#103 = DIRECTION ( 'NONE',  ( 0.000000000000000000, 0.000000000000000000, 1.000000000000000000 ) ) ;
#104 = PRODUCT_DEFINITION ( 'General', '', #173, #13 ) ;
#105 = APPLICATION_CONTEXT ( 'automotive_design' ) ;
#106 = DIRECTION ( 'NONE',  ( 0.000000000000000000, 0.000000000000000000, 1.000000000000000000 ) ) ;
#107 = DIRECTION ( 'NONE',  ( 0.000000000000000000, 0.000000000000000000, 1.000000000000000000 ) ) ;
#108 = SHAPE_REPRESENTATION ( 'main', ( #7, #58, #116, #148, #178 ), #46 ) ;
#109 = APPLIED_DOCUMENT_REFERENCE ( #111,'',( #71) ) ;
#110 = APPLIED_DOCUMENT_REFERENCE ( #40,'',( #186) ) ;
#111 = DOCUMENT_FILE ( 'right_\X2\9ed88ba4\X0\.STEP' , '', '', #49, '' ,$ ) ;
#112 = DIRECTION ( 'NONE',  ( 0.000000000000000000, 0.000000000000000000, 1.000000000000000000 ) ) ;
#113 = APPLICATION_CONTEXT ( 'automotive_design' ) ;
#114 =( NAMED_UNIT ( * ) SI_UNIT ( $, .STERADIAN. ) SOLID_ANGLE_UNIT ( ) );
#115 = CARTESIAN_POINT ( 'NONE',  ( 0.000000000000000000, 0.000000000000000000, 0.000000000000000000 ) ) ;
#116 = AXIS2_PLACEMENT_3D ( 'NONE', #134, #107, #3 ) ;
#117 = PROPERTY_DEFINITION ('external definition','', #111 ) ;
#118 = PRODUCT_CONTEXT ( 'NONE', #61, 'mechanical' ) ;
#119 = APPLICATION_CONTEXT ( 'automotive_design' ) ;
#120 = APPLIED_EXTERNAL_IDENTIFICATION_ASSIGNMENT ( 'Mirrorscrew_\X2\9ed88ba4\X0\.STEP' , #41, #44,( #18) ) ;
#121 = APPLIED_DOCUMENT_REFERENCE ( #18,'',( #158) ) ;
#122 = APPLICATION_CONTEXT ( 'automotive_design' ) ;
#123 = APPLIED_DOCUMENT_REFERENCE ( #69,'',( #157) ) ;
#124 = ROLE_ASSOCIATION ( #176, #123 ) ;
#125 = ROLE_ASSOCIATION ( #6, #109 ) ;
#126 = APPLICATION_CONTEXT ( 'automotive_design' ) ;
#127 = CARTESIAN_POINT ( 'NONE',  ( 0.000000000000000000, 0.000000000000000000, 0.000000000000000000 ) ) ;
#128 = SHAPE_REPRESENTATION ( 'Mirrorright_\X2\9ed88ba4\X0\', ( #153 ), #23 ) ;
#129 = APPLICATION_CONTEXT ( 'automotive_design' ) ;
#130 = PRODUCT ( 'screw_\X2\9ed88ba4\X0\', 'screw_\X2\9ed88ba4\X0\', '', ( #50 ) ) ;
#131 = AXIS2_PLACEMENT_3D ( 'NONE', #174, #103, #156 ) ;
#132 =( NAMED_UNIT ( * ) PLANE_ANGLE_UNIT ( ) SI_UNIT ( $, .RADIAN. ) );
#133 = DIRECTION ( 'NONE',  ( 0.000000000000000000, 0.000000000000000000, 1.000000000000000000 ) ) ;
#134 = CARTESIAN_POINT ( 'NONE',  ( 90.45284523260899334, 80.00000000000001421, -30.00000000000000355 ) ) ;
#135 = IDENTIFICATION_ROLE ( 'external document id and location', $) ;
#136 =( LENGTH_UNIT ( ) NAMED_UNIT ( * ) SI_UNIT ( .MILLI., .METRE. ) );
#137 = IDENTIFICATION_ROLE ( 'external document id and location', $) ;
#138 = PROPERTY_DEFINITION_REPRESENTATION ( #25, #16 ) ;
#139 = PRODUCT ( 'Mirrorscrew_\X2\9ed88ba4\X0\', 'Mirrorscrew_\X2\9ed88ba4\X0\', '', ( #188 ) ) ;
#140 = CONTEXT_DEPENDENT_SHAPE_REPRESENTATION ( #15, #169 ) ;
#141 = PRODUCT_RELATED_PRODUCT_CATEGORY ( 'part', '', ( #139 ) ) ;
#142 = PROPERTY_DEFINITION ('external definition','', #69 ) ;
#143 = APPLICATION_PROTOCOL_DEFINITION ( 'draft international standard', 'automotive_design', 1998, #122 ) ;
#144 = PRODUCT_CONTEXT ( 'NONE', #182, 'mechanical' ) ;
#145 = UNCERTAINTY_MEASURE_WITH_UNIT (LENGTH_MEASURE( 1.000000000000000082E-05 ), #136, 'distance_accuracy_value', 'NONE');
#146 = PRODUCT_DEFINITION_SHAPE ( 'NONE', 'NONE',  #158 ) ;
#147 = PROPERTY_DEFINITION ('document property','', #111 ) ;
#148 = AXIS2_PLACEMENT_3D ( 'NONE', #76, #59, #1 ) ;
#149 =( LENGTH_UNIT ( ) NAMED_UNIT ( * ) SI_UNIT ( .MILLI., .METRE. ) );
#150 =( NAMED_UNIT ( * ) SI_UNIT ( $, .STERADIAN. ) SOLID_ANGLE_UNIT ( ) );
#151 = OBJECT_ROLE ('mandatory',$ ) ;
#152 = CARTESIAN_POINT ( 'NONE',  ( 82.95284523260897913, 0.000000000000000000, 0.000000000000000000 ) ) ;
#153 = AXIS2_PLACEMENT_3D ( 'NONE', #115, #106, #87 ) ;
#154 =( LENGTH_UNIT ( ) NAMED_UNIT ( * ) SI_UNIT ( .MILLI., .METRE. ) );
#155 =( LENGTH_UNIT ( ) NAMED_UNIT ( * ) SI_UNIT ( .MILLI., .METRE. ) );
#156 = DIRECTION ( 'NONE',  ( 1.000000000000000000, 0.000000000000000000, 0.000000000000000000 ) ) ;
#157 = PRODUCT_DEFINITION ( 'General', '', #102, #189 ) ;
#158 = PRODUCT_DEFINITION ( 'General', '', #62, #45 ) ;
#159 = SHAPE_DEFINITION_REPRESENTATION ( #175, #163 ) ;
#160 = PROPERTY_DEFINITION ('external definition','', #40 ) ;
#161 = DOCUMENT_TYPE ( 'geometry' ) ;
#162 = PROPERTY_DEFINITION_REPRESENTATION ( #142, #163 ) ;
#163 = SHAPE_REPRESENTATION ( 'screw_\X2\9ed88ba4\X0\', ( #37 ), #75 ) ;
#164 = PRODUCT_DEFINITION_SHAPE ( 'NONE', 'NONE',  #104 ) ;
#165 = UNCERTAINTY_MEASURE_WITH_UNIT (LENGTH_MEASURE( 1.000000000000000082E-05 ), #149, 'distance_accuracy_value', 'NONE');
#166 = PRODUCT_RELATED_PRODUCT_CATEGORY ( 'part', '', ( #42 ) ) ;
#167 = EXTERNAL_SOURCE (IDENTIFIER('') ) ;
#168 = PRODUCT ( 'main', 'main', '', ( #118 ) ) ;
#169 = PRODUCT_DEFINITION_SHAPE ( 'NONE', 'NONE',  #192 ) ;
#170 = SHAPE_DEFINITION_REPRESENTATION ( #55, #32 ) ;
#171 = DOCUMENT_TYPE ( 'geometry' ) ;
#172 = PROPERTY_DEFINITION_REPRESENTATION ( #2, #163 ) ;
#173 = PRODUCT_DEFINITION_FORMATION_WITH_SPECIFIED_SOURCE ( 'Symmetric', '', #168, .NOT_KNOWN. ) ;
#174 = CARTESIAN_POINT ( 'NONE',  ( 0.000000000000000000, 0.000000000000000000, 0.000000000000000000 ) ) ;
#175 = PRODUCT_DEFINITION_SHAPE ( 'NONE', 'NONE',  #157 ) ;
#176 = OBJECT_ROLE ('mandatory',$ ) ;
#177 = CARTESIAN_POINT ( 'NONE',  ( 0.000000000000000000, 0.000000000000000000, 0.000000000000000000 ) ) ;
#178 = AXIS2_PLACEMENT_3D ( 'NONE', #181, #89, #31 ) ;
#179 = DIRECTION ( 'NONE',  ( 0.000000000000000000, 0.000000000000000000, 1.000000000000000000 ) ) ;
#180 =( NAMED_UNIT ( * ) PLANE_ANGLE_UNIT ( ) SI_UNIT ( $, .RADIAN. ) );
#181 = CARTESIAN_POINT ( 'NONE',  ( -90.45284523260899334, 80.00000000000001421, -30.00000000000000355 ) ) ;
#182 = APPLICATION_CONTEXT ( 'automotive_design' ) ;
#183 = DIRECTION ( 'NONE',  ( 0.000000000000000000, 0.000000000000000000, 1.000000000000000000 ) ) ;
#184 = APPLICATION_PROTOCOL_DEFINITION ( 'draft international standard', 'automotive_design', 1998, #34 ) ;
#185 =( REPRESENTATION_RELATIONSHIP ('NONE','NONE', #108, #16 ) REPRESENTATION_RELATIONSHIP_WITH_TRANSFORMATION ( #24 )SHAPE_REPRESENTATION_RELATIONSHIP( ) );
#186 = PRODUCT_DEFINITION ( 'General', '', #95, #28 ) ;
#187 = APPLICATION_PROTOCOL_DEFINITION ( 'draft international standard', 'automotive_design', 1998, #182 ) ;
#188 = PRODUCT_CONTEXT ( 'NONE', #34, 'mechanical' ) ;
#189 = PRODUCT_DEFINITION_CONTEXT ( 'detailed design', #126, 'design' ) ;
#190 =( LENGTH_UNIT ( ) NAMED_UNIT ( * ) SI_UNIT ( .MILLI., .METRE. ) );
#191 = NEXT_ASSEMBLY_USAGE_OCCURRENCE ( 'NAUO1', ' ', ' ', #104, #71, $ ) ;
#192 = NEXT_ASSEMBLY_USAGE_OCCURRENCE ( 'NAUO2', ' ', ' ', #104, #157, $ ) ;
#193 = NEXT_ASSEMBLY_USAGE_OCCURRENCE ( 'NAUO3', ' ', ' ', #104, #186, $ ) ;
#194 = NEXT_ASSEMBLY_USAGE_OCCURRENCE ( 'NAUO4', ' ', ' ', #104, #158, $ ) ;
ENDSEC;
END-ISO-10303-21;
