ISO-10303-21;
HEADER;
FILE_DESCRIPTION (( 'STEP AP214' ),
    '1' );
FILE_NAME ('right outside.STEP',
    '2026-08-03T21:25:36',
    ( '' ),
    ( '' ),
    'SwSTEP 2.0',
    'SolidWorks 2023',
    '' );
FILE_SCHEMA (( 'AUTOMOTIVE_DESIGN' ));
ENDSEC;

DATA;
#1 = VERTEX_POINT ( 'NONE', #89 ) ;
#2 =( GEOMETRIC_REPRESENTATION_CONTEXT ( 3 ) GLOBAL_UNCERTAINTY_ASSIGNED_CONTEXT ( ( #64 ) ) GLOBAL_UNIT_ASSIGNED_CONTEXT ( ( #101, #178, #100 ) ) REPRESENTATION_CONTEXT ( 'NONE', 'WORKASPACE' ) );
#3 = DIRECTION ( 'NONE',  ( 0.000000000000000000, 0.000000000000000000, 1.000000000000000000 ) ) ;
#4 = DIRECTION ( 'NONE',  ( -0.000000000000000000, -1.000000000000000000, -0.000000000000000000 ) ) ;
#5 = DIRECTION ( 'NONE',  ( 0.000000000000000000, 1.000000000000000000, 0.000000000000000000 ) ) ;
#6 = CIRCLE ( 'NONE', #99, 5.850000000000000533 ) ;
#7 = CARTESIAN_POINT ( 'NONE',  ( 0.000000000000000000, 0.000000000000000000, 0.000000000000000000 ) ) ;
#8 = PRODUCT_CONTEXT ( 'NONE', #70, 'mechanical' ) ;
#9 = PRODUCT_DEFINITION_FORMATION_WITH_SPECIFIED_SOURCE ( 'ANY', '', #31, .NOT_KNOWN. ) ;
#10 = CARTESIAN_POINT ( 'NONE',  ( 0.000000000000000000, 1.699999999999999956, 0.000000000000000000 ) ) ;
#11 = ADVANCED_FACE ( 'NONE', ( #184 ), #62, .F. ) ;
#12 = AXIS2_PLACEMENT_3D ( 'NONE', #10, #165, #164 ) ;
#13 = EDGE_LOOP ( 'NONE', ( #151, #15, #122, #140 ) ) ;
#14 = VERTEX_POINT ( 'NONE', #138 ) ;
#15 = ORIENTED_EDGE ( 'NONE', *, *, #173, .T. ) ;
#16 = ORIENTED_EDGE ( 'NONE', *, *, #40, .T. ) ;
#17 = DIRECTION ( 'NONE',  ( 0.000000000000000000, 1.000000000000000000, 0.000000000000000000 ) ) ;
#18 = AXIS2_PLACEMENT_3D ( 'NONE', #161, #174, #149 ) ;
#19 = FACE_BOUND ( 'NONE', #166, .T. ) ;
#20 = DIRECTION ( 'NONE',  ( 0.000000000000000000, 0.000000000000000000, 1.000000000000000000 ) ) ;
#21 = EDGE_CURVE ( 'NONE', #14, #57, #61, .T. ) ;
#22 = CYLINDRICAL_SURFACE ( 'NONE', #158, 3.850000000000000089 ) ;
#23 = DIRECTION ( 'NONE',  ( -0.000000000000000000, -1.000000000000000000, -0.000000000000000000 ) ) ;
#24 = AXIS2_PLACEMENT_3D ( 'NONE', #39, #83, #190 ) ;
#25 = FACE_BOUND ( 'NONE', #167, .T. ) ;
#26 = CARTESIAN_POINT ( 'NONE',  ( 0.000000000000000000, 0.000000000000000000, 0.000000000000000000 ) ) ;
#27 = CIRCLE ( 'NONE', #24, 3.850000000000000089 ) ;
#28 = VECTOR ( 'NONE', #42, 1000.000000000000000 ) ;
#29 = VERTEX_POINT ( 'NONE', #50 ) ;
#30 = EDGE_LOOP ( 'NONE', ( #91, #121, #16, #93 ) ) ;
#31 = PRODUCT ( 'right outside', 'right outside', '', ( #8 ) ) ;
#32 = ORIENTED_EDGE ( 'NONE', *, *, #173, .F. ) ;
#33 = AXIS2_PLACEMENT_3D ( 'NONE', #52, #68, #133 ) ;
#34 = ORIENTED_EDGE ( 'NONE', *, *, #144, .T. ) ;
#35 = UNCERTAINTY_MEASURE_WITH_UNIT (LENGTH_MEASURE( 1.000000000000000082E-05 ), #45, 'distance_accuracy_value', 'NONE');
#36 = DIRECTION ( 'NONE',  ( -0.000000000000000000, -1.000000000000000000, -0.000000000000000000 ) ) ;
#37 = CARTESIAN_POINT ( 'NONE',  ( 0.000000000000000000, 1.699999999999999956, -3.850000000000000089 ) ) ;
#38 = AXIS2_PLACEMENT_3D ( 'NONE', #115, #17, #20 ) ;
#39 = CARTESIAN_POINT ( 'NONE',  ( 0.000000000000000000, 1.699999999999999956, 0.000000000000000000 ) ) ;
#40 = EDGE_CURVE ( 'NONE', #1, #170, #199, .T. ) ;
#41 = LINE ( 'NONE', #37, #28 ) ;
#42 = DIRECTION ( 'NONE',  ( -0.000000000000000000, -1.000000000000000000, -0.000000000000000000 ) ) ;
#43 = AXIS2_PLACEMENT_3D ( 'NONE', #26, #86, #44 ) ;
#44 = DIRECTION ( 'NONE',  ( 1.000000000000000000, 0.000000000000000000, 0.000000000000000000 ) ) ;
#45 =( LENGTH_UNIT ( ) NAMED_UNIT ( * ) SI_UNIT ( .MILLI., .METRE. ) );
#46 =( NAMED_UNIT ( * ) SI_UNIT ( $, .STERADIAN. ) SOLID_ANGLE_UNIT ( ) );
#47 = ORIENTED_EDGE ( 'NONE', *, *, #58, .T. ) ;
#48 = ORIENTED_EDGE ( 'NONE', *, *, #102, .F. ) ;
#49 = ADVANCED_FACE ( 'NONE', ( #171 ), #59, .T. ) ;
#50 = CARTESIAN_POINT ( 'NONE',  ( 0.000000000000000000, 0.000000000000000000, -3.850000000000000089 ) ) ;
#51 = CARTESIAN_POINT ( 'NONE',  ( 0.000000000000000000, 1.699999999999999956, -5.850000000000000533 ) ) ;
#52 = CARTESIAN_POINT ( 'NONE',  ( 0.000000000000000000, 0.000000000000000000, 0.000000000000000000 ) ) ;
#53 = CARTESIAN_POINT ( 'NONE',  ( 4.714890176717309515E-16, 1.699999999999999956, 3.850000000000000089 ) ) ;
#54 = FILL_AREA_STYLE_COLOUR ( '', #131 ) ;
#55 = FILL_AREA_STYLE ('',( #54 ) ) ;
#56 = CIRCLE ( 'NONE', #96, 5.850000000000000533 ) ;
#57 = VERTEX_POINT ( 'NONE', #90 ) ;
#58 = EDGE_CURVE ( 'NONE', #108, #29, #148, .T. ) ;
#59 = CYLINDRICAL_SURFACE ( 'NONE', #154, 5.850000000000000533 ) ;
#60 = CIRCLE ( 'NONE', #87, 5.850000000000000533 ) ;
#61 = LINE ( 'NONE', #124, #112 ) ;
#62 = CYLINDRICAL_SURFACE ( 'NONE', #105, 3.850000000000000089 ) ;
#63 = ORIENTED_EDGE ( 'NONE', *, *, #180, .F. ) ;
#64 = UNCERTAINTY_MEASURE_WITH_UNIT (LENGTH_MEASURE( 1.000000000000000082E-05 ), #101, 'distance_accuracy_value', 'NONE');
#65 = DIRECTION ( 'NONE',  ( 0.000000000000000000, 0.000000000000000000, 1.000000000000000000 ) ) ;
#66 = CYLINDRICAL_SURFACE ( 'NONE', #78, 5.850000000000000533 ) ;
#67 = CARTESIAN_POINT ( 'NONE',  ( 4.714890176717309515E-16, 1.699999999999999956, 3.850000000000000089 ) ) ;
#68 = DIRECTION ( 'NONE',  ( 0.000000000000000000, 1.000000000000000000, 0.000000000000000000 ) ) ;
#69 = SURFACE_SIDE_STYLE ('',( #179 ) ) ;
#70 = APPLICATION_CONTEXT ( 'automotive_design' ) ;
#71 = ADVANCED_FACE ( 'NONE', ( #98 ), #66, .T. ) ;
#72 = PRODUCT_DEFINITION ( 'UNKNOWN', '', #9, #159 ) ;
#73 = EDGE_LOOP ( 'NONE', ( #155, #182, #34, #139 ) ) ;
#74 = ORIENTED_EDGE ( 'NONE', *, *, #135, .T. ) ;
#75 = ORIENTED_EDGE ( 'NONE', *, *, #102, .T. ) ;
#76 = VERTEX_POINT ( 'NONE', #127 ) ;
#77 = DIRECTION ( 'NONE',  ( -0.000000000000000000, -1.000000000000000000, -0.000000000000000000 ) ) ;
#78 = AXIS2_PLACEMENT_3D ( 'NONE', #162, #77, #176 ) ;
#79 = LINE ( 'NONE', #53, #181 ) ;
#80 = CARTESIAN_POINT ( 'NONE',  ( 0.000000000000000000, 1.699999999999999956, 0.000000000000000000 ) ) ;
#81 = CARTESIAN_POINT ( 'NONE',  ( 0.000000000000000000, 1.699999999999999956, 0.000000000000000000 ) ) ;
#82 = CIRCLE ( 'NONE', #18, 3.850000000000000089 ) ;
#83 = DIRECTION ( 'NONE',  ( 0.000000000000000000, 1.000000000000000000, 0.000000000000000000 ) ) ;
#84 = SURFACE_STYLE_USAGE ( .BOTH. , #69 ) ;
#85 = CIRCLE ( 'NONE', #33, 3.850000000000000089 ) ;
#86 = DIRECTION ( 'NONE',  ( 0.000000000000000000, 0.000000000000000000, 1.000000000000000000 ) ) ;
#87 = AXIS2_PLACEMENT_3D ( 'NONE', #7, #5, #130 ) ;
#88 = PRODUCT_RELATED_PRODUCT_CATEGORY ( 'part', '', ( #31 ) ) ;
#89 = CARTESIAN_POINT ( 'NONE',  ( 0.000000000000000000, 1.699999999999999956, -5.850000000000000533 ) ) ;
#90 = CARTESIAN_POINT ( 'NONE',  ( 7.164183775012016422E-16, 0.000000000000000000, 5.850000000000000533 ) ) ;
#91 = ORIENTED_EDGE ( 'NONE', *, *, #21, .F. ) ;
#92 = AXIS2_PLACEMENT_3D ( 'NONE', #160, #172, #157 ) ;
#93 = ORIENTED_EDGE ( 'NONE', *, *, #175, .T. ) ;
#94 = DIRECTION ( 'NONE',  ( 0.000000000000000000, 0.000000000000000000, -1.000000000000000000 ) ) ;
#95 = DIRECTION ( 'NONE',  ( 0.000000000000000000, 0.000000000000000000, -1.000000000000000000 ) ) ;
#96 = AXIS2_PLACEMENT_3D ( 'NONE', #81, #143, #65 ) ;
#97 = PRODUCT_DEFINITION_SHAPE ( 'NONE', 'NONE',  #72 ) ;
#98 = FACE_OUTER_BOUND ( 'NONE', #30, .T. ) ;
#99 = AXIS2_PLACEMENT_3D ( 'NONE', #146, #147, #3 ) ;
#100 =( NAMED_UNIT ( * ) SI_UNIT ( $, .STERADIAN. ) SOLID_ANGLE_UNIT ( ) );
#101 =( LENGTH_UNIT ( ) NAMED_UNIT ( * ) SI_UNIT ( .MILLI., .METRE. ) );
#102 = EDGE_CURVE ( 'NONE', #76, #109, #82, .T. ) ;
#103 = PRESENTATION_STYLE_ASSIGNMENT (( #84 ) ) ;
#104 = APPLICATION_PROTOCOL_DEFINITION ( 'draft international standard', 'automotive_design', 1998, #141 ) ;
#105 = AXIS2_PLACEMENT_3D ( 'NONE', #195, #185, #119 ) ;
#106 = ORIENTED_EDGE ( 'NONE', *, *, #144, .F. ) ;
#107 = ORIENTED_EDGE ( 'NONE', *, *, #113, .F. ) ;
#108 = VERTEX_POINT ( 'NONE', #188 ) ;
#109 = VERTEX_POINT ( 'NONE', #67 ) ;
#110 = ORIENTED_EDGE ( 'NONE', *, *, #175, .F. ) ;
#111 = FACE_OUTER_BOUND ( 'NONE', #168, .T. ) ;
#112 = VECTOR ( 'NONE', #187, 1000.000000000000000 ) ;
#113 = EDGE_CURVE ( 'NONE', #76, #29, #41, .T. ) ;
#114 = DIRECTION ( 'NONE',  ( 0.000000000000000000, 1.000000000000000000, 0.000000000000000000 ) ) ;
#115 = CARTESIAN_POINT ( 'NONE',  ( 0.000000000000000000, 0.000000000000000000, 0.000000000000000000 ) ) ;
#116 = VECTOR ( 'NONE', #196, 1000.000000000000000 ) ;
#117 = AXIS2_PLACEMENT_3D ( 'NONE', #192, #114, #145 ) ;
#118 = FACE_OUTER_BOUND ( 'NONE', #198, .T. ) ;
#119 = DIRECTION ( 'NONE',  ( 0.000000000000000000, 0.000000000000000000, -1.000000000000000000 ) ) ;
#120 = STYLED_ITEM ( 'NONE', ( #103 ), #191 ) ;
#121 = ORIENTED_EDGE ( 'NONE', *, *, #129, .F. ) ;
#122 = ORIENTED_EDGE ( 'NONE', *, *, #113, .T. ) ;
#123 = ORIENTED_EDGE ( 'NONE', *, *, #180, .T. ) ;
#124 = CARTESIAN_POINT ( 'NONE',  ( 7.164183775012016422E-16, 1.699999999999999956, 5.850000000000000533 ) ) ;
#125 =( GEOMETRIC_REPRESENTATION_CONTEXT ( 3 ) GLOBAL_UNCERTAINTY_ASSIGNED_CONTEXT ( ( #35 ) ) GLOBAL_UNIT_ASSIGNED_CONTEXT ( ( #45, #194, #46 ) ) REPRESENTATION_CONTEXT ( 'NONE', 'WORKASPACE' ) );
#126 = ADVANCED_FACE ( 'NONE', ( #111 ), #22, .F. ) ;
#127 = CARTESIAN_POINT ( 'NONE',  ( 0.000000000000000000, 1.699999999999999956, -3.850000000000000089 ) ) ;
#128 = CARTESIAN_POINT ( 'NONE',  ( 0.000000000000000000, 0.000000000000000000, -5.850000000000000533 ) ) ;
#129 = EDGE_CURVE ( 'NONE', #1, #14, #56, .T. ) ;
#130 = DIRECTION ( 'NONE',  ( 0.000000000000000000, 0.000000000000000000, 1.000000000000000000 ) ) ;
#131 = COLOUR_RGB ( '',0.7921568627450980005, 0.8196078431372548767, 0.9333333333333333481 ) ;
#132 = PLANE ( 'NONE',  #117 ) ;
#133 = DIRECTION ( 'NONE',  ( 0.000000000000000000, 0.000000000000000000, 1.000000000000000000 ) ) ;
#134 = PRESENTATION_LAYER_ASSIGNMENT (  '', '', ( #120 ) ) ;
#135 = EDGE_CURVE ( 'NONE', #109, #108, #79, .T. ) ;
#136 = EDGE_LOOP ( 'NONE', ( #110, #106 ) ) ;
#137 = ADVANCED_BREP_SHAPE_REPRESENTATION ( 'right outside', ( #191, #43 ), #125 ) ;
#138 = CARTESIAN_POINT ( 'NONE',  ( 7.164183775012016422E-16, 1.699999999999999956, 5.850000000000000533 ) ) ;
#139 = ORIENTED_EDGE ( 'NONE', *, *, #40, .F. ) ;
#140 = ORIENTED_EDGE ( 'NONE', *, *, #58, .F. ) ;
#141 = APPLICATION_CONTEXT ( 'automotive_design' ) ;
#142 = ORIENTED_EDGE ( 'NONE', *, *, #129, .T. ) ;
#143 = DIRECTION ( 'NONE',  ( 0.000000000000000000, 1.000000000000000000, 0.000000000000000000 ) ) ;
#144 = EDGE_CURVE ( 'NONE', #57, #170, #169, .T. ) ;
#145 = DIRECTION ( 'NONE',  ( 0.000000000000000000, -0.000000000000000000, 1.000000000000000000 ) ) ;
#146 = CARTESIAN_POINT ( 'NONE',  ( 0.000000000000000000, 1.699999999999999956, 0.000000000000000000 ) ) ;
#147 = DIRECTION ( 'NONE',  ( 0.000000000000000000, 1.000000000000000000, 0.000000000000000000 ) ) ;
#148 = CIRCLE ( 'NONE', #38, 3.850000000000000089 ) ;
#149 = DIRECTION ( 'NONE',  ( 0.000000000000000000, 0.000000000000000000, 1.000000000000000000 ) ) ;
#150 = SHAPE_DEFINITION_REPRESENTATION ( #97, #137 ) ;
#151 = ORIENTED_EDGE ( 'NONE', *, *, #135, .F. ) ;
#152 = EDGE_CURVE ( 'NONE', #14, #1, #6, .T. ) ;
#153 = ORIENTED_EDGE ( 'NONE', *, *, #152, .T. ) ;
#154 = AXIS2_PLACEMENT_3D ( 'NONE', #183, #36, #94 ) ;
#155 = ORIENTED_EDGE ( 'NONE', *, *, #152, .F. ) ;
#156 = ADVANCED_FACE ( 'NONE', ( #189, #19 ), #132, .F. ) ;
#157 = DIRECTION ( 'NONE',  ( 0.000000000000000000, 0.000000000000000000, 1.000000000000000000 ) ) ;
#158 = AXIS2_PLACEMENT_3D ( 'NONE', #80, #4, #95 ) ;
#159 = PRODUCT_DEFINITION_CONTEXT ( 'detailed design', #141, 'design' ) ;
#160 = CARTESIAN_POINT ( 'NONE',  ( 0.000000000000000000, 0.000000000000000000, 0.000000000000000000 ) ) ;
#161 = CARTESIAN_POINT ( 'NONE',  ( 0.000000000000000000, 1.699999999999999956, 0.000000000000000000 ) ) ;
#162 = CARTESIAN_POINT ( 'NONE',  ( 0.000000000000000000, 1.699999999999999956, 0.000000000000000000 ) ) ;
#163 = CLOSED_SHELL ( 'NONE', ( #126, #49, #197, #156, #71, #11 ) ) ;
#164 = DIRECTION ( 'NONE',  ( 0.000000000000000000, -0.000000000000000000, 1.000000000000000000 ) ) ;
#165 = DIRECTION ( 'NONE',  ( 0.000000000000000000, 1.000000000000000000, 0.000000000000000000 ) ) ;
#166 = EDGE_LOOP ( 'NONE', ( #123, #47 ) ) ;
#167 = EDGE_LOOP ( 'NONE', ( #48, #32 ) ) ;
#168 = EDGE_LOOP ( 'NONE', ( #75, #74, #63, #107 ) ) ;
#169 = CIRCLE ( 'NONE', #92, 5.850000000000000533 ) ;
#170 = VERTEX_POINT ( 'NONE', #128 ) ;
#171 = FACE_OUTER_BOUND ( 'NONE', #73, .T. ) ;
#172 = DIRECTION ( 'NONE',  ( 0.000000000000000000, 1.000000000000000000, 0.000000000000000000 ) ) ;
#173 = EDGE_CURVE ( 'NONE', #109, #76, #27, .T. ) ;
#174 = DIRECTION ( 'NONE',  ( 0.000000000000000000, 1.000000000000000000, 0.000000000000000000 ) ) ;
#175 = EDGE_CURVE ( 'NONE', #170, #57, #60, .T. ) ;
#176 = DIRECTION ( 'NONE',  ( 0.000000000000000000, 0.000000000000000000, -1.000000000000000000 ) ) ;
#177 = APPLICATION_PROTOCOL_DEFINITION ( 'draft international standard', 'automotive_design', 1998, #70 ) ;
#178 =( NAMED_UNIT ( * ) PLANE_ANGLE_UNIT ( ) SI_UNIT ( $, .RADIAN. ) );
#179 = SURFACE_STYLE_FILL_AREA ( #55 ) ;
#180 = EDGE_CURVE ( 'NONE', #29, #108, #85, .T. ) ;
#181 = VECTOR ( 'NONE', #23, 1000.000000000000000 ) ;
#182 = ORIENTED_EDGE ( 'NONE', *, *, #21, .T. ) ;
#183 = CARTESIAN_POINT ( 'NONE',  ( 0.000000000000000000, 1.699999999999999956, 0.000000000000000000 ) ) ;
#184 = FACE_OUTER_BOUND ( 'NONE', #13, .T. ) ;
#185 = DIRECTION ( 'NONE',  ( -0.000000000000000000, -1.000000000000000000, -0.000000000000000000 ) ) ;
#186 = MECHANICAL_DESIGN_GEOMETRIC_PRESENTATION_REPRESENTATION (  '', ( #120 ), #2 ) ;
#187 = DIRECTION ( 'NONE',  ( -0.000000000000000000, -1.000000000000000000, -0.000000000000000000 ) ) ;
#188 = CARTESIAN_POINT ( 'NONE',  ( 4.714890176717309515E-16, 0.000000000000000000, 3.850000000000000089 ) ) ;
#189 = FACE_OUTER_BOUND ( 'NONE', #136, .T. ) ;
#190 = DIRECTION ( 'NONE',  ( 0.000000000000000000, 0.000000000000000000, 1.000000000000000000 ) ) ;
#191 = MANIFOLD_SOLID_BREP ( 'Boss-Extrude1', #163 ) ;
#192 = CARTESIAN_POINT ( 'NONE',  ( 0.000000000000000000, 0.000000000000000000, 0.000000000000000000 ) ) ;
#193 = PLANE ( 'NONE',  #12 ) ;
#194 =( NAMED_UNIT ( * ) PLANE_ANGLE_UNIT ( ) SI_UNIT ( $, .RADIAN. ) );
#195 = CARTESIAN_POINT ( 'NONE',  ( 0.000000000000000000, 1.699999999999999956, 0.000000000000000000 ) ) ;
#196 = DIRECTION ( 'NONE',  ( -0.000000000000000000, -1.000000000000000000, -0.000000000000000000 ) ) ;
#197 = ADVANCED_FACE ( 'NONE', ( #118, #25 ), #193, .T. ) ;
#198 = EDGE_LOOP ( 'NONE', ( #142, #153 ) ) ;
#199 = LINE ( 'NONE', #51, #116 ) ;
ENDSEC;
END-ISO-10303-21;
