ISO-10303-21;
HEADER;
FILE_DESCRIPTION (( 'STEP AP214' ),
    '1' );
FILE_NAME ('50mm_Road.STEP',
    '2022-09-12T14:40:24',
    ( '' ),
    ( '' ),
    'SwSTEP 2.0',
    'SolidWorks 2022',
    '' );
FILE_SCHEMA (( 'AUTOMOTIVE_DESIGN' ));
ENDSEC;

DATA;
#1 = FACE_OUTER_BOUND ( 'NONE', #259, .T. ) ;
#2 = CARTESIAN_POINT ( 'NONE',  ( 9.630559444034590300, 8.334200950161701371, 2.694159748385746678 ) ) ;
#3 = CARTESIAN_POINT ( 'NONE',  ( 10.00002565711740132, 10.00008552373205717, -0.1956812501732606846 ) ) ;
#4 = CARTESIAN_POINT ( 'NONE',  ( 9.832239882853672341, 9.384102953861235719, -1.831397414287956771 ) ) ;
#5 = UNCERTAINTY_MEASURE_WITH_UNIT (LENGTH_MEASURE( 1.000000000000000082E-05 ), #139, 'distance_accuracy_value', 'NONE');
#6 = CARTESIAN_POINT ( 'NONE',  ( 9.545634757711548346, 7.395630618241822773, -2.980353325367371742 ) ) ;
#7 = CARTESIAN_POINT ( 'NONE',  ( -10.00099999999999767, 7.000000000000000000, 3.000000000000000444 ) ) ;
#8 = PRODUCT_RELATED_PRODUCT_CATEGORY ( 'part', '', ( #325 ) ) ;
#9 = CARTESIAN_POINT ( 'NONE',  ( 9.539392014169452594, 7.196524019240980508, -3.000000000000000000 ) ) ;
#10 = EDGE_CURVE ( 'NONE', #116, #241, #268, .T. ) ;
#11 = LINE ( 'NONE', #58, #318 ) ;
#12 = STYLED_ITEM ( 'NONE', ( #288 ), #37 ) ;
#13 = CARTESIAN_POINT ( 'NONE',  ( -9.954616226154241687, 4.154005305538762016, 0.9691895606957716680 ) ) ;
#14 = CARTESIAN_POINT ( 'NONE',  ( 9.742661268988205947, 5.015697394010993015, 2.258397152836874255 ) ) ;
#15 = CARTESIAN_POINT ( 'NONE',  ( 0.000000000000000000, 0.000000000000000000, 0.000000000000000000 ) ) ;
#16 = CARTESIAN_POINT ( 'NONE',  ( 0.000000000000000000, 71.00000000000001421, 0.000000000000000000 ) ) ;
#17 = CARTESIAN_POINT ( 'NONE',  ( -9.586949020185626225, 7.970466400533159579, 2.845438776359058508 ) ) ;
#18 = ORIENTED_EDGE ( 'NONE', *, *, #208, .T. ) ;
#19 = CARTESIAN_POINT ( 'NONE',  ( -9.630269974166839830, 8.332033518446534615, 2.695183401979623916 ) ) ;
#20 = FACE_OUTER_BOUND ( 'NONE', #184, .T. ) ;
#21 = AXIS2_PLACEMENT_3D ( 'NONE', #220, #146, #74 ) ;
#22 = CARTESIAN_POINT ( 'NONE',  ( 9.993962801038055233, 4.019958270798226430, -0.3972535872881192143 ) ) ;
#23 = ORIENTED_EDGE ( 'NONE', *, *, #326, .F. ) ;
#24 = SURFACE_STYLE_USAGE ( .BOTH. , #137 ) ;
#25 = VERTEX_POINT ( 'NONE', #120 ) ;
#26 = ORIENTED_EDGE ( 'NONE', *, *, #145, .F. ) ;
#27 = COLOUR_RGB ( '',0.8941176470588234615, 0.9137254901960784048, 0.9294117647058823817 ) ;
#28 = CARTESIAN_POINT ( 'NONE',  ( 9.999974172108585080, 9.999913907021193538, 0.1982948608432702764 ) ) ;
#29 = CARTESIAN_POINT ( 'NONE',  ( 9.545647614658546942, 7.395350709978043113, 2.980307251611107322 ) ) ;
#30 = CARTESIAN_POINT ( 'NONE',  ( -9.971284203207543939, 4.096920751161506224, 0.7815524413045481511 ) ) ;
#31 = CARTESIAN_POINT ( 'NONE',  ( -9.712255119605893938, 5.168727951132549236, -2.384267461874615357 ) ) ;
#32 = CARTESIAN_POINT ( 'NONE',  ( -9.587041739681554375, 6.028513361530445813, -2.845136663942429589 ) ) ;
#33 = CARTESIAN_POINT ( 'NONE',  ( -9.539392014169454370, 7.000000000000000000, 3.000000000000000444 ) ) ;
#34 = CARTESIAN_POINT ( 'NONE',  ( 9.539392014169454370, 6.803529855088840783, -3.000000000000000444 ) ) ;
#35 = MECHANICAL_DESIGN_GEOMETRIC_PRESENTATION_REPRESENTATION (  '', ( #77 ), #314 ) ;
#36 = FACE_OUTER_BOUND ( 'NONE', #148, .T. ) ;
#37 = ADVANCED_BREP_SHAPE_REPRESENTATION ( '50mm_Road', ( #306, #195 ), #282 ) ;
#38 = FACE_BOUND ( 'NONE', #40, .T. ) ;
#39 = CARTESIAN_POINT ( 'NONE',  ( 0.000000000000000000, 0.000000000000000000, -9.999999999999998224 ) ) ;
#40 = EDGE_LOOP ( 'NONE', ( #180, #91 ) ) ;
#41 = CARTESIAN_POINT ( 'NONE',  ( -10.00099999999999767, 7.000000000000000000, 0.000000000000000000 ) ) ;
#42 = ADVANCED_FACE ( 'NONE', ( #1 ), #144, .F. ) ;
#43 = CARTESIAN_POINT ( 'NONE',  ( -9.971440570063347053, 9.903615390257051843, -0.7796605443831169380 ) ) ;
#44 = CARTESIAN_POINT ( 'NONE',  ( -9.539392014169454370, 7.000000000000000000, -3.000000000000000444 ) ) ;
#45 = VECTOR ( 'NONE', #143, 1000.000000000000000 ) ;
#46 = DIRECTION ( 'NONE',  ( 0.000000000000000000, -0.000000000000000000, 1.000000000000000000 ) ) ;
#47 =( NAMED_UNIT ( * ) PLANE_ANGLE_UNIT ( ) SI_UNIT ( $, .RADIAN. ) );
#48 = DIRECTION ( 'NONE',  ( 0.000000000000000000, 1.000000000000000000, 0.000000000000000000 ) ) ;
#49 = ORIENTED_EDGE ( 'NONE', *, *, #152, .T. ) ;
#50 = DIRECTION ( 'NONE',  ( 1.000000000000000000, 0.000000000000000000, 0.000000000000000000 ) ) ;
#51 = CARTESIAN_POINT ( 'NONE',  ( 9.742656268965316002, 8.984278445790236489, 2.258418947469770899 ) ) ;
#52 = EDGE_LOOP ( 'NONE', ( #23, #115, #78, #273 ) ) ;
#53 = CARTESIAN_POINT ( 'NONE',  ( -9.832239882853665236, 4.615897046138767834, 1.831397414287955661 ) ) ;
#54 = PRODUCT_CONTEXT ( 'NONE', #59, 'mechanical' ) ;
#55 = CARTESIAN_POINT ( 'NONE',  ( 9.569523797963466194, 7.783049409838700861, -2.902733737680743609 ) ) ;
#56 = CARTESIAN_POINT ( 'NONE',  ( 9.656425073257391745, 8.507325089563819276, -2.601156628488169531 ) ) ;
#57 = DIRECTION ( 'NONE',  ( -0.000000000000000000, -1.000000000000000000, -0.000000000000000000 ) ) ;
#58 = CARTESIAN_POINT ( 'NONE',  ( -10.00099999999999767, 7.000000000000000000, -3.000000000000000444 ) ) ;
#59 = APPLICATION_CONTEXT ( 'automotive_design' ) ;
#60 = CARTESIAN_POINT ( 'NONE',  ( -9.993962801038051680, 9.980041729201772682, 0.3972535872881208241 ) ) ;
#61 = CARTESIAN_POINT ( 'NONE',  ( 9.971251248254091593, 4.097034672087797702, -0.7818257000999579986 ) ) ;
#62 = ORIENTED_EDGE ( 'NONE', *, *, #152, .F. ) ;
#63 = CARTESIAN_POINT ( 'NONE',  ( -9.891543810449316965, 9.619822174093917155, -1.513198583113800177 ) ) ;
#64 = PRODUCT_DEFINITION ( 'UNKNOWN', '', #209, #229 ) ;
#65 = ADVANCED_FACE ( 'NONE', ( #244 ), #72, .F. ) ;
#66 = CARTESIAN_POINT ( 'NONE',  ( 9.994149111231255489, 4.019333673529212447, 0.3930409002235241700 ) ) ;
#67 = FILL_AREA_STYLE ('',( #316 ) ) ;
#68 = AXIS2_PLACEMENT_3D ( 'NONE', #216, #266, #285 ) ;
#69 = CARTESIAN_POINT ( 'NONE',  ( -9.832205116293263103, 9.396724925482866198, -1.845797323617909269 ) ) ;
#70 = ORIENTED_EDGE ( 'NONE', *, *, #129, .F. ) ;
#71 = FACE_BOUND ( 'NONE', #108, .T. ) ;
#72 = CYLINDRICAL_SURFACE ( 'NONE', #21, 3.000000000000000444 ) ;
#73 = CARTESIAN_POINT ( 'NONE',  ( 9.712255119605892162, 8.831272048867450764, 2.384267461874614025 ) ) ;
#74 = DIRECTION ( 'NONE',  ( 0.000000000000000000, 0.000000000000000000, -1.000000000000000000 ) ) ;
#75 = VECTOR ( 'NONE', #57, 1000.000000000000000 ) ;
#76 = CARTESIAN_POINT ( 'NONE',  ( 9.912327990025534774, 9.694354797114112188, -1.333966428637294310 ) ) ;
#77 = STYLED_ITEM ( 'NONE', ( #165 ), #306 ) ;
#78 = ORIENTED_EDGE ( 'NONE', *, *, #97, .T. ) ;
#79 = CARTESIAN_POINT ( 'NONE',  ( -9.569326778620800056, 6.219661101397064407, -2.903378153326406697 ) ) ;
#80 = CARTESIAN_POINT ( 'NONE',  ( -9.545647614658546942, 6.604649290021955998, -2.980307251611107322 ) ) ;
#81 = CARTESIAN_POINT ( 'NONE',  ( -9.887062619872965641, 4.399036134445375446, 1.507630708678227016 ) ) ;
#82 = CIRCLE ( 'NONE', #215, 9.999999999999998224 ) ;
#83 = CARTESIAN_POINT ( 'NONE',  ( -10.00002565711740132, 3.999914476267943719, 0.1956812501732608789 ) ) ;
#84 = CARTESIAN_POINT ( 'NONE',  ( 9.999996623551206554, 4.000011254829320961, -0.1978850120841675886 ) ) ;
#85 = CARTESIAN_POINT ( 'NONE',  ( 9.569404408463158873, 6.218605813874943600, 2.903124132011482228 ) ) ;
#86 = SURFACE_STYLE_FILL_AREA ( #67 ) ;
#87 = AXIS2_PLACEMENT_3D ( 'NONE', #16, #323, #295 ) ;
#88 = CARTESIAN_POINT ( 'NONE',  ( 9.954408128605132688, 4.154749833793363933, 0.9710103169658130806 ) ) ;
#89 = CARTESIAN_POINT ( 'NONE',  ( -9.539392014169454370, 7.000000000000000000, 3.000000000000000444 ) ) ;
#90 = CARTESIAN_POINT ( 'NONE',  ( -9.887074072791588009, 9.601000925249035589, 1.507532910742321874 ) ) ;
#91 = ORIENTED_EDGE ( 'NONE', *, *, #260, .F. ) ;
#92 = DIRECTION ( 'NONE',  ( -0.000000000000000000, -1.000000000000000000, -0.000000000000000000 ) ) ;
#93 = SURFACE_STYLE_USAGE ( .BOTH. , #117 ) ;
#94 = CARTESIAN_POINT ( 'NONE',  ( 9.539392014169454370, 7.000000000000000000, 3.000000000000000444 ) ) ;
#95 = DIRECTION ( 'NONE',  ( 0.000000000000000000, 1.000000000000000000, 0.000000000000000000 ) ) ;
#96 = ORIENTED_EDGE ( 'NONE', *, *, #248, .F. ) ;
#97 = EDGE_CURVE ( 'NONE', #241, #236, #272, .T. ) ;
#98 = CARTESIAN_POINT ( 'NONE',  ( 9.994032447721377110, 9.980275998965224105, -0.3957882180379095893 ) ) ;
#99 = CARTESIAN_POINT ( 'NONE',  ( 9.802234415368513254, 9.258779923322746797, -1.983999945181537772 ) ) ;
#100 = CARTESIAN_POINT ( 'NONE',  ( -9.569523797963469747, 6.216950590161298251, 2.902733737680744053 ) ) ;
#101 = DIRECTION ( 'NONE',  ( 1.000000000000000000, -0.000000000000000000, -0.000000000000000000 ) ) ;
#102 = CARTESIAN_POINT ( 'NONE',  ( -9.954305875571380469, 4.155110726634522855, -0.9719805331234044887 ) ) ;
#103 = CARTESIAN_POINT ( 'NONE',  ( 9.630269974166843383, 5.667966481553461833, -2.695183401979624360 ) ) ;
#104 = CARTESIAN_POINT ( 'NONE',  ( -9.712297547858291580, 5.168550467982067076, 2.384079978362264374 ) ) ;
#105 = CARTESIAN_POINT ( 'NONE',  ( 9.656238605385571105, 5.493813817589238369, 2.601862235599480488 ) ) ;
#106 = CARTESIAN_POINT ( 'NONE',  ( -9.802327470788204877, 9.259179070229555109, 1.983538879675573297 ) ) ;
#107 = CARTESIAN_POINT ( 'NONE',  ( -9.954408128605130912, 9.845250166206637843, -0.9710103169658131916 ) ) ;
#108 = EDGE_LOOP ( 'NONE', ( #18, #290 ) ) ;
#109 =( NAMED_UNIT ( * ) SI_UNIT ( $, .STERADIAN. ) SOLID_ANGLE_UNIT ( ) );
#110 = DIRECTION ( 'NONE',  ( 0.000000000000000000, 1.000000000000000000, 0.000000000000000000 ) ) ;
#111 = APPLICATION_CONTEXT ( 'automotive_design' ) ;
#112 =( LENGTH_UNIT ( ) NAMED_UNIT ( * ) SI_UNIT ( .MILLI., .METRE. ) );
#113 = PRODUCT_DEFINITION_SHAPE ( 'NONE', 'NONE',  #64 ) ;
#114 = CARTESIAN_POINT ( 'NONE',  ( -9.656238605385576435, 8.506186182410763408, -2.601862235599476936 ) ) ;
#115 = ORIENTED_EDGE ( 'NONE', *, *, #10, .T. ) ;
#116 = VERTEX_POINT ( 'NONE', #219 ) ;
#117 = SURFACE_SIDE_STYLE ('',( #86 ) ) ;
#118 = VERTEX_POINT ( 'NONE', #221 ) ;
#119 = VERTEX_POINT ( 'NONE', #193 ) ;
#120 = CARTESIAN_POINT ( 'NONE',  ( 9.539392014169454370, 7.000000000000000000, 3.000000000000000444 ) ) ;
#121 = CARTESIAN_POINT ( 'NONE',  ( 9.587041739681554375, 7.971486638469555075, 2.845136663942430033 ) ) ;
#122 = UNCERTAINTY_MEASURE_WITH_UNIT (LENGTH_MEASURE( 1.000000000000000082E-05 ), #112, 'distance_accuracy_value', 'NONE');
#123 = CARTESIAN_POINT ( 'NONE',  ( -9.802234415368515030, 4.741220076677254980, 1.983999945181537772 ) ) ;
#124 = COLOUR_RGB ( '',0.8941176470588234615, 0.9137254901960784048, 0.9294117647058823817 ) ;
#125 = CARTESIAN_POINT ( 'NONE',  ( 0.000000000000000000, 71.00000000000001421, -9.999999999999998224 ) ) ;
#126 = CARTESIAN_POINT ( 'NONE',  ( -9.891554370425970077, 4.380151547094146558, -1.512930474850052054 ) ) ;
#127 = AXIS2_PLACEMENT_3D ( 'NONE', #304, #253, #173 ) ;
#128 = CARTESIAN_POINT ( 'NONE',  ( 9.539392014169456147, 7.000000000000000000, -3.000000000000000444 ) ) ;
#129 = EDGE_CURVE ( 'NONE', #25, #119, #132, .T. ) ;
#130 = CARTESIAN_POINT ( 'NONE',  ( 9.832330856643217487, 4.615528954510668136, -1.830890254313613852 ) ) ;
#131 = AXIS2_PLACEMENT_3D ( 'NONE', #313, #142, #293 ) ;
#132 = B_SPLINE_CURVE_WITH_KNOTS ( 'NONE', 3,
 ( #94, #250, #29, #297, #121, #2, #168, #73, #51, #222, #246, #194, #249, #271, #28, #3, #98, #196, #301, #76, #169, #4, #99, #197, #303, #56, #149, #311, #55, #6, #9, #305 ),
 .UNSPECIFIED., .F., .F.,
 ( 4, 2, 2, 2, 2, 2, 2, 2, 2, 2, 2, 2, 2, 2, 2, 4 ),
 ( 0.000000000000000000, 0.0005896154186598402333, 0.001179230837319680467, 0.001768846255979520700, 0.002358461674639360933, 0.003537692511959045737, 0.004127307930618887705, 0.004716923349278729673, 0.005306538767938571641, 0.005896154186598414476, 0.006485769605258256444, 0.007075385023918098412, 0.007665000442577941248, 0.008254615861237784083, 0.008844231279897619979, 0.009433846698557457611 ),
 .UNSPECIFIED. ) ;
#133 = CARTESIAN_POINT ( 'NONE',  ( 9.954600308078793702, 4.154054664678127118, -0.9694448422724084580 ) ) ;
#134 = DIRECTION ( 'NONE',  ( 0.000000000000000000, 0.000000000000000000, 1.000000000000000000 ) ) ;
#135 = CARTESIAN_POINT ( 'NONE',  ( -9.954600308078791926, 9.845945335321873770, 0.9694448422724094572 ) ) ;
#136 = ORIENTED_EDGE ( 'NONE', *, *, #10, .F. ) ;
#137 = SURFACE_SIDE_STYLE ('',( #181 ) ) ;
#138 = CARTESIAN_POINT ( 'NONE',  ( -9.545525902834592458, 7.393489919503291041, 2.980703706307532119 ) ) ;
#139 =( LENGTH_UNIT ( ) NAMED_UNIT ( * ) SI_UNIT ( .MILLI., .METRE. ) );
#140 = CARTESIAN_POINT ( 'NONE',  ( -9.539392014169454370, 7.000000000000000000, -3.000000000000000444 ) ) ;
#141 = AXIS2_PLACEMENT_3D ( 'NONE', #147, #48, #46 ) ;
#142 = DIRECTION ( 'NONE',  ( -0.000000000000000000, -1.000000000000000000, -0.000000000000000000 ) ) ;
#143 = DIRECTION ( 'NONE',  ( -0.000000000000000000, -1.000000000000000000, -0.000000000000000000 ) ) ;
#144 = PLANE ( 'NONE',  #141 ) ;
#145 = EDGE_CURVE ( 'NONE', #118, #116, #176, .T. ) ;
#146 = DIRECTION ( 'NONE',  ( 1.000000000000000000, -0.000000000000000000, -0.000000000000000000 ) ) ;
#147 = CARTESIAN_POINT ( 'NONE',  ( 0.000000000000000000, 0.000000000000000000, 0.000000000000000000 ) ) ;
#148 = EDGE_LOOP ( 'NONE', ( #136, #26, #167, #212 ) ) ;
#149 = CARTESIAN_POINT ( 'NONE',  ( 9.630220956769207419, 8.331676497136548676, -2.695357520943872931 ) ) ;
#150 = CARTESIAN_POINT ( 'NONE',  ( -9.742121190762022209, 5.018280417499623169, 2.260780843164766463 ) ) ;
#151 = CARTESIAN_POINT ( 'NONE',  ( 9.569492557324293713, 6.217084065975394758, -2.902838531816149814 ) ) ;
#152 = EDGE_CURVE ( 'NONE', #320, #119, #11, .T. ) ;
#153 = EDGE_CURVE ( 'NONE', #320, #292, #171, .T. ) ;
#154 = LINE ( 'NONE', #7, #255 ) ;
#155 = CARTESIAN_POINT ( 'NONE',  ( -9.994032447721377110, 4.019724001034776784, 0.3957882180379104220 ) ) ;
#156 = CARTESIAN_POINT ( 'NONE',  ( -9.712275848268994594, 8.831380617134389155, -2.384183076927670175 ) ) ;
#157 = CARTESIAN_POINT ( 'NONE',  ( -9.742235219785776223, 8.982274780253373336, 2.260288312167133995 ) ) ;
#158 = CYLINDRICAL_SURFACE ( 'NONE', #274, 3.000000000000000444 ) ;
#159 = APPLICATION_PROTOCOL_DEFINITION ( 'draft international standard', 'automotive_design', 1998, #59 ) ;
#160 = CARTESIAN_POINT ( 'NONE',  ( 9.832205116293264879, 4.603275074517141796, 1.845797323617913266 ) ) ;
#161 = CARTESIAN_POINT ( 'NONE',  ( -9.569492557324293713, 7.782915934024606130, 2.902838531816149814 ) ) ;
#162 = EDGE_LOOP ( 'NONE', ( #192, #191, #214, #62 ) ) ;
#163 = PLANE ( 'NONE',  #68 ) ;
#164 = FACE_OUTER_BOUND ( 'NONE', #52, .T. ) ;
#165 = PRESENTATION_STYLE_ASSIGNMENT (( #93 ) ) ;
#166 = ORIENTED_EDGE ( 'NONE', *, *, #145, .T. ) ;
#167 = ORIENTED_EDGE ( 'NONE', *, *, #186, .T. ) ;
#168 = CARTESIAN_POINT ( 'NONE',  ( 9.656216585233954319, 8.506046662490780008, 2.601943907373408749 ) ) ;
#169 = CARTESIAN_POINT ( 'NONE',  ( 9.887062619872967417, 9.600963865554625443, -1.507630708678226128 ) ) ;
#170 = CARTESIAN_POINT ( 'NONE',  ( -9.656425073257386416, 5.492674910436179836, 2.601156628488169087 ) ) ;
#171 = B_SPLINE_CURVE_WITH_KNOTS ( 'NONE', 3,
 ( #275, #252, #80, #79, #32, #277, #307, #31, #198, #201, #126, #102, #226, #254, #174, #83, #155, #30, #13, #225, #81, #53, #123, #150, #104, #170, #223, #224, #100, #172, #278, #33 ),
 .UNSPECIFIED., .F., .F.,
 ( 4, 2, 2, 2, 2, 2, 2, 2, 2, 2, 2, 2, 2, 2, 2, 4 ),
 ( 0.000000000000000000, 0.0005896154186598388238, 0.001179230837319677648, 0.001768846255979516580, 0.002358461674639355295, 0.003537692511959037063, 0.004127307930618879031, 0.004716923349278721866, 0.005306538767938563834, 0.005896154186598405803, 0.006485769605258247771, 0.007075385023918088871, 0.007665000442577930839, 0.008254615861237773675, 0.008844231279897614775, 0.009433846698557457611 ),
 .UNSPECIFIED. ) ;
#172 = CARTESIAN_POINT ( 'NONE',  ( -9.545634757711550122, 6.604369381758179003, 2.980353325367372186 ) ) ;
#173 = DIRECTION ( 'NONE',  ( 0.000000000000000000, 0.000000000000000000, 1.000000000000000000 ) ) ;
#174 = CARTESIAN_POINT ( 'NONE',  ( -9.999974172108585080, 4.000086092978807351, -0.1982948608432698046 ) ) ;
#175 = CARTESIAN_POINT ( 'NONE',  ( 9.656453662978472963, 5.492474356741377406, -2.601057011825037346 ) ) ;
#176 = CIRCLE ( 'NONE', #127, 9.999999999999998224 ) ;
#177 = CARTESIAN_POINT ( 'NONE',  ( 9.545647731965813065, 6.604441200097939557, 2.980308681294188133 ) ) ;
#178 = CARTESIAN_POINT ( 'NONE',  ( -9.994149111231259042, 9.980666326470796434, -0.3930409002235255023 ) ) ;
#179 = CARTESIAN_POINT ( 'NONE',  ( 9.539392014169454370, 7.000000000000000000, 3.000000000000000444 ) ) ;
#180 = ORIENTED_EDGE ( 'NONE', *, *, #153, .F. ) ;
#181 = SURFACE_STYLE_FILL_AREA ( #206 ) ;
#182 =( GEOMETRIC_REPRESENTATION_CONTEXT ( 3 ) GLOBAL_UNCERTAINTY_ASSIGNED_CONTEXT ( ( #302 ) ) GLOBAL_UNIT_ASSIGNED_CONTEXT ( ( #237, #47, #185 ) ) REPRESENTATION_CONTEXT ( 'NONE', 'WORKASPACE' ) );
#183 = CARTESIAN_POINT ( 'NONE',  ( -9.832330856643221040, 9.384471045489338081, 1.830890254313613408 ) ) ;
#184 = EDGE_LOOP ( 'NONE', ( #166, #265 ) ) ;
#185 =( NAMED_UNIT ( * ) SI_UNIT ( $, .STERADIAN. ) SOLID_ANGLE_UNIT ( ) );
#186 = EDGE_CURVE ( 'NONE', #118, #236, #276, .T. ) ;
#187 = CARTESIAN_POINT ( 'NONE',  ( 9.539392014169457923, 6.800590063976682309, 3.000000000000001776 ) ) ;
#188 = PRESENTATION_LAYER_ASSIGNMENT (  '', '', ( #12 ) ) ;
#189 =( NAMED_UNIT ( * ) SI_UNIT ( $, .STERADIAN. ) SOLID_ANGLE_UNIT ( ) );
#190 = CARTESIAN_POINT ( 'NONE',  ( 0.000000000000000000, 71.00000000000001421, 0.000000000000000000 ) ) ;
#191 = ORIENTED_EDGE ( 'NONE', *, *, #199, .T. ) ;
#192 = ORIENTED_EDGE ( 'NONE', *, *, #153, .T. ) ;
#193 = CARTESIAN_POINT ( 'NONE',  ( 9.539392014169456147, 7.000000000000000000, -3.000000000000000444 ) ) ;
#194 = CARTESIAN_POINT ( 'NONE',  ( 9.954305875571378692, 9.844889273365476257, 0.9719805331234057100 ) ) ;
#195 = AXIS2_PLACEMENT_3D ( 'NONE', #269, #247, #50 ) ;
#196 = CARTESIAN_POINT ( 'NONE',  ( 9.971284203207543939, 9.903079248838496440, -0.7815524413045472629 ) ) ;
#197 = CARTESIAN_POINT ( 'NONE',  ( 9.742121190762020433, 8.981719582500375054, -2.260780843164766019 ) ) ;
#198 = CARTESIAN_POINT ( 'NONE',  ( -9.742656268965321331, 5.015721554209764399, -2.258418947469770455 ) ) ;
#199 = EDGE_CURVE ( 'NONE', #292, #25, #154, .T. ) ;
#200 = CARTESIAN_POINT ( 'NONE',  ( 9.545525902834592458, 6.606510080496709847, -2.980703706307531675 ) ) ;
#201 = CARTESIAN_POINT ( 'NONE',  ( -9.832203185081052510, 4.603281707502564934, -1.845808710912617556 ) ) ;
#202 = CARTESIAN_POINT ( 'NONE',  ( 9.712395992884481188, 5.168014153321453641, -2.383686011498999058 ) ) ;
#203 = CARTESIAN_POINT ( 'NONE',  ( 9.912173546938410240, 4.306206766905916972, -1.335180201765072461 ) ) ;
#204 = CARTESIAN_POINT ( 'NONE',  ( 9.712275848268991041, 5.168619382865617062, 2.384183076927673728 ) ) ;
#205 = CARTESIAN_POINT ( 'NONE',  ( -9.539392014169456147, 7.199409936023322132, -3.000000000000000888 ) ) ;
#206 = FILL_AREA_STYLE ('',( #261 ) ) ;
#207 = CARTESIAN_POINT ( 'NONE',  ( -9.587193455711814138, 7.972887424214643914, -2.844621124758709207 ) ) ;
#208 = EDGE_CURVE ( 'NONE', #119, #25, #217, .T. ) ;
#209 = PRODUCT_DEFINITION_FORMATION_WITH_SPECIFIED_SOURCE ( 'ANY', '', #325, .NOT_KNOWN. ) ;
#210 = CARTESIAN_POINT ( 'NONE',  ( -9.656453662978469410, 8.507525643258622594, 2.601057011825037790 ) ) ;
#211 = AXIS2_PLACEMENT_3D ( 'NONE', #218, #95, #324 ) ;
#212 = ORIENTED_EDGE ( 'NONE', *, *, #248, .T. ) ;
#213 = CARTESIAN_POINT ( 'NONE',  ( -9.712395992884479412, 8.831985846678547247, 2.383686011498999058 ) ) ;
#214 = ORIENTED_EDGE ( 'NONE', *, *, #208, .F. ) ;
#215 = AXIS2_PLACEMENT_3D ( 'NONE', #15, #110, #134 ) ;
#216 = CARTESIAN_POINT ( 'NONE',  ( 0.000000000000000000, 71.00000000000001421, 0.000000000000000000 ) ) ;
#217 = B_SPLINE_CURVE_WITH_KNOTS ( 'NONE', 3,
 ( #128, #34, #200, #151, #256, #103, #175, #202, #310, #279, #130, #228, #203, #133, #61, #22, #84, #238, #66, #263, #88, #230, #160, #14, #204, #105, #284, #289, #85, #177, #187, #179 ),
 .UNSPECIFIED., .F., .F.,
 ( 4, 2, 2, 2, 2, 2, 2, 2, 2, 2, 2, 2, 2, 2, 2, 4 ),
 ( 0.009433846698557457611, 0.01002330048234102364, 0.01061275426612458793, 0.01120220804990815222, 0.01179166183369171825, 0.01238111561747528427, 0.01297056940125884857, 0.01356002318504241286, 0.01414947696882597888, 0.01473893075260954318, 0.01532838453639310920, 0.01650729210396023605, 0.01709674588774380208, 0.01768619967152736810, 0.01827565345531093066, 0.01886510723909449322 ),
 .UNSPECIFIED. ) ;
#218 = CARTESIAN_POINT ( 'NONE',  ( 0.000000000000000000, 0.000000000000000000, 0.000000000000000000 ) ) ;
#219 = CARTESIAN_POINT ( 'NONE',  ( 1.224646799147353059E-15, 71.00000000000001421, 9.999999999999998224 ) ) ;
#220 = CARTESIAN_POINT ( 'NONE',  ( -10.00099999999999767, 7.000000000000000000, 0.000000000000000000 ) ) ;
#221 = CARTESIAN_POINT ( 'NONE',  ( 0.000000000000000000, 71.00000000000001421, -9.999999999999998224 ) ) ;
#222 = CARTESIAN_POINT ( 'NONE',  ( 9.832203185081050734, 9.396718292497430625, 1.845808710912618444 ) ) ;
#223 = CARTESIAN_POINT ( 'NONE',  ( -9.630220956769209195, 5.668323502863456653, 2.695357520943874707 ) ) ;
#224 = CARTESIAN_POINT ( 'NONE',  ( -9.586917319806554261, 6.029850365337388496, 2.845544613092292341 ) ) ;
#225 = CARTESIAN_POINT ( 'NONE',  ( -9.912327990025536550, 4.305645202885886924, 1.333966428637295643 ) ) ;
#226 = CARTESIAN_POINT ( 'NONE',  ( -9.971298909788977483, 4.096868500003642666, -0.7816253108130056804 ) ) ;
#227 = MECHANICAL_DESIGN_GEOMETRIC_PRESENTATION_REPRESENTATION (  '', ( #12 ), #182 ) ;
#228 = CARTESIAN_POINT ( 'NONE',  ( 9.887074072791593338, 4.398999074750965299, -1.507532910742323207 ) ) ;
#229 = PRODUCT_DEFINITION_CONTEXT ( 'detailed design', #111, 'design' ) ;
#230 = CARTESIAN_POINT ( 'NONE',  ( 9.891543810449320517, 4.380177825906083733, 1.513198583113801954 ) ) ;
#231 = EDGE_LOOP ( 'NONE', ( #287, #267, #49, #70 ) ) ;
#232 = DIRECTION ( 'NONE',  ( 0.000000000000000000, 0.000000000000000000, -1.000000000000000000 ) ) ;
#233 =( NAMED_UNIT ( * ) PLANE_ANGLE_UNIT ( ) SI_UNIT ( $, .RADIAN. ) );
#234 = ADVANCED_FACE ( 'NONE', ( #262 ), #158, .F. ) ;
#235 = CARTESIAN_POINT ( 'NONE',  ( 1.224646799147353059E-15, 0.000000000000000000, 9.999999999999998224 ) ) ;
#236 = VERTEX_POINT ( 'NONE', #39 ) ;
#237 =( LENGTH_UNIT ( ) NAMED_UNIT ( * ) SI_UNIT ( .MILLI., .METRE. ) );
#238 = CARTESIAN_POINT ( 'NONE',  ( 10.00000337353492696, 3.999988754883550879, 0.1975436112182673010 ) ) ;
#239 =( NAMED_UNIT ( * ) PLANE_ANGLE_UNIT ( ) SI_UNIT ( $, .RADIAN. ) );
#240 = CARTESIAN_POINT ( 'NONE',  ( -9.742661268988204171, 8.984302605989011425, -2.258397152836872035 ) ) ;
#241 = VERTEX_POINT ( 'NONE', #235 ) ;
#242 = CIRCLE ( 'NONE', #87, 9.999999999999998224 ) ;
#243 = CYLINDRICAL_SURFACE ( 'NONE', #131, 9.999999999999998224 ) ;
#244 = FACE_OUTER_BOUND ( 'NONE', #231, .T. ) ;
#245 = APPLICATION_PROTOCOL_DEFINITION ( 'draft international standard', 'automotive_design', 1998, #111 ) ;
#246 = CARTESIAN_POINT ( 'NONE',  ( 9.891554370425968301, 9.619848452905856107, 1.512930474850052720 ) ) ;
#247 = DIRECTION ( 'NONE',  ( 0.000000000000000000, 0.000000000000000000, 1.000000000000000000 ) ) ;
#248 = EDGE_CURVE ( 'NONE', #236, #241, #82, .T. ) ;
#249 = CARTESIAN_POINT ( 'NONE',  ( 9.971298909788977483, 9.903131499996357334, 0.7816253108130061245 ) ) ;
#250 = CARTESIAN_POINT ( 'NONE',  ( 9.539392014169454370, 7.199464616477027512, 3.000000000000000444 ) ) ;
#251 = DIRECTION ( 'NONE',  ( 1.000000000000000000, -0.000000000000000000, -0.000000000000000000 ) ) ;
#252 = CARTESIAN_POINT ( 'NONE',  ( -9.539392014169457923, 6.800535383522973376, -3.000000000000000888 ) ) ;
#253 = DIRECTION ( 'NONE',  ( 0.000000000000000000, 1.000000000000000000, 0.000000000000000000 ) ) ;
#254 = CARTESIAN_POINT ( 'NONE',  ( -9.994132905711385462, 4.019385450123516001, -0.3937607621884446352 ) ) ;
#255 = VECTOR ( 'NONE', #101, 1000.000000000000000 ) ;
#256 = CARTESIAN_POINT ( 'NONE',  ( 9.586949020185626225, 6.029533599466839533, -2.845438776359058952 ) ) ;
#257 = CARTESIAN_POINT ( 'NONE',  ( -9.630619799853594287, 8.334567087966592069, -2.693939489174707269 ) ) ;
#258 = CARTESIAN_POINT ( 'NONE',  ( -10.00000337353493052, 10.00001124511644512, -0.1975436112182678561 ) ) ;
#259 = EDGE_LOOP ( 'NONE', ( #96, #296 ) ) ;
#260 = EDGE_CURVE ( 'NONE', #292, #320, #283, .T. ) ;
#261 = FILL_AREA_STYLE_COLOUR ( '', #124 ) ;
#262 = FACE_OUTER_BOUND ( 'NONE', #162, .T. ) ;
#263 = CARTESIAN_POINT ( 'NONE',  ( 9.971440570063347053, 4.096384609742949934, 0.7796605443831151616 ) ) ;
#264 = CARTESIAN_POINT ( 'NONE',  ( -9.539392014169456147, 7.196470144911157441, 3.000000000000000888 ) ) ;
#265 = ORIENTED_EDGE ( 'NONE', *, *, #326, .T. ) ;
#266 = DIRECTION ( 'NONE',  ( 0.000000000000000000, 1.000000000000000000, 0.000000000000000000 ) ) ;
#267 = ORIENTED_EDGE ( 'NONE', *, *, #260, .T. ) ;
#268 = LINE ( 'NONE', #299, #45 ) ;
#269 = CARTESIAN_POINT ( 'NONE',  ( 0.000000000000000000, 0.000000000000000000, 0.000000000000000000 ) ) ;
#270 = ADVANCED_FACE ( 'NONE', ( #36, #38 ), #315, .T. ) ;
#271 = CARTESIAN_POINT ( 'NONE',  ( 9.994132905711385462, 9.980614549876486663, 0.3937607621884449127 ) ) ;
#272 = CIRCLE ( 'NONE', #211, 9.999999999999998224 ) ;
#273 = ORIENTED_EDGE ( 'NONE', *, *, #186, .F. ) ;
#274 = AXIS2_PLACEMENT_3D ( 'NONE', #41, #291, #232 ) ;
#275 = CARTESIAN_POINT ( 'NONE',  ( -9.539392014169454370, 7.000000000000000000, -3.000000000000000444 ) ) ;
#276 = LINE ( 'NONE', #125, #75 ) ;
#277 = CARTESIAN_POINT ( 'NONE',  ( -9.630559444034586747, 5.665799049838303070, -2.694159748385747566 ) ) ;
#278 = CARTESIAN_POINT ( 'NONE',  ( -9.539392014169456147, 6.803475980759017716, 3.000000000000001332 ) ) ;
#279 = CARTESIAN_POINT ( 'NONE',  ( 9.802327470788203101, 4.740820929770445780, -1.983538879675574629 ) ) ;
#280 = CLOSED_SHELL ( 'NONE', ( #234, #298, #270, #308, #42, #65 ) ) ;
#281 = CARTESIAN_POINT ( 'NONE',  ( -9.999996623551211883, 9.999988745170684368, 0.1978850120841671167 ) ) ;
#282 =( GEOMETRIC_REPRESENTATION_CONTEXT ( 3 ) GLOBAL_UNCERTAINTY_ASSIGNED_CONTEXT ( ( #5 ) ) GLOBAL_UNIT_ASSIGNED_CONTEXT ( ( #139, #239, #109 ) ) REPRESENTATION_CONTEXT ( 'NONE', 'WORKASPACE' ) );
#283 = B_SPLINE_CURVE_WITH_KNOTS ( 'NONE', 3,
 ( #89, #264, #138, #161, #17, #19, #210, #213, #157, #106, #183, #90, #319, #135, #286, #60, #281, #258, #178, #43, #107, #63, #69, #240, #156, #114, #257, #207, #312, #317, #205, #140 ),
 .UNSPECIFIED., .F., .F.,
 ( 4, 2, 2, 2, 2, 2, 2, 2, 2, 2, 2, 2, 2, 2, 2, 4 ),
 ( 0.009433846698557457611, 0.01002330048234102364, 0.01061275426612458966, 0.01120220804990815569, 0.01179166183369172172, 0.01238111561747528774, 0.01297056940125885377, 0.01356002318504241980, 0.01414947696882598582, 0.01473893075260955185, 0.01532838453639311788, 0.01650729210396024993, 0.01709674588774381596, 0.01768619967152738198, 0.01827565345531094107, 0.01886510723909450016 ),
 .UNSPECIFIED. ) ;
#284 = CARTESIAN_POINT ( 'NONE',  ( 9.630619799853590735, 5.665432912033416812, 2.693939489174709045 ) ) ;
#285 = DIRECTION ( 'NONE',  ( 0.000000000000000000, -0.000000000000000000, 1.000000000000000000 ) ) ;
#286 = CARTESIAN_POINT ( 'NONE',  ( -9.971251248254096922, 9.902965327912205851, 0.7818257000999586648 ) ) ;
#287 = ORIENTED_EDGE ( 'NONE', *, *, #199, .F. ) ;
#288 = PRESENTATION_STYLE_ASSIGNMENT (( #24 ) ) ;
#289 = CARTESIAN_POINT ( 'NONE',  ( 9.587193455711817691, 6.027112575785364967, 2.844621124758710984 ) ) ;
#290 = ORIENTED_EDGE ( 'NONE', *, *, #129, .T. ) ;
#291 = DIRECTION ( 'NONE',  ( 1.000000000000000000, -0.000000000000000000, -0.000000000000000000 ) ) ;
#292 = VERTEX_POINT ( 'NONE', #321 ) ;
#293 = DIRECTION ( 'NONE',  ( 0.000000000000000000, 0.000000000000000000, -1.000000000000000000 ) ) ;
#294 = DIRECTION ( 'NONE',  ( 0.000000000000000000, 0.000000000000000000, -1.000000000000000000 ) ) ;
#295 = DIRECTION ( 'NONE',  ( 0.000000000000000000, 0.000000000000000000, 1.000000000000000000 ) ) ;
#296 = ORIENTED_EDGE ( 'NONE', *, *, #97, .F. ) ;
#297 = CARTESIAN_POINT ( 'NONE',  ( 9.569326778620798279, 7.780338898602935593, 2.903378153326406252 ) ) ;
#298 = ADVANCED_FACE ( 'NONE', ( #71, #164 ), #243, .T. ) ;
#299 = CARTESIAN_POINT ( 'NONE',  ( 1.224646799147353059E-15, 71.00000000000001421, 9.999999999999998224 ) ) ;
#300 = SHAPE_DEFINITION_REPRESENTATION ( #113, #37 ) ;
#301 = CARTESIAN_POINT ( 'NONE',  ( 9.954616226154241687, 9.845994694461237984, -0.9691895606957704468 ) ) ;
#302 = UNCERTAINTY_MEASURE_WITH_UNIT (LENGTH_MEASURE( 1.000000000000000082E-05 ), #237, 'distance_accuracy_value', 'NONE');
#303 = CARTESIAN_POINT ( 'NONE',  ( 9.712297547858286251, 8.831449532017932924, -2.384079978362263930 ) ) ;
#304 = CARTESIAN_POINT ( 'NONE',  ( 0.000000000000000000, 71.00000000000001421, 0.000000000000000000 ) ) ;
#305 = CARTESIAN_POINT ( 'NONE',  ( 9.539392014169456147, 7.000000000000000000, -3.000000000000000444 ) ) ;
#306 = MANIFOLD_SOLID_BREP ( 'Cut-Extrude1', #280 ) ;
#307 = CARTESIAN_POINT ( 'NONE',  ( -9.656216585233952543, 5.493953337509222656, -2.601943907373410081 ) ) ;
#308 = ADVANCED_FACE ( 'NONE', ( #20 ), #163, .T. ) ;
#309 = AXIS2_PLACEMENT_3D ( 'NONE', #190, #92, #294 ) ;
#310 = CARTESIAN_POINT ( 'NONE',  ( 9.742235219785774447, 5.017725219746626664, -2.260288312167133995 ) ) ;
#311 = CARTESIAN_POINT ( 'NONE',  ( 9.586917319806556037, 7.970149634662611504, -2.845544613092291897 ) ) ;
#312 = CARTESIAN_POINT ( 'NONE',  ( -9.569404408463158873, 7.781394186125061729, -2.903124132011480452 ) ) ;
#313 = CARTESIAN_POINT ( 'NONE',  ( 0.000000000000000000, 71.00000000000001421, 0.000000000000000000 ) ) ;
#314 =( GEOMETRIC_REPRESENTATION_CONTEXT ( 3 ) GLOBAL_UNCERTAINTY_ASSIGNED_CONTEXT ( ( #122 ) ) GLOBAL_UNIT_ASSIGNED_CONTEXT ( ( #112, #233, #189 ) ) REPRESENTATION_CONTEXT ( 'NONE', 'WORKASPACE' ) );
#315 = CYLINDRICAL_SURFACE ( 'NONE', #309, 9.999999999999998224 ) ;
#316 = FILL_AREA_STYLE_COLOUR ( '', #27 ) ;
#317 = CARTESIAN_POINT ( 'NONE',  ( -9.545647731965813065, 7.395558799902067548, -2.980308681294187245 ) ) ;
#318 = VECTOR ( 'NONE', #251, 1000.000000000000000 ) ;
#319 = CARTESIAN_POINT ( 'NONE',  ( -9.912173546938408464, 9.693793233094083917, 1.335180201765072461 ) ) ;
#320 = VERTEX_POINT ( 'NONE', #44 ) ;
#321 = CARTESIAN_POINT ( 'NONE',  ( -9.539392014169454370, 7.000000000000000000, 3.000000000000000444 ) ) ;
#322 = PRESENTATION_LAYER_ASSIGNMENT (  '', '', ( #77 ) ) ;
#323 = DIRECTION ( 'NONE',  ( 0.000000000000000000, 1.000000000000000000, 0.000000000000000000 ) ) ;
#324 = DIRECTION ( 'NONE',  ( 0.000000000000000000, 0.000000000000000000, 1.000000000000000000 ) ) ;
#325 = PRODUCT ( '50mm_Road', '50mm_Road', '', ( #54 ) ) ;
#326 = EDGE_CURVE ( 'NONE', #116, #118, #242, .T. ) ;
ENDSEC;
END-ISO-10303-21;
