<?xml version="1.0" encoding="UTF-8" standalone="no"?>
<!-- Created with Inkscape (http://www.inkscape.org/) -->

<svg
   width="210mm"
   height="297mm"
   viewBox="0 0 210 297"
   version="1.1"
   id="svg1"
   inkscape:version="1.4 (86a8ad7, 2024-10-11)"
   sodipodi:docname="testtest 100 inkscape.svg"
   xml:space="preserve"
   xmlns:inkscape="http://www.inkscape.org/namespaces/inkscape"
   xmlns:sodipodi="http://sodipodi.sourceforge.net/DTD/sodipodi-0.dtd"
   xmlns="http://www.w3.org/2000/svg"
   xmlns:svg="http://www.w3.org/2000/svg"><sodipodi:namedview
     id="namedview1"
     pagecolor="#ffffff"
     bordercolor="#000000"
     borderopacity="0.25"
     inkscape:showpageshadow="2"
     inkscape:pageopacity="0.0"
     inkscape:pagecheckerboard="0"
     inkscape:deskcolor="#d1d1d1"
     inkscape:document-units="mm"
     inkscape:zoom="2.9405048"
     inkscape:cx="273.93256"
     inkscape:cy="349.4298"
     inkscape:window-width="2560"
     inkscape:window-height="1351"
     inkscape:window-x="-9"
     inkscape:window-y="-9"
     inkscape:window-maximized="1"
     inkscape:current-layer="layer1" /><defs
     id="defs1"><rect
       x="152.9397"
       y="294.33678"
       width="0"
       height="74.065138"
       id="rect5" /><marker
       id="DistanceX"
       orient="auto"
       refX="0.0"
       refY="0.0"
       style="overflow:visible"><path
         d="M 3,-3 L -3,3 M 0,-5 L  0,5"
         style="stroke:#000000; stroke-width:0.5"
         id="path1" /></marker><pattern
       id="Hatch"
       patternUnits="userSpaceOnUse"
       width="8"
       height="8"
       x="0"
       y="0"><path
         d="M8 4 l-4,4"
         stroke="#000000"
         stroke-width="0.25"
         linecap="square"
         id="path2" /><path
         d="M6 2 l-4,4"
         stroke="#000000"
         stroke-width="0.25"
         linecap="square"
         id="path3" /><path
         d="M4 0 l-4,4"
         stroke="#000000"
         stroke-width="0.25"
         linecap="square"
         id="path4" /></pattern><symbol
       id="*Model_Space" /><symbol
       id="*Paper_Space" /><symbol
       id="*Paper_Space0" /><marker
       id="DistanceX-1"
       orient="auto"
       refX="0.0"
       refY="0.0"
       style="overflow:visible"><path
         d="M 3,-3 L -3,3 M 0,-5 L  0,5"
         style="stroke:#000000; stroke-width:0.5"
         id="path1-7" /></marker><pattern
       id="Hatch-1"
       patternUnits="userSpaceOnUse"
       width="8"
       height="8"
       x="0"
       y="0"><path
         d="M8 4 l-4,4"
         stroke="#000000"
         stroke-width="0.25"
         linecap="square"
         id="path2-1" /><path
         d="M6 2 l-4,4"
         stroke="#000000"
         stroke-width="0.25"
         linecap="square"
         id="path3-5" /><path
         d="M4 0 l-4,4"
         stroke="#000000"
         stroke-width="0.25"
         linecap="square"
         id="path4-2" /></pattern><symbol
       id="*Model_Space-7" /><symbol
       id="*Paper_Space-6" /><symbol
       id="*Paper_Space0-1" /></defs><g
     inkscape:label="Layer 1"
     inkscape:groupmode="layer"
     id="layer1"><text
       xml:space="preserve"
       style="font-style:normal;font-variant:normal;font-weight:normal;font-stretch:normal;font-size:5.29167px;font-family:Stencil;-inkscape-font-specification:'Stencil, Normal';font-variant-ligatures:normal;font-variant-caps:normal;font-variant-numeric:normal;font-variant-east-asian:normal;text-align:center;letter-spacing:0px;word-spacing:0px;writing-mode:lr-tb;direction:ltr;text-anchor:middle;fill:#000000;stroke-width:0.0254;stroke-linecap:round;stroke-miterlimit:5;stroke-dasharray:none;paint-order:markers stroke fill;stroke:none;stroke-opacity:1;fill-opacity:1"
       x="82.07338"
       y="213.63515"
       id="text1"><tspan
         sodipodi:role="line"
         id="tspan1"
         style="font-style:normal;font-variant:normal;font-weight:normal;font-stretch:normal;font-size:5.29167px;font-family:Stencil;-inkscape-font-specification:'Stencil, Normal';font-variant-ligatures:normal;font-variant-caps:normal;font-variant-numeric:normal;font-variant-east-asian:normal;text-align:center;text-anchor:middle;fill:#000000;stroke:none;stroke-width:0.0254;stroke-dasharray:none;stroke-opacity:1;fill-opacity:1"
         x="82.07338"
         y="213.63515">INDIVIDUAL</tspan><tspan
         sodipodi:role="line"
         style="font-style:normal;font-variant:normal;font-weight:normal;font-stretch:normal;font-size:5.29167px;font-family:Stencil;-inkscape-font-specification:'Stencil, Normal';font-variant-ligatures:normal;font-variant-caps:normal;font-variant-numeric:normal;font-variant-east-asian:normal;text-align:center;text-anchor:middle;fill:#000000;stroke:none;stroke-width:0.0254;stroke-dasharray:none;stroke-opacity:1;fill-opacity:1"
         x="82.07338"
         y="220.24974"
         id="tspan3" /><tspan
         sodipodi:role="line"
         style="font-style:normal;font-variant:normal;font-weight:normal;font-stretch:normal;font-size:5.29167px;font-family:Stencil;-inkscape-font-specification:'Stencil, Normal';font-variant-ligatures:normal;font-variant-caps:normal;font-variant-numeric:normal;font-variant-east-asian:normal;text-align:center;text-anchor:middle;fill:#000000;stroke:none;stroke-width:0.0254;stroke-dasharray:none;stroke-opacity:1;fill-opacity:1"
         x="82.07338"
         y="226.86432"
         id="tspan2">2026</tspan></text><text
       xml:space="preserve"
       style="font-size:8.81944px;font-family:Stencil;-inkscape-font-specification:'Stencil, Normal';text-align:center;letter-spacing:0px;word-spacing:0px;writing-mode:lr-tb;direction:ltr;text-anchor:middle;fill:none;stroke-width:0.264999;stroke-linecap:round;stroke-miterlimit:5;paint-order:markers stroke fill;stroke:#000000;stroke-opacity:1"
       x="92.128532"
       y="136.1568"
       id="text4"><tspan
         sodipodi:role="line"
         id="tspan4"
         style="stroke-width:0.265;stroke:#000000;stroke-opacity:1;fill:none" /></text><text
       xml:space="preserve"
       transform="scale(0.26458333)"
       id="text5"
       style="font-size:33.3333px;font-family:Stencil;-inkscape-font-specification:'Stencil, Normal';text-align:center;letter-spacing:0px;word-spacing:0px;writing-mode:lr-tb;direction:ltr;white-space:pre;shape-inside:url(#rect5);display:inline;fill:none;stroke:#000000;stroke-width:0.96;stroke-linecap:round;stroke-miterlimit:5;stroke-dasharray:none;stroke-opacity:1;paint-order:markers stroke fill" /><g
       inkscape:label="0"
       id="g21"
       transform="matrix(0.26458333,0,0,0.26458333,135.04554,-169.96248)"
       style="fill:none;stroke:#000000;stroke-width:0.096;stroke-dasharray:none;stroke-opacity:1"><path
         style="fill:none;stroke:#000000;stroke-width:0.096;stroke-linecap:round;stroke-dasharray:none;stroke-opacity:1"
         d="m -222.992,1086.71 h -56.693"
         id="path5" /><path
         style="fill:none;stroke:#000000;stroke-width:0.096;stroke-linecap:round;stroke-dasharray:none;stroke-opacity:1"
         d="m -222.992,1099.93 v -13.22"
         id="path6" /><path
         style="fill:none;stroke:#000000;stroke-width:0.096;stroke-linecap:round;stroke-dasharray:none;stroke-opacity:1"
         d="m -279.685,1099.93 h 56.693"
         id="path7" /><path
         style="fill:none;stroke:#000000;stroke-width:0.096;stroke-linecap:round;stroke-dasharray:none;stroke-opacity:1"
         d="m -279.685,1099.93 v 419.44"
         id="path8" /><path
         style="fill:none;stroke:#000000;stroke-width:0.096;stroke-linecap:round;stroke-dasharray:none;stroke-opacity:1"
         d="m -279.685,1519.37 h 138.388"
         id="path9" /><path
         style="fill:none;stroke:#000000;stroke-width:0.096;stroke-linecap:round;stroke-dasharray:none;stroke-opacity:1"
         d="m -134.831,1508.03 -6.466,11.34"
         id="path10" /><path
         style="fill:none;stroke:#000000;stroke-width:0.096;stroke-linecap:round;stroke-dasharray:none;stroke-opacity:1"
         d="m -134.831,1508.03 h 22.677"
         id="path11" /><path
         style="fill:none;stroke:#000000;stroke-width:0.096;stroke-linecap:round;stroke-dasharray:none;stroke-opacity:1"
         d="M -112.154,1508.03 54.3749,1215.99"
         id="path12" /><path
         style="fill:none;stroke:#000000;stroke-width:0.096;stroke-linecap:round;stroke-dasharray:none;stroke-opacity:1"
         d="M 54.3749,1215.99 -0.260703,1106.58"
         id="path13" /><path
         style="fill:none;stroke:#000000;stroke-width:0.096;stroke-linecap:round;stroke-dasharray:none;stroke-opacity:1"
         d="M -0.260703,1106.58 -155.268,962.789"
         id="path14" /><path
         style="fill:none;stroke:#000000;stroke-width:0.096;stroke-linecap:round;stroke-dasharray:none;stroke-opacity:1"
         d="m -155.268,962.789 h -47.903"
         id="path15" /><path
         style="fill:none;stroke:#000000;stroke-width:0.096;stroke-linecap:round;stroke-dasharray:none;stroke-opacity:1"
         d="m -203.171,962.789 -53.837,-49.941"
         id="path16" /><path
         style="fill:none;stroke:#000000;stroke-width:0.096;stroke-linecap:round;stroke-dasharray:none;stroke-opacity:1"
         d="m -257.008,912.848 h -22.677"
         id="path17" /><path
         style="fill:none;stroke:#000000;stroke-width:0.096;stroke-linecap:round;stroke-dasharray:none;stroke-opacity:1"
         d="M -279.685,912.848 V 1086.71"
         id="path18" /><path
         d="m -205.98425,1093.3203 a 5.6692915,5.6692915 0 0 0 -11.33858,0 5.6692915,5.6692915 0 0 0 11.33858,0 z"
         style="fill:none;stroke:#000000;stroke-width:0.096;stroke-linecap:round;stroke-dasharray:none;stroke-opacity:1"
         id="path19" /><path
         d="m -5.689747,1123.7588 a 11.338583,11.338583 0 0 0 -22.677165,0 11.338583,11.338583 0 0 0 22.677165,0 z"
         style="fill:none;stroke:#000000;stroke-width:0.096;stroke-linecap:round;stroke-dasharray:none;stroke-opacity:1"
         id="path20" /><path
         d="m -146.4525,993.18377 a 11.338585,11.338585 0 0 0 -22.67717,0 11.338585,11.338585 0 0 0 22.67717,0 z"
         style="fill:none;stroke:#000000;stroke-width:0.096;stroke-linecap:round;stroke-dasharray:none;stroke-opacity:1"
         id="path21" /></g><text
       xml:space="preserve"
       style="font-style:normal;font-variant:normal;font-weight:normal;font-stretch:normal;font-size:3.52778px;font-family:Stencil;-inkscape-font-specification:'Stencil, Normal';font-variant-ligatures:normal;font-variant-caps:normal;font-variant-numeric:normal;font-variant-east-asian:normal;text-align:start;letter-spacing:0px;word-spacing:0px;writing-mode:lr-tb;direction:ltr;text-anchor:start;fill:#000000;stroke:none;stroke-width:0.0254;stroke-linecap:round;stroke-miterlimit:5;stroke-dasharray:none;stroke-opacity:1;paint-order:markers stroke fill;fill-opacity:1"
       x="61.894627"
       y="114.01542"
       id="text6"><tspan
         sodipodi:role="line"
         id="tspan10"
         x="61.894627"
         y="114.01542">CONGRATULATIONS TO</tspan><tspan
         sodipodi:role="line"
         id="tspan11"
         x="61.894627"
         y="118.42514" /><tspan
         sodipodi:role="line"
         id="tspan12"
         x="61.894627"
         y="122.83487" /><tspan
         sodipodi:role="line"
         id="tspan13"
         x="61.894627"
         y="127.24459">1ST PLACE</tspan></text><path
       style="fill:#000000;stroke:none;stroke-width:0;stroke-dasharray:none;stroke-opacity:1;fill-opacity:1"
       d="m 90.051135,191.19739 c -5.554542,-0.0977 -11.13973,-1.94325 -15.659177,-5.17426 -3.774279,-2.69828 -6.695465,-6.10018 -8.815107,-10.26572 -0.237125,-0.46601 -0.450382,-0.85411 -0.473903,-0.86245 -0.02353,-0.008 -0.04276,-0.0655 -0.04276,-0.12699 0,-0.0615 -0.03991,-0.19008 -0.08871,-0.28571 -0.296585,-0.58135 -0.98856,-2.49622 -1.320005,-3.65278 -1.156542,-4.03569 -1.368184,-8.56386 -0.596298,-12.75802 0.914918,-4.97138 3.115047,-9.50848 6.491681,-13.38718 0.509761,-0.58556 2.315472,-2.43337 2.381353,-2.43688 0.01561,-6.6e-4 0.171775,-0.12625 0.347031,-0.27872 4.118192,-3.58274 9.377044,-5.93438 14.79428,-6.61569 2.218664,-0.27903 4.88259,-0.27903 7.101257,0 3.5466,0.44604 7.076103,1.61534 10.196673,3.37808 6.8991,3.89715 11.83984,10.50935 13.5811,18.17556 0.48635,2.14129 0.68969,3.98661 0.68969,6.25912 0,3.67435 -0.61459,6.91212 -1.97093,10.38334 -0.13795,0.35304 -0.29492,0.72833 -0.34881,0.83399 -0.0539,0.10565 -0.10602,0.25535 -0.11579,0.33264 -0.01,0.0773 -0.0389,0.1536 -0.0647,0.16955 -0.0259,0.016 -0.20981,0.3558 -0.40891,0.75526 -1.36597,2.74052 -3.12157,5.17811 -5.29403,7.35058 -0.65954,0.65954 -1.95267,1.82774 -2.18117,1.97043 -0.047,0.0294 -0.0854,0.0791 -0.0854,0.1107 0,0.0316 -0.028,0.0574 -0.0621,0.0574 -0.0341,0 -0.2134,0.11887 -0.3983,0.26416 -0.49092,0.3857 -1.34108,0.98009 -2.04324,1.42853 -4.62923,2.95646 -10.041978,4.47318 -15.613665,4.37514 z m 2.617901,-0.17395 c 3.850552,-0.30894 7.177854,-1.22992 10.558754,-2.92258 1.43674,-0.71931 3.31633,-1.9061 4.41342,-2.78666 l 0.31491,-0.25276 -0.40595,-0.0992 c -0.22327,-0.0546 -0.41228,-0.1007 -0.42002,-0.1025 -0.008,-0.002 -0.003,-0.0217 0.0112,-0.0443 0.0142,-0.023 0.17051,-0.003 0.35547,0.0448 0.18157,0.0471 0.33951,0.0861 0.35098,0.0865 0.0785,0.003 -0.40927,-0.4147 -0.6122,-0.52416 -0.13776,-0.0743 -0.25054,-0.16274 -0.25062,-0.19651 -1.2e-4,-0.0448 0.0443,-0.0352 0.16489,0.036 0.0908,0.0536 0.16947,0.0914 0.17485,0.0841 0.005,-0.008 -1.79248,-2.13848 -3.99525,-4.73601 l -4.00505,-4.72279 -4.192858,6.5e-4 -4.192853,6.6e-4 0.147943,0.0947 c 0.08137,0.0521 0.147942,0.11321 0.147942,0.13579 0,0.0607 -0.01999,0.0537 -0.273125,-0.0955 L 90.729917,174.8872 H 78.28575 c -8.553439,0 -12.44908,0.0148 -12.459898,0.0472 -0.01067,0.0319 -0.09254,0.0295 -0.25397,-0.008 -0.131028,-0.0302 -0.252462,-0.0408 -0.269854,-0.0234 -0.04136,0.0414 0.555158,1.22944 1.06614,2.12341 3.101002,5.42525 8.067389,9.75754 13.827668,12.06213 2.655213,1.0623 5.328035,1.68541 8.284797,1.9314 1.032525,0.0859 3.136667,0.0874 4.188371,0.003 z m 13.485104,-6.38263 c -0.16899,-0.0386 -0.30726,-0.0878 -0.30726,-0.10935 0,-0.0568 0.10303,-0.0487 0.43447,0.0346 0.16162,0.0405 0.29386,0.0918 0.29386,0.11381 0,0.0508 -0.0458,0.0466 -0.42107,-0.0391 z m -1.34286,-0.32087 c -0.26236,-0.0656 -0.38057,-0.14631 -0.2142,-0.14631 0.13777,0 0.65802,0.14833 0.65802,0.18762 0,0.0534 -0.1033,0.0438 -0.44382,-0.0413 z m -1.32012,-0.31865 c -0.15647,-0.039 -0.2845,-0.088 -0.2845,-0.1087 0,-0.0522 0.0503,-0.048 0.41209,0.0343 0.17394,0.0395 0.31625,0.0908 0.31625,0.11379 0,0.0553 -0.10047,0.0464 -0.44384,-0.0394 z m 2.61737,-0.22926 c -0.28422,-0.1553 -0.37322,-0.23569 -0.26096,-0.23569 0.0628,0 0.53879,0.27086 0.57287,0.32602 0.0574,0.0927 -0.0155,0.0716 -0.31191,-0.0903 z m -3.92608,-0.0872 c -0.29673,-0.0762 -0.32491,-0.0891 -0.28372,-0.1303 0.0374,-0.0374 0.71617,0.1258 0.71617,0.17223 0,0.0512 -0.11196,0.0403 -0.43245,-0.0419 z m -1.33149,-0.31496 c -0.15648,-0.0371 -0.2845,-0.0865 -0.2845,-0.10979 0,-0.0233 0.0214,-0.0424 0.0476,-0.0424 0.0986,0 0.65983,0.15074 0.70126,0.18835 0.0631,0.0573 -0.13511,0.0418 -0.4643,-0.0362 z m 4.09851,-0.26839 c -0.27927,-0.15828 -0.38345,-0.24794 -0.28814,-0.24794 0.0705,0 0.53086,0.26561 0.59565,0.34367 0.087,0.10485 -0.003,0.0768 -0.30751,-0.0957 z m -5.399709,-0.0434 c -0.229635,-0.0631 -0.289899,-0.0966 -0.248371,-0.13815 0.03117,-0.0312 0.635634,0.11475 0.693778,0.16752 0.06352,0.0577 -0.189366,0.041 -0.445407,-0.0294 z M 98.321118,182.76 c -0.306118,-0.079 -0.384374,-0.11418 -0.344021,-0.15452 0.02762,-0.0276 0.644724,0.11207 0.692832,0.15684 0.0811,0.0754 -0.05085,0.0746 -0.348811,-0.003 z m 5.444802,-0.34129 c -0.28058,-0.15903 -0.38341,-0.24794 -0.28679,-0.24794 0.0726,0 0.63795,0.33131 0.63795,0.37385 0,0.0609 -0.0585,0.04 -0.35116,-0.12591 z m -6.764905,0.0252 c -0.303313,-0.0808 -0.38407,-0.11714 -0.345559,-0.15548 0.03734,-0.0372 0.697149,0.14157 0.714466,0.1935 0.02171,0.065 0.01537,0.0644 -0.368907,-0.038 z m -1.32431,-0.31255 c -0.173197,-0.0411 -0.324127,-0.10242 -0.335413,-0.13626 -0.01394,-0.0418 0.0068,-0.0538 0.06454,-0.0376 0.08782,0.0248 0.132717,0.0365 0.460595,0.12123 0.106404,0.0275 0.193463,0.0697 0.193463,0.0938 0,0.0518 0.01512,0.0534 -0.383183,-0.0411 z m -1.278331,-0.30639 c -0.360164,-0.0858 -0.397448,-0.10111 -0.366689,-0.15089 0.01535,-0.0248 0.08651,-0.0262 0.17359,-0.003 0.08118,0.0214 0.234644,0.0614 0.341047,0.089 0.106404,0.0276 0.193463,0.0699 0.193463,0.094 0,0.0526 0.0017,0.0528 -0.341411,-0.0289 z m 8.182376,-0.09 c -0.15647,-0.0887 -0.28451,-0.18056 -0.28451,-0.20415 0,-0.0236 0.0112,-0.0429 0.0247,-0.0429 0.0547,0 0.61252,0.3405 0.61252,0.37386 0,0.061 -0.0585,0.04 -0.35278,-0.12683 z m -9.556181,-0.24006 c -0.345266,-0.0924 -0.433257,-0.167 -0.15114,-0.12818 0.293788,0.0404 0.546251,0.11846 0.546251,0.16887 0,0.0561 -0.05439,0.0505 -0.395111,-0.0406 z m -1.320105,-0.31865 c -0.154719,-0.0414 -0.296403,-0.0906 -0.314852,-0.10939 -0.04546,-0.0463 0.105851,-0.0427 0.300274,0.007 0.08763,0.0225 0.215656,0.0535 0.284506,0.0689 0.06885,0.0154 0.125182,0.0481 0.125182,0.0727 0,0.0574 -0.05299,0.0521 -0.39511,-0.0394 z m 9.692746,-0.12651 c -0.24773,-0.14096 -0.35494,-0.24463 -0.25301,-0.24463 0.0433,0 0.65131,0.36316 0.65131,0.38896 0,0.0537 -0.13822,0.004 -0.3983,-0.14433 z m -11.004668,-0.1839 c -0.277213,-0.0667 -0.432632,-0.15177 -0.277421,-0.15177 0.125993,0 0.636053,0.13824 0.684833,0.18561 0.05908,0.0574 -0.07471,0.0463 -0.407412,-0.0339 z m -1.331485,-0.31826 c -0.156478,-0.0371 -0.284506,-0.0865 -0.284506,-0.10978 0,-0.0233 0.02265,-0.0424 0.05033,-0.0424 0.10139,0 0.611003,0.14486 0.652967,0.18561 0.06014,0.0584 -0.0775,0.0475 -0.418792,-0.0334 z m 11.152523,-0.18071 c -0.15653,-0.0891 -0.272873,-0.1809 -0.258546,-0.20408 0.0256,-0.0414 0.375766,0.13364 0.577336,0.28852 0.18256,0.14027 -0.0165,0.0875 -0.31879,-0.0845 z m -12.495389,-0.14022 c -0.14396,-0.0378 -0.261745,-0.0869 -0.261745,-0.10929 0,-0.055 0.0193,-0.0532 0.398308,0.0354 0.181515,0.0424 0.330025,0.0939 0.330025,0.11438 0,0.053 -0.164327,0.0388 -0.466588,-0.0405 z M 86.398086,179.908 c -0.143959,-0.0378 -0.261745,-0.0893 -0.261745,-0.11459 0,-0.0253 0.04578,-0.0337 0.102422,-0.0185 0.05633,0.0151 0.220207,0.0509 0.364167,0.0795 0.14396,0.0286 0.261745,0.07 0.261745,0.0917 0,0.0553 -0.160155,0.0423 -0.466589,-0.0381 z m 12.7117,-0.17607 c -0.137702,-0.0855 -0.268797,-0.16174 -0.291335,-0.16937 -0.02255,-0.008 -0.03278,-0.0382 -0.02272,-0.068 0.02044,-0.0607 0.632745,0.28483 0.632745,0.35707 0,0.0663 -0.04832,0.0481 -0.318645,-0.11974 z m -14.012504,-0.13406 c -0.248517,-0.0607 -0.314885,-0.0942 -0.271529,-0.13757 0.0312,-0.0312 0.635639,0.11474 0.69378,0.16752 0.06025,0.0546 -0.130784,0.0411 -0.422251,-0.0299 z m -1.227124,-0.29657 c -0.330058,-0.077 -0.411521,-0.11265 -0.364511,-0.15966 0.03093,-0.0309 0.635356,0.11453 0.693023,0.16676 0.07942,0.072 0.0035,0.0703 -0.328512,-0.007 z m 14.023166,-0.26479 c -0.270056,-0.1583 -0.346234,-0.23434 -0.234779,-0.23434 0.07712,0 0.586343,0.31912 0.586343,0.36746 0,0.0639 -0.04367,0.0474 -0.351564,-0.13312 z m -15.216568,-0.0137 c -0.08763,-0.0243 -0.238746,-0.0649 -0.335817,-0.0902 -0.101541,-0.0265 -0.159492,-0.063 -0.136459,-0.0861 0.05255,-0.0526 0.665251,0.1021 0.689206,0.17397 0.02093,0.0628 0.0016,0.063 -0.21693,0.003 z m -1.320106,-0.31863 c -0.08763,-0.0243 -0.236757,-0.0644 -0.331399,-0.0891 -0.236423,-0.0616 -0.171482,-0.13321 0.06939,-0.0764 0.467695,0.11015 0.536365,0.13361 0.51106,0.17455 -0.03096,0.0501 -0.03671,0.0498 -0.249052,-0.009 z m 15.399052,-0.33695 c -0.280573,-0.15904 -0.383411,-0.24794 -0.28679,-0.24794 0.07256,0 0.637957,0.33132 0.637957,0.37386 0,0.061 -0.05846,0.04 -0.351167,-0.12592 z m -16.719157,0.0183 c -0.08763,-0.0243 -0.236757,-0.0644 -0.3314,-0.0891 -0.09464,-0.0247 -0.16121,-0.0624 -0.147929,-0.084 0.01329,-0.0214 0.131684,-0.0124 0.263119,0.0202 0.131434,0.0326 0.295302,0.0721 0.364153,0.0876 0.06885,0.0155 0.125182,0.0483 0.125182,0.073 0,0.0532 -0.05959,0.0515 -0.273125,-0.008 z m -1.468048,-0.34712 c -0.168996,-0.0382 -0.307265,-0.0867 -0.307265,-0.10803 0,-0.0563 0.103775,-0.0479 0.434473,0.0351 0.161624,0.0405 0.293861,0.0918 0.293861,0.1138 0,0.0494 -0.03668,0.0458 -0.421069,-0.0409 z m 0.56621,-0.22637 c -0.339139,-0.78282 -0.370223,-0.83531 -0.464737,-0.78473 -0.140571,0.0753 -0.108525,-0.0267 0.04212,-0.13397 0.139154,-0.0991 0.231957,-0.12091 0.231957,-0.0546 0,0.0218 0.0897,0.23174 0.199328,0.46659 l 0.199328,0.427 0.513569,-1.05836 0.513569,-1.05836 h 0.633762 c 0.486741,0 0.629378,0.0132 0.614865,0.0568 -0.01349,0.0406 -0.18467,0.0606 -0.598478,0.0697 l -0.57958,0.0127 -0.551008,1.13665 c -0.303053,0.62515 -0.575759,1.13663 -0.606012,1.13663 -0.03025,0 -0.09716,-0.0973 -0.148681,-0.21622 z m 16.435831,-0.12852 c -0.156472,-0.0887 -0.284501,-0.18056 -0.284501,-0.20415 0,-0.0236 0.01115,-0.0429 0.02475,-0.0429 0.05465,0 0.612514,0.34049 0.612514,0.37386 0,0.061 -0.05846,0.04 -0.35279,-0.12683 z m -18.344906,0.0358 c -0.262349,-0.0656 -0.380565,-0.14631 -0.2142,-0.14631 0.137774,0 0.658029,0.14834 0.658029,0.18762 0,0.0535 -0.103307,0.0438 -0.443829,-0.0413 z m 3.399183,-0.0973 c -0.139673,-0.13968 -0.168739,-0.26827 -0.08056,-0.35643 0.03611,-0.0361 0.07872,-0.0385 0.136562,-0.008 0.104379,0.0558 0.108613,0.16009 0.0088,0.21596 -0.06609,0.0369 -0.06091,0.0515 0.0423,0.11919 0.06825,0.0448 0.181027,0.071 0.26876,0.0625 0.128839,-0.0124 0.159194,-0.0391 0.205537,-0.18108 0.0383,-0.11734 0.04108,-0.21473 0.0094,-0.32949 -0.04963,-0.17974 -0.150799,-0.25468 -0.345274,-0.25573 -0.09948,-5.2e-4 -0.112891,-0.0106 -0.05989,-0.0448 0.03756,-0.0242 0.11365,-0.0444 0.169102,-0.0448 0.198767,-0.002 0.295961,-0.45158 0.124575,-0.57703 -0.157985,-0.11564 -0.451065,0.009 -0.338903,0.14423 0.05046,0.0608 0.04794,0.0847 -0.01559,0.14825 -0.07065,0.0706 -0.08089,0.0706 -0.152105,-6.6e-4 -0.11042,-0.11042 -0.01537,-0.29266 0.19945,-0.38242 0.136566,-0.057 0.201141,-0.0606 0.341488,-0.0185 0.324621,0.0973 0.390577,0.38061 0.145617,0.62558 -0.108658,0.10865 -0.110286,0.11757 -0.03229,0.17671 0.04518,0.0343 0.09422,0.0629 0.108975,0.0637 0.04124,0.002 0.132489,0.22268 0.132489,0.32009 0,0.26826 -0.224847,0.45521 -0.547491,0.45521 -0.146925,0 -0.216833,-0.029 -0.320907,-0.13306 z m -4.719288,-0.22136 c -0.156478,-0.0391 -0.284505,-0.088 -0.284505,-0.1087 0,-0.0521 0.05029,-0.048 0.412081,0.0343 0.173939,0.0395 0.316252,0.0908 0.316252,0.11379 0,0.0553 -0.100472,0.0464 -0.443828,-0.0394 z m -1.308725,-0.31649 c -0.2958,-0.0759 -0.324847,-0.0892 -0.284378,-0.12962 0.03909,-0.0391 0.716826,0.11957 0.716826,0.1678 0,0.055 -0.106144,0.0456 -0.432448,-0.0382 z m 19.790194,-0.0835 c -0.156472,-0.0887 -0.284503,-0.18056 -0.284503,-0.20414 0,-0.0236 0.01115,-0.0429 0.02478,-0.0429 0.05467,0 0.612516,0.34049 0.612516,0.37386 0,0.061 -0.05846,0.04 -0.352789,-0.12683 z m -21.121679,-0.23353 c -0.156478,-0.0367 -0.284506,-0.0856 -0.284506,-0.10848 0,-0.0229 0.0214,-0.0416 0.04755,-0.0416 0.09859,0 0.659837,0.15074 0.701272,0.18836 0.06178,0.0561 -0.130433,0.0402 -0.464312,-0.0383 z m -3.263846,-0.009 c 0.02379,-0.0226 0.08421,-0.0484 0.134287,-0.0572 0.07589,-0.0134 0.118806,-0.12209 0.257866,-0.6531 0.199217,-0.76072 0.20098,-0.77883 0.07896,-0.81073 -0.05265,-0.0138 -0.08213,-0.0469 -0.0656,-0.0736 0.04609,-0.0746 0.861806,-0.0614 1.049339,0.0169 0.416493,0.17402 0.460282,0.81031 0.08587,1.24772 -0.269414,0.31475 -0.428551,0.37101 -1.049562,0.37101 -0.319553,0 -0.517021,-0.0165 -0.491162,-0.0411 z m 1.133072,-0.15311 c 0.242393,-0.13737 0.402845,-0.45244 0.427487,-0.83945 0.0163,-0.25593 0.0058,-0.30532 -0.08587,-0.40286 -0.08898,-0.0947 -0.146253,-0.11119 -0.386864,-0.11119 H 70.80688 l -0.0758,0.30727 c -0.04169,0.169 -0.08619,0.34204 -0.09889,0.38455 -0.01787,0.0598 0.02112,0.0886 0.172683,0.12743 0.291291,0.0746 0.317728,0.0867 0.289584,0.13222 -0.01505,0.0244 -0.124147,0.0157 -0.262513,-0.0208 -0.130211,-0.0343 -0.23974,-0.058 -0.243399,-0.0527 -0.0037,0.005 -0.03817,0.13773 -0.07669,0.29421 l -0.07005,0.28451 0.256663,-6.6e-4 c 0.180655,-5.1e-4 0.309791,-0.0308 0.436072,-0.10242 z m 18.415863,0.16908 c 0,-0.0138 0.06118,-0.0465 0.135949,-0.0725 0.102327,-0.0357 0.146742,-0.0886 0.179584,-0.21386 0.148543,-0.56667 0.276238,-1.10266 0.276238,-1.15949 0,-0.0364 -0.04302,-0.0774 -0.09562,-0.0911 -0.158346,-0.0414 -0.04959,-0.12218 0.164527,-0.12218 0.230323,0 0.199589,-0.0804 0.321892,0.84214 0.03983,0.30044 0.07626,0.55018 0.08094,0.55499 0.0046,0.004 0.204825,-0.30247 0.444743,-0.68281 l 0.436212,-0.69155 0.215997,-0.014 c 0.162105,-0.0106 0.211099,6.6e-4 0.196363,0.0455 -0.0108,0.0328 -0.0637,0.0661 -0.117557,0.074 -0.105581,0.0155 -0.09774,-0.006 -0.304275,0.82771 -0.06514,0.26289 -0.129098,0.51382 -0.142128,0.55763 -0.01703,0.0574 0.0019,0.0797 0.06773,0.0797 0.05028,0 0.104081,0.0204 0.119555,0.0455 0.01783,0.0289 -0.101191,0.0455 -0.325065,0.0455 -0.211733,0 -0.335876,-0.0165 -0.309951,-0.0411 0.02379,-0.0226 0.08421,-0.0483 0.134286,-0.0573 0.07628,-0.0135 0.118376,-0.12282 0.259616,-0.67419 0.09271,-0.36194 0.16441,-0.66213 0.159323,-0.6671 -0.0051,-0.005 -0.21405,0.31691 -0.464359,0.71529 -0.25031,0.39838 -0.468326,0.72433 -0.484479,0.72433 -0.05092,0 -0.07004,-0.0966 -0.156362,-0.79012 -0.05307,-0.42635 -0.09706,-0.64507 -0.119032,-0.59177 -0.07692,0.1866 -0.310714,1.20729 -0.285777,1.24764 0.0147,0.0238 0.05622,0.0433 0.0923,0.0433 0.03608,0 0.06559,0.0205 0.06559,0.0455 0,0.0253 -0.121389,0.0455 -0.273125,0.0455 -0.15022,0 -0.273126,-0.0113 -0.273126,-0.0251 z m -17.588325,-0.31703 c -0.218474,-0.0601 -0.381857,-0.15847 -0.262933,-0.15847 0.105491,0 0.666842,0.14885 0.710377,0.18836 0.06372,0.0579 -0.189633,0.0409 -0.447444,-0.0299 z m 21.241374,-0.13905 c -0.241662,-0.13697 -0.356742,-0.24702 -0.258307,-0.24702 0.03998,0 0.656615,0.36525 0.656615,0.38893 0,0.0546 -0.139037,0.005 -0.398308,-0.14191 z m -23.788088,-0.47716 c -0.302427,-0.0781 -0.384454,-0.11434 -0.345557,-0.15278 0.02647,-0.0262 0.647751,0.11321 0.694366,0.15577 0.08196,0.0748 -0.05186,0.0737 -0.348809,-0.003 z m 22.62702,-0.1903 c -0.169153,-0.0985 -0.296098,-0.19764 -0.282099,-0.22029 0.014,-0.0226 0.123237,0.0149 0.242752,0.0835 0.340625,0.19552 0.43523,0.26649 0.389384,0.29211 -0.02337,0.013 -0.180884,-0.0568 -0.350037,-0.15536 z m -23.952318,-0.1228 c -0.173743,-0.0427 -0.323962,-0.10176 -0.33382,-0.13133 -0.0099,-0.0296 -0.01109,-0.0529 -0.0028,-0.0519 0.192786,0.0243 0.697705,0.17933 0.71067,0.21822 0.02097,0.0629 0.02704,0.0634 -0.3741,-0.0351 z m -1.277334,-0.30325 c -0.360168,-0.0858 -0.397453,-0.10112 -0.366695,-0.15088 0.01535,-0.0248 0.08651,-0.0262 0.173588,-0.003 0.08117,0.0214 0.234644,0.0614 0.341049,0.089 0.106405,0.0276 0.193464,0.0699 0.193464,0.094 0,0.0526 0.0014,0.0528 -0.341406,-0.0289 z m 41.602645,9.37891 c 0.16993,-0.23551 0.29473,-0.32895 0.23642,-0.17698 -0.0404,0.10522 0.0278,0.0541 0.58638,-0.43938 0.63187,-0.55825 1.92287,-1.86681 2.48802,-2.52185 1.20888,-1.40113 2.25737,-2.87849 3.16603,-4.46104 0.4609,-0.80273 0.9583,-1.7924 0.85972,-1.71059 -0.1383,0.11478 -0.13032,0.009 0.013,-0.17159 0.0781,-0.0987 0.14205,-0.19177 0.14205,-0.20695 0,-0.0151 -3.65817,-0.0276 -8.12926,-0.0276 -4.4711,0 -8.122447,0.0163 -8.114101,0.0362 0.0084,0.0199 1.908731,2.27028 4.223101,5.00078 2.88734,3.40653 4.23021,4.9586 4.27895,4.94557 0.0391,-0.0105 0.15145,-0.13041 0.24971,-0.26661 z m 0.61796,-0.74951 c 0,-0.0812 0.42755,-0.60532 0.44676,-0.54769 0.009,0.0282 -0.0698,0.16385 -0.17594,0.30146 -0.209,0.27089 -0.27082,0.32711 -0.27082,0.24623 z m 0.81971,-1.07997 c 5.1e-4,-0.0579 0.41396,-0.55763 0.46124,-0.55763 0.0556,0 0.0244,0.053 -0.20734,0.35279 -0.17107,0.22128 -0.25473,0.28878 -0.2539,0.20484 z m 0.81904,-1.03709 c 0,-0.0471 0.296,-0.44188 0.4058,-0.54125 0.16197,-0.14657 0.10473,-0.009 -0.11387,0.27304 -0.1964,0.2537 -0.29193,0.34146 -0.29193,0.26821 z m 0.84754,-1.12515 c 0.0184,-0.0313 0.1167,-0.16444 0.21832,-0.29589 0.17108,-0.22128 0.25474,-0.28878 0.2539,-0.20484 -5.1e-4,0.0579 -0.41396,0.55763 -0.46124,0.55763 -0.0245,0 -0.0295,-0.0256 -0.011,-0.0569 z m 0.83706,-1.04698 c 5.2e-4,-0.0847 0.42476,-0.60248 0.44467,-0.54272 0.0155,0.0462 -0.37668,0.59961 -0.42491,0.59961 -0.0111,0 -0.0199,-0.0256 -0.0198,-0.0569 z m 0.81907,-1.06594 c 6e-5,-0.073 0.42619,-0.58011 0.44359,-0.52793 0.01,0.029 -0.0679,0.16132 -0.17247,0.29409 -0.18602,0.23633 -0.27117,0.30978 -0.27112,0.23384 z m 0.83761,-1.0896 c 0.0514,-0.13397 0.36785,-0.51491 0.42936,-0.51687 0.0417,-0.002 0.0307,0.0374 -0.0349,0.12324 -0.0525,0.0688 -0.15163,0.20156 -0.22003,0.29492 -0.12755,0.17406 -0.22433,0.22884 -0.17439,0.0987 z m 0.80112,-1.04225 c 0,-0.0456 0.42543,-0.56906 0.46251,-0.56906 0.0672,0 0.0427,0.0467 -0.16929,0.3221 -0.1787,0.23223 -0.29322,0.32869 -0.29322,0.24696 z m -42.9717,-6.89647 c 0,-3.05005 -0.01691,-5.18937 -0.04102,-5.18937 -0.02256,0 -0.08694,0.0768 -0.143061,0.17071 -0.058,0.097 -0.110793,0.14584 -0.122326,0.11309 -0.01116,-0.0317 0.01967,-0.12071 0.06853,-0.19786 0.0879,-0.13884 0.08791,-0.14213 6.59e-4,-0.32269 -0.08511,-0.17616 -0.08529,-0.18448 -0.0052,-0.24226 0.04566,-0.0329 0.118994,-0.0871 0.162968,-0.12044 0.0759,-0.0575 0.07936,-0.57496 0.06828,-10.20091 l -0.01168,-10.1403 -1.875038,9.00118 c -1.031271,4.95066 -1.870048,9.00618 -1.863946,9.01228 0.0062,0.006 0.313086,0.0809 0.68219,0.16629 0.369104,0.0854 0.68256,0.16666 0.696568,0.18067 0.014,0.014 -0.03943,0.33911 -0.118743,0.72246 -0.07931,0.38335 -0.148043,0.72631 -0.152726,0.76213 -0.0055,0.0419 0.06338,0.083 0.192991,0.11517 0.110828,0.0275 0.209288,0.0734 0.218802,0.10191 0.01245,0.0373 -0.05032,0.0351 -0.224266,-0.008 -0.132859,-0.0329 -0.297894,-0.0727 -0.366744,-0.0883 -0.06885,-0.0155 -0.125183,-0.0508 -0.125183,-0.0783 0,-0.0276 0.04086,-0.0393 0.09123,-0.0261 0.0668,0.0175 0.09727,-0.003 0.113791,-0.0743 0.186655,-0.81257 0.279753,-1.3587 0.234251,-1.37416 -0.104057,-0.0353 -1.274513,-0.29372 -1.28131,-0.28288 -0.0038,0.006 -0.06294,0.28767 -0.131339,0.62566 -0.0684,0.33799 -0.135195,0.65879 -0.148428,0.71291 -0.02158,0.0883 0.0033,0.10399 0.241606,0.153 0.300757,0.0618 0.345032,0.0807 0.312323,0.1337 -0.01271,0.0205 -0.146907,0.006 -0.298214,-0.0318 -0.151307,-0.0381 -0.281362,-0.0615 -0.289011,-0.052 -0.0077,0.01 -0.53094,2.50623 -1.16287,5.54817 -0.63193,3.04193 -1.159832,5.57711 -1.173114,5.63372 -0.01898,0.0808 -0.0084,0.0969 0.0492,0.0748 0.0956,-0.0367 0.09269,0.008 -0.01023,0.15666 -0.04596,0.0665 -0.09839,0.14643 -0.116489,0.17773 -0.0262,0.0454 0.635922,0.0569 3.247278,0.0569 h 3.280189 z m -6.054275,4.2366 c 0,-0.0867 0.343696,-0.59393 0.402778,-0.59442 0.0442,-3.5e-4 0.03439,0.0409 -0.03505,0.14744 -0.05303,0.0814 -0.140751,0.22476 -0.194937,0.31865 -0.09346,0.16193 -0.172797,0.22086 -0.172797,0.12833 z m 0.728767,-1.14987 c 6.58e-4,-0.0949 0.37547,-0.65733 0.396837,-0.59551 0.01062,0.0307 -0.05744,0.18018 -0.151244,0.33215 -0.179247,0.2904 -0.246311,0.36232 -0.245593,0.26336 z m 0.736507,-1.23175 c 0.03553,-0.0563 0.124942,-0.19968 0.198698,-0.31856 0.120863,-0.19481 0.202384,-0.26943 0.202384,-0.18527 0,0.0812 -0.348949,0.60476 -0.403544,0.60546 -0.05176,6.6e-4 -0.05135,-0.0163 0.0024,-0.10163 z m 0.674207,-1.05947 c 0,-0.0559 0.376047,-0.61342 0.413768,-0.61342 0.0654,0 0.05288,0.0297 -0.144724,0.34252 -0.158575,0.25109 -0.269044,0.36232 -0.269044,0.2709 z m 0.728334,-1.14519 c 0,-0.0558 0.340474,-0.60464 0.375546,-0.60546 0.06761,-0.002 0.03123,0.0954 -0.136433,0.36362 -0.152483,0.24394 -0.239113,0.33156 -0.239113,0.24184 z m 0.728333,-1.15433 c 0,-0.0748 0.323608,-0.58994 0.370637,-0.58994 0.0636,0 0.04734,0.0427 -0.122937,0.32303 -0.165384,0.27225 -0.2477,0.36095 -0.2477,0.26691 z m 0.696285,-1.15116 c 0.05166,-0.13463 0.356473,-0.5768 0.397615,-0.5768 0.02427,0 0.04412,0.009 0.04412,0.0202 0,0.057 -0.380875,0.61717 -0.419643,0.61717 -0.02492,0 -0.03486,-0.0272 -0.02209,-0.0605 z m 0.714862,-1.11774 c 0,-0.0867 0.374074,-0.64186 0.415309,-0.61637 0.02276,0.0141 0.02685,0.0498 0.0091,0.0793 -0.26742,0.44514 -0.424399,0.64378 -0.424399,0.53704 z m -1.502189,-1.09479 c 0,-0.0234 0.05633,-0.049 0.125183,-0.0569 0.120576,-0.0138 0.131321,-0.0378 0.292006,-0.6517 0.19922,-0.76104 0.200977,-0.77909 0.07896,-0.811 -0.185616,-0.0486 -0.03196,-0.12218 0.254944,-0.12218 0.308117,0 0.439388,0.0738 0.212183,0.11917 -0.122421,0.0245 -0.142148,0.0545 -0.207861,0.31609 -0.03993,0.15897 -0.07261,0.30018 -0.07261,0.31382 0,0.0137 0.158754,0.0229 0.352787,0.0207 l 0.352787,-0.004 -0.220078,-0.0605 c -0.121043,-0.0333 -0.232,-0.0724 -0.246571,-0.087 -0.06259,-0.0626 0.03821,-0.0723 0.235251,-0.0227 0.116669,0.0294 0.222877,0.0427 0.23602,0.0296 0.01314,-0.0131 0.05117,-0.1273 0.08451,-0.25367 0.05863,-0.22228 0.05743,-0.23024 -0.03702,-0.24369 -0.213848,-0.0305 -0.05703,-0.10497 0.221014,-0.10497 0.290172,0 0.404336,0.0667 0.197661,0.1155 -0.102264,0.0241 -0.200018,0.24937 -0.236347,0.54456 -0.0077,0.0626 -0.02688,0.14452 -0.04263,0.18207 -0.03869,0.0923 -0.169048,0.61513 -0.169048,0.67801 0,0.0277 0.04097,0.0503 0.09104,0.0503 0.05007,0 0.09104,0.0204 0.09104,0.0455 0,0.0264 -0.145045,0.0455 -0.344093,0.0455 -0.217804,0 -0.333768,-0.0167 -0.315959,-0.0455 0.01547,-0.0251 0.0756,-0.0455 0.133618,-0.0455 0.09389,0 0.11554,-0.04 0.19694,-0.36417 l 0.09145,-0.36417 H 70.29539 69.941974 l -0.07381,0.29387 c -0.09552,0.38024 -0.09337,0.43447 0.01722,0.43447 0.05007,0 0.09104,0.0204 0.09104,0.0455 0,0.0263 -0.14415,0.0455 -0.341407,0.0455 -0.187773,0 -0.341406,-0.0191 -0.341406,-0.0425 z m 20.960083,10.01929 c -0.08164,-0.0714 -15.849713,-9.15742 -15.889876,-9.15624 -0.02209,6.5e-4 -0.109632,0.10359 -0.194554,0.22877 -0.379403,0.55927 -1.163344,1.00613 -1.950937,1.11208 l -0.238985,0.0322 v 3.91052 3.91052 h 9.158799 c 5.037339,0 9.139336,-0.017 9.115553,-0.0378 z m -17.203517,-5.89744 c -0.245976,-0.24598 -0.27217,-0.92439 -0.04872,-1.26203 0.134199,-0.2028 0.383266,-0.33534 0.540323,-0.28753 0.228407,0.0695 0.343816,0.29551 0.182511,0.3574 -0.114911,0.0441 -0.183916,-0.0483 -0.116565,-0.15624 0.04887,-0.0782 0.04176,-0.0925 -0.05837,-0.11768 -0.214271,-0.0537 -0.477502,0.23687 -0.477502,0.52725 0,0.09 0.0045,0.0906 0.116907,0.0169 0.0916,-0.0601 0.152853,-0.0677 0.282975,-0.0352 0.385368,0.0961 0.504481,0.66303 0.197019,0.93774 -0.189052,0.16892 -0.460489,0.1774 -0.618568,0.0193 z m 0.497054,-0.0836 c 0.04349,-0.0621 0.07086,-0.19885 0.07086,-0.35404 0,-0.29261 -0.08919,-0.45521 -0.249694,-0.45521 -0.129673,0 -0.240556,0.10172 -0.279342,0.25626 -0.03899,0.15534 0.0047,0.50267 0.0738,0.58585 0.08611,0.10376 0.30158,0.0853 0.384366,-0.0329 z m 0.737974,0.14062 c -0.146625,-0.0852 -0.255336,-0.39884 -0.256424,-0.73974 -0.0019,-0.58099 0.163429,-0.86811 0.49973,-0.86811 0.336301,0 0.501583,0.28712 0.499729,0.86811 -0.0011,0.34907 -0.11236,0.66031 -0.265262,0.74214 -0.11663,0.0624 -0.368444,0.0612 -0.477773,-0.003 z m 0.404699,-0.10567 c 0.105672,-0.10566 0.111732,-0.14011 0.111732,-0.63514 0,-0.54737 -0.04536,-0.73468 -0.188992,-0.78026 -0.269351,-0.0855 -0.357259,0.1065 -0.357259,0.78026 0,0.49503 0.0061,0.52948 0.111734,0.63514 0.06145,0.0615 0.134079,0.11175 0.161392,0.11175 0.02731,0 0.09994,-0.0503 0.161393,-0.11175 z m 0.620396,-0.99508 c -0.183466,-0.19528 -0.08475,-0.49371 0.184384,-0.55739 0.09998,-0.0237 0.151649,-0.002 0.266392,0.113 0.114743,0.11474 0.136663,0.16641 0.113007,0.26639 -0.06456,0.27289 -0.380839,0.37274 -0.563783,0.178 z m 0.431892,-0.11936 c 0.06205,-0.1251 0.01846,-0.24679 -0.113726,-0.31754 -0.120676,-0.0645 -0.300257,0.04 -0.317192,0.18481 -0.02988,0.25534 0.317106,0.36222 0.430918,0.13273 z m 23.316257,7.02023 c -0.33434,-0.41819 -4.162202,-4.91457 -4.20536,-4.93982 -0.03142,-0.0184 -0.184551,-0.0631 -0.340237,-0.0995 -0.155686,-0.0363 -0.294637,-0.0776 -0.308787,-0.0917 -0.06679,-0.0668 0.04866,-0.0705 0.283698,-0.009 0.251488,0.0657 0.256869,0.0651 0.198354,-0.019 -0.03311,-0.0476 -1.074121,-1.28433 -2.313428,-2.74835 -2.014995,-2.38037 -2.267346,-2.6621 -2.386261,-2.66405 -0.191709,-0.003 -0.299469,-0.12021 -0.299469,-0.32531 0,-0.16316 -0.45835,-0.71362 -8.494191,-10.20101 -4.671805,-5.51566 -8.546405,-10.07972 -8.610221,-10.14231 l -0.11603,-0.1138 0.0941,0.15932 c 0.05175,0.0876 0.235706,0.40514 0.408784,0.70558 0.173078,0.30044 0.592427,1.02763 0.931884,1.61599 3.594573,6.2302 4.458025,7.7174 4.486294,7.72708 0.01814,0.006 0.09118,-0.0808 0.16233,-0.19346 0.07115,-0.11263 0.147966,-0.20476 0.170704,-0.20476 0.06772,0 0.04702,0.0557 -0.115511,0.31076 l -0.154522,0.2425 0.399119,0.69069 c 0.219515,0.37988 2.012779,3.4868 3.985029,6.90428 1.97225,3.41748 3.604233,6.23661 3.626628,6.26473 0.02239,0.0281 0.163271,0.0753 0.313057,0.10472 0.149786,0.0295 0.272339,0.0756 0.272339,0.1025 0,0.0472 -0.09361,0.0388 -0.386268,-0.0346 -0.120098,-0.0301 -0.121941,-0.0277 -0.06221,0.0814 0.03386,0.0618 0.951349,1.65215 2.038878,3.53397 l 1.977326,3.42148 h 4.253224 c 4.013131,0 4.249701,-0.004 4.190755,-0.0781 z m -5.923284,-5.37102 c -0.14396,-0.0378 -0.261746,-0.087 -0.261746,-0.10929 0,-0.0525 -0.0036,-0.0528 0.36606,0.0312 0.173662,0.0395 0.327427,0.0907 0.341698,0.1138 0.03641,0.0589 -0.138806,0.0448 -0.446012,-0.0357 z m -1.320106,-0.31866 c -0.143961,-0.0378 -0.261746,-0.0869 -0.261746,-0.10927 0,-0.055 0.01931,-0.0532 0.39831,0.0354 0.181513,0.0424 0.330023,0.0939 0.330023,0.11439 0,0.0531 -0.164326,0.0388 -0.466587,-0.0405 z m -1.285964,-0.32007 c -0.29673,-0.0761 -0.324908,-0.0891 -0.283711,-0.1303 0.03744,-0.0374 0.716158,0.1258 0.716158,0.17224 0,0.0512 -0.111964,0.0403 -0.432447,-0.0419 z m -1.297345,-0.31512 c -0.26061,-0.0701 -0.399319,-0.152 -0.257445,-0.152 0.144711,0 0.667133,0.14693 0.667133,0.18763 0,0.0541 -0.111923,0.0444 -0.409688,-0.0357 z m -1.296379,-0.31642 c -0.276623,-0.0669 -0.434287,-0.15421 -0.278385,-0.15421 0.125991,0 0.63605,0.13823 0.684831,0.18561 0.06019,0.0584 -0.07946,0.0476 -0.406446,-0.0313 z m -8.900295,-15.43475 c 0,-0.0558 0.340474,-0.60464 0.375548,-0.60545 0.06869,-0.002 0.03044,0.10526 -0.131653,0.36788 -0.146251,0.23695 -0.243895,0.33205 -0.243895,0.23757 z m 36.245984,22.12206 c -0.10751,-0.0207 -0.14376,-0.10445 -0.0452,-0.10445 0.0314,0 0.1274,0.0201 0.2132,0.0448 0.0858,0.0247 0.16331,0.0374 0.17222,0.0285 0.0156,-0.0156 -35.235509,-25.8954 -35.301782,-25.91698 -0.0313,-0.0102 -0.556072,0.76065 -0.556072,0.81682 0,0.0151 0.107543,0.10427 0.238985,0.19823 0.131442,0.094 0.303345,0.21953 0.382007,0.27904 l 0.143024,0.10821 0.141061,-0.22926 c 0.07758,-0.12609 0.161735,-0.22925 0.187003,-0.22925 0.07038,0 0.05983,0.0258 -0.140222,0.34252 -0.179393,0.28405 -0.269045,0.36198 -0.269045,0.23388 0,-0.0334 -0.183788,-0.19225 -0.408417,-0.35279 -0.22463,-0.16054 -0.40899,-0.30771 -0.409689,-0.32705 -7.25e-4,-0.0193 0.131531,-0.23374 0.293844,-0.47647 0.162312,-0.24272 0.280096,-0.45519 0.261744,-0.47214 -0.05035,-0.0465 -7.397387,-5.43278 -7.47545,-5.48039 -0.03724,-0.0227 0.106154,0.16269 0.318646,0.41202 0.212492,0.2493 1.796552,2.11759 3.520133,4.15176 1.723582,2.03414 3.147247,3.6981 3.163701,3.69765 0.01646,-4.2e-4 0.108973,-0.13358 0.205599,-0.29588 0.153509,-0.25785 0.256764,-0.36403 0.256764,-0.26406 0,0.0614 -0.34249,0.60312 -0.389412,0.61592 -0.02641,0.008 2.22688,2.70036 5.007296,5.9848 4.306027,5.08659 5.073105,5.97212 5.175439,5.97461 0.195529,0.004 0.334551,0.1499 0.338446,0.35336 0.0031,0.16622 0.2529,0.47102 4.320124,5.27307 2.374205,2.80316 4.427984,5.22468 4.563936,5.38116 l 0.247197,0.2845 7.97369,-0.006 c 4.38551,-0.003 7.92758,-0.0151 7.87125,-0.0258 z m -1.13802,-0.27678 c -0.15648,-0.0391 -0.28451,-0.088 -0.28451,-0.1087 0,-0.0521 0.0503,-0.048 0.41209,0.0343 0.17394,0.0395 0.31625,0.0908 0.31625,0.11381 0,0.0552 -0.10047,0.0464 -0.44383,-0.0394 z m -1.3201,-0.31865 c -0.26235,-0.0656 -0.38057,-0.14631 -0.2142,-0.14631 0.13777,0 0.65803,0.14834 0.65803,0.18762 0,0.0535 -0.10332,0.0438 -0.44383,-0.0413 z m -1.27139,-0.32141 c -0.28558,-0.0764 -0.4121,-0.14354 -0.2705,-0.14354 0.14355,0 0.66561,0.14715 0.66561,0.18762 0,0.0525 -0.0584,0.046 -0.39511,-0.0441 z m -1.28916,-0.30867 c -0.34987,-0.092 -0.37321,-0.10205 -0.34439,-0.14868 0.0297,-0.0481 0.65108,0.10156 0.72381,0.17428 0.0661,0.0661 -0.0639,0.0574 -0.37942,-0.0256 z m -1.29734,-0.31719 c -0.35875,-0.0854 -0.39742,-0.10118 -0.36752,-0.14956 0.0305,-0.0493 0.75444,0.12559 0.75444,0.1823 0,0.0511 -0.0537,0.0465 -0.38692,-0.0328 z m -1.33958,-0.33158 c -0.16092,-0.0422 -0.30035,-0.10004 -0.30984,-0.1285 -0.0124,-0.0372 0.0508,-0.0349 0.22431,0.008 0.13286,0.0329 0.29789,0.0727 0.36675,0.0883 0.0688,0.0155 0.12518,0.0484 0.12518,0.073 0,0.0574 -0.0512,0.0523 -0.4064,-0.0409 z m -1.27787,-0.30717 c -0.35049,-0.0921 -0.37323,-0.10202 -0.34394,-0.14943 0.0154,-0.0248 0.0865,-0.0262 0.17359,-0.003 0.0812,0.0214 0.23464,0.0614 0.34104,0.089 0.10642,0.0276 0.19347,0.0699 0.19347,0.094 0,0.0556 -0.0549,0.0509 -0.36416,-0.0303 z m -1.34013,-0.33258 c -0.17373,-0.0427 -0.32467,-0.10391 -0.3354,-0.13611 -0.0128,-0.0386 0.009,-0.0504 0.0656,-0.0346 0.0878,0.0247 0.13272,0.0365 0.46059,0.12124 0.10641,0.0275 0.19346,0.0697 0.19346,0.0937 0,0.052 0.0142,0.0536 -0.38418,-0.0443 z m -1.3149,-0.32163 c -0.32307,-0.0861 -0.38083,-0.11304 -0.31823,-0.14859 0.0648,-0.0368 0.66614,0.12332 0.68588,0.18269 0.0231,0.0693 0.019,0.0689 -0.36765,-0.0341 z m -1.16873,-0.28004 c -0.0876,-0.0243 -0.23874,-0.0649 -0.33581,-0.0903 -0.10564,-0.0275 -0.15992,-0.0627 -0.1352,-0.0874 0.0247,-0.0247 0.10471,-0.0246 0.19926,3.5e-4 0.0869,0.0229 0.24562,0.0644 0.35279,0.0923 0.10716,0.0278 0.18277,0.0701 0.16801,0.094 -0.031,0.0501 -0.0368,0.0498 -0.24905,-0.009 z m -1.42596,-0.35982 c -0.30654,-0.0791 -0.38439,-0.11417 -0.34382,-0.15473 0.0221,-0.0221 0.67081,0.13561 0.70718,0.17198 0.0614,0.0614 -0.0858,0.0544 -0.36336,-0.0172 z m -1.320108,-0.31865 c -0.314396,-0.0812 -0.384602,-0.11395 -0.339831,-0.15872 0.02931,-0.0293 0.633649,0.11316 0.688639,0.16239 0.0829,0.0742 -0.0529,0.0727 -0.348808,-0.004 z m -1.386331,-0.33653 c -0.244941,-0.0593 -0.317682,-0.0967 -0.273603,-0.14083 0.03117,-0.0312 0.635634,0.11475 0.693778,0.16752 0.06074,0.0552 -0.132954,0.0428 -0.420175,-0.0267 z m -1.238602,-0.30846 c -0.350889,-0.09 -0.396775,-0.10935 -0.356143,-0.14998 0.0321,-0.0321 0.640829,0.1105 0.694056,0.16262 0.07949,0.0778 0.0034,0.0749 -0.337913,-0.0127 z m -1.331947,-0.32055 c -0.194028,-0.049 -0.352781,-0.1073 -0.352781,-0.12952 0,-0.0222 0.02137,-0.0405 0.04756,-0.0405 0.09093,0 0.658265,0.14932 0.696135,0.18322 0.08481,0.0759 -0.05668,0.0711 -0.390896,-0.0134 z m -3.932315,-5.2646 c -0.09242,-0.0563 -0.171026,-0.16117 -0.223077,-0.29746 -0.06915,-0.18107 -0.07283,-0.24357 -0.02641,-0.44768 0.141825,-0.62354 0.837735,-1.09522 1.276612,-0.86527 0.324636,0.17009 0.437038,0.50869 0.302913,0.9125 -0.2012,0.60575 -0.889156,0.96675 -1.330038,0.69791 z m 0.782533,-0.18822 c 0.219874,-0.21311 0.355532,-0.55349 0.358863,-0.90043 0.0025,-0.26115 -0.0093,-0.29872 -0.124952,-0.3983 -0.158096,-0.13611 -0.3086,-0.1392 -0.536714,-0.011 -0.522019,0.29338 -0.699926,1.32584 -0.256716,1.48979 0.153849,0.0569 0.395122,-0.0208 0.559519,-0.18008 z m -2.261279,10.09671 c -0.26504,-0.50099 -3.979765,-6.89701 -4.028092,-6.93557 -0.03483,-0.0278 -0.06332,-0.0753 -0.06332,-0.10563 0,-0.0737 -7.869389,-13.71369 -7.949184,-13.77824 -0.03437,-0.0278 -0.06248,-0.0742 -0.06248,-0.10307 0,-0.0365 -4.71156,-8.25148 -4.799811,-8.36883 -0.0041,-0.005 -0.149838,0.0477 -0.323743,0.11825 -0.327607,0.13293 -0.616188,0.20777 -0.987622,0.25614 l -0.216225,0.0281 v 9.01034 c 0,4.95568 0.01607,9.01034 0.03571,9.01034 0.01963,0 0.072,-0.0615 0.116375,-0.13656 0.04438,-0.0751 0.1,-0.13656 0.123616,-0.13656 0.06206,0 0.05366,0.0397 -0.04221,0.19947 -0.07521,0.12535 -0.07805,0.15876 -0.02424,0.28594 0.04471,0.10568 0.100673,0.15253 0.210341,0.17605 0.186206,0.04 0.225683,0.0627 0.19507,0.11219 -0.01332,0.0215 -0.08771,0.0208 -0.166248,-0.002 -0.07817,-0.0224 -0.128299,-0.0269 -0.111394,-0.0101 0.02994,0.0299 18.108844,10.47832 18.134674,10.48061 0.0072,6.6e-4 -0.0114,-0.0449 -0.04121,-0.10126 z m -5.127016,-7.2167 c -0.262349,-0.0656 -0.380566,-0.1463 -0.214199,-0.1463 0.137773,0 0.658027,0.14834 0.658027,0.18762 0,0.0534 -0.103306,0.0438 -0.443828,-0.0413 z m -1.271387,-0.32141 c -0.285582,-0.0764 -0.412105,-0.14354 -0.270504,-0.14354 0.143552,0 0.665614,0.14715 0.665614,0.18761 0,0.0525 -0.0584,0.046 -0.39511,-0.0441 z m -1.320106,-0.31865 c -0.343515,-0.0919 -0.435616,-0.16823 -0.151139,-0.12526 0.316899,0.0478 0.54625,0.11738 0.54625,0.16556 0,0.0564 -0.05396,0.051 -0.395111,-0.0403 z m -1.289161,-0.30866 c -0.350475,-0.0921 -0.373233,-0.10202 -0.343934,-0.14943 0.01535,-0.0248 0.08651,-0.0262 0.173588,-0.003 0.08117,0.0214 0.234645,0.0614 0.341049,0.089 0.106406,0.0276 0.193465,0.0699 0.193465,0.094 0,0.0556 -0.05499,0.0509 -0.364168,-0.0303 z m -1.183543,-0.29698 c -0.08763,-0.0243 -0.236757,-0.0644 -0.331399,-0.0891 -0.09464,-0.0247 -0.161426,-0.0621 -0.148409,-0.0832 0.01301,-0.0211 0.187444,0.003 0.387614,0.0531 0.200171,0.0503 0.352805,0.10942 0.339186,0.13146 -0.02876,0.0465 -0.03605,0.0462 -0.246992,-0.0124 z m -1.453373,-0.35179 c -0.160924,-0.0422 -0.301618,-0.10384 -0.312651,-0.13694 -0.01352,-0.0405 0.0076,-0.0521 0.06499,-0.0354 0.04677,0.0136 0.177227,0.0477 0.289891,0.0758 0.331155,0.0824 0.364167,0.095 0.364167,0.13962 0,0.0551 -0.05372,0.0494 -0.406393,-0.0431 z m -1.277878,-0.30989 c -0.284301,-0.0661 -0.405888,-0.12425 -0.358573,-0.17157 0.01226,-0.0122 0.09283,-0.004 0.179049,0.0191 0.08622,0.0227 0.243822,0.0639 0.350227,0.0916 0.106405,0.0276 0.193464,0.0699 0.193464,0.094 0,0.0525 0.0066,0.0531 -0.364167,-0.033 z m -1.334923,-0.33284 c -0.303307,-0.0808 -0.384066,-0.11715 -0.345556,-0.15548 0.0373,-0.0372 0.697155,0.14156 0.714463,0.19348 0.02168,0.0651 0.01538,0.0644 -0.368907,-0.038 z m -1.320104,-0.31865 c -0.3152,-0.084 -0.384321,-0.1168 -0.339771,-0.16136 0.04157,-0.0416 0.688521,0.13889 0.708058,0.19751 0.02235,0.0671 0.01716,0.0666 -0.368287,-0.0362 z m -1.191486,-0.29771 c -0.125183,-0.0312 -0.2869,-0.0702 -0.359371,-0.0868 -0.07876,-0.0181 -0.115171,-0.0468 -0.09051,-0.0715 0.03716,-0.0372 0.673426,0.0953 0.730142,0.15205 0.05498,0.055 -0.07295,0.0579 -0.280257,0.007 z M 72.58754,162.8017 c 0.05504,-0.14345 0.348772,-0.56913 0.392706,-0.56913 0.02535,0 0.04608,0.009 0.04608,0.0202 0,0.057 -0.380874,0.61716 -0.419643,0.61716 -0.02492,0 -0.03354,-0.0307 -0.01915,-0.0682 z m 0.711917,-1.1138 c 0,-0.0899 0.371696,-0.63959 0.414586,-0.61308 0.02316,0.0143 0.02757,0.0502 0.0098,0.0797 -0.270963,0.45102 -0.424399,0.64383 -0.424399,0.53329 z m 0.728335,-1.14519 c 0,-0.0737 0.331082,-0.62987 0.375546,-0.6309 0.0688,-0.002 0.03034,0.10543 -0.132962,0.37001 -0.1746,0.28287 -0.242584,0.35599 -0.242584,0.26089 z m 0.695805,-1.16658 c 0.214745,-0.39919 0.442215,-0.69347 0.442215,-0.5721 0,0.079 -0.348193,0.60475 -0.400994,0.60545 -0.03278,5.2e-4 -0.05133,-0.0145 -0.04122,-0.0334 z m 0.728813,-1.16436 c 0.09162,-0.23875 0.441737,-0.677 0.441737,-0.55293 0,0.0602 -0.377551,0.61342 -0.418639,0.61342 -0.02548,0 -0.03587,-0.0272 -0.02309,-0.0605 z m 0.714862,-1.1199 c 0,-0.0873 0.343916,-0.59394 0.403542,-0.59442 0.05177,-3.5e-4 0.05135,0.0166 -0.0024,0.10192 -0.03553,0.0563 -0.124944,0.19969 -0.1987,0.31856 -0.1266,0.20405 -0.202382,0.26918 -0.202382,0.17394 z m 0.728766,-1.14986 c 6.59e-4,-0.0954 0.37553,-0.65718 0.397014,-0.595 0.01071,0.031 -0.05504,0.17905 -0.146129,0.32899 -0.172233,0.28353 -0.251623,0.3677 -0.250885,0.26601 z m 0.711094,-1.11971 c -0.0259,-0.0419 0.340562,-0.64692 0.391851,-0.64692 0.06779,0 0.0322,0.0897 -0.152523,0.3843 -0.195757,0.31222 -0.203458,0.32066 -0.239328,0.26262 z m -5.312635,-5.01342 c -0.139673,-0.13967 -0.168739,-0.26826 -0.08056,-0.35643 0.03611,-0.0362 0.07872,-0.0385 0.136563,-0.008 0.104379,0.0558 0.108613,0.1601 0.0088,0.21597 -0.06609,0.037 -0.06091,0.0515 0.04231,0.11919 0.06825,0.0448 0.181027,0.071 0.268759,0.0625 0.12884,-0.0124 0.159195,-0.0391 0.205537,-0.18108 0.0383,-0.11733 0.04108,-0.21473 0.0094,-0.32949 -0.04963,-0.17974 -0.150798,-0.25467 -0.345273,-0.25573 -0.09948,-5.3e-4 -0.112891,-0.0106 -0.05989,-0.0448 0.03756,-0.0242 0.11365,-0.0444 0.169102,-0.0448 0.198768,-0.002 0.295961,-0.45157 0.124575,-0.57703 -0.157985,-0.11565 -0.451065,0.009 -0.338904,0.14423 0.05046,0.0608 0.04794,0.0847 -0.01559,0.14825 -0.07065,0.0706 -0.08089,0.0706 -0.152106,-6e-4 -0.110419,-0.11042 -0.01537,-0.29266 0.19945,-0.38242 0.136567,-0.0571 0.201141,-0.0606 0.341489,-0.0185 0.32462,0.0973 0.390578,0.38061 0.145616,0.62557 -0.108657,0.10866 -0.110286,0.11757 -0.03229,0.17671 0.04518,0.0343 0.09422,0.0629 0.108974,0.0637 0.04124,0.002 0.13249,0.22267 0.13249,0.32009 0,0.26825 -0.224849,0.45521 -0.547492,0.45521 -0.146924,0 -0.216832,-0.029 -0.320906,-0.13306 z m 1.307905,0.0814 c -0.146626,-0.0852 -0.255336,-0.39884 -0.256423,-0.73975 -0.0019,-0.58098 0.163428,-0.86811 0.499728,-0.86811 0.336301,0 0.501584,0.28713 0.49973,0.86811 -0.0011,0.34907 -0.112361,0.66032 -0.265263,0.74215 -0.116629,0.0624 -0.368443,0.0612 -0.477772,-0.003 z m 0.404698,-0.10567 c 0.105674,-0.10568 0.111733,-0.14012 0.111733,-0.63515 0,-0.67375 -0.08791,-0.86574 -0.357259,-0.78025 -0.143623,0.0456 -0.188992,0.23289 -0.188992,0.78025 0,0.49503 0.0061,0.52947 0.111733,0.63515 0.06145,0.0615 0.13408,0.11174 0.161392,0.11174 0.02731,0 0.09994,-0.0503 0.161393,-0.11174 z m 0.620397,-0.94956 c -0.183467,-0.19529 -0.08475,-0.49372 0.184384,-0.5574 0.09998,-0.0237 0.151649,-0.002 0.266392,0.113 0.114743,0.11474 0.136663,0.16642 0.113007,0.26639 -0.06456,0.2729 -0.380839,0.37274 -0.563783,0.17801 z m 0.431893,-0.11937 c 0.06205,-0.12509 0.01846,-0.24679 -0.113728,-0.31753 -0.120674,-0.0645 -0.300255,0.04 -0.317191,0.1848 -0.02987,0.25535 0.317106,0.36223 0.430919,0.13273 z m 41.13218,25.72779 c 0.63341,-1.52755 0.93478,-2.36228 1.26134,-3.49372 0.73308,-2.53989 1.09429,-5.10929 1.09429,-7.78408 0,-5.83937 -1.76705,-11.39793 -5.13494,-16.15287 -1.76581,-2.49303 -4.1462,-4.87343 -6.63924,-6.63923 -4.75493,-3.36789 -10.313501,-5.13494 -16.152874,-5.13494 -6.317207,0 -12.314345,2.07566 -17.275168,5.9791 -0.639836,0.50345 -1.251824,1.03664 -1.251824,1.09064 0,0.0389 43.946296,32.30468 44.000386,32.30543 0.015,1.8e-4 0.0591,-0.0764 0.098,-0.17033 z M 68.405486,158.58905 c 1.817011,-8.72419 3.315266,-15.90314 3.329459,-15.95321 0.01419,-0.0501 -0.305654,0.2367 -0.710768,0.63729 -3.140769,3.10565 -5.450115,6.77359 -6.835416,10.85673 -2.135606,6.29464 -1.981977,13.0692 0.437176,19.27809 0.24473,0.62811 0.441161,1.07799 0.461711,1.05745 0.0078,-0.008 1.500828,-7.15217 3.317838,-15.87635 z m 4.515887,7.9312 c 0.352181,-0.14332 0.636658,-0.32748 0.894585,-0.57913 0.23493,-0.22921 0.449556,-0.53079 0.406253,-0.57084 -0.0193,-0.0178 -0.484908,-0.29206 -1.034676,-0.60937 -0.872643,-0.50364 -1.012826,-0.57086 -1.103882,-0.52937 l -0.104301,0.0475 v 1.22181 1.22182 l 0.314628,-0.0376 c 0.173047,-0.0207 0.455373,-0.0949 0.627393,-0.16486 z M 72.75998,145.38802 c 0.103928,-0.028 0.299624,-0.0998 0.434879,-0.15963 0.209188,-0.0925 0.239435,-0.12087 0.202508,-0.18987 -0.158198,-0.29559 -1.340153,-2.31989 -1.374977,-2.35489 -0.02704,-0.0271 -0.04304,0.49011 -0.04304,1.39163 v 1.43488 l 0.295834,-0.0357 c 0.162708,-0.0196 0.380866,-0.0585 0.484794,-0.0865 z m 35.72711,41.51988 c 0,-0.0234 0.0563,-0.049 0.12518,-0.0569 0.12058,-0.0139 0.13132,-0.0379 0.29201,-0.6517 0.19921,-0.76104 0.20097,-0.7791 0.079,-0.811 -0.18561,-0.0486 -0.0319,-0.12218 0.25494,-0.12218 0.30812,0 0.4394,0.0738 0.21219,0.11916 -0.12242,0.0245 -0.14215,0.0545 -0.20786,0.31609 -0.04,0.15897 -0.0726,0.30105 -0.0726,0.31574 0,0.0147 0.15751,0.0207 0.35001,0.0133 l 0.35002,-0.0133 0.0768,-0.30484 c 0.0765,-0.30396 0.0765,-0.30488 -0.0199,-0.31865 -0.21314,-0.0304 -0.0556,-0.10485 0.22187,-0.10485 0.29077,0 0.40474,0.0671 0.19615,0.1154 -0.0928,0.0215 -0.1247,0.099 -0.27193,0.66006 -0.19925,0.75925 -0.20302,0.79501 -0.0836,0.79501 0.0501,0 0.091,0.0205 0.091,0.0455 0,0.0264 -0.14505,0.0455 -0.3441,0.0455 -0.21781,0 -0.33377,-0.0167 -0.31596,-0.0455 0.0155,-0.025 0.0756,-0.0455 0.13361,-0.0455 0.0939,0 0.11555,-0.04 0.19695,-0.36417 l 0.0914,-0.36416 h -0.35342 -0.35341 l -0.0738,0.29386 c -0.0955,0.38025 -0.0934,0.43447 0.0172,0.43447 0.0501,0 0.0911,0.0205 0.0911,0.0455 0,0.0263 -0.14416,0.0455 -0.34141,0.0455 -0.18777,0 -0.34141,-0.0191 -0.34141,-0.0425 z m 2.11834,-0.95634 c -0.0166,-0.0269 -0.02,-0.0846 -0.008,-0.1282 0.18714,-0.65181 0.22057,-0.73931 0.28237,-0.73931 0.12623,0 0.11443,0.11918 -0.0498,0.50285 -0.18557,0.43354 -0.18404,0.43107 -0.22508,0.36466 z m 6.23695,-9.2475 c -0.50343,-0.44202 -0.13124,-1.36632 0.64062,-1.59092 0.21226,-0.0617 0.50397,0.003 0.54984,0.12304 0.02,0.0522 0.0536,0.0396 0.15614,-0.0586 0.15298,-0.14657 0.15257,-0.14842 0.0561,0.24671 -0.0842,0.34482 -0.15302,0.46049 -0.15313,0.25744 -1e-4,-0.20043 -0.14045,-0.44583 -0.27305,-0.47741 -0.28074,-0.0669 -0.65975,0.14406 -0.81873,0.45566 -0.30377,0.59545 -0.1647,1.09407 0.30502,1.0936 0.27113,-3.5e-4 0.55701,-0.22469 0.66662,-0.52333 0.009,-0.025 0.0314,-0.0319 0.0494,-0.0153 0.0763,0.0706 -0.21854,0.45039 -0.43902,0.56558 -0.0676,0.0353 -0.22565,0.0643 -0.3512,0.0643 -0.19024,0 -0.255,-0.0235 -0.38856,-0.14072 z m -54.26081,0.0541 c 0.02379,-0.0225 0.08421,-0.0484 0.134286,-0.0572 0.07589,-0.0134 0.118807,-0.12208 0.257866,-0.65308 0.199218,-0.76073 0.200981,-0.77883 0.07896,-0.81075 -0.05265,-0.0138 -0.08213,-0.0469 -0.06559,-0.0736 0.04625,-0.0748 0.861868,-0.0614 1.050234,0.0173 0.314518,0.13142 0.309299,0.50069 -0.0092,0.65258 l -0.152662,0.0728 0.137163,0.12528 c 0.158421,0.14469 0.172649,0.27651 0.05133,0.47546 -0.143606,0.2355 -0.331124,0.29224 -0.965745,0.29224 -0.334697,0 -0.542464,-0.0166 -0.516611,-0.0411 z m 1.176688,-0.1822 c 0.152164,-0.14295 0.192468,-0.34085 0.09859,-0.48412 -0.06529,-0.0996 -0.10542,-0.11195 -0.365122,-0.11195 -0.3194,0 -0.292009,-0.0256 -0.388946,0.36417 -0.02802,0.11266 -0.06211,0.24313 -0.07577,0.28991 -0.02293,0.0786 -1.29e-4,0.0837 0.296379,0.0669 0.258999,-0.0146 0.343226,-0.0389 0.43487,-0.12493 z m 0.145693,-0.84188 c 0.162292,-0.16229 0.185802,-0.24845 0.107649,-0.39448 -0.0391,-0.0731 -0.09703,-0.088 -0.340539,-0.088 -0.282946,0 -0.294418,0.004 -0.321463,0.12518 -0.01543,0.0688 -0.04643,0.19687 -0.0689,0.2845 -0.02247,0.0876 -0.04096,0.17469 -0.04111,0.19346 -1.38e-4,0.0188 0.114459,0.0341 0.254664,0.0341 0.229211,0 0.270524,-0.0156 0.409687,-0.15477 z m 6.755296,-34.11751 c 0,-0.0223 0.05004,-0.0532 0.111202,-0.0685 0.08455,-0.0212 0.216978,-0.20512 0.552604,-0.76741 0.459274,-0.76944 0.543878,-0.88986 0.591662,-0.84207 0.01571,0.0157 0.0627,0.38321 0.104419,0.81667 0.07254,0.7537 0.08028,0.78872 0.177356,0.80264 0.05583,0.008 0.101509,0.0336 0.101509,0.0569 0,0.0233 -0.143392,0.0424 -0.318647,0.0424 -0.298172,0 -0.443943,-0.0669 -0.216224,-0.0993 0.05633,-0.008 0.100374,-0.0401 0.09787,-0.0715 -0.0025,-0.0313 -0.0076,-0.12861 -0.01138,-0.21623 l -0.0068,-0.15932 h -0.312304 -0.312322 l -0.107942,0.20347 c -0.107071,0.20183 -0.107213,0.20403 -0.0177,0.27167 0.08359,0.0632 0.07096,0.0683 -0.171509,0.0697 -0.14396,6.6e-4 -0.261745,-0.0168 -0.261745,-0.0391 z m 1.132636,-0.83569 c -0.003,-0.13144 -0.01842,-0.29984 -0.03436,-0.37422 -0.02829,-0.13206 -0.03367,-0.12725 -0.228812,0.20484 -0.109912,0.18705 -0.208324,0.35545 -0.218693,0.37423 -0.01037,0.0187 0.09502,0.0341 0.234199,0.0341 h 0.253051 z"
       id="path1-2" /></g></svg>
