ISO-10303-21;
HEADER;
FILE_DESCRIPTION (( 'STEP AP214' ),
    '1' );
FILE_NAME ('MAIN.STEP',
    '2026-08-05T03:28:49',
    ( '' ),
    ( '' ),
    'SwSTEP 2.0',
    'SolidWorks 2023',
    '' );
FILE_SCHEMA (( 'AUTOMOTIVE_DESIGN' ));
ENDSEC;

DATA;
#1 =( NAMED_UNIT ( * ) SI_UNIT ( $, .STERADIAN. ) SOLID_ANGLE_UNIT ( ) );
#2 = DIRECTION ( 'NONE',  ( 0.000000000000000000, 0.000000000000000000, 1.000000000000000000 ) ) ;
#3 = PRODUCT_DEFINITION ( 'General', '', #137, #118 ) ;
#4 = DIRECTION ( 'NONE',  ( -0.02411603119610828891, 0.000000000000000000, 0.9997091662275326973 ) ) ;
#5 =( GEOMETRIC_REPRESENTATION_CONTEXT ( 3 ) GLOBAL_UNCERTAINTY_ASSIGNED_CONTEXT ( ( #70 ) ) GLOBAL_UNIT_ASSIGNED_CONTEXT ( ( #30, #11, #1 ) ) REPRESENTATION_CONTEXT ( 'NONE', 'WORKASPACE' ) );
#6 = DOCUMENT_TYPE ( 'geometry' ) ;
#7 = SHAPE_REPRESENTATION ( 'top_\X2\9ed88ba4\X0\', ( #59 ), #74 ) ;
#8 = PRODUCT_DEFINITION_CONTEXT ( 'detailed design', #145, 'design' ) ;
#9 = APPLICATION_CONTEXT ( 'automotive_design' ) ;
#10 = PROPERTY_DEFINITION ('document property','', #111 ) ;
#11 =( NAMED_UNIT ( * ) PLANE_ANGLE_UNIT ( ) SI_UNIT ( $, .RADIAN. ) );
#12 = APPLICATION_PROTOCOL_DEFINITION ( 'draft international standard', 'automotive_design', 1998, #9 ) ;
#13 = APPLICATION_CONTEXT ( 'automotive_design' ) ;
#14 = APPLICATION_PROTOCOL_DEFINITION ( 'draft international standard', 'automotive_design', 1998, #37 ) ;
#15 = OBJECT_ROLE ('mandatory',$ ) ;
#16 = DIRECTION ( 'NONE',  ( 0.9997091662275326973, 0.000000000000000000, 0.02411603119610828891 ) ) ;
#17 = PRODUCT_DEFINITION_CONTEXT ( 'detailed design', #110, 'design' ) ;
#18 = APPLIED_EXTERNAL_IDENTIFICATION_ASSIGNMENT ( 'top_\X2\9ed88ba4\X0\.STEP' , #72, #54,( #111) ) ;
#19 = OBJECT_ROLE ('mandatory',$ ) ;
#20 = APPLIED_DOCUMENT_REFERENCE ( #111,'',( #22) ) ;
#21 = PRODUCT_DEFINITION ( 'General', '', #98, #8 ) ;
#22 = PRODUCT_DEFINITION ( 'General', '', #69, #17 ) ;
#23 = APPLICATION_PROTOCOL_DEFINITION ( 'draft international standard', 'automotive_design', 1998, #133 ) ;
#24 = CARTESIAN_POINT ( 'NONE',  ( 0.000000000000000000, 0.000000000000000000, 0.000000000000000000 ) ) ;
#25 = PROPERTY_DEFINITION_REPRESENTATION ( #10, #7 ) ;
#26 = CONTEXT_DEPENDENT_SHAPE_REPRESENTATION ( #67, #88 ) ;
#27 = PROPERTY_DEFINITION ('external definition','', #71 ) ;
#28 = PRODUCT ( 'bottom_\X2\9ed88ba4\X0\', 'bottom_\X2\9ed88ba4\X0\', '', ( #129 ) ) ;
#29 = DIRECTION ( 'NONE',  ( 0.000000000000000000, 0.000000000000000000, 1.000000000000000000 ) ) ;
#30 =( LENGTH_UNIT ( ) NAMED_UNIT ( * ) SI_UNIT ( .MILLI., .METRE. ) );
#31 = APPLIED_EXTERNAL_IDENTIFICATION_ASSIGNMENT ( 'bottom_\X2\9ed88ba4\X0\.STEP' , #125, #79,( #109) ) ;
#32 = DIRECTION ( 'NONE',  ( 1.000000000000000000, 0.000000000000000000, 0.000000000000000000 ) ) ;
#33 = UNCERTAINTY_MEASURE_WITH_UNIT (LENGTH_MEASURE( 1.000000000000000082E-05 ), #112, 'distance_accuracy_value', 'NONE');
#34 = DIRECTION ( 'NONE',  ( 0.000000000000000000, 0.000000000000000000, 1.000000000000000000 ) ) ;
#35 = ROLE_ASSOCIATION ( #19, #20 ) ;
#36 = AXIS2_PLACEMENT_3D ( 'NONE', #126, #53, #32 ) ;
#37 = APPLICATION_CONTEXT ( 'automotive_design' ) ;
#38 = ITEM_DEFINED_TRANSFORMATION ( 'NONE', 'NONE', #68,  #113 ) ;
#39 = PRODUCT_RELATED_PRODUCT_CATEGORY ( 'part', '', ( #28 ) ) ;
#40 = PRODUCT_DEFINITION_FORMATION_WITH_SPECIFIED_SOURCE ( 'Symmetric', '', #28, .NOT_KNOWN. ) ;
#41 = OBJECT_ROLE ('mandatory',$ ) ;
#42 = APPLICATION_PROTOCOL_DEFINITION ( 'draft international standard', 'automotive_design', 1998, #13 ) ;
#43 =( NAMED_UNIT ( * ) SI_UNIT ( $, .STERADIAN. ) SOLID_ANGLE_UNIT ( ) );
#44 =( NAMED_UNIT ( * ) PLANE_ANGLE_UNIT ( ) SI_UNIT ( $, .RADIAN. ) );
#45 = PROPERTY_DEFINITION_REPRESENTATION ( #52, #135 ) ;
#46 =( GEOMETRIC_REPRESENTATION_CONTEXT ( 3 ) GLOBAL_UNCERTAINTY_ASSIGNED_CONTEXT ( ( #99 ) ) GLOBAL_UNIT_ASSIGNED_CONTEXT ( ( #148, #44, #43 ) ) REPRESENTATION_CONTEXT ( 'NONE', 'WORKASPACE' ) );
#47 = PRODUCT_RELATED_PRODUCT_CATEGORY ( 'part', '', ( #60 ) ) ;
#48 =( REPRESENTATION_RELATIONSHIP ('NONE','NONE', #93, #7 ) REPRESENTATION_RELATIONSHIP_WITH_TRANSFORMATION ( #130 )SHAPE_REPRESENTATION_RELATIONSHIP( ) );
#49 = APPLICATION_CONTEXT ( 'automotive_design' ) ;
#50 = PROPERTY_DEFINITION ('document property','', #71 ) ;
#51 = PRODUCT_DEFINITION_SHAPE ( 'NONE', 'NONE',  #22 ) ;
#52 = PROPERTY_DEFINITION ('external definition','', #109 ) ;
#53 = DIRECTION ( 'NONE',  ( 0.000000000000000000, 0.000000000000000000, 1.000000000000000000 ) ) ;
#54 = EXTERNAL_SOURCE (IDENTIFIER('') ) ;
#55 = APPLICATION_PROTOCOL_DEFINITION ( 'draft international standard', 'automotive_design', 1998, #110 ) ;
#56 = APPLICATION_PROTOCOL_DEFINITION ( 'draft international standard', 'automotive_design', 1998, #94 ) ;
#57 =( REPRESENTATION_RELATIONSHIP ('NONE','NONE', #93, #58 ) REPRESENTATION_RELATIONSHIP_WITH_TRANSFORMATION ( #38 )SHAPE_REPRESENTATION_RELATIONSHIP( ) );
#58 = SHAPE_REPRESENTATION ( 'cap_\X2\9ed88ba4\X0\', ( #113 ), #124 ) ;
#59 = AXIS2_PLACEMENT_3D ( 'NONE', #89, #29, #103 ) ;
#60 = PRODUCT ( 'MAIN', 'MAIN', '', ( #116 ) ) ;
#61 = DIRECTION ( 'NONE',  ( 0.000000000000000000, 0.000000000000000000, 1.000000000000000000 ) ) ;
#62 = IDENTIFICATION_ROLE ( 'external document id and location', $) ;
#63 =( LENGTH_UNIT ( ) NAMED_UNIT ( * ) SI_UNIT ( .MILLI., .METRE. ) );
#64 = PRODUCT_RELATED_PRODUCT_CATEGORY ( 'part', '', ( #83 ) ) ;
#65 = CARTESIAN_POINT ( 'NONE',  ( 0.000000000000000000, 0.000000000000000000, 0.000000000000000000 ) ) ;
#66 = APPLICATION_PROTOCOL_DEFINITION ( 'draft international standard', 'automotive_design', 1998, #49 ) ;
#67 =( REPRESENTATION_RELATIONSHIP ('NONE','NONE', #93, #135 ) REPRESENTATION_RELATIONSHIP_WITH_TRANSFORMATION ( #73 )SHAPE_REPRESENTATION_RELATIONSHIP( ) );
#68 = AXIS2_PLACEMENT_3D ( 'NONE', #92, #4, #16 ) ;
#69 = PRODUCT_DEFINITION_FORMATION_WITH_SPECIFIED_SOURCE ( 'Symmetric', '', #77, .NOT_KNOWN. ) ;
#70 = UNCERTAINTY_MEASURE_WITH_UNIT (LENGTH_MEASURE( 1.000000000000000082E-05 ), #30, 'distance_accuracy_value', 'NONE');
#71 = DOCUMENT_FILE ( 'cap_\X2\9ed88ba4\X0\.STEP' , '', '', #6, '' ,$ ) ;
#72 = IDENTIFICATION_ROLE ( 'external document id and location', $) ;
#73 = ITEM_DEFINED_TRANSFORMATION ( 'NONE', 'NONE', #146,  #97 ) ;
#74 =( GEOMETRIC_REPRESENTATION_CONTEXT ( 3 ) GLOBAL_UNCERTAINTY_ASSIGNED_CONTEXT ( ( #33 ) ) GLOBAL_UNIT_ASSIGNED_CONTEXT ( ( #112, #81, #80 ) ) REPRESENTATION_CONTEXT ( 'NONE', 'WORKASPACE' ) );
#75 = APPLIED_EXTERNAL_IDENTIFICATION_ASSIGNMENT ( 'cap_\X2\9ed88ba4\X0\.STEP' , #62, #117,( #71) ) ;
#76 = PRODUCT_DEFINITION_SHAPE ( 'NONE', 'NONE',  #106 ) ;
#77 = PRODUCT ( 'top_\X2\9ed88ba4\X0\', 'top_\X2\9ed88ba4\X0\', '', ( #144 ) ) ;
#78 = PRODUCT_RELATED_PRODUCT_CATEGORY ( 'part', '', ( #77 ) ) ;
#79 = EXTERNAL_SOURCE (IDENTIFIER('') ) ;
#80 =( NAMED_UNIT ( * ) SI_UNIT ( $, .STERADIAN. ) SOLID_ANGLE_UNIT ( ) );
#81 =( NAMED_UNIT ( * ) PLANE_ANGLE_UNIT ( ) SI_UNIT ( $, .RADIAN. ) );
#82 =( NAMED_UNIT ( * ) PLANE_ANGLE_UNIT ( ) SI_UNIT ( $, .RADIAN. ) );
#83 = PRODUCT ( 'cap_\X2\9ed88ba4\X0\', 'cap_\X2\9ed88ba4\X0\', '', ( #143 ) ) ;
#84 = ROLE_ASSOCIATION ( #41, #132 ) ;
#85 = PROPERTY_DEFINITION_REPRESENTATION ( #138, #7 ) ;
#86 = CONTEXT_DEPENDENT_SHAPE_REPRESENTATION ( #57, #102 ) ;
#87 = DOCUMENT_TYPE ( 'geometry' ) ;
#88 = PRODUCT_DEFINITION_SHAPE ( 'NONE', 'NONE',  #150 ) ;
#89 = CARTESIAN_POINT ( 'NONE',  ( 0.000000000000000000, 0.000000000000000000, 0.000000000000000000 ) ) ;
#90 = CARTESIAN_POINT ( 'NONE',  ( 0.000000000000000000, 0.000000000000000000, 0.000000000000000000 ) ) ;
#91 = DIRECTION ( 'NONE',  ( 1.000000000000000000, 0.000000000000000000, 0.000000000000000000 ) ) ;
#92 = CARTESIAN_POINT ( 'NONE',  ( -37.67499999999999716, 13.78969242770042669, 0.000000000000000000 ) ) ;
#93 = SHAPE_REPRESENTATION ( 'MAIN', ( #136, #36, #146, #68 ), #46 ) ;
#94 = APPLICATION_CONTEXT ( 'automotive_design' ) ;
#95 = SHAPE_DEFINITION_REPRESENTATION ( #128, #58 ) ;
#96 = PROPERTY_DEFINITION_REPRESENTATION ( #105, #135 ) ;
#97 = AXIS2_PLACEMENT_3D ( 'NONE', #90, #61, #140 ) ;
#98 = PRODUCT_DEFINITION_FORMATION_WITH_SPECIFIED_SOURCE ( 'Symmetric', '', #60, .NOT_KNOWN. ) ;
#99 = UNCERTAINTY_MEASURE_WITH_UNIT (LENGTH_MEASURE( 1.000000000000000082E-05 ), #148, 'distance_accuracy_value', 'NONE');
#100 = PROPERTY_DEFINITION_REPRESENTATION ( #50, #58 ) ;
#101 = PRODUCT_DEFINITION_CONTEXT ( 'detailed design', #133, 'design' ) ;
#102 = PRODUCT_DEFINITION_SHAPE ( 'NONE', 'NONE',  #151 ) ;
#103 = DIRECTION ( 'NONE',  ( 1.000000000000000000, 0.000000000000000000, 0.000000000000000000 ) ) ;
#104 = PRODUCT_DEFINITION_SHAPE ( 'NONE', 'NONE',  #149 ) ;
#105 = PROPERTY_DEFINITION ('document property','', #109 ) ;
#106 = PRODUCT_DEFINITION ( 'General', '', #40, #101 ) ;
#107 = SHAPE_DEFINITION_REPRESENTATION ( #51, #7 ) ;
#108 = DIRECTION ( 'NONE',  ( 0.000000000000000000, 0.000000000000000000, 1.000000000000000000 ) ) ;
#109 = DOCUMENT_FILE ( 'bottom_\X2\9ed88ba4\X0\.STEP' , '', '', #123, '' ,$ ) ;
#110 = APPLICATION_CONTEXT ( 'automotive_design' ) ;
#111 = DOCUMENT_FILE ( 'top_\X2\9ed88ba4\X0\.STEP' , '', '', #87, '' ,$ ) ;
#112 =( LENGTH_UNIT ( ) NAMED_UNIT ( * ) SI_UNIT ( .MILLI., .METRE. ) );
#113 = AXIS2_PLACEMENT_3D ( 'NONE', #24, #2, #114 ) ;
#114 = DIRECTION ( 'NONE',  ( 1.000000000000000000, 0.000000000000000000, 0.000000000000000000 ) ) ;
#115 = SHAPE_DEFINITION_REPRESENTATION ( #76, #135 ) ;
#116 = PRODUCT_CONTEXT ( 'NONE', #9, 'mechanical' ) ;
#117 = EXTERNAL_SOURCE (IDENTIFIER('') ) ;
#118 = PRODUCT_DEFINITION_CONTEXT ( 'detailed design', #94, 'design' ) ;
#119 = DIRECTION ( 'NONE',  ( 1.000000000000000000, 0.000000000000000000, 0.000000000000000000 ) ) ;
#120 = ROLE_ASSOCIATION ( #15, #121 ) ;
#121 = APPLIED_DOCUMENT_REFERENCE ( #71,'',( #3) ) ;
#122 = UNCERTAINTY_MEASURE_WITH_UNIT (LENGTH_MEASURE( 1.000000000000000082E-05 ), #63, 'distance_accuracy_value', 'NONE');
#123 = DOCUMENT_TYPE ( 'geometry' ) ;
#124 =( GEOMETRIC_REPRESENTATION_CONTEXT ( 3 ) GLOBAL_UNCERTAINTY_ASSIGNED_CONTEXT ( ( #122 ) ) GLOBAL_UNIT_ASSIGNED_CONTEXT ( ( #63, #82, #131 ) ) REPRESENTATION_CONTEXT ( 'NONE', 'WORKASPACE' ) );
#125 = IDENTIFICATION_ROLE ( 'external document id and location', $) ;
#126 = CARTESIAN_POINT ( 'NONE',  ( 0.000000000000000000, 0.000000000000000000, 0.000000000000000000 ) ) ;
#127 = CARTESIAN_POINT ( 'NONE',  ( 0.000000000000000000, -1.600000000000000089, 0.000000000000000000 ) ) ;
#128 = PRODUCT_DEFINITION_SHAPE ( 'NONE', 'NONE',  #3 ) ;
#129 = PRODUCT_CONTEXT ( 'NONE', #13, 'mechanical' ) ;
#130 = ITEM_DEFINED_TRANSFORMATION ( 'NONE', 'NONE', #36,  #59 ) ;
#131 =( NAMED_UNIT ( * ) SI_UNIT ( $, .STERADIAN. ) SOLID_ANGLE_UNIT ( ) );
#132 = APPLIED_DOCUMENT_REFERENCE ( #109,'',( #106) ) ;
#133 = APPLICATION_CONTEXT ( 'automotive_design' ) ;
#134 = PROPERTY_DEFINITION_REPRESENTATION ( #27, #58 ) ;
#135 = SHAPE_REPRESENTATION ( 'bottom_\X2\9ed88ba4\X0\', ( #97 ), #5 ) ;
#136 = AXIS2_PLACEMENT_3D ( 'NONE', #65, #108, #91 ) ;
#137 = PRODUCT_DEFINITION_FORMATION_WITH_SPECIFIED_SOURCE ( 'Symmetric', '', #83, .NOT_KNOWN. ) ;
#138 = PROPERTY_DEFINITION ('external definition','', #111 ) ;
#139 = SHAPE_DEFINITION_REPRESENTATION ( #141, #93 ) ;
#140 = DIRECTION ( 'NONE',  ( 1.000000000000000000, 0.000000000000000000, 0.000000000000000000 ) ) ;
#141 = PRODUCT_DEFINITION_SHAPE ( 'NONE', 'NONE',  #21 ) ;
#142 = APPLICATION_PROTOCOL_DEFINITION ( 'draft international standard', 'automotive_design', 1998, #145 ) ;
#143 = PRODUCT_CONTEXT ( 'NONE', #49, 'mechanical' ) ;
#144 = PRODUCT_CONTEXT ( 'NONE', #37, 'mechanical' ) ;
#145 = APPLICATION_CONTEXT ( 'automotive_design' ) ;
#146 = AXIS2_PLACEMENT_3D ( 'NONE', #127, #34, #119 ) ;
#147 = CONTEXT_DEPENDENT_SHAPE_REPRESENTATION ( #48, #104 ) ;
#148 =( LENGTH_UNIT ( ) NAMED_UNIT ( * ) SI_UNIT ( .MILLI., .METRE. ) );
#149 = NEXT_ASSEMBLY_USAGE_OCCURRENCE ( 'NAUO1', ' ', ' ', #21, #22, $ ) ;
#150 = NEXT_ASSEMBLY_USAGE_OCCURRENCE ( 'NAUO2', ' ', ' ', #21, #106, $ ) ;
#151 = NEXT_ASSEMBLY_USAGE_OCCURRENCE ( 'NAUO3', ' ', ' ', #21, #3, $ ) ;
ENDSEC;
END-ISO-10303-21;
