ISO-10303-21;
HEADER;
FILE_DESCRIPTION (( 'STEP AP214' ),
    '1' );
FILE_NAME ('main.STEP',
    '2026-07-29T18:19:42',
    ( '' ),
    ( '' ),
    'SwSTEP 2.0',
    'SolidWorks 2023',
    '' );
FILE_SCHEMA (( 'AUTOMOTIVE_DESIGN' ));
ENDSEC;

DATA;
#1 =( NAMED_UNIT ( * ) SI_UNIT ( $, .STERADIAN. ) SOLID_ANGLE_UNIT ( ) );
#2 = ITEM_DEFINED_TRANSFORMATION ( 'NONE', 'NONE', #6,  #5 ) ;
#3 = PROPERTY_DEFINITION ('external definition','', #29 ) ;
#4 = UNCERTAINTY_MEASURE_WITH_UNIT (LENGTH_MEASURE( 1.000000000000000082E-05 ), #82, 'distance_accuracy_value', 'NONE');
#5 = AXIS2_PLACEMENT_3D ( 'NONE', #55, #74, #83 ) ;
#6 = AXIS2_PLACEMENT_3D ( 'NONE', #63, #26, #56 ) ;
#7 = DIRECTION ( 'NONE',  ( 0.000000000000000000, 0.000000000000000000, 1.000000000000000000 ) ) ;
#8 = DIRECTION ( 'NONE',  ( 1.000000000000000000, 0.000000000000000000, 0.000000000000000000 ) ) ;
#9 = EXTERNAL_SOURCE (IDENTIFIER('') ) ;
#10 = AXIS2_PLACEMENT_3D ( 'NONE', #31, #80, #8 ) ;
#11 = EXTERNAL_SOURCE (IDENTIFIER('') ) ;
#12 = DIRECTION ( 'NONE',  ( 1.000000000000000000, 0.000000000000000000, 0.000000000000000000 ) ) ;
#13 = OBJECT_ROLE ('mandatory',$ ) ;
#14 = ROLE_ASSOCIATION ( #13, #18 ) ;
#15 = DOCUMENT_TYPE ( 'geometry' ) ;
#16 = PROPERTY_DEFINITION ('external definition','', #36 ) ;
#17 = UNCERTAINTY_MEASURE_WITH_UNIT (LENGTH_MEASURE( 1.000000000000000082E-05 ), #54, 'distance_accuracy_value', 'NONE');
#18 = APPLIED_DOCUMENT_REFERENCE ( #36,'',( #78) ) ;
#19 = DIRECTION ( 'NONE',  ( 1.000000000000000000, 0.000000000000000000, 0.000000000000000000 ) ) ;
#20 = PRODUCT_DEFINITION_SHAPE ( 'NONE', 'NONE',  #44 ) ;
#21 = APPLICATION_CONTEXT ( 'automotive_design' ) ;
#22 = SHAPE_DEFINITION_REPRESENTATION ( #75, #58 ) ;
#23 = PROPERTY_DEFINITION_REPRESENTATION ( #69, #58 ) ;
#24 = PROPERTY_DEFINITION ('document property','', #29 ) ;
#25 = PRODUCT_RELATED_PRODUCT_CATEGORY ( 'part', '', ( #95 ) ) ;
#26 = DIRECTION ( 'NONE',  ( 0.000000000000000000, 0.000000000000000000, 1.000000000000000000 ) ) ;
#27 = DIRECTION ( 'NONE',  ( 0.000000000000000000, 0.000000000000000000, 1.000000000000000000 ) ) ;
#28 =( GEOMETRIC_REPRESENTATION_CONTEXT ( 3 ) GLOBAL_UNCERTAINTY_ASSIGNED_CONTEXT ( ( #49 ) ) GLOBAL_UNIT_ASSIGNED_CONTEXT ( ( #71, #40, #100 ) ) REPRESENTATION_CONTEXT ( 'NONE', 'WORKASPACE' ) );
#29 = DOCUMENT_FILE ( 'baseshell_\X2\9ed88ba4\X0\.STEP' , '', '', #67, '' ,$ ) ;
#30 = AXIS2_PLACEMENT_3D ( 'NONE', #57, #7, #19 ) ;
#31 = CARTESIAN_POINT ( 'NONE',  ( 0.000000000000000000, 0.000000000000000000, 0.000000000000000000 ) ) ;
#32 = APPLICATION_PROTOCOL_DEFINITION ( 'draft international standard', 'automotive_design', 1998, #35 ) ;
#33 = APPLIED_EXTERNAL_IDENTIFICATION_ASSIGNMENT ( 'baseshell_\X2\9ed88ba4\X0\.STEP' , #34, #9,( #29) ) ;
#34 = IDENTIFICATION_ROLE ( 'external document id and location', $) ;
#35 = APPLICATION_CONTEXT ( 'automotive_design' ) ;
#36 = DOCUMENT_FILE ( 'spring+piezo_\X2\9ed88ba4\X0\.STEP' , '', '', #15, '' ,$ ) ;
#37 = ITEM_DEFINED_TRANSFORMATION ( 'NONE', 'NONE', #38,  #10 ) ;
#38 = AXIS2_PLACEMENT_3D ( 'NONE', #39, #27, #12 ) ;
#39 = CARTESIAN_POINT ( 'NONE',  ( 0.000000000000000000, 0.000000000000000000, 0.000000000000000000 ) ) ;
#40 =( NAMED_UNIT ( * ) PLANE_ANGLE_UNIT ( ) SI_UNIT ( $, .RADIAN. ) );
#41 = OBJECT_ROLE ('mandatory',$ ) ;
#42 = PROPERTY_DEFINITION_REPRESENTATION ( #3, #97 ) ;
#43 = PRODUCT_DEFINITION_SHAPE ( 'NONE', 'NONE',  #107 ) ;
#44 = PRODUCT_DEFINITION ( 'General', '', #88, #106 ) ;
#45 = PRODUCT_DEFINITION_SHAPE ( 'NONE', 'NONE',  #108 ) ;
#46 = PRODUCT_RELATED_PRODUCT_CATEGORY ( 'part', '', ( #102 ) ) ;
#47 = PRODUCT_DEFINITION_CONTEXT ( 'detailed design', #52, 'design' ) ;
#48 = PRODUCT_CONTEXT ( 'NONE', #21, 'mechanical' ) ;
#49 = UNCERTAINTY_MEASURE_WITH_UNIT (LENGTH_MEASURE( 1.000000000000000082E-05 ), #71, 'distance_accuracy_value', 'NONE');
#50 =( REPRESENTATION_RELATIONSHIP ('NONE','NONE', #85, #97 ) REPRESENTATION_RELATIONSHIP_WITH_TRANSFORMATION ( #37 )SHAPE_REPRESENTATION_RELATIONSHIP( ) );
#51 = PRODUCT_RELATED_PRODUCT_CATEGORY ( 'part', '', ( #104 ) ) ;
#52 = APPLICATION_CONTEXT ( 'automotive_design' ) ;
#53 = PROPERTY_DEFINITION_REPRESENTATION ( #24, #97 ) ;
#54 =( LENGTH_UNIT ( ) NAMED_UNIT ( * ) SI_UNIT ( .MILLI., .METRE. ) );
#55 = CARTESIAN_POINT ( 'NONE',  ( 0.000000000000000000, 0.000000000000000000, 0.000000000000000000 ) ) ;
#56 = DIRECTION ( 'NONE',  ( 1.000000000000000000, 0.000000000000000000, 0.000000000000000000 ) ) ;
#57 = CARTESIAN_POINT ( 'NONE',  ( 0.000000000000000000, 0.000000000000000000, 0.000000000000000000 ) ) ;
#58 = SHAPE_REPRESENTATION ( 'spring+piezo_\X2\9ed88ba4\X0\', ( #5 ), #28 ) ;
#59 = PRODUCT_CONTEXT ( 'NONE', #81, 'mechanical' ) ;
#60 = SHAPE_DEFINITION_REPRESENTATION ( #61, #97 ) ;
#61 = PRODUCT_DEFINITION_SHAPE ( 'NONE', 'NONE',  #98 ) ;
#62 = PRODUCT_DEFINITION_CONTEXT ( 'detailed design', #93, 'design' ) ;
#63 = CARTESIAN_POINT ( 'NONE',  ( -20.00000000000000000, -1.500000000000000000, 0.000000000000000000 ) ) ;
#64 = APPLICATION_PROTOCOL_DEFINITION ( 'draft international standard', 'automotive_design', 1998, #89 ) ;
#65 = APPLIED_DOCUMENT_REFERENCE ( #29,'',( #98) ) ;
#66 = CONTEXT_DEPENDENT_SHAPE_REPRESENTATION ( #50, #45 ) ;
#67 = DOCUMENT_TYPE ( 'geometry' ) ;
#68 = ROLE_ASSOCIATION ( #41, #65 ) ;
#69 = PROPERTY_DEFINITION ('document property','', #36 ) ;
#70 = PRODUCT_DEFINITION_FORMATION_WITH_SPECIFIED_SOURCE ( 'Symmetric', '', #102, .NOT_KNOWN. ) ;
#71 =( LENGTH_UNIT ( ) NAMED_UNIT ( * ) SI_UNIT ( .MILLI., .METRE. ) );
#72 =( NAMED_UNIT ( * ) PLANE_ANGLE_UNIT ( ) SI_UNIT ( $, .RADIAN. ) );
#73 =( NAMED_UNIT ( * ) SI_UNIT ( $, .STERADIAN. ) SOLID_ANGLE_UNIT ( ) );
#74 = DIRECTION ( 'NONE',  ( 0.000000000000000000, 0.000000000000000000, 1.000000000000000000 ) ) ;
#75 = PRODUCT_DEFINITION_SHAPE ( 'NONE', 'NONE',  #78 ) ;
#76 =( GEOMETRIC_REPRESENTATION_CONTEXT ( 3 ) GLOBAL_UNCERTAINTY_ASSIGNED_CONTEXT ( ( #4 ) ) GLOBAL_UNIT_ASSIGNED_CONTEXT ( ( #82, #72, #1 ) ) REPRESENTATION_CONTEXT ( 'NONE', 'WORKASPACE' ) );
#77 = APPLICATION_PROTOCOL_DEFINITION ( 'draft international standard', 'automotive_design', 1998, #52 ) ;
#78 = PRODUCT_DEFINITION ( 'General', '', #96, #62 ) ;
#79 =( GEOMETRIC_REPRESENTATION_CONTEXT ( 3 ) GLOBAL_UNCERTAINTY_ASSIGNED_CONTEXT ( ( #17 ) ) GLOBAL_UNIT_ASSIGNED_CONTEXT ( ( #54, #91, #73 ) ) REPRESENTATION_CONTEXT ( 'NONE', 'WORKASPACE' ) );
#80 = DIRECTION ( 'NONE',  ( 0.000000000000000000, 0.000000000000000000, 1.000000000000000000 ) ) ;
#81 = APPLICATION_CONTEXT ( 'automotive_design' ) ;
#82 =( LENGTH_UNIT ( ) NAMED_UNIT ( * ) SI_UNIT ( .MILLI., .METRE. ) );
#83 = DIRECTION ( 'NONE',  ( 1.000000000000000000, 0.000000000000000000, 0.000000000000000000 ) ) ;
#84 = APPLICATION_PROTOCOL_DEFINITION ( 'draft international standard', 'automotive_design', 1998, #81 ) ;
#85 = SHAPE_REPRESENTATION ( 'main', ( #30, #6, #38 ), #79 ) ;
#86 = APPLICATION_PROTOCOL_DEFINITION ( 'draft international standard', 'automotive_design', 1998, #21 ) ;
#87 = SHAPE_DEFINITION_REPRESENTATION ( #20, #85 ) ;
#88 = PRODUCT_DEFINITION_FORMATION_WITH_SPECIFIED_SOURCE ( 'Symmetric', '', #104, .NOT_KNOWN. ) ;
#89 = APPLICATION_CONTEXT ( 'automotive_design' ) ;
#90 = PRODUCT_CONTEXT ( 'NONE', #35, 'mechanical' ) ;
#91 =( NAMED_UNIT ( * ) PLANE_ANGLE_UNIT ( ) SI_UNIT ( $, .RADIAN. ) );
#92 = APPLIED_EXTERNAL_IDENTIFICATION_ASSIGNMENT ( 'spring+piezo_\X2\9ed88ba4\X0\.STEP' , #105, #11,( #36) ) ;
#93 = APPLICATION_CONTEXT ( 'automotive_design' ) ;
#94 = APPLICATION_PROTOCOL_DEFINITION ( 'draft international standard', 'automotive_design', 1998, #93 ) ;
#95 = PRODUCT ( 'spring+piezo_\X2\9ed88ba4\X0\', 'spring+piezo_\X2\9ed88ba4\X0\', '', ( #59 ) ) ;
#96 = PRODUCT_DEFINITION_FORMATION_WITH_SPECIFIED_SOURCE ( 'Symmetric', '', #95, .NOT_KNOWN. ) ;
#97 = SHAPE_REPRESENTATION ( 'baseshell_\X2\9ed88ba4\X0\', ( #10 ), #76 ) ;
#98 = PRODUCT_DEFINITION ( 'General', '', #70, #47 ) ;
#99 =( REPRESENTATION_RELATIONSHIP ('NONE','NONE', #85, #58 ) REPRESENTATION_RELATIONSHIP_WITH_TRANSFORMATION ( #2 )SHAPE_REPRESENTATION_RELATIONSHIP( ) );
#100 =( NAMED_UNIT ( * ) SI_UNIT ( $, .STERADIAN. ) SOLID_ANGLE_UNIT ( ) );
#101 = PROPERTY_DEFINITION_REPRESENTATION ( #16, #58 ) ;
#102 = PRODUCT ( 'baseshell_\X2\9ed88ba4\X0\', 'baseshell_\X2\9ed88ba4\X0\', '', ( #48 ) ) ;
#103 = CONTEXT_DEPENDENT_SHAPE_REPRESENTATION ( #99, #43 ) ;
#104 = PRODUCT ( 'main', 'main', '', ( #90 ) ) ;
#105 = IDENTIFICATION_ROLE ( 'external document id and location', $) ;
#106 = PRODUCT_DEFINITION_CONTEXT ( 'detailed design', #89, 'design' ) ;
#107 = NEXT_ASSEMBLY_USAGE_OCCURRENCE ( 'NAUO1', ' ', ' ', #44, #78, $ ) ;
#108 = NEXT_ASSEMBLY_USAGE_OCCURRENCE ( 'NAUO2', ' ', ' ', #44, #98, $ ) ;
ENDSEC;
END-ISO-10303-21;
