ISO-10303-21;
HEADER;
FILE_DESCRIPTION (( 'STEP AP214' ),
    '1' );
FILE_NAME ('MAIN.STEP',
    '2026-08-05T20:03:51',
    ( '' ),
    ( '' ),
    'SwSTEP 2.0',
    'SolidWorks 2023',
    '' );
FILE_SCHEMA (( 'AUTOMOTIVE_DESIGN' ));
ENDSEC;

DATA;
#1 = CARTESIAN_POINT ( 'NONE',  ( 0.000000000000000000, 0.000000000000000000, 0.000000000000000000 ) ) ;
#2 = PRODUCT ( 'MAIN', 'MAIN', '', ( #141 ) ) ;
#3 = SHAPE_REPRESENTATION ( 'MAIN', ( #114, #105, #13, #38 ), #99 ) ;
#4 = PROPERTY_DEFINITION_REPRESENTATION ( #44, #29 ) ;
#5 = PROPERTY_DEFINITION_REPRESENTATION ( #100, #22 ) ;
#6 = ITEM_DEFINED_TRANSFORMATION ( 'NONE', 'NONE', #105,  #125 ) ;
#7 = ROLE_ASSOCIATION ( #79, #131 ) ;
#8 = PRODUCT_DEFINITION ( 'General', '', #32, #108 ) ;
#9 = PRODUCT_DEFINITION_FORMATION_WITH_SPECIFIED_SOURCE ( 'Symmetric', '', #139, .NOT_KNOWN. ) ;
#10 = PRODUCT_DEFINITION_SHAPE ( 'NONE', 'NONE',  #116 ) ;
#11 = PRODUCT_RELATED_PRODUCT_CATEGORY ( 'part', '', ( #17 ) ) ;
#12 =( LENGTH_UNIT ( ) NAMED_UNIT ( * ) SI_UNIT ( .MILLI., .METRE. ) );
#13 = AXIS2_PLACEMENT_3D ( 'NONE', #1, #47, #143 ) ;
#14 = APPLICATION_PROTOCOL_DEFINITION ( 'draft international standard', 'automotive_design', 1998, #43 ) ;
#15 = CARTESIAN_POINT ( 'NONE',  ( -37.67499999999999716, 13.78969242770042669, 0.000000000000000000 ) ) ;
#16 = APPLICATION_CONTEXT ( 'automotive_design' ) ;
#17 = PRODUCT ( 'top_\X2\9ed88ba4\X0\', 'top_\X2\9ed88ba4\X0\', '', ( #87 ) ) ;
#18 =( NAMED_UNIT ( * ) PLANE_ANGLE_UNIT ( ) SI_UNIT ( $, .RADIAN. ) );
#19 = UNCERTAINTY_MEASURE_WITH_UNIT (LENGTH_MEASURE( 1.000000000000000082E-05 ), #58, 'distance_accuracy_value', 'NONE');
#20 = PROPERTY_DEFINITION ('external definition','', #109 ) ;
#21 =( LENGTH_UNIT ( ) NAMED_UNIT ( * ) SI_UNIT ( .MILLI., .METRE. ) );
#22 = SHAPE_REPRESENTATION ( 'bottom_\X2\9ed88ba4\X0\', ( #125 ), #111 ) ;
#23 =( NAMED_UNIT ( * ) SI_UNIT ( $, .STERADIAN. ) SOLID_ANGLE_UNIT ( ) );
#24 = DIRECTION ( 'NONE',  ( 0.000000000000000000, 0.000000000000000000, 1.000000000000000000 ) ) ;
#25 = APPLIED_EXTERNAL_IDENTIFICATION_ASSIGNMENT ( 'bottom_\X2\9ed88ba4\X0\.STEP' , #140, #56,( #85) ) ;
#26 = APPLICATION_PROTOCOL_DEFINITION ( 'draft international standard', 'automotive_design', 1998, #83 ) ;
#27 = UNCERTAINTY_MEASURE_WITH_UNIT (LENGTH_MEASURE( 1.000000000000000082E-05 ), #28, 'distance_accuracy_value', 'NONE');
#28 =( LENGTH_UNIT ( ) NAMED_UNIT ( * ) SI_UNIT ( .MILLI., .METRE. ) );
#29 = SHAPE_REPRESENTATION ( 'top_\X2\9ed88ba4\X0\', ( #57 ), #41 ) ;
#30 =( REPRESENTATION_RELATIONSHIP ('NONE','NONE', #3, #134 ) REPRESENTATION_RELATIONSHIP_WITH_TRANSFORMATION ( #50 )SHAPE_REPRESENTATION_RELATIONSHIP( ) );
#31 = PROPERTY_DEFINITION ('document property','', #98 ) ;
#32 = PRODUCT_DEFINITION_FORMATION_WITH_SPECIFIED_SOURCE ( 'Symmetric', '', #17, .NOT_KNOWN. ) ;
#33 = PRODUCT_RELATED_PRODUCT_CATEGORY ( 'part', '', ( #139 ) ) ;
#34 = APPLICATION_CONTEXT ( 'automotive_design' ) ;
#35 = DIRECTION ( 'NONE',  ( 1.000000000000000000, 0.000000000000000000, 0.000000000000000000 ) ) ;
#36 = DOCUMENT_TYPE ( 'geometry' ) ;
#37 = ROLE_ASSOCIATION ( #68, #123 ) ;
#38 = AXIS2_PLACEMENT_3D ( 'NONE', #15, #61, #54 ) ;
#39 = CONTEXT_DEPENDENT_SHAPE_REPRESENTATION ( #30, #118 ) ;
#40 = ITEM_DEFINED_TRANSFORMATION ( 'NONE', 'NONE', #13,  #57 ) ;
#41 =( GEOMETRIC_REPRESENTATION_CONTEXT ( 3 ) GLOBAL_UNCERTAINTY_ASSIGNED_CONTEXT ( ( #19 ) ) GLOBAL_UNIT_ASSIGNED_CONTEXT ( ( #58, #92, #46 ) ) REPRESENTATION_CONTEXT ( 'NONE', 'WORKASPACE' ) );
#42 = PRODUCT_RELATED_PRODUCT_CATEGORY ( 'part', '', ( #2 ) ) ;
#43 = APPLICATION_CONTEXT ( 'automotive_design' ) ;
#44 = PROPERTY_DEFINITION ('document property','', #109 ) ;
#45 = PRODUCT_DEFINITION ( 'General', '', #69, #96 ) ;
#46 =( NAMED_UNIT ( * ) SI_UNIT ( $, .STERADIAN. ) SOLID_ANGLE_UNIT ( ) );
#47 = DIRECTION ( 'NONE',  ( 0.000000000000000000, 0.000000000000000000, 1.000000000000000000 ) ) ;
#48 = CARTESIAN_POINT ( 'NONE',  ( 0.000000000000000000, 0.000000000000000000, 0.000000000000000000 ) ) ;
#49 = ROLE_ASSOCIATION ( #148, #75 ) ;
#50 = ITEM_DEFINED_TRANSFORMATION ( 'NONE', 'NONE', #38,  #127 ) ;
#51 = PRODUCT_DEFINITION_FORMATION_WITH_SPECIFIED_SOURCE ( 'Symmetric', '', #88, .NOT_KNOWN. ) ;
#52 = PROPERTY_DEFINITION_REPRESENTATION ( #145, #22 ) ;
#53 = DOCUMENT_TYPE ( 'geometry' ) ;
#54 = DIRECTION ( 'NONE',  ( 0.9997091662275326973, 0.000000000000000000, 0.02411603119610828891 ) ) ;
#55 = APPLICATION_PROTOCOL_DEFINITION ( 'draft international standard', 'automotive_design', 1998, #138 ) ;
#56 = EXTERNAL_SOURCE (IDENTIFIER('') ) ;
#57 = AXIS2_PLACEMENT_3D ( 'NONE', #48, #24, #35 ) ;
#58 =( LENGTH_UNIT ( ) NAMED_UNIT ( * ) SI_UNIT ( .MILLI., .METRE. ) );
#59 = PRODUCT_DEFINITION_CONTEXT ( 'detailed design', #60, 'design' ) ;
#60 = APPLICATION_CONTEXT ( 'automotive_design' ) ;
#61 = DIRECTION ( 'NONE',  ( -0.02411603119610828891, 0.000000000000000000, 0.9997091662275326973 ) ) ;
#62 = SHAPE_DEFINITION_REPRESENTATION ( #10, #22 ) ;
#63 =( NAMED_UNIT ( * ) SI_UNIT ( $, .STERADIAN. ) SOLID_ANGLE_UNIT ( ) );
#64 = CONTEXT_DEPENDENT_SHAPE_REPRESENTATION ( #72, #112 ) ;
#65 = DIRECTION ( 'NONE',  ( 0.000000000000000000, 0.000000000000000000, 1.000000000000000000 ) ) ;
#66 = APPLIED_EXTERNAL_IDENTIFICATION_ASSIGNMENT ( 'cap_\X2\9ed88ba4\X0\.STEP' , #78, #90,( #98) ) ;
#67 = PRODUCT_CONTEXT ( 'NONE', #83, 'mechanical' ) ;
#68 = OBJECT_ROLE ('mandatory',$ ) ;
#69 = PRODUCT_DEFINITION_FORMATION_WITH_SPECIFIED_SOURCE ( 'Symmetric', '', #2, .NOT_KNOWN. ) ;
#70 = CARTESIAN_POINT ( 'NONE',  ( 0.000000000000000000, 0.000000000000000000, 0.000000000000000000 ) ) ;
#71 = PRODUCT_DEFINITION_SHAPE ( 'NONE', 'NONE',  #45 ) ;
#72 =( REPRESENTATION_RELATIONSHIP ('NONE','NONE', #3, #22 ) REPRESENTATION_RELATIONSHIP_WITH_TRANSFORMATION ( #6 )SHAPE_REPRESENTATION_RELATIONSHIP( ) );
#73 = DIRECTION ( 'NONE',  ( 1.000000000000000000, 0.000000000000000000, 0.000000000000000000 ) ) ;
#74 = PRODUCT_CONTEXT ( 'NONE', #113, 'mechanical' ) ;
#75 = APPLIED_DOCUMENT_REFERENCE ( #98,'',( #142) ) ;
#76 = IDENTIFICATION_ROLE ( 'external document id and location', $) ;
#77 = PROPERTY_DEFINITION_REPRESENTATION ( #20, #29 ) ;
#78 = IDENTIFICATION_ROLE ( 'external document id and location', $) ;
#79 = OBJECT_ROLE ('mandatory',$ ) ;
#80 = PROPERTY_DEFINITION ('external definition','', #98 ) ;
#81 = DIRECTION ( 'NONE',  ( 1.000000000000000000, 0.000000000000000000, 0.000000000000000000 ) ) ;
#82 = CARTESIAN_POINT ( 'NONE',  ( 0.000000000000000000, -1.600000000000000089, 0.000000000000000000 ) ) ;
#83 = APPLICATION_CONTEXT ( 'automotive_design' ) ;
#84 = PRODUCT_DEFINITION_CONTEXT ( 'detailed design', #103, 'design' ) ;
#85 = DOCUMENT_FILE ( 'bottom_\X2\9ed88ba4\X0\.STEP' , '', '', #53, '' ,$ ) ;
#86 = SHAPE_DEFINITION_REPRESENTATION ( #91, #134 ) ;
#87 = PRODUCT_CONTEXT ( 'NONE', #138, 'mechanical' ) ;
#88 = PRODUCT ( 'bottom_\X2\9ed88ba4\X0\', 'bottom_\X2\9ed88ba4\X0\', '', ( #74 ) ) ;
#89 = CONTEXT_DEPENDENT_SHAPE_REPRESENTATION ( #144, #135 ) ;
#90 = EXTERNAL_SOURCE (IDENTIFIER('') ) ;
#91 = PRODUCT_DEFINITION_SHAPE ( 'NONE', 'NONE',  #142 ) ;
#92 =( NAMED_UNIT ( * ) PLANE_ANGLE_UNIT ( ) SI_UNIT ( $, .RADIAN. ) );
#93 = EXTERNAL_SOURCE (IDENTIFIER('') ) ;
#94 = APPLICATION_PROTOCOL_DEFINITION ( 'draft international standard', 'automotive_design', 1998, #34 ) ;
#95 = DIRECTION ( 'NONE',  ( 0.000000000000000000, 0.000000000000000000, 1.000000000000000000 ) ) ;
#96 = PRODUCT_DEFINITION_CONTEXT ( 'detailed design', #43, 'design' ) ;
#97 = PROPERTY_DEFINITION_REPRESENTATION ( #80, #134 ) ;
#98 = DOCUMENT_FILE ( 'cap_\X2\9ed88ba4\X0\.STEP' , '', '', #36, '' ,$ ) ;
#99 =( GEOMETRIC_REPRESENTATION_CONTEXT ( 3 ) GLOBAL_UNCERTAINTY_ASSIGNED_CONTEXT ( ( #27 ) ) GLOBAL_UNIT_ASSIGNED_CONTEXT ( ( #28, #18, #63 ) ) REPRESENTATION_CONTEXT ( 'NONE', 'WORKASPACE' ) );
#100 = PROPERTY_DEFINITION ('external definition','', #85 ) ;
#101 = PRODUCT_DEFINITION_SHAPE ( 'NONE', 'NONE',  #8 ) ;
#102 = APPLICATION_PROTOCOL_DEFINITION ( 'draft international standard', 'automotive_design', 1998, #16 ) ;
#103 = APPLICATION_CONTEXT ( 'automotive_design' ) ;
#104 = CARTESIAN_POINT ( 'NONE',  ( 0.000000000000000000, 0.000000000000000000, 0.000000000000000000 ) ) ;
#105 = AXIS2_PLACEMENT_3D ( 'NONE', #82, #128, #107 ) ;
#106 = CARTESIAN_POINT ( 'NONE',  ( 0.000000000000000000, 0.000000000000000000, 0.000000000000000000 ) ) ;
#107 = DIRECTION ( 'NONE',  ( 1.000000000000000000, 0.000000000000000000, 0.000000000000000000 ) ) ;
#108 = PRODUCT_DEFINITION_CONTEXT ( 'detailed design', #16, 'design' ) ;
#109 = DOCUMENT_FILE ( 'top_\X2\9ed88ba4\X0\.STEP' , '', '', #120, '' ,$ ) ;
#110 = PROPERTY_DEFINITION_REPRESENTATION ( #31, #134 ) ;
#111 =( GEOMETRIC_REPRESENTATION_CONTEXT ( 3 ) GLOBAL_UNCERTAINTY_ASSIGNED_CONTEXT ( ( #136 ) ) GLOBAL_UNIT_ASSIGNED_CONTEXT ( ( #21, #130, #23 ) ) REPRESENTATION_CONTEXT ( 'NONE', 'WORKASPACE' ) );
#112 = PRODUCT_DEFINITION_SHAPE ( 'NONE', 'NONE',  #149 ) ;
#113 = APPLICATION_CONTEXT ( 'automotive_design' ) ;
#114 = AXIS2_PLACEMENT_3D ( 'NONE', #70, #65, #147 ) ;
#115 = UNCERTAINTY_MEASURE_WITH_UNIT (LENGTH_MEASURE( 1.000000000000000082E-05 ), #12, 'distance_accuracy_value', 'NONE');
#116 = PRODUCT_DEFINITION ( 'General', '', #51, #59 ) ;
#117 = DIRECTION ( 'NONE',  ( 0.000000000000000000, 0.000000000000000000, 1.000000000000000000 ) ) ;
#118 = PRODUCT_DEFINITION_SHAPE ( 'NONE', 'NONE',  #151 ) ;
#119 =( GEOMETRIC_REPRESENTATION_CONTEXT ( 3 ) GLOBAL_UNCERTAINTY_ASSIGNED_CONTEXT ( ( #115 ) ) GLOBAL_UNIT_ASSIGNED_CONTEXT ( ( #12, #126, #121 ) ) REPRESENTATION_CONTEXT ( 'NONE', 'WORKASPACE' ) );
#120 = DOCUMENT_TYPE ( 'geometry' ) ;
#121 =( NAMED_UNIT ( * ) SI_UNIT ( $, .STERADIAN. ) SOLID_ANGLE_UNIT ( ) );
#122 = APPLICATION_PROTOCOL_DEFINITION ( 'draft international standard', 'automotive_design', 1998, #103 ) ;
#123 = APPLIED_DOCUMENT_REFERENCE ( #85,'',( #116) ) ;
#124 = SHAPE_DEFINITION_REPRESENTATION ( #71, #3 ) ;
#125 = AXIS2_PLACEMENT_3D ( 'NONE', #104, #95, #73 ) ;
#126 =( NAMED_UNIT ( * ) PLANE_ANGLE_UNIT ( ) SI_UNIT ( $, .RADIAN. ) );
#127 = AXIS2_PLACEMENT_3D ( 'NONE', #106, #117, #81 ) ;
#128 = DIRECTION ( 'NONE',  ( 0.000000000000000000, 0.000000000000000000, 1.000000000000000000 ) ) ;
#129 = PRODUCT_RELATED_PRODUCT_CATEGORY ( 'part', '', ( #88 ) ) ;
#130 =( NAMED_UNIT ( * ) PLANE_ANGLE_UNIT ( ) SI_UNIT ( $, .RADIAN. ) );
#131 = APPLIED_DOCUMENT_REFERENCE ( #109,'',( #8) ) ;
#132 = APPLICATION_PROTOCOL_DEFINITION ( 'draft international standard', 'automotive_design', 1998, #60 ) ;
#133 = SHAPE_DEFINITION_REPRESENTATION ( #101, #29 ) ;
#134 = SHAPE_REPRESENTATION ( 'cap_\X2\9ed88ba4\X0\', ( #127 ), #119 ) ;
#135 = PRODUCT_DEFINITION_SHAPE ( 'NONE', 'NONE',  #150 ) ;
#136 = UNCERTAINTY_MEASURE_WITH_UNIT (LENGTH_MEASURE( 1.000000000000000082E-05 ), #21, 'distance_accuracy_value', 'NONE');
#137 = APPLIED_EXTERNAL_IDENTIFICATION_ASSIGNMENT ( 'top_\X2\9ed88ba4\X0\.STEP' , #76, #93,( #109) ) ;
#138 = APPLICATION_CONTEXT ( 'automotive_design' ) ;
#139 = PRODUCT ( 'cap_\X2\9ed88ba4\X0\', 'cap_\X2\9ed88ba4\X0\', '', ( #67 ) ) ;
#140 = IDENTIFICATION_ROLE ( 'external document id and location', $) ;
#141 = PRODUCT_CONTEXT ( 'NONE', #34, 'mechanical' ) ;
#142 = PRODUCT_DEFINITION ( 'General', '', #9, #84 ) ;
#143 = DIRECTION ( 'NONE',  ( 1.000000000000000000, 0.000000000000000000, 0.000000000000000000 ) ) ;
#144 =( REPRESENTATION_RELATIONSHIP ('NONE','NONE', #3, #29 ) REPRESENTATION_RELATIONSHIP_WITH_TRANSFORMATION ( #40 )SHAPE_REPRESENTATION_RELATIONSHIP( ) );
#145 = PROPERTY_DEFINITION ('document property','', #85 ) ;
#146 = APPLICATION_PROTOCOL_DEFINITION ( 'draft international standard', 'automotive_design', 1998, #113 ) ;
#147 = DIRECTION ( 'NONE',  ( 1.000000000000000000, 0.000000000000000000, 0.000000000000000000 ) ) ;
#148 = OBJECT_ROLE ('mandatory',$ ) ;
#149 = NEXT_ASSEMBLY_USAGE_OCCURRENCE ( 'NAUO1', ' ', ' ', #45, #116, $ ) ;
#150 = NEXT_ASSEMBLY_USAGE_OCCURRENCE ( 'NAUO2', ' ', ' ', #45, #8, $ ) ;
#151 = NEXT_ASSEMBLY_USAGE_OCCURRENCE ( 'NAUO3', ' ', ' ', #45, #142, $ ) ;
ENDSEC;
END-ISO-10303-21;
