<?xml version="1.0" encoding="UTF-8" standalone="no"?>
<!-- Created with Inkscape (http://www.inkscape.org/) -->

<svg
   width="210mm"
   height="297mm"
   viewBox="0 0 210 297"
   version="1.1"
   id="svg1"
   xml:space="preserve"
   inkscape:version="1.4 (86a8ad7, 2024-10-11)"
   sodipodi:docname="mathy.svg"
   xmlns:inkscape="http://www.inkscape.org/namespaces/inkscape"
   xmlns:sodipodi="http://sodipodi.sourceforge.net/DTD/sodipodi-0.dtd"
   xmlns="http://www.w3.org/2000/svg"
   xmlns:svg="http://www.w3.org/2000/svg"><sodipodi:namedview
     id="namedview1"
     pagecolor="#ffffff"
     bordercolor="#000000"
     borderopacity="0.25"
     inkscape:showpageshadow="2"
     inkscape:pageopacity="0.0"
     inkscape:pagecheckerboard="0"
     inkscape:deskcolor="#d1d1d1"
     inkscape:document-units="mm"
     inkscape:zoom="1.0396254"
     inkscape:cx="397.25847"
     inkscape:cy="715.16143"
     inkscape:window-width="2560"
     inkscape:window-height="1369"
     inkscape:window-x="-8"
     inkscape:window-y="-8"
     inkscape:window-maximized="1"
     inkscape:current-layer="layer1" /><defs
     id="defs1" /><g
     inkscape:label="Layer 1"
     inkscape:groupmode="layer"
     id="layer1"><path
       style="fill:#000000"
       d="M 82.398005,328.228 C 50.113046,327.65993 17.64996,316.93315 -8.6186598,298.15336 -30.556102,282.46998 -47.53507,262.69696 -59.855172,238.48536 c -1.378255,-2.70856 -2.617777,-4.96434 -2.754494,-5.01285 -0.136717,-0.0485 -0.248576,-0.38067 -0.248576,-0.73814 0,-0.35748 -0.232013,-1.10474 -0.515585,-1.66059 -1.72386,-3.37904 -5.745858,-14.50891 -7.672336,-21.23126 -6.722229,-23.45687 -7.952368,-49.77617 -3.465897,-74.15417 5.317827,-28.89533 18.105756,-55.266646 37.731942,-77.810974 2.962912,-3.403455 13.458345,-14.143602 13.841268,-14.163993 0.09074,-0.0048 0.99842,-0.733858 2.017065,-1.620057 C 3.0146017,21.269212 33.5809,7.6006158 65.067797,3.6406207 c 12.895659,-1.6218411 28.37934,-1.6218411 41.275003,0 20.61411,2.5925641 41.12878,9.3889253 59.26666,19.6346183 40.09995,22.651581 68.81733,61.084013 78.93812,105.642761 2.82689,12.44593 4.00876,23.17159 4.00876,36.38021 0,21.35664 -3.57217,40.17565 -11.45576,60.35166 -0.80178,2.05195 -1.71412,4.23328 -2.02742,4.84739 -0.31329,0.61411 -0.61615,1.48417 -0.67301,1.93347 -0.0569,0.4493 -0.22609,0.89274 -0.37606,0.98542 -0.14998,0.0927 -1.21951,2.06813 -2.37674,4.38987 -7.93945,15.92886 -18.14363,30.09699 -30.77077,42.72413 -3.83349,3.8335 -11.34963,10.62346 -12.67775,11.45288 -0.27316,0.17059 -0.49666,0.46012 -0.49666,0.6434 0,0.18328 -0.16243,0.33323 -0.36096,0.33323 -0.19852,0 -1.24032,0.69091 -2.3151,1.53535 -2.85338,2.24185 -7.79481,5.69666 -11.87602,8.30313 -26.90675,17.18399 -58.36746,25.99968 -90.752085,25.42986 z m 15.216173,-1.01105 c 22.380762,-1.79569 41.720222,-7.1487 61.371202,-16.98708 8.35083,-4.18089 19.27569,-11.07892 25.65236,-16.19707 l 1.83036,-1.46911 -2.35953,-0.57667 c -1.29774,-0.31717 -2.39632,-0.58527 -2.44129,-0.59577 -0.045,-0.0105 -0.0155,-0.12635 0.0656,-0.25744 0.0825,-0.13355 0.99103,-0.0192 2.06614,0.26005 1.05535,0.27412 1.97338,0.50044 2.04006,0.50293 0.45629,0.0171 -2.37893,-2.41041 -3.55836,-3.04662 -0.8007,-0.43192 -1.45623,-0.94589 -1.45674,-1.14216 -6.8e-4,-0.26081 0.2573,-0.20451 0.95846,0.20918 0.52766,0.31133 0.98499,0.53145 1.01628,0.48916 0.0313,-0.0423 -10.41854,-12.42963 -23.22184,-27.52742 l -23.27875,-27.45052 -24.37035,0.004 -24.37035,0.004 0.859896,0.55069 c 0.472943,0.30288 0.859896,0.65806 0.859896,0.78929 0,0.35301 -0.116161,0.31239 -1.5875,-0.55515 l -1.346204,-0.79375 H 14.01362 c -49.715607,0 -72.358449,0.0858 -72.421326,0.27444 -0.06199,0.18596 -0.537884,0.17139 -1.476165,-0.0452 -0.761577,-0.1758 -1.467398,-0.23692 -1.568489,-0.13582 -0.240404,0.2404 3.226779,7.14591 6.196784,12.34199 18.02412,31.53355 46.8905144,56.71424 80.371291,70.10936 15.433039,6.17451 30.968422,9.79622 48.154165,11.226 6.001396,0.4993 18.231418,0.50821 24.344298,0.0178 z m 78.380182,-37.09813 c -0.98227,-0.22432 -1.78594,-0.51034 -1.78594,-0.63559 0,-0.33034 0.59885,-0.28261 2.52531,0.20131 0.93941,0.23597 1.70802,0.53362 1.70802,0.66145 0,0.2957 -0.26604,0.271 -2.44739,-0.22717 z m -7.80521,-1.86501 c -1.52487,-0.38106 -2.21198,-0.8504 -1.245,-0.8504 0.80078,0 3.82469,0.86218 3.82469,1.0905 0,0.3104 -0.60046,0.25451 -2.57969,-0.2401 z m -7.67292,-1.85208 c -0.9095,-0.22729 -1.65364,-0.51161 -1.65364,-0.63183 0,-0.30313 0.29228,-0.27878 2.39516,0.19951 1.01099,0.22995 1.83817,0.5276 1.83817,0.66146 0,0.32146 -0.58398,0.26958 -2.57969,-0.22914 z m 15.213,-1.3326 c -1.65197,-0.90265 -2.16931,-1.36989 -1.5168,-1.36989 0.36516,0 3.13165,1.57439 3.32977,1.89494 0.33305,0.53889 -0.0901,0.41635 -1.81297,-0.52505 z m -22.81977,-0.50694 c -1.7247,-0.44265 -1.88847,-0.51787 -1.64902,-0.75733 0.21759,-0.21758 4.16256,0.73118 4.16256,1.00109 0,0.29745 -0.65077,0.23434 -2.51354,-0.24376 z m -7.73906,-1.83063 c -0.90951,-0.21549 -1.65365,-0.50264 -1.65365,-0.6381 0,-0.13547 0.12436,-0.2463 0.27636,-0.2463 0.57302,0 3.83521,0.87619 4.07604,1.09478 0.36665,0.33278 -0.78533,0.24298 -2.69875,-0.21038 z m 23.82193,-1.55994 c -1.62313,-0.92002 -2.22869,-1.44113 -1.67468,-1.44113 0.40985,0 3.0855,1.54376 3.46207,1.9975 0.50577,0.60941 -0.0187,0.44617 -1.78739,-0.55637 z m -31.38495,-0.25246 c -1.33475,-0.36679 -1.68503,-0.56163 -1.44365,-0.80301 0.18135,-0.18134 3.69456,0.66697 4.0325,0.9737 0.36929,0.33518 -1.10068,0.23826 -2.58885,-0.17069 z m -7.14133,-1.73255 c -1.77925,-0.45932 -2.23412,-0.66365 -1.99958,-0.89819 0.16057,-0.16057 3.74736,0.65143 4.02698,0.91165 0.47141,0.43868 -0.29567,0.43359 -2.0274,-0.0135 z m 31.64711,-1.98374 c -1.63082,-0.92438 -2.22854,-1.44113 -1.66697,-1.44113 0.42194,0 3.70806,1.92576 3.70806,2.17303 0,0.35427 -0.33978,0.23243 -2.04109,-0.7319 z m -39.32003,0.14661 c -1.76293,-0.46971 -2.23234,-0.68092 -2.00849,-0.90372 0.21685,-0.21584 4.0521,0.82282 4.15271,1.12464 0.12599,0.37797 0.0894,0.3742 -2.14422,-0.22092 z m -7.69732,-1.81656 c -1.00668,-0.2389 -1.88397,-0.59529 -1.94954,-0.79199 -0.081,-0.24308 0.0391,-0.31309 0.37512,-0.21857 0.51044,0.1436 0.7714,0.21229 2.67714,0.70467 0.61846,0.15979 1.12447,0.405 1.12447,0.54491 0,0.30093 0.0878,0.31035 -2.22719,-0.23902 z m -7.4301,-1.78083 c -2.09342,-0.49856 -2.31013,-0.58773 -2.13135,-0.87699 0.0892,-0.1443 0.5028,-0.15201 1.00895,-0.0188 0.4718,0.12416 1.36384,0.35702 1.9823,0.51747 0.61846,0.16044 1.12448,0.40619 1.12448,0.5461 0,0.30607 0.008,0.30675 -1.98438,-0.16777 z m 47.55886,-0.52329 c -0.90951,-0.5155 -1.65365,-1.04945 -1.65365,-1.18654 0,-0.1371 0.0648,-0.24927 0.14401,-0.24927 0.31777,0 3.56016,1.97907 3.56016,2.17303 0,0.35454 -0.34002,0.23229 -2.05052,-0.73722 z m -55.543918,-1.39525 c -2.006812,-0.53689 -2.518243,-0.97064 -0.87848,-0.74506 1.707598,0.23492 3.174998,0.68856 3.174998,0.98152 0,0.32591 -0.31616,0.29336 -2.296518,-0.23646 z m -7.672917,-1.85208 c -0.899283,-0.24059 -1.722799,-0.52673 -1.830034,-0.63587 -0.264236,-0.26893 0.615247,-0.2478 1.745304,0.0419 0.509323,0.13059 1.253464,0.31079 1.653646,0.40044 0.400182,0.0897 0.727604,0.27981 0.727604,0.42256 0,0.33365 -0.307994,0.30293 -2.29652,-0.22907 z M 148.3454,269.2461 c -1.43989,-0.81931 -2.06308,-1.42186 -1.4706,-1.42186 0.25113,0 3.7857,2.11081 3.7857,2.26078 0,0.31238 -0.80344,0.0212 -2.3151,-0.83892 z m -63.96302,-1.06892 c -1.61126,-0.38792 -2.514609,-0.8821 -1.612462,-0.8821 0.732312,0 3.696953,0.80351 3.980483,1.07883 0.343374,0.33344 -0.434236,0.26884 -2.368021,-0.19673 z m -7.739062,-1.84978 c -0.909505,-0.2155 -1.653646,-0.50265 -1.653646,-0.63811 0,-0.13546 0.131642,-0.2463 0.292538,-0.2463 0.589314,0 3.551366,0.84199 3.795274,1.07884 0.349605,0.33949 -0.450442,0.27558 -2.434166,-0.19443 z m 64.822392,-1.05034 c -0.90979,-0.51768 -1.58603,-1.05148 -1.50276,-1.18622 0.1486,-0.24044 2.1841,0.77678 3.35572,1.677 1.06109,0.81529 -0.0964,0.5087 -1.85296,-0.49078 z m -72.6276,-0.81489 c -0.836745,-0.21952 -1.521355,-0.50536 -1.521355,-0.63519 0,-0.3194 0.112218,-0.30943 2.315105,0.20579 1.055026,0.24676 1.918229,0.54594 1.918229,0.66485 0,0.30839 -0.955134,0.22547 -2.711979,-0.23545 z m -7.672917,-1.85208 c -0.836745,-0.21952 -1.521354,-0.51925 -1.521354,-0.66606 0,-0.14762 0.266069,-0.19572 0.595312,-0.10761 0.327422,0.0876 1.279922,0.2956 2.116667,0.46216 0.836745,0.16657 1.521354,0.40642 1.521354,0.53301 0,0.32181 -0.930878,0.24578 -2.711979,-0.2215 z m 73.884897,-1.02342 c -0.80037,-0.49712 -1.56237,-0.94009 -1.69334,-0.98439 -0.13096,-0.0443 -0.1905,-0.22206 -0.13229,-0.39503 0.11874,-0.35285 3.67771,1.65554 3.67771,2.07541 0,0.38542 -0.28103,0.27982 -1.85208,-0.69599 z m -81.445629,-0.77915 c -1.444463,-0.35224 -1.830223,-0.5477 -1.578225,-0.7997 0.181342,-0.18134 3.694559,0.66697 4.032499,0.9737 0.350168,0.31783 -0.760165,0.23911 -2.454274,-0.174 z m -7.132479,-1.72384 c -1.918412,-0.44731 -2.391909,-0.6547 -2.118663,-0.92794 0.179762,-0.17976 3.692907,0.66561 4.02809,0.96929 0.461637,0.41824 0.02072,0.40869 -1.909427,-0.0413 z m 81.507568,-1.53903 c -1.56963,-0.9201 -2.01243,-1.36207 -1.36459,-1.36207 0.44828,0 3.40804,1.85489 3.40804,2.13582 0,0.37143 -0.25378,0.27533 -2.04345,-0.77375 z m -88.444044,-0.0792 c -0.509323,-0.14129 -1.387671,-0.37735 -1.951885,-0.52456 -0.590191,-0.154 -0.927021,-0.36649 -0.793144,-0.50037 0.305468,-0.30546 3.866671,0.59344 4.00591,1.01116 0.121651,0.36495 0.0094,0.36618 -1.260881,0.0138 z m -7.672917,-1.85208 c -0.509322,-0.1413 -1.376118,-0.37424 -1.926212,-0.51765 -1.374173,-0.35826 -0.996709,-0.77428 0.403326,-0.44453 2.718413,0.64027 3.117539,0.7766 2.970463,1.01457 -0.179974,0.2912 -0.213391,0.29 -1.447577,-0.0524 z m 89.504741,-1.95842 c -1.63082,-0.92438 -2.22855,-1.44112 -1.66697,-1.44112 0.42193,0 3.70806,1.92576 3.70806,2.17302 0,0.35427 -0.33978,0.23243 -2.04109,-0.7319 z m -97.177657,0.10634 c -0.509323,-0.1413 -1.376119,-0.37424 -1.926213,-0.51766 -0.550094,-0.14341 -0.937011,-0.36294 -0.859817,-0.48784 0.07719,-0.12491 0.765397,-0.0721 1.529338,0.11744 0.763941,0.18949 1.716406,0.41857 2.116588,0.50907 0.400182,0.0905 0.727604,0.28132 0.727604,0.42407 0,0.30907 -0.346335,0.29924 -1.5875,-0.0451 z m -8.532812,-2.01768 c -0.982266,-0.22165 -1.785938,-0.50418 -1.785938,-0.62785 0,-0.3274 0.603174,-0.27863 2.525312,0.20419 0.939412,0.23598 1.708021,0.53363 1.708021,0.66146 0,0.28707 -0.213189,0.26636 -2.447395,-0.2378 z m 3.29101,-1.31572 c -1.971197,-4.55004 -2.151868,-4.85511 -2.701214,-4.56111 -0.817051,0.43727 -0.630789,-0.15521 0.244797,-0.77868 0.808812,-0.57593 1.348219,-0.70277 1.348219,-0.31704 0,0.12658 0.521355,1.34697 1.158566,2.71198 l 1.158566,2.48183 2.985042,-6.15156 2.985042,-6.15156 h 3.683649 c 2.829109,0 3.658169,0.0767 3.573812,0.33072 -0.07842,0.23614 -1.073368,0.35195 -3.478563,0.40491 l -3.368727,0.0742 -3.202648,6.60655 c -1.761456,3.6336 -3.346518,6.60655 -3.522361,6.60655 -0.175843,0 -0.564724,-0.56555 -0.86418,-1.25677 z m 95.530859,-0.747 c -0.9095,-0.51551 -1.65364,-1.04946 -1.65364,-1.18655 0,-0.13709 0.0648,-0.24926 0.14401,-0.24926 0.31777,0 3.56015,1.97906 3.56015,2.17302 0,0.35454 -0.34001,0.2323 -2.05052,-0.73721 z M 7.8516524,249.88923 c -1.524866,-0.38107 -2.2119815,-0.8504 -1.2450009,-0.8504 0.8007848,0 3.8246885,0.86218 3.8246885,1.0905 0,0.3104 -0.6004537,0.25451 -2.5796876,-0.2401 z m 19.7572516,-0.56547 c -0.811831,-0.81183 -0.980769,-1.55923 -0.468281,-2.07171 0.209925,-0.20993 0.457562,-0.22353 0.79375,-0.0436 0.606687,0.32469 0.631296,0.93051 0.05099,1.25526 -0.384138,0.21498 -0.354079,0.29967 0.245858,0.69277 0.396691,0.25992 1.052188,0.41247 1.562123,0.36354 0.748859,-0.0719 0.925296,-0.22729 1.194654,-1.05248 0.222611,-0.68197 0.238742,-1.2481 0.05457,-1.91512 -0.288458,-1.0447 -0.876494,-1.48024 -2.006853,-1.48638 -0.578235,-0.003 -0.65616,-0.0615 -0.348123,-0.26053 0.218281,-0.14107 0.660576,-0.25831 0.982878,-0.26054 1.15531,-0.008 1.720232,-2.62466 0.724075,-3.35385 -0.918261,-0.67218 -2.62175,0.0528 -1.969823,0.83833 0.293256,0.35335 0.278634,0.49243 -0.09059,0.86166 -0.410668,0.41066 -0.470153,0.41043 -0.88409,-0.004 -0.641797,-0.6418 -0.08935,-1.70105 1.159273,-2.22276 0.793772,-0.33166 1.169105,-0.352 1.984853,-0.1076 1.88681,0.5653 2.270173,2.21223 0.846374,3.63603 -0.631554,0.63156 -0.641023,0.68338 -0.187677,1.02713 0.262588,0.19912 0.547618,0.36581 0.633401,0.37044 0.239713,0.0129 0.770073,1.29428 0.770073,1.8605 0,1.55922 -1.306895,2.64583 -3.182213,2.64583 -0.853976,0 -1.260306,-0.16848 -1.865222,-0.7734 z M 0.17873592,248.03714 c -0.90950519,-0.22728 -1.65364582,-0.5116 -1.65364582,-0.63182 0,-0.30313 0.2922856,-0.27878 2.39516561,0.19951 1.01099219,0.22994 1.83816769,0.5276 1.83816769,0.66146 0,0.32145 -0.583983,0.26958 -2.57968748,-0.22915 z m -7.60677072,-1.83953 c -1.7192939,-0.44127 -1.8881234,-0.51823 -1.6529062,-0.75344 0.2272015,-0.22721 4.1664478,0.69499 4.1664478,0.97538 0,0.31931 -0.6169499,0.26484 -2.5135416,-0.22194 z M 107.59957,245.71214 c -0.90951,-0.51551 -1.65365,-1.04946 -1.65365,-1.18655 0,-0.13709 0.0648,-0.24926 0.14401,-0.24926 0.31777,0 3.56016,1.97906 3.56016,2.17302 0,0.35454 -0.34002,0.2323 -2.05052,-0.73721 z m -122.766667,-1.35739 c -0.909505,-0.21389 -1.653646,-0.49762 -1.653646,-0.63053 0,-0.1329 0.124359,-0.24164 0.276353,-0.24164 0.573019,0 3.835211,0.87618 4.076043,1.09477 0.359069,0.32591 -0.758127,0.23376 -2.69875,-0.2226 z m -18.970625,-0.0527 c 0.138245,-0.1314 0.489479,-0.28092 0.780521,-0.33228 0.441096,-0.0778 0.690546,-0.70961 1.498806,-3.79599 1.157925,-4.4216 1.168173,-4.52682 0.458948,-4.71229 -0.30604,-0.08 -0.477362,-0.27223 -0.38126,-0.42773 0.267911,-0.43349 5.00912,-0.35687 6.099127,0.0986 2.420807,1.01148 2.675319,4.7098 0.499087,7.25224 -1.56593,1.82943 -2.490894,2.15639 -6.100418,2.15639 -1.857364,0 -3.005111,-0.096 -2.854811,-0.2389 z m 6.585813,-0.88993 c 1.408872,-0.79842 2.341483,-2.62976 2.484714,-4.87916 0.09472,-1.48757 0.03353,-1.77465 -0.499124,-2.34163 -0.517215,-0.55055 -0.850076,-0.64621 -2.248586,-0.64621 h -1.641505 l -0.440552,1.78594 c -0.242304,0.98226 -0.500953,1.98808 -0.574777,2.23514 -0.103915,0.34776 0.122732,0.51502 1.003698,0.74066 1.69308,0.43366 1.846743,0.50382 1.68316,0.76851 -0.08753,0.14162 -0.721585,0.0915 -1.52582,-0.12068 -0.756833,-0.19965 -1.393456,-0.33762 -1.414719,-0.3066 -0.02126,0.031 -0.221863,0.80054 -0.44578,1.71005 l -0.407121,1.65365 1.49181,-0.004 c 1.050033,-0.003 1.800617,-0.17935 2.534602,-0.59531 z m 107.039498,0.98278 c 0,-0.0803 0.355584,-0.27002 0.790187,-0.42152 0.594756,-0.20733 0.852913,-0.51475 1.04381,-1.24301 0.863377,-3.29369 1.605586,-6.40906 1.605586,-6.73932 0,-0.21132 -0.250105,-0.44962 -0.555788,-0.52956 -0.920361,-0.24068 -0.288183,-0.71012 0.956289,-0.71012 1.33872,0 1.160077,-0.46737 1.870949,4.89479 0.231504,1.74625 0.443221,3.19785 0.470483,3.22579 0.02726,0.0279 1.19051,-1.75801 2.584994,-3.96875 l 2.535426,-4.01954 1.25545,-0.0817 c 0.942208,-0.0614 1.226976,0.005 1.141328,0.26458 -0.06277,0.19048 -0.370241,0.38406 -0.683275,0.43017 -0.613673,0.0904 -0.568088,-0.0336 -1.76855,4.81096 -0.378624,1.52797 -0.750371,2.98648 -0.826103,3.24114 -0.09902,0.33299 0.01154,0.46303 0.393686,0.46303 0.292259,0 0.604966,0.11906 0.694902,0.26458 0.103648,0.1677 -0.588155,0.26458 -1.889385,0.26458 -1.230674,0 -1.952234,-0.0957 -1.801552,-0.2389 0.138245,-0.1314 0.489479,-0.28107 0.780521,-0.33261 0.443364,-0.0785 0.688039,-0.7139 1.508975,-3.91861 0.538894,-2.10371 0.955613,-3.84856 0.926041,-3.87745 -0.02957,-0.0289 -1.24413,1.84198 -2.699018,4.15751 -1.454889,2.31554 -2.722072,4.21006 -2.815963,4.21006 -0.295976,0 -0.407092,-0.56149 -0.908828,-4.59244 -0.308453,-2.47812 -0.564159,-3.74937 -0.691858,-3.43959 -0.447104,1.08463 -1.805983,7.0172 -1.661037,7.25173 0.08536,0.13813 0.326776,0.25114 0.536469,0.25114 0.209694,0 0.381261,0.11906 0.381261,0.26458 0,0.14699 -0.705556,0.26458 -1.5875,0.26458 -0.873125,0 -1.5875,-0.0657 -1.5875,-0.14605 z m -102.229548,-1.8433 c -1.269854,-0.34873 -2.219495,-0.92106 -1.528264,-0.92106 0.613152,0 3.875925,0.86511 4.128959,1.09477 0.370367,0.33616 -1.102211,0.2378 -2.600695,-0.17371 z M 100.7204,241.74339 c -1.404628,-0.79615 -2.073503,-1.43581 -1.50137,-1.43581 0.232397,0 3.81647,2.12297 3.81647,2.26063 0,0.31724 -0.80813,0.0293 -2.3151,-0.82482 z m -138.264764,-2.77345 c -1.757815,-0.45378 -2.234581,-0.66456 -2.008497,-0.88796 0.153886,-0.15205 3.764955,0.65798 4.035901,0.90534 0.476346,0.43486 -0.301408,0.4282 -2.027404,-0.0174 z m 131.516226,-1.10609 c -0.983181,-0.57255 -1.721028,-1.14872 -1.63966,-1.28038 0.08137,-0.13165 0.716301,0.0869 1.410962,0.4856 1.979834,1.13642 2.52971,1.54891 2.263237,1.6978 -0.135816,0.0759 -1.051358,-0.33047 -2.034539,-0.90302 z m -139.219329,-0.71371 c -1.009855,-0.24795 -1.88298,-0.59147 -1.940278,-0.76336 -0.0573,-0.17189 -0.06449,-0.30753 -0.01598,-0.30142 1.120541,0.14115 4.055306,1.04231 4.130661,1.26837 0.121864,0.36559 0.157174,0.3689 -2.1744,-0.20359 z m -7.424317,-1.76263 c -2.09342,-0.49856 -2.310131,-0.58773 -2.131357,-0.87699 0.08918,-0.1443 0.502803,-0.15201 1.008957,-0.0188 0.471799,0.12416 1.363832,0.35702 1.982296,0.51746 0.618463,0.16045 1.124479,0.4062 1.124479,0.54611 0,0.30606 0.0081,0.30675 -1.984375,-0.16777 z M 189.1375,289.90105 c 0.98766,-1.36891 1.71308,-1.91197 1.37413,-1.02869 -0.2347,0.61162 0.16177,0.31455 3.40825,-2.55376 3.67265,-3.24485 11.17637,-10.8506 14.46126,-14.6579 7.02642,-8.14386 13.12061,-16.7308 18.40204,-25.92916 2.67893,-4.66574 5.56999,-10.41807 4.99702,-9.94255 -0.80383,0.66712 -0.75744,0.0543 0.0755,-0.99739 0.4541,-0.57335 0.82565,-1.11463 0.82565,-1.20282 0,-0.0882 -21.26258,-0.16037 -47.25018,-0.16037 -25.98759,0 -47.21048,0.0947 -47.16198,0.21056 0.0485,0.1158 11.09426,13.19564 24.54611,29.06629 16.7823,19.79997 24.5875,28.82112 24.87083,28.74542 0.22711,-0.0607 0.88023,-0.75802 1.45138,-1.54963 z m 3.59175,-4.35645 c 0,-0.47186 2.48506,-3.51831 2.59672,-3.18334 0.0546,0.16389 -0.40554,0.95238 -1.02259,1.75219 -1.21476,1.57456 -1.57413,1.90128 -1.57413,1.43115 z m 4.76447,-6.27713 c 0.003,-0.3363 2.40607,-3.24114 2.68092,-3.24114 0.32306,0 0.14204,0.308 -1.20513,2.05052 -0.9944,1.28621 -1.48062,1.67849 -1.47579,1.19062 z m 4.76053,-6.02792 c 0,-0.27364 1.72051,-2.56838 2.35871,-3.14594 0.9414,-0.85196 0.60868,-0.0542 -0.66188,1.58699 -1.14159,1.4746 -1.69683,1.98473 -1.69683,1.55895 z m 4.92626,-6.53978 c 0.10725,-0.18191 0.67826,-0.95581 1.26891,-1.7198 0.99439,-1.28621 1.48062,-1.67848 1.47578,-1.19062 -0.003,0.33631 -2.40607,3.24114 -2.68091,3.24114 -0.14232,0 -0.17102,-0.14882 -0.0638,-0.33072 z m 4.86529,-6.08542 c 0.003,-0.49211 2.4688,-3.50177 2.58455,-3.15451 0.0897,0.26899 -2.18941,3.48524 -2.46969,3.48524 -0.0643,0 -0.11594,-0.14883 -0.11486,-0.33073 z m 4.7607,-6.19566 c 3.2e-4,-0.42401 2.47719,-3.37175 2.57829,-3.06845 0.0561,0.16837 -0.39497,0.93758 -1.00244,1.70934 -1.08118,1.3736 -1.57618,1.80051 -1.57585,1.35911 z m 4.86846,-6.33312 c 0.29881,-0.77868 2.1381,-2.9928 2.49563,-3.00422 0.24192,-0.008 0.17807,0.21741 -0.20314,0.71633 -0.30577,0.40019 -0.88125,1.17155 -1.27884,1.71415 -0.74137,1.01174 -1.30391,1.33015 -1.01365,0.57374 z m 4.65638,-6.05784 c 0,-0.26511 2.47282,-3.30765 2.68829,-3.30765 0.39046,0 0.24785,0.27135 -0.98397,1.87218 -1.03863,1.34978 -1.70432,1.91046 -1.70432,1.43547 z M -23.435326,201.943 c 0,-17.72804 -0.0983,-30.1625 -0.238449,-30.1625 -0.131147,0 -0.505333,0.44648 -0.831525,0.99219 -0.337134,0.56401 -0.643965,0.8477 -0.710998,0.65738 -0.06486,-0.18414 0.114366,-0.70167 0.398273,-1.15007 0.510921,-0.80694 0.510961,-0.82611 0.0039,-1.87559 -0.494692,-1.0239 -0.495714,-1.07226 -0.02977,-1.40811 0.265386,-0.19129 0.69164,-0.5063 0.94723,-0.70003 0.441138,-0.33436 0.461269,-3.34184 0.396875,-59.29128 l -0.06783,-58.93904 -10.898386,52.31809 c -5.994112,28.77495 -10.869375,52.3471 -10.833918,52.38256 0.03546,0.0354 1.819768,0.47039 3.965135,0.96652 2.145367,0.49613 3.96728,0.96867 4.048696,1.05009 0.08142,0.0814 -0.229163,1.97106 -0.690177,4.19922 -0.461015,2.22816 -0.860477,4.22156 -0.887696,4.42978 -0.03183,0.24351 0.368384,0.48234 1.121733,0.66939 0.644171,0.15994 1.216459,0.42652 1.271751,0.59239 0.07239,0.21718 -0.292471,0.20406 -1.303512,-0.0469 -0.772223,-0.19166 -1.731464,-0.42251 -2.131646,-0.51301 -0.400183,-0.0905 -0.727604,-0.29521 -0.727604,-0.45493 0,-0.16034 0.237489,-0.22829 0.53027,-0.15173 0.388262,0.10153 0.565385,-0.0142 0.661394,-0.43216 1.084901,-4.72299 1.626023,-7.8973 1.361549,-7.98707 -0.604812,-0.20528 -7.40792,-1.70727 -7.447426,-1.64424 -0.02229,0.0356 -0.365811,1.67199 -0.763388,3.63652 -0.397578,1.96453 -0.785799,3.82919 -0.862714,4.1437 -0.125452,0.51297 0.01907,0.60449 1.404298,0.88927 1.74811,0.35939 2.005445,0.46956 1.815329,0.77718 -0.07388,0.11953 -0.85387,0.0361 -1.733322,-0.18546 -0.879451,-0.22154 -1.635376,-0.35733 -1.679833,-0.30176 -0.04446,0.0556 -3.086012,14.56712 -6.759011,32.2479 -3.673,17.68078 -6.74135,32.41611 -6.818556,32.74518 -0.110286,0.47006 -0.049,0.56324 0.285935,0.43471 0.555668,-0.21323 0.538759,0.0456 -0.05948,0.91052 -0.267181,0.38626 -0.571864,0.85113 -0.677073,1.03303 -0.152285,0.26329 3.696202,0.33073 18.874325,0.33073 h 19.065615 z m -35.189583,24.6246 c 0,-0.504 1.997684,-3.45222 2.341087,-3.45502 0.256876,-0.002 0.199867,0.23775 -0.203694,0.85698 -0.308224,0.47294 -0.81809,1.30638 -1.133037,1.85208 -0.543232,0.94125 -1.004356,1.28374 -1.004356,0.74596 z m 4.235847,-6.68347 c 0.004,-0.55173 2.18237,-3.82069 2.306562,-3.46134 0.0617,0.17853 -0.33389,1.04728 -0.879084,1.93056 -1.04185,1.68794 -1.431652,2.10595 -1.427478,1.53078 z m 4.280842,-7.15936 c 0.206505,-0.32742 0.726214,-1.16065 1.154908,-1.85161 0.702493,-1.13227 1.17632,-1.56602 1.17632,-1.07682 0,0.47203 -2.028211,3.51506 -2.345534,3.51912 -0.300829,0.004 -0.298439,-0.0948 0.01431,-0.59069 z m 3.918728,-6.15805 c 0,-0.32504 2.18572,-3.56539 2.404967,-3.56539 0.380141,0 0.307342,0.1723 -0.841185,1.99086 -0.921696,1.4594 -1.563782,2.1059 -1.563782,1.57453 z m 4.233333,-6.65623 c 0,-0.32391 1.978954,-3.51437 2.182812,-3.51912 0.392994,-0.009 0.181499,0.55452 -0.792998,2.11348 -0.886282,1.41784 -1.389814,1.92711 -1.389814,1.40564 z m 4.233333,-6.70939 c 0,-0.43509 1.880923,-3.42894 2.154274,-3.42894 0.369659,0 0.275132,0.24839 -0.71455,1.87758 -0.961275,1.58243 -1.439724,2.09797 -1.439724,1.55136 z m 4.047054,-6.69095 c 0.300268,-0.78248 2.071942,-3.35257 2.311076,-3.35257 0.141049,0 0.256453,0.0527 0.256453,0.11701 0,0.3314 -2.213774,3.58716 -2.43911,3.58716 -0.144836,0 -0.202624,-0.15822 -0.128419,-0.3516 z m 4.155029,-6.49667 c 0,-0.50383 2.17425,-3.73071 2.413922,-3.58258 0.132299,0.0818 0.156075,0.28926 0.05284,0.46111 -1.554338,2.58725 -2.466757,3.74184 -2.466757,3.12147 z m -8.73125,-6.36332 c 0,-0.13586 0.327422,-0.28469 0.727605,-0.33073 0.70083,-0.0806 0.763283,-0.22003 1.697243,-3.78789 1.157937,-4.42349 1.168148,-4.52837 0.458948,-4.71383 -1.078866,-0.28213 -0.185761,-0.71013 1.481829,-0.71013 1.790887,0 2.553874,0.4285 1.233281,0.69262 -0.711557,0.14231 -0.826212,0.31666 -1.20816,1.8372 -0.232098,0.92399 -0.421996,1.7448 -0.421996,1.82404 0,0.0792 0.922735,0.13341 2.050521,0.1204 l 2.050521,-0.0237 -1.279168,-0.35152 c -0.703543,-0.19333 -1.348465,-0.42081 -1.43316,-0.5055 -0.363799,-0.3638 0.222067,-0.42034 1.367363,-0.13195 0.678119,0.17076 1.295442,0.24796 1.371828,0.17158 0.07639,-0.0764 0.297423,-0.73988 0.491192,-1.47442 0.340806,-1.29194 0.333783,-1.33817 -0.215166,-1.41643 -1.242962,-0.1772 -0.331476,-0.61007 1.284611,-0.61007 1.686583,0 2.350143,0.38774 1.148876,0.67132 -0.594398,0.14032 -1.162583,1.44944 -1.373732,3.16514 -0.04477,0.3638 -0.156273,0.84005 -0.24778,1.05833 -0.224884,0.53645 -0.982572,3.5753 -0.982572,3.9408 0,0.1609 0.238125,0.29254 0.529166,0.29254 0.291042,0 0.529167,0.11906 0.529167,0.26458 0,0.15305 -0.843052,0.26458 -1.99999,0.26458 -1.265952,0 -1.939974,-0.0971 -1.836468,-0.26458 0.08994,-0.14552 0.439424,-0.26458 0.776638,-0.26458 0.545709,0 0.671557,-0.23271 1.144683,-2.11667 l 0.531568,-2.11667 h -2.054174 -2.054174 l -0.429042,1.70803 c -0.555173,2.21015 -0.542678,2.52531 0.100126,2.52531 0.291041,0 0.529166,0.11906 0.529166,0.26458 0,0.15287 -0.837847,0.26458 -1.984375,0.26458 -1.091406,0 -1.984375,-0.11115 -1.984375,-0.247 z m 121.827394,58.23563 c -0.474538,-0.41478 -92.1241227,-53.22613 -92.3575613,-53.2193 -0.128356,0.004 -0.637225,0.60212 -1.13082,1.32971 -2.2052237,3.25065 -6.7617697,5.84798 -11.3395337,6.46377 l -1.389062,0.18685 v 22.72934 22.72934 H 30.59259 c 29.278791,0 53.121056,-0.0989 52.982811,-0.21971 z m -99.992908,-34.278 c -1.429697,-1.4297 -1.581947,-5.37286 -0.283226,-7.33536 0.780017,-1.17868 2.227679,-1.94906 3.140557,-1.67126 1.327578,0.404 1.998374,1.71763 1.060815,2.0774 -0.667907,0.2563 -1.068989,-0.28132 -0.677519,-0.90817 0.284024,-0.45479 0.242787,-0.53793 -0.339282,-0.68402 -1.245422,-0.31258 -2.775414,1.37685 -2.775414,3.06464 0,0.52305 0.02588,0.5268 0.679505,0.0985 0.532422,-0.34886 0.888438,-0.39313 1.644747,-0.20454 2.239902,0.55854 2.932225,3.85375 1.14515,5.4505 -1.098837,0.98181 -2.676529,1.03108 -3.595333,0.11228 z m 2.889053,-0.48616 c 0.252779,-0.3609 0.411878,-1.15577 0.411878,-2.0578 0,-1.70074 -0.518411,-2.64583 -1.451313,-2.64583 -0.753705,0 -1.398192,0.59122 -1.623633,1.48945 -0.226613,0.9029 0.02772,2.92169 0.428992,3.40519 0.500488,0.60305 1.752892,0.49597 2.234076,-0.19101 z m 4.289367,0.81737 c -0.852242,-0.49539 -1.484107,-2.31823 -1.490429,-4.29968 -0.01077,-3.3769 0.9499087,-5.04575 2.9046062,-5.04575 1.9546976,0 2.9153792,1.66885 2.9046059,5.04575 -0.00647,2.02889 -0.6530836,3.83795 -1.5418017,4.31358 -0.6778935,0.3628 -2.1415278,0.35547 -2.7769814,-0.0139 z m 2.3522454,-0.61418 c 0.6142133,-0.61422 0.6494318,-0.81442 0.6494318,-3.69172 0,-3.1815 -0.263699,-4.27019 -1.0984857,-4.53514 -1.5655618,-0.49689 -2.0765142,0.61904 -2.0765142,4.53514 0,2.8773 0.035218,3.0775 0.6494318,3.69172 0.3571875,0.35718 0.7793181,0.64943 0.9380681,0.64943 0.15875,0 0.5808807,-0.29225 0.9380682,-0.64943 z m 3.605969,-5.78377 c -1.0663733,-1.1351 -0.4925897,-2.86969 1.0716995,-3.23982 0.5811066,-0.1375 0.8814361,-0.0101 1.54836576,0.65683 0.66692962,0.66693 0.79433301,0.96726 0.65683527,1.54837 -0.3752896,1.58608 -2.21356663,2.16649 -3.27690053,1.03462 z m 2.51031229,-0.6938 c 0.36061601,-0.72713 0.10728293,-1.43446 -0.66102299,-1.84565 -0.701409,-0.37538 -1.7451978,0.23276 -1.8436285,1.07416 -0.1736227,1.48414 1.8431328,2.10535 2.50465149,0.77149 z M 134.75176,231.6513 c -1.94331,-2.43068 -24.1922,-28.56526 -24.44308,-28.71198 -0.18274,-0.10687 -1.07264,-0.36703 -1.97754,-0.57813 -0.90491,-0.2111 -1.71255,-0.45108 -1.79477,-0.5333 -0.38821,-0.38821 0.2828,-0.4098 1.64895,-0.053 1.46172,0.38171 1.49301,0.37872 1.1529,-0.11035 -0.19227,-0.27648 -6.24318,-7.46497 -13.446465,-15.97441 -11.71186,-13.83555 -13.178612,-15.47305 -13.869791,-15.48439 -1.11428,-0.0183 -1.740625,-0.6987 -1.740625,-1.89085 0,-0.94831 -2.66409,-4.14771 -49.371236,-59.2918 C 3.7559238,76.963861 -18.764616,50.43597 -19.13554,50.072168 l -0.674408,-0.661458 0.546925,0.926041 c 0.300809,0.509323 1.370009,2.354792 2.376002,4.101042 1.005992,1.74625 3.443389,5.972969 5.416437,9.392708 20.8929254,36.212169 25.911616,44.856229 26.075924,44.912509 0.105394,0.0361 0.529979,-0.46992 0.943524,-1.12448 0.413545,-0.65456 0.860029,-1.19011 0.992188,-1.19011 0.393651,0 0.273279,0.32384 -0.671392,1.8063 l -0.898135,1.40943 2.319819,4.01453 c 1.275901,2.20799 11.698978,20.26656 23.162394,40.13015 11.463416,19.86359 20.949077,36.24937 21.079246,36.41283 0.130169,0.16346 0.948987,0.43735 1.819596,0.60863 0.870609,0.17128 1.582926,0.43937 1.582926,0.59576 0,0.27438 -0.544074,0.22558 -2.245125,-0.20136 -0.698051,-0.1752 -0.708762,-0.16118 -0.361597,0.47324 0.19677,0.35958 5.529577,9.60288 11.850682,20.54067 l 11.492918,19.8869 h 24.721246 c 23.32571,0 24.70075,-0.0256 24.35813,-0.4542 z m -34.42823,-31.21829 c -0.836749,-0.21952 -1.521358,-0.50536 -1.521358,-0.6352 0,-0.30554 -0.02089,-0.30732 2.127668,0.18136 1.00938,0.22958 1.90312,0.52723 1.98607,0.66145 0.21162,0.34241 -0.80679,0.26085 -2.59238,-0.20761 z m -7.672921,-1.85208 c -0.836745,-0.21953 -1.521354,-0.50537 -1.521354,-0.6352 0,-0.3194 0.112218,-0.30943 2.315104,0.20579 1.055026,0.24676 1.918229,0.54594 1.918229,0.66485 0,0.30839 -0.955133,0.22547 -2.711979,-0.23544 z m -7.474479,-1.8604 c -1.724699,-0.44266 -1.888477,-0.51788 -1.649022,-0.75733 0.217586,-0.21759 4.162564,0.73118 4.162564,1.00109 0,0.29745 -0.650776,0.23434 -2.513542,-0.24376 z m -7.540625,-1.83162 c -1.514752,-0.40743 -2.320982,-0.88341 -1.496355,-0.88341 0.841105,0 3.877605,0.85395 3.877605,1.0905 0,0.31501 -0.650533,0.25844 -2.38125,-0.20709 z m -7.535009,-1.83911 c -1.607835,-0.38872 -2.52423,-0.89639 -1.618078,-0.89639 0.732312,0 3.696953,0.80351 3.980483,1.07884 0.349849,0.33972 -0.461856,0.27704 -2.362405,-0.18245 z M 18.36884,103.33758 c 0,-0.32391 1.978954,-3.514376 2.182812,-3.519124 0.399264,-0.0093 0.176988,0.611824 -0.765211,2.138314 -0.850062,1.37721 -1.417601,1.93002 -1.417601,1.38081 z m 210.67447,128.58119 c -0.62489,-0.12036 -0.83561,-0.60702 -0.26283,-0.60702 0.18286,0 0.74052,0.11702 1.23925,0.26005 0.49872,0.14304 0.94915,0.21768 1.00095,0.16587 0.0908,-0.0908 -204.801223,-150.513217 -205.186418,-150.638611 -0.181932,-0.05922 -3.232089,4.421136 -3.232089,4.7476 0,0.08756 0.625078,0.606054 1.389062,1.152205 0.763985,0.546151 1.763148,1.27601 2.220362,1.62191 l 0.8313,0.62891 0.819901,-1.332509 c 0.450945,-0.732879 0.940063,-1.332508 1.086929,-1.332508 0.409048,0 0.347742,0.149754 -0.815022,1.99086 -1.042698,1.650995 -1.563782,2.103969 -1.563782,1.359382 0,-0.194659 -1.068242,-1.117393 -2.37387,-2.050521 -1.305629,-0.933128 -2.377192,-1.788548 -2.38125,-1.900933 -0.0041,-0.112385 0.764505,-1.35861 1.70792,-2.769388 0.943414,-1.410778 1.628024,-2.645707 1.521354,-2.744288 -0.292658,-0.270464 -42.996228,-31.577219 -43.449957,-31.853945 -0.216432,-0.132 0.617006,0.945636 1.852083,2.394747 1.235078,1.44911 10.442193,12.308285 20.4602564,24.131499 10.0180636,11.823214 18.2929066,21.494673 18.3885416,21.492131 0.09563,-0.0025 0.633392,-0.776449 1.195016,-1.719792 0.892251,-1.498685 1.492406,-2.115866 1.492406,-1.534746 0,0.356953 -1.990669,3.505501 -2.263397,3.57991 -0.153462,0.04187 12.943413,15.695447 29.104166,34.785717 25.028146,29.5651 29.486686,34.71211 30.081481,34.72656 1.136485,0.0276 1.94453,0.87128 1.96717,2.05388 0.01849,0.9661 1.469941,2.73771 25.110077,30.64891 13.79974,16.29296 25.73699,30.36769 26.52722,31.2772 l 1.43678,1.65365 46.34585,-0.036 c 25.49022,-0.0198 46.07797,-0.0876 45.75054,-0.15069 z m -6.61458,-1.60871 c -0.9095,-0.22728 -1.65364,-0.5116 -1.65364,-0.63182 0,-0.30313 0.29228,-0.27879 2.39516,0.1995 1.01099,0.22995 1.83817,0.52761 1.83817,0.66146 0,0.32146 -0.58398,0.26959 -2.57969,-0.22914 z m -7.67291,-1.85208 c -1.52487,-0.38107 -2.21199,-0.8504 -1.24501,-0.8504 0.80079,0 3.82469,0.86218 3.82469,1.0905 0,0.3104 -0.60045,0.25451 -2.57968,-0.2401 z m -7.38975,-1.86818 c -1.6599,-0.44407 -2.3953,-0.8343 -1.57227,-0.8343 0.83438,0 3.86879,0.85531 3.86879,1.0905 0,0.30525 -0.33946,0.26739 -2.29652,-0.2562 z m -7.49307,-1.7941 c -2.03357,-0.53459 -2.16924,-0.59316 -2.00174,-0.86419 0.17264,-0.27934 3.78436,0.59035 4.20705,1.01304 0.38432,0.38433 -0.37105,0.33334 -2.20531,-0.14885 z m -7.54062,-1.84361 c -2.08514,-0.49659 -2.30993,-0.58806 -2.13615,-0.86925 0.17725,-0.28678 4.38511,0.72994 4.38511,1.05955 0,0.29735 -0.31232,0.27092 -2.24896,-0.1903 z m -7.78606,-1.92724 c -0.93536,-0.24537 -1.74577,-0.5815 -1.80092,-0.74695 -0.072,-0.21601 0.29559,-0.20258 1.30377,0.0477 0.77222,0.19165 1.73146,0.42251 2.13165,0.513 0.40018,0.0905 0.7276,0.28132 0.7276,0.42407 0,0.33376 -0.29769,0.3038 -2.3621,-0.23777 z m -7.42748,-1.7854 c -2.03709,-0.53551 -2.16936,-0.59298 -1.99907,-0.86852 0.0892,-0.14429 0.5028,-0.152 1.00896,-0.0188 0.4718,0.12416 1.36383,0.35701 1.98229,0.51746 0.61847,0.16045 1.12448,0.40619 1.12448,0.5461 0,0.32279 -0.3196,0.29618 -2.11666,-0.17624 z m -7.78923,-1.93306 c -1.00985,-0.24795 -1.88714,-0.60396 -1.94953,-0.79113 -0.0748,-0.22451 0.0548,-0.29298 0.38089,-0.20123 0.51044,0.1436 0.7714,0.21228 2.67714,0.70467 0.61846,0.15979 1.12448,0.405 1.12448,0.54491 0,0.30185 0.0828,0.31139 -2.23298,-0.25722 z m -7.64273,-1.8694 c -1.87776,-0.50031 -2.2135,-0.65708 -1.84971,-0.86372 0.377,-0.21413 3.87189,0.7168 3.98664,1.06191 0.13391,0.40277 0.11047,0.40059 -2.13693,-0.19819 z m -6.79304,-1.62779 c -0.50933,-0.14129 -1.38767,-0.37735 -1.95189,-0.52456 -0.61403,-0.16021 -0.92947,-0.36403 -0.78578,-0.50772 0.14369,-0.14369 0.60861,-0.14276 1.15813,0.002 0.50494,0.13331 1.42769,0.37462 2.05054,0.53625 0.62286,0.16163 1.06231,0.40737 0.97657,0.5461 -0.17997,0.29121 -0.21339,0.29 -1.44757,-0.0524 z m -8.28821,-2.09134 c -1.78171,-0.45996 -2.23418,-0.66358 -1.99841,-0.89936 0.1287,-0.12869 3.89895,0.78822 4.11036,0.99963 0.35684,0.35684 -0.49859,0.31623 -2.11195,-0.10027 z m -7.67291,-1.85208 c -1.82738,-0.47175 -2.23544,-0.66233 -1.97524,-0.92254 0.17056,-0.17055 3.683,0.6577 4.00264,0.94384 0.48152,0.43105 -0.30727,0.42276 -2.0274,-0.0213 z m -8.05784,-1.95608 c -1.42369,-0.34473 -1.8465,-0.56236 -1.59031,-0.81854 0.18134,-0.18135 3.69456,0.66697 4.0325,0.9737 0.35324,0.32061 -0.77278,0.24907 -2.44219,-0.15516 z m -7.1992,-1.79283 c -2.03951,-0.52328 -2.30622,-0.63561 -2.07003,-0.87179 0.18666,-0.18667 3.72472,0.64234 4.03409,0.94524 0.46188,0.45221 0.0204,0.4357 -1.96406,-0.0735 z m -7.74174,-1.86322 c -1.12778,-0.28482 -2.05052,-0.62358 -2.05052,-0.75279 0,-0.12922 0.12436,-0.23495 0.27635,-0.23495 0.5285,0 3.8261,0.8679 4.04618,1.06492 0.49297,0.44129 -0.32969,0.41335 -2.27201,-0.0772 z M 93.077922,173.65399 c -0.537201,-0.32757 -0.994055,-0.93677 -1.296599,-1.72897 -0.401934,-1.05245 -0.423361,-1.41566 -0.153504,-2.60208 0.824344,-3.6242 4.869217,-6.36575 7.420128,-5.02923 1.886893,0.98861 2.540213,2.95669 1.760633,5.30378 -1.169449,3.52088 -5.168082,5.61908 -7.730658,4.0565 z m 4.548361,-1.09403 c 1.277976,-1.23866 2.066483,-3.2171 2.085841,-5.23356 0.01457,-1.51791 -0.05393,-1.73625 -0.726269,-2.31511 -0.918916,-0.79113 -1.793692,-0.80904 -3.119576,-0.0639 -3.034156,1.70529 -4.068215,7.70626 -1.492117,8.65922 0.894219,0.33079 2.296592,-0.12056 3.252121,-1.0467 z M 84.482931,231.2456 c -1.54051,-2.91191 -23.131801,-40.0878 -23.412695,-40.31198 -0.202435,-0.16156 -0.368064,-0.43783 -0.368064,-0.61393 0,-0.42879 -45.739666,-79.70886 -46.203468,-80.08398 -0.199759,-0.16157 -0.363198,-0.43116 -0.363198,-0.5991 0,-0.21228 -27.385249,-47.960531 -27.898193,-48.642606 -0.02414,-0.0321 -0.870911,0.277197 -1.881706,0.687336 -1.904171,0.772636 -3.581504,1.20765 -5.740412,1.488769 l -1.256771,0.163649 0,52.371282 c 0,28.80421 0.09339,52.37129 0.207537,52.37129 0.114145,0 0.418533,-0.35719 0.676417,-0.79375 0.257884,-0.43656 0.581211,-0.79375 0.718504,-0.79375 0.360677,0 0.311858,0.23069 -0.24535,1.1594 -0.437146,0.72859 -0.453605,0.92276 -0.140881,1.66196 0.259891,0.61432 0.585147,0.88656 1.22258,1.0233 1.082292,0.23219 1.311749,0.36415 1.133816,0.65205 -0.07745,0.12532 -0.509827,0.12079 -0.966291,-0.0101 -0.454364,-0.13031 -0.745721,-0.15653 -0.647461,-0.0583 0.173997,0.17399 105.254993,60.90374 105.405123,60.91706 0.0415,0.004 -0.06627,-0.26119 -0.239487,-0.58861 z M 54.682902,189.29965 c -1.524866,-0.38107 -2.211982,-0.8504 -1.245001,-0.8504 0.800784,0 3.824688,0.86218 3.824688,1.0905 0,0.31039 -0.600454,0.25451 -2.579687,-0.2401 z m -7.389749,-1.86818 c -1.659902,-0.44408 -2.395294,-0.83431 -1.572266,-0.83431 0.834376,0 3.868785,0.85532 3.868785,1.0905 0,0.30526 -0.339451,0.26739 -2.296519,-0.25619 z m -7.672917,-1.85208 c -1.996637,-0.53417 -2.53196,-0.97786 -0.87848,-0.72811 1.84193,0.27821 3.175,0.68226 3.175,0.96233 0,0.32825 -0.313658,0.29626 -2.29652,-0.23422 z m -7.493063,-1.7941 c -2.037088,-0.53552 -2.169359,-0.59298 -1.999066,-0.86852 0.08918,-0.1443 0.502803,-0.15201 1.008957,-0.0188 0.4718,0.12416 1.363833,0.35702 1.982296,0.51746 0.618464,0.16045 1.124479,0.4062 1.124479,0.54611 0,0.32278 -0.319598,0.29617 -2.116666,-0.17624 z m -6.879167,-1.72609 c -0.509323,-0.14129 -1.376118,-0.37423 -1.926212,-0.51765 -0.550094,-0.14341 -0.938266,-0.36091 -0.862604,-0.48334 0.07566,-0.12242 1.08949,0.0165 2.25295,0.30866 1.16346,0.29218 2.050621,0.63603 1.971468,0.7641 -0.167177,0.2705 -0.209476,0.26838 -1.435602,-0.0718 z m -8.447518,-2.04476 c -0.935354,-0.24538 -1.753112,-0.60354 -1.817241,-0.79593 -0.07862,-0.23585 0.04442,-0.30279 0.377727,-0.20548 0.271878,0.0794 1.030105,0.27754 1.684949,0.44038 1.924791,0.47865 2.116667,0.55222 2.116667,0.81158 0,0.32032 -0.312197,0.28721 -2.362102,-0.25055 z m -7.4274814,-1.80119 c -1.6524625,-0.38405 -2.3591682,-0.7222 -2.0841506,-0.99721 0.071242,-0.0712 0.539554,-0.0213 1.0406945,0.11094 0.5011404,0.13226 1.41718,0.37175 2.0356435,0.53219 0.618464,0.16045 1.124479,0.4062 1.124479,0.54611 0,0.30532 0.03814,0.30878 -2.1166664,-0.19203 z m -7.7590377,-1.9346 c -1.76292963,-0.46971 -2.23233868,-0.68092 -2.00849686,-0.90372 0.21684952,-0.21584 4.05210586,0.82282 4.15270996,1.12464 0.1259919,0.37797 0.089406,0.3742 -2.1442131,-0.22092 z m -7.6729165,-1.85208 c -1.832059,-0.48813 -2.2338102,-0.67892 -1.9748693,-0.93786 0.2416086,-0.24161 4.0019234,0.80729 4.1154832,1.14797 0.1299201,0.38976 0.099739,0.3868 -2.1406139,-0.21011 z m -6.9253374,-1.73037 c -0.727604,-0.18103 -1.66756,-0.40818 -2.088791,-0.50478 -0.457764,-0.10498 -0.669412,-0.27209 -0.526096,-0.41541 0.216015,-0.21602 3.914188,0.55414 4.243839,0.88379 0.319583,0.31958 -0.424032,0.3362 -1.628952,0.0364 z m -6.122288,-9.51398 c 0.319944,-0.83376 2.027182,-3.30797 2.282544,-3.30797 0.147328,0 0.267869,0.0526 0.267869,0.11701 0,0.3314 -2.213774,3.58715 -2.43911,3.58715 -0.144836,0 -0.194922,-0.17828 -0.111303,-0.39619 z m 4.137913,-6.47384 c 0,-0.52271 2.160432,-3.71748 2.409718,-3.56341 0.134611,0.0832 0.160279,0.29186 0.05704,0.46371 -1.574929,2.62152 -2.466757,3.74219 -2.466757,3.0997 z m 4.233334,-6.65623 c 0,-0.42814 1.9243747,-3.66101 2.1828121,-3.66703 0.399927,-0.009 0.1763524,0.61286 -0.7728226,2.15064 -1.0148375,1.64417 -1.4099895,2.06914 -1.4099895,1.51639 z m 4.044268,-6.78051 c 1.2481751,-2.32026 2.5703148,-4.03076 2.5703148,-3.3253 0,0.45927 -2.0238283,3.51502 -2.330719,3.51912 -0.1904892,0.003 -0.2983073,-0.0847 -0.2395958,-0.19382 z m 4.2361186,-6.76773 c 0.5325089,-1.3877 2.56752949,-3.93495 2.56752949,-3.2138 0,0.34993 -2.19445819,3.56539 -2.43327509,3.56539 -0.1480452,0 -0.2084597,-0.15822 -0.1342544,-0.35159 z m 4.1550295,-6.50923 c 0,-0.50771 1.9989626,-3.45222 2.3455338,-3.45502 0.3008615,-0.002 0.298473,0.0965 -0.014306,0.5924 -0.2065056,0.32742 -0.7262146,1.16065 -1.1549089,1.85161 -0.7358471,1.18603 -1.1763191,1.5646 -1.1763191,1.01101 z m 4.2358469,-6.68346 c 0.00403,-0.55463 2.182709,-3.81972 2.3075839,-3.45827 0.06226,0.18021 -0.3199473,1.04069 -0.84935,1.91218 -1.0010868,1.64797 -1.4625241,2.1372 -1.4582339,1.54609 z m 4.13313,-6.50807 c -0.1505529,-0.2436 1.979465,-3.76015 2.277569,-3.76015 0.394045,0 0.18716,0.52127 -0.886516,2.23368 -1.137809,1.81469 -1.182569,1.86381 -1.391053,1.52647 z M -20.809845,87.663353 c -0.811831,-0.81183 -0.980769,-1.559231 -0.468281,-2.071719 0.209925,-0.209925 0.457562,-0.22353 0.79375,-0.04361 0.606687,0.32469 0.631296,0.930509 0.05099,1.255265 -0.384138,0.214974 -0.354079,0.299672 0.245858,0.692765 0.396691,0.259923 1.052188,0.412472 1.562123,0.363542 0.748859,-0.07185 0.925296,-0.227295 1.194654,-1.05248 0.222611,-0.681974 0.238742,-1.248096 0.05457,-1.915115 -0.288458,-1.044708 -0.876494,-1.48024 -2.006853,-1.486387 -0.578235,-0.0031 -0.65616,-0.06146 -0.348124,-0.260532 0.218282,-0.141064 0.660577,-0.258304 0.982879,-0.260532 1.15531,-0.008 1.720232,-2.624661 0.724075,-3.353857 -0.918261,-0.672176 -2.62175,0.05281 -1.969823,0.838329 0.293256,0.353352 0.278634,0.492438 -0.09059,0.86166 -0.410668,0.410668 -0.470153,0.410432 -0.88409,-0.0035 -0.641797,-0.641797 -0.08935,-1.701052 1.159273,-2.222758 0.793772,-0.331659 1.169105,-0.352007 1.984853,-0.107603 1.88681,0.565302 2.270173,2.212234 0.846374,3.636033 -0.631555,0.631554 -0.641023,0.683375 -0.187677,1.027132 0.262588,0.199112 0.547618,0.365808 0.633401,0.370436 0.239713,0.01293 0.770073,1.294284 0.770073,1.860498 0,1.559223 -1.306895,2.645833 -3.182213,2.645833 -0.853976,0 -1.260306,-0.168481 -1.865222,-0.773397 z m 7.602008,0.473566 c -0.852241,-0.495384 -1.484107,-2.318229 -1.490429,-4.29968 -0.01077,-3.3769 0.949909,-5.045754 2.904606,-5.045754 1.9546978,0 2.9153795,1.668854 2.9046061,5.045754 -0.00647,2.028896 -0.6530835,3.837953 -1.5418021,4.313581 -0.677893,0.362797 -2.141527,0.355471 -2.776981,-0.0139 z m 2.352245,-0.614184 c 0.614214,-0.614213 0.649432,-0.814414 0.649432,-3.691717 0,-3.916099 -0.510952,-5.032026 -2.076514,-4.535136 -0.834787,0.264951 -1.098486,1.353641 -1.098486,4.535136 0,2.877303 0.03522,3.077504 0.649432,3.691717 0.357188,0.357188 0.779318,0.649432 0.938068,0.649432 0.15875,0 0.580881,-0.292244 0.938068,-0.649432 z m 3.6059695,-5.519183 c -1.0663734,-1.135102 -0.4925898,-2.86969 1.0716995,-3.239823 0.5811066,-0.137497 0.8814361,-0.01009 1.5483657,0.656836 0.6669297,0.666929 0.794333,0.967259 0.6568353,1.548365 -0.3752896,1.586087 -2.2135666,2.166489 -3.2769005,1.034622 z m 2.5103123,-0.693796 c 0.360616,-0.727132 0.1072829,-1.434466 -0.6610231,-1.845651 -0.7014089,-0.375383 -1.7451977,0.232763 -1.8436285,1.074159 -0.1736226,1.484143 1.8431328,2.105352 2.5046516,0.771492 z M 234.33541,230.84873 c 3.68166,-8.87869 5.4333,-13.73044 7.33141,-20.30678 4.2609,-14.76272 6.36035,-29.69691 6.36035,-45.24374 0,-33.94051 -10.2707,-66.248863 -29.84607,-93.886217 C 207.91762,56.921569 194.08194,43.085883 179.59151,32.822406 151.95416,13.247039 119.6458,2.9763363 85.705297,2.9763363 c -36.717837,0 -71.575324,12.0645127 -100.409373,34.7526517 -3.718949,2.926264 -7.276042,6.025341 -7.276042,6.339169 0,0.226502 255.431368,187.766213 255.745798,187.770563 0.0871,0.001 0.34344,-0.44429 0.56973,-0.98999 z M -43.414146,138.69678 c 10.561104,-50.708067 19.269498,-92.434612 19.351987,-92.725653 0.08249,-0.291042 -1.776568,1.375833 -4.131235,3.704166 -18.255257,18.051095 -31.677985,39.370483 -39.729847,63.103127 -12.412897,36.58667 -11.519951,75.9628 2.541021,112.05103 1.422456,3.65082 2.564185,6.2657 2.683622,6.14626 0.04534,-0.0453 8.723348,-41.57086 19.284452,-92.27893 z m 26.24793,46.09895 c 2.046997,-0.83304 3.700476,-1.90345 5.199641,-3.36611 1.365497,-1.33224 2.6129823,-3.08514 2.3612809,-3.31794 -0.1121949,-0.10378 -2.8184509,-1.69759 -6.0139029,-3.54182 -5.072106,-2.92733 -5.886898,-3.31807 -6.416145,-3.07693 l -0.606234,0.27622 v 7.1016 7.1016 l 1.828732,-0.21841 c 1.005803,-0.12013 2.646785,-0.55133 3.646628,-0.95821 z M -18.104291,61.967817 c 0.604066,-0.162658 1.741518,-0.580203 2.52767,-0.927876 1.215871,-0.537716 1.39168,-0.702555 1.177044,-1.1036 -0.919502,-1.718077 -7.789441,-13.484015 -7.991851,-13.687402 -0.157167,-0.157925 -0.250148,2.848651 -0.250148,8.08864 v 8.339994 l 1.719492,-0.207007 c 0.94572,-0.113854 2.213727,-0.340091 2.817793,-0.502749 z M 189.55425,303.29598 c 0,-0.13585 0.32743,-0.28468 0.72761,-0.33072 0.70083,-0.0806 0.76328,-0.22003 1.69724,-3.78789 1.15794,-4.42349 1.16815,-4.52837 0.45895,-4.71383 -1.07887,-0.28213 -0.18576,-0.71013 1.48183,-0.71013 1.79088,0 2.55387,0.4285 1.23328,0.69262 -0.71156,0.14231 -0.82621,0.31666 -1.20816,1.8372 -0.2321,0.92399 -0.422,1.74981 -0.422,1.83517 0,0.0854 0.9155,0.12041 2.03444,0.0779 l 2.03444,-0.0773 0.44638,-1.77183 c 0.44509,-1.76672 0.44476,-1.77205 -0.11621,-1.85208 -1.23891,-0.17675 -0.32339,-0.60943 1.28949,-0.60943 1.69007,0 2.3525,0.38975 1.1401,0.67078 -0.53922,0.12499 -0.72475,0.57532 -1.58057,3.83646 -1.15812,4.41306 -1.17996,4.62089 -0.48557,4.62089 0.29104,0 0.52917,0.11906 0.52917,0.26458 0,0.15305 -0.84305,0.26458 -1.99999,0.26458 -1.26595,0 -1.93997,-0.0971 -1.83647,-0.26458 0.0899,-0.14552 0.43943,-0.26458 0.77664,-0.26458 0.54571,0 0.67156,-0.23271 1.14468,-2.11667 l 0.53157,-2.11667 h -2.05417 -2.05418 l -0.42904,1.70803 c -0.55517,2.21015 -0.54268,2.52531 0.10013,2.52531 0.29104,0 0.52916,0.11906 0.52916,0.26458 0,0.15287 -0.83784,0.26458 -1.98437,0.26458 -1.09141,0 -1.98438,-0.11115 -1.98438,-0.24701 z m 12.31254,-5.55858 c -0.0967,-0.15651 -0.11634,-0.49185 -0.0436,-0.74521 1.08773,-3.78851 1.28199,-4.29711 1.6412,-4.29711 0.7337,0 0.66511,0.69273 -0.28937,2.92273 -1.07857,2.51994 -1.06969,2.50554 -1.30823,2.11959 z m 36.2514,-53.74982 c -2.9261,-2.56915 -0.76279,-7.94152 3.72349,-9.24694 1.23374,-0.35899 2.9293,0.0204 3.19589,0.71514 0.11643,0.30342 0.31172,0.2301 0.90752,-0.34071 0.88921,-0.85192 0.88677,-0.86267 0.32584,1.43397 -0.4895,2.00422 -0.88938,2.67653 -0.89001,1.49635 -6.1e-4,-1.16498 -0.8164,-2.59134 -1.58708,-2.77493 -1.63179,-0.38873 -3.83476,0.83734 -4.75874,2.64848 -1.76565,3.46097 -0.95734,6.3591 1.77286,6.3564 1.5759,-0.002 3.23752,-1.30599 3.87464,-3.04172 0.0534,-0.14552 0.1826,-0.18548 0.28707,-0.0888 0.44339,0.41031 -1.27019,2.61791 -2.55176,3.28743 -0.39295,0.20529 -1.31154,0.37326 -2.04131,0.37326 -1.10571,0 -1.48211,-0.13633 -2.25841,-0.81792 z m -315.382994,0.31443 c 0.138244,-0.1314 0.489479,-0.28092 0.780521,-0.33228 0.441096,-0.0778 0.690545,-0.70961 1.498805,-3.79599 1.157926,-4.4216 1.168173,-4.52682 0.458948,-4.71229 -0.306039,-0.08 -0.477362,-0.27223 -0.38126,-0.42773 0.268817,-0.43495 5.009479,-0.35672 6.104329,0.10074 1.828087,0.76382 1.797753,2.91014 -0.05361,3.79299 l -0.887322,0.42313 0.79724,0.72817 c 0.920798,0.84102 1.0035,1.60714 0.298321,2.76355 -0.83469,1.36879 -1.924612,1.69861 -5.613254,1.69861 -1.945372,0 -3.152988,-0.0961 -3.002722,-0.2389 z m 6.839328,-1.05902 c 0.88443,-0.83088 1.118687,-1.98114 0.573061,-2.81387 -0.379501,-0.57919 -0.612738,-0.65071 -2.122222,-0.65071 -1.85646,0 -1.697257,-0.14906 -2.260688,2.11667 -0.162844,0.65484 -0.361036,1.41313 -0.440428,1.68507 -0.133246,0.45642 -7.56e-4,0.48634 1.722655,0.38896 1.505398,-0.0851 1.994954,-0.2257 2.527622,-0.72612 z m 0.846817,-4.89333 c 0.943295,-0.94329 1.079943,-1.44403 0.625691,-2.29281 -0.2273,-0.42471 -0.564003,-0.51177 -1.979334,-0.51177 -1.644575,0 -1.711259,0.026 -1.868452,0.7276 -0.08966,0.40019 -0.269854,1.14433 -0.40044,1.65365 -0.130587,0.50932 -0.238094,1.01534 -0.238906,1.12448 -8.11e-4,0.10914 0.665275,0.19844 1.480191,0.19844 1.332255,0 1.572381,-0.0907 2.38125,-0.89959 z M -30.314493,40.046685 c 0,-0.129745 0.290857,-0.308901 0.646348,-0.398124 0.491461,-0.123348 1.261147,-1.192224 3.211926,-4.460453 2.669463,-4.472273 3.161213,-5.172147 3.438947,-4.894413 0.09134,0.09134 0.364454,2.227377 0.606923,4.746751 0.42162,4.38084 0.466593,4.584369 1.030854,4.665229 0.324501,0.0465 0.590002,0.195329 0.590002,0.330729 0,0.1354 -0.833437,0.246181 -1.852083,0.246181 -1.733086,0 -2.580355,-0.388932 -1.256771,-0.57691 0.327422,-0.0465 0.583406,-0.233376 0.568854,-0.415277 -0.01455,-0.181901 -0.04432,-0.747448 -0.06615,-1.256771 l -0.03969,-0.926042 h -1.815317 -1.815316 l -0.627399,1.182658 c -0.622332,1.173108 -0.623163,1.18586 -0.102912,1.579086 0.485861,0.367233 0.412449,0.397046 -0.996869,0.404841 -0.836744,0.0046 -1.521354,-0.09774 -1.521354,-0.227485 z m 6.583279,-4.857329 c -0.01722,-0.763984 -0.107083,-1.742788 -0.199703,-2.17512 -0.16444,-0.767574 -0.195712,-0.739577 -1.329938,1.190625 -0.638847,1.087175 -1.210851,2.065979 -1.27112,2.17512 -0.06027,0.109141 0.55229,0.198438 1.361242,0.198438 h 1.470824 z"
       id="path1" /></g></svg>
