<?xml version="1.0" encoding="UTF-8" standalone="no"?>
<!-- Created with Inkscape (http://www.inkscape.org/) -->

<svg
   width="210mm"
   height="297mm"
   viewBox="0 0 210 297"
   version="1.1"
   id="svg1"
   xml:space="preserve"
   inkscape:version="1.4 (86a8ad7, 2024-10-11)"
   sodipodi:docname="nums.svg"
   xmlns:inkscape="http://www.inkscape.org/namespaces/inkscape"
   xmlns:sodipodi="http://sodipodi.sourceforge.net/DTD/sodipodi-0.dtd"
   xmlns="http://www.w3.org/2000/svg"
   xmlns:svg="http://www.w3.org/2000/svg"><sodipodi:namedview
     id="namedview1"
     pagecolor="#ffffff"
     bordercolor="#000000"
     borderopacity="0.25"
     inkscape:showpageshadow="2"
     inkscape:pageopacity="0.0"
     inkscape:pagecheckerboard="0"
     inkscape:deskcolor="#d1d1d1"
     inkscape:document-units="mm"
     inkscape:zoom="1.0128998"
     inkscape:cx="395.89305"
     inkscape:cy="561.25984"
     inkscape:window-width="2560"
     inkscape:window-height="1351"
     inkscape:window-x="-9"
     inkscape:window-y="-9"
     inkscape:window-maximized="1"
     inkscape:current-layer="layer1" /><defs
     id="defs1" /><g
     inkscape:label="Layer 1"
     inkscape:groupmode="layer"
     id="layer1"><path
       style="fill:#000000"
       d="m 8.2464901,234.99423 c -1.4548737,-0.51582 -2.2176562,-1.26808 -3.0969828,-3.05425 -0.8452665,-1.71698 -0.8717672,-1.87151 -0.8717672,-5.08366 0,-3.55013 0.3353937,-4.78747 1.8282057,-6.74465 1.4538176,-1.90605 5.3134882,-3.04331 7.6789942,-2.26262 1.848111,0.60993 2.70275,3.23881 1.342644,4.12998 -0.84835,0.55586 -1.805947,0.31864 -2.199376,-0.54484 -0.370565,-0.8133 -5.07e-4,-1.99177 0.625449,-1.99177 0.70518,0 0.266085,-0.63677 -0.612931,-0.88887 -1.321268,-0.37894 -2.704982,0.028 -3.7922142,1.11522 -1.1123693,1.11237 -1.5598798,2.42334 -1.5620045,4.57584 l -0.00148,1.4949 0.8995833,-0.89959 c 0.8201086,-0.82011 1.0363266,-0.89907 2.4473959,-0.89377 2.6755,0.01 4.55347,1.29944 5.347731,3.67169 0.994192,2.9694 -0.543736,6.33259 -3.329901,7.28193 -1.383998,0.47158 -3.5187596,0.51445 -4.7033509,0.0945 z m 4.0201419,-1.37369 0.742358,-0.63855 v -3.4854 -3.4854 l -0.742358,-0.63855 c -1.154633,-0.99317 -2.5604299,-0.88259 -3.5828078,0.28183 -0.9745361,1.10994 -1.186153,2.09389 -1.0578688,4.91876 0.09244,2.03556 0.1422972,2.18727 0.95851,2.91656 1.1224483,1.0029 2.6069416,1.05562 3.6821666,0.13075 z m 49.995918,1.32715 c -1.838531,-0.68481 -3.083769,-2.32793 -3.083769,-4.06912 0,-1.10773 0.573798,-1.73476 1.5875,-1.73476 1.676044,0 2.236404,2.0826 0.796045,2.95854 l -0.791456,0.48131 0.593018,0.55551 c 1.7417,1.63153 4.756231,1.46754 5.674761,-0.3087 0.943292,-1.82412 0.747075,-6.12807 -0.32841,-7.20356 -1.076796,-1.07679 -3.473821,-0.78114 -4.93027,0.60812 -0.388358,0.37044 -0.834842,0.59397 -0.992188,0.49672 -0.358232,-0.2214 -0.400064,-9.14141 -0.04287,-9.14141 0.133768,0 0.996459,0.19297 1.917091,0.42883 1.78463,0.4572 4.386908,0.373 6.015215,-0.19463 2.330705,-0.81249 1.023385,1.34305 -1.613797,2.66086 -1.364549,0.68188 -1.924553,0.80911 -3.561274,0.80911 h -1.942115 v 1.85208 c 0,1.01865 0.04499,1.85208 0.09998,1.85208 0.05499,0 0.527414,-0.17859 1.049835,-0.39687 1.319164,-0.55118 4.020659,-0.5004 5.343422,0.10045 3.975605,1.80587 4.008214,7.74102 0.05371,9.77608 -1.561594,0.80362 -4.346544,1.02728 -5.844431,0.46936 z m 54.71201,-0.28317 c -2.58883,-1.29007 -3.41951,-3.6003 -3.25006,-9.03889 0.0953,-3.06047 0.18284,-3.58216 0.8187,-4.88181 1.09364,-2.23531 2.68721,-3.15348 5.47317,-3.15348 2.90545,0 4.94403,1.69267 5.72532,4.75384 0.55938,2.19172 0.40557,7.44846 -0.2728,9.3232 -1.15521,3.19253 -5.22241,4.62761 -8.49433,2.99714 z m 4.95509,-1.16293 c 0.92257,-1.03244 1.08301,-2.39655 0.96949,-8.24293 -0.0719,-3.70068 -0.17826,-4.78726 -0.53212,-5.434 -1.00506,-1.83691 -3.70552,-1.91557 -4.91005,-0.14302 -0.40031,0.58908 -0.47915,1.4587 -0.554,6.11078 -0.0976,6.06764 0.0568,7.00175 1.33589,8.07799 1.12442,0.94614 2.6522,0.79347 3.69079,-0.36882 z m 49.60581,1.4461 c -1.83853,-0.68481 -3.08376,-2.32793 -3.08376,-4.06912 0,-1.10773 0.57379,-1.73476 1.5875,-1.73476 1.67604,0 2.2364,2.0826 0.79604,2.95854 l -0.79145,0.48131 0.59301,0.55551 c 1.7417,1.63153 4.75623,1.46754 5.67476,-0.3087 0.9433,-1.82412 0.74708,-6.12807 -0.32841,-7.20356 -1.07679,-1.07679 -3.47382,-0.78114 -4.93027,0.60812 -0.38835,0.37044 -0.83484,0.59397 -0.99218,0.49672 -0.35824,-0.2214 -0.40007,-9.14141 -0.0429,-9.14141 0.13376,0 0.99645,0.19297 1.91709,0.42883 1.78463,0.4572 4.3869,0.373 6.01521,-0.19463 2.33071,-0.81249 1.02339,1.34305 -1.61379,2.66086 -1.36455,0.68188 -1.92456,0.80911 -3.56128,0.80911 h -1.94211 v 1.85208 c 0,1.01865 0.045,1.85208 0.1,1.85208 0.055,0 0.52741,-0.17859 1.04983,-0.39687 1.31916,-0.55118 4.02066,-0.5004 5.34342,0.10045 3.97561,1.80587 4.00822,7.74102 0.0537,9.77608 -1.5616,0.80362 -4.34655,1.02728 -5.84444,0.46936 z m 40.44019,0.0465 c -1.45487,-0.51582 -2.21765,-1.26808 -3.09698,-3.05425 -0.84527,-1.71698 -0.87177,-1.87151 -0.87177,-5.08366 0,-3.55013 0.3354,-4.78747 1.82821,-6.74465 1.45382,-1.90605 5.31349,-3.04331 7.67899,-2.26262 1.84811,0.60993 2.70275,3.23881 1.34265,4.12998 -0.84835,0.55586 -1.80595,0.31864 -2.19938,-0.54484 -0.37056,-0.8133 -5.1e-4,-1.99177 0.62545,-1.99177 0.70518,0 0.26609,-0.63677 -0.61293,-0.88887 -1.32127,-0.37894 -2.70498,0.028 -3.79221,1.11522 -1.11237,1.11237 -1.55988,2.42334 -1.56201,4.57584 l -0.001,1.4949 0.89958,-0.89959 c 0.82011,-0.82011 1.03633,-0.89907 2.44739,-0.89377 2.6755,0.01 4.55347,1.29944 5.34774,3.67169 0.99419,2.9694 -0.54374,6.33259 -3.32991,7.28193 -1.38399,0.47158 -3.51876,0.51445 -4.70335,0.0945 z m 4.02015,-1.37369 0.74235,-0.63855 v -3.4854 -3.4854 l -0.74235,-0.63855 c -1.15464,-0.99317 -2.56043,-0.88259 -3.58281,0.28183 -0.97454,1.10994 -1.18616,2.09389 -1.05787,4.91876 0.0924,2.03556 0.1423,2.18727 0.95851,2.91656 1.12245,1.0029 2.60694,1.05562 3.68217,0.13075 z m -250.214934,0.91522 c 0,-0.45425 0.216994,-0.52658 1.785937,-0.59531 l 1.785938,-0.0782 0.07053,-6.9423 0.07053,-6.94231 -1.988763,0.16811 c -1.870782,0.15814 -1.988762,0.1366 -1.988762,-0.36313 0,-0.45747 0.222547,-0.55143 1.602451,-0.67655 0.925256,-0.0839 2.194295,-0.43487 3.002934,-0.8305 2.453739,-1.2005 2.273782,-1.79542 2.273782,7.51689 v 8.20209 h 1.852083 c 1.675695,0 1.852084,0.0504 1.852084,0.52916 0,0.51108 -0.176389,0.52917 -5.159375,0.52917 -4.942779,0 -5.159375,-0.0217 -5.159375,-0.51708 z m 79.374999,0 c 0,-0.45425 0.216994,-0.52658 1.785937,-0.59531 l 1.785937,-0.0782 0.07053,-6.9423 0.07053,-6.94231 -1.988762,0.16811 c -1.870782,0.15814 -1.988762,0.1366 -1.988762,-0.36313 0,-0.45747 0.222547,-0.55143 1.602451,-0.67655 0.925255,-0.0839 2.194295,-0.43487 3.002934,-0.8305 2.453739,-1.2005 2.273782,-1.79542 2.273782,7.51689 v 8.20209 h 1.852083 c 1.675694,0 1.852083,0.0504 1.852083,0.52916 0,0.51108 -0.176389,0.52917 -5.159375,0.52917 -4.942779,0 -5.159374,-0.0217 -5.159374,-0.51708 z m 53.710415,0.014 c 0,-0.28427 1.53938,-2.11779 3.53944,-4.21573 3.86469,-4.05384 4.92723,-5.70622 4.92723,-7.66244 0,-1.49906 -0.6682,-2.89152 -1.69862,-3.53974 -1.01095,-0.63597 -3.10651,-0.55022 -4.20853,0.17222 l -0.74778,0.49021 0.81392,0.63699 c 1.44027,1.12717 0.84847,2.97988 -0.95184,2.97988 -1.01557,0 -1.67382,-0.72426 -1.67382,-1.84168 0,-3.56051 6.12174,-5.3341 9.81668,-2.84408 1.39456,0.93979 2.13108,2.42932 2.01415,4.07339 -0.13932,1.95888 -0.85565,2.84752 -4.92296,6.10716 l -3.54317,2.83959 3.24138,0.0745 c 1.9879,0.0457 3.37091,-0.033 3.5763,-0.20343 0.18421,-0.15288 0.41072,-0.75196 0.50335,-1.3313 0.13087,-0.81838 0.28578,-1.05333 0.69448,-1.05333 0.28932,0 0.52368,0.0893 0.5208,0.19843 -0.008,0.29357 -0.49213,3.76809 -0.66393,4.7625 l -0.14856,0.8599 h -5.54426 c -5.271973,0 -5.54426,-0.0247 -5.54426,-0.50306 z m 55.82708,-0.014 c 0,-0.45425 0.217,-0.52658 1.78594,-0.59531 l 1.78594,-0.0782 0.0705,-6.9423 0.0705,-6.94231 -1.98876,0.16811 c -1.87078,0.15814 -1.98876,0.1366 -1.98876,-0.36313 0,-0.45747 0.22255,-0.55143 1.60245,-0.67655 0.92526,-0.0839 2.1943,-0.43487 3.00293,-0.8305 2.45374,-1.2005 2.27379,-1.79542 2.27379,7.51689 v 8.20209 h 1.85208 c 1.67569,0 1.85208,0.0504 1.85208,0.52916 0,0.51108 -0.17639,0.52917 -5.15937,0.52917 -4.94278,0 -5.15938,-0.0217 -5.15938,-0.51708 z m 94.19167,0 c 0,-0.45425 0.21699,-0.52658 1.78594,-0.59531 l 1.78593,-0.0782 0.0705,-6.9423 0.0705,-6.94231 -1.98876,0.16811 c -1.87079,0.15814 -1.98877,0.1366 -1.98877,-0.36313 0,-0.45747 0.22255,-0.55143 1.60246,-0.67655 0.92525,-0.0839 2.19429,-0.43487 3.00293,-0.8305 2.45374,-1.2005 2.27378,-1.79542 2.27378,7.51689 v 8.20209 h 1.85208 c 1.6757,0 1.85209,0.0504 1.85209,0.52916 0,0.51108 -0.17639,0.52917 -5.15938,0.52917 -4.94278,0 -5.15937,-0.0217 -5.15937,-0.51708 z M 35.010467,202.66852 c -1.838531,-0.6848 -3.083769,-2.32793 -3.083769,-4.06911 0,-1.10774 0.573798,-1.73476 1.5875,-1.73476 1.676044,0 2.236404,2.0826 0.796045,2.95853 l -0.791456,0.48131 0.593018,0.55551 c 1.741701,1.63153 4.756231,1.46755 5.674761,-0.30869 0.943292,-1.82413 0.747075,-6.12808 -0.32841,-7.20356 -1.076796,-1.0768 -3.473821,-0.78114 -4.93027,0.60812 -0.388358,0.37044 -0.834842,0.59396 -0.992188,0.49672 -0.358232,-0.2214 -0.400064,-9.14142 -0.04287,-9.14142 0.133768,0 0.996459,0.19298 1.917091,0.42883 1.78463,0.4572 4.386908,0.373 6.015215,-0.19463 2.330705,-0.81249 1.023385,1.34305 -1.613797,2.66087 -1.364549,0.68187 -1.924553,0.8091 -3.561274,0.8091 h -1.942115 v 1.85208 c 0,1.01865 0.04499,1.85209 0.09998,1.85209 0.05499,0 0.527414,-0.1786 1.049835,-0.39688 1.319164,-0.55118 4.020659,-0.50039 5.343422,0.10045 3.975605,1.80587 4.008214,7.74103 0.05371,9.77608 -1.561594,0.80363 -4.346544,1.02728 -5.844431,0.46936 z m 54.447431,-0.28316 c -2.588839,-1.29008 -3.419518,-3.60031 -3.250067,-9.03889 0.09535,-3.06047 0.182846,-3.58216 0.818705,-4.88181 1.093636,-2.23531 2.687209,-3.15349 5.473164,-3.15349 2.905452,0 4.944033,1.69268 5.725324,4.75385 0.559382,2.19171 0.405566,7.44845 -0.272804,9.3232 -1.155205,3.19253 -5.222409,4.6276 -8.494322,2.99714 z m 4.955084,-1.16293 c 0.922572,-1.03245 1.083011,-2.39655 0.969491,-8.24294 -0.07186,-3.70068 -0.178259,-4.78725 -0.53212,-5.43399 -1.005058,-1.83692 -3.705515,-1.91558 -4.91005,-0.14303 -0.400311,0.58909 -0.47915,1.45871 -0.554001,6.11079 -0.09763,6.06763 0.05685,7.00175 1.335893,8.07799 1.124417,0.94613 2.652195,0.79346 3.690787,-0.36882 z m 49.813668,1.16293 c -2.58884,-1.29008 -3.41952,-3.60031 -3.25007,-9.03889 0.0954,-3.06047 0.18285,-3.58216 0.81871,-4.88181 1.09363,-2.23531 2.6872,-3.15349 5.47316,-3.15349 2.90545,0 4.94403,1.69268 5.72532,4.75385 0.55939,2.19171 0.40557,7.44845 -0.2728,9.3232 -1.15521,3.19253 -5.22241,4.6276 -8.49432,2.99714 z m 4.95508,-1.16293 c 0.92257,-1.03245 1.08301,-2.39655 0.96949,-8.24294 -0.0718,-3.70068 -0.17826,-4.78725 -0.53212,-5.43399 -1.00506,-1.83692 -3.70551,-1.91558 -4.91005,-0.14303 -0.40031,0.58909 -0.47915,1.45871 -0.554,6.11079 -0.0976,6.06763 0.0569,7.00175 1.33589,8.07799 1.12442,0.94613 2.6522,0.79346 3.69079,-0.36882 z m 34.78915,1.44609 c -1.83853,-0.6848 -3.08377,-2.32793 -3.08377,-4.06911 0,-1.10774 0.5738,-1.73476 1.5875,-1.73476 1.67605,0 2.23641,2.0826 0.79605,2.95853 l -0.79146,0.48131 0.59302,0.55551 c 1.7417,1.63153 4.75623,1.46755 5.67476,-0.30869 0.94329,-1.82413 0.74708,-6.12808 -0.32841,-7.20356 -1.0768,-1.0768 -3.47382,-0.78114 -4.93027,0.60812 -0.38836,0.37044 -0.83484,0.59396 -0.99219,0.49672 -0.35823,-0.2214 -0.40006,-9.14142 -0.0429,-9.14142 0.13377,0 0.99646,0.19298 1.91709,0.42883 1.78463,0.4572 4.38691,0.373 6.01522,-0.19463 2.3307,-0.81249 1.02338,1.34305 -1.6138,2.66087 -1.36455,0.68187 -1.92455,0.8091 -3.56127,0.8091 h -1.94212 v 1.85208 c 0,1.01865 0.045,1.85209 0.1,1.85209 0.055,0 0.52742,-0.1786 1.04984,-0.39688 1.31916,-0.55118 4.02066,-0.50039 5.34342,0.10045 3.9756,1.80587 4.00821,7.74103 0.0537,9.77608 -1.56159,0.80363 -4.34654,1.02728 -5.84443,0.46936 z M -6.702468,202.2566 c 0,-0.45426 0.2169946,-0.52659 1.7859375,-0.59532 l 1.7859374,-0.0782 0.070533,-6.94231 0.070533,-6.94231 -1.9887621,0.16811 c -1.8707824,0.15814 -1.9887621,0.1366 -1.9887621,-0.36313 0,-0.45746 0.2225471,-0.55142 1.602451,-0.67655 0.9252552,-0.0839 2.194295,-0.43486 3.0029339,-0.83049 2.45373901,-1.20051 2.27378171,-1.79543 2.27378171,7.51689 v 8.20208 H 1.7641985 c 1.6756944,0 1.8520833,0.0504 1.8520833,0.52917 0,0.51107 -0.1763889,0.52916 -5.1593749,0.52916 -4.9427789,0 -5.1593749,-0.0217 -5.1593749,-0.51707 z m 79.110415,0 c 0,-0.45426 0.216995,-0.52659 1.785938,-0.59532 l 1.785937,-0.0782 0.07053,-6.94231 0.07053,-6.94231 -1.988762,0.16811 c -1.870782,0.15814 -1.988762,0.1366 -1.988762,-0.36313 0,-0.45746 0.222547,-0.55142 1.602451,-0.67655 0.925255,-0.0839 2.194295,-0.43486 3.002934,-0.83049 2.453739,-1.20051 2.273782,-1.79543 2.273782,7.51689 v 8.20208 h 1.852083 c 1.675694,0 1.852083,0.0504 1.852083,0.52917 0,0.51107 -0.176389,0.52916 -5.159375,0.52916 -4.942779,0 -5.159375,-0.0217 -5.159375,-0.51707 z m 54.768753,0 c 0,-0.45426 0.21699,-0.52659 1.78593,-0.59532 l 1.78594,-0.0782 0.0705,-6.94231 0.0705,-6.94231 -1.98876,0.16811 c -1.87079,0.15814 -1.98877,0.1366 -1.98877,-0.36313 0,-0.45746 0.22255,-0.55142 1.60245,-0.67655 0.92526,-0.0839 2.1943,-0.43486 3.00294,-0.83049 2.45374,-1.20051 2.27378,-1.79543 2.27378,7.51689 v 8.20208 h 1.85208 c 1.6757,0 1.85209,0.0504 1.85209,0.52917 0,0.51107 -0.17639,0.52916 -5.15938,0.52916 -4.94278,0 -5.15937,-0.0217 -5.15937,-0.51707 z m 94.45625,0 c 0,-0.45426 0.21699,-0.52659 1.78593,-0.59532 l 1.78594,-0.0782 0.0705,-6.94231 0.0705,-6.94231 -1.98877,0.16811 c -1.87078,0.15814 -1.98876,0.1366 -1.98876,-0.36313 0,-0.45746 0.22255,-0.55142 1.60245,-0.67655 0.92526,-0.0839 2.1943,-0.43486 3.00294,-0.83049 2.45374,-1.20051 2.27378,-1.79543 2.27378,7.51689 v 8.20208 h 1.85208 c 1.6757,0 1.85208,0.0504 1.85208,0.52917 0,0.51107 -0.17638,0.52916 -5.15937,0.52916 -4.94278,0 -5.15937,-0.0217 -5.15937,-0.51707 z M 110.11107,170.43589 c -1.45487,-0.51582 -2.21765,-1.26807 -3.09698,-3.05424 -0.84527,-1.71698 -0.87177,-1.87151 -0.87177,-5.08366 0,-3.55014 0.3354,-4.78748 1.82821,-6.74465 1.45382,-1.90606 5.31349,-3.04331 7.67899,-2.26262 1.84811,0.60993 2.70275,3.2388 1.34265,4.12998 -0.84835,0.55586 -1.80595,0.31864 -2.19938,-0.54484 -0.37056,-0.8133 -5.1e-4,-1.99177 0.62545,-1.99177 0.70518,0 0.26608,-0.63678 -0.61293,-0.88887 -1.32127,-0.37894 -2.70498,0.028 -3.79222,1.11522 -1.11237,1.11237 -1.55988,2.42334 -1.562,4.57584 l -0.001,1.49489 0.89959,-0.89958 c 0.82011,-0.82011 1.03632,-0.89907 2.44739,-0.89377 2.6755,0.01 4.55347,1.29944 5.34773,3.67169 0.9942,2.9694 -0.54373,6.33259 -3.3299,7.28193 -1.384,0.47157 -3.51876,0.51445 -4.70335,0.0944 z m 4.02014,-1.37368 0.74236,-0.63855 v -3.4854 -3.4854 l -0.74236,-0.63855 c -1.15463,-0.99318 -2.56043,-0.88259 -3.5828,0.28183 -0.97454,1.10994 -1.18616,2.09389 -1.05787,4.91876 0.0924,2.03556 0.14229,2.18727 0.95851,2.91656 1.12245,1.0029 2.60694,1.05562 3.68216,0.13075 z m -85.908679,0.91522 c 0,-0.45425 0.216995,-0.52658 1.785938,-0.59531 l 1.785937,-0.0782 0.07053,-6.94231 0.07053,-6.94231 -1.988762,0.16812 c -1.870782,0.15814 -1.988762,0.13659 -1.988762,-0.36313 0,-0.45747 0.222547,-0.55143 1.602451,-0.67655 0.925255,-0.0839 2.194295,-0.43487 3.002934,-0.8305 2.453739,-1.2005 2.273782,-1.79542 2.273782,7.51689 v 8.20208 h 1.852083 c 1.675694,0 1.852083,0.0504 1.852083,0.52917 0,0.51108 -0.176389,0.52917 -5.159375,0.52917 -4.942779,0 -5.159375,-0.0217 -5.159375,-0.51708 z m 42.597916,-0.0121 c 0,-0.46502 0.176389,-0.52917 1.455209,-0.52917 h 1.455208 v -1.5875 -1.5875 h -3.836458 c -3.633011,0 -3.836458,-0.0275 -3.836458,-0.5182 0,-0.5341 9.132728,-12.57702 9.723437,-12.82186 0.181901,-0.0754 0.509323,-0.0685 0.727604,0.0152 0.336785,0.12923 0.396875,1.06938 0.396875,6.2094 v 6.05711 h 1.322917 c 1.146527,0 1.322916,0.0706 1.322916,0.52917 0,0.45861 -0.176389,0.52916 -1.322916,0.52916 h -1.322917 v 1.5875 1.5875 h 1.322917 c 1.146527,0 1.322916,0.0706 1.322916,0.52917 0,0.50779 -0.176389,0.52917 -4.365625,0.52917 -4.189236,0 -4.365625,-0.0214 -4.365625,-0.52917 z m 3.175,-9.05253 c 0,-3.60469 -0.05671,-4.22814 -0.355023,-3.9026 -0.461831,0.50398 -5.826437,7.43014 -6.089377,7.8619 -0.15695,0.25772 0.532137,0.33073 3.121494,0.33073 h 3.322906 z m 75.935413,9.05253 c 0,-0.46502 0.17639,-0.52917 1.45521,-0.52917 h 1.45521 v -1.5875 -1.5875 h -3.83646 c -3.63301,0 -3.83646,-0.0275 -3.83646,-0.5182 0,-0.5341 9.13273,-12.57702 9.72344,-12.82186 0.1819,-0.0754 0.50932,-0.0685 0.7276,0.0152 0.33679,0.12923 0.39688,1.06938 0.39688,6.2094 v 6.05711 h 1.32292 c 1.14652,0 1.32291,0.0706 1.32291,0.52917 0,0.45861 -0.17639,0.52916 -1.32291,0.52916 h -1.32292 v 1.5875 1.5875 h 1.32292 c 1.14652,0 1.32291,0.0706 1.32291,0.52917 0,0.50779 -0.17639,0.52917 -4.36562,0.52917 -4.18924,0 -4.36563,-0.0214 -4.36563,-0.52917 z m 3.175,-9.05253 c 0,-3.60469 -0.0567,-4.22814 -0.35502,-3.9026 -0.46183,0.50398 -5.82644,7.43014 -6.08938,7.8619 -0.15695,0.25772 0.53214,0.33073 3.1215,0.33073 h 3.3229 z m 33.60209,9.06462 c 0,-0.45425 0.21699,-0.52658 1.78593,-0.59531 l 1.78594,-0.0782 0.0705,-6.94231 0.0705,-6.94231 -1.98877,0.16812 c -1.87078,0.15814 -1.98876,0.13659 -1.98876,-0.36313 0,-0.45747 0.22255,-0.55143 1.60245,-0.67655 0.92526,-0.0839 2.1943,-0.43487 3.00294,-0.8305 2.45374,-1.2005 2.27378,-1.79542 2.27378,7.51689 v 8.20208 h 1.85208 c 1.6757,0 1.85209,0.0504 1.85209,0.52917 0,0.51108 -0.17639,0.52917 -5.15938,0.52917 -4.94278,0 -5.15937,-0.0217 -5.15937,-0.51708 z M 89.473572,138.1272 c -1.639405,-0.54006 -2.234518,-0.93384 -2.791294,-1.84697 -0.749796,-1.22969 -0.673922,-2.40017 0.200155,-3.08772 0.837696,-0.65894 1.810936,-0.54294 2.524993,0.30093 0.662835,0.78333 0.572746,1.73506 -0.235107,2.48376 l -0.698129,0.647 0.954214,0.3987 c 1.400633,0.58522 3.393843,0.51813 4.233707,-0.14251 1.165719,-0.91695 1.622834,-3.85214 0.875061,-5.61886 -0.574081,-1.35635 -1.277854,-1.80822 -3.06919,-1.97066 -1.919856,-0.17408 -2.00899,-0.6485 -0.171231,-0.91138 1.502797,-0.21497 1.946396,-0.54839 2.578566,-1.93811 0.490712,-1.07875 0.614899,-2.42856 0.323513,-3.51632 -0.185742,-0.69339 -1.341495,-1.37847 -2.325514,-1.37847 -0.618509,0 -2.796619,0.73425 -2.796619,0.94275 0,0.0503 0.297656,0.38919 0.661459,0.75299 1.177278,1.17728 0.563582,2.80218 -1.058334,2.80218 -1.540586,0 -2.24478,-1.76443 -1.270064,-3.18228 0.974372,-1.41734 2.426238,-2.06095 4.709647,-2.08778 2.149541,-0.0253 3.43671,0.37657 4.589046,1.4326 0.86528,0.79297 0.967204,1.02534 0.967204,2.20507 0,1.076 -0.148674,1.50238 -0.807848,2.31681 -0.444317,0.54897 -1.262638,1.23414 -1.818492,1.5226 l -1.010644,0.52448 1.024742,0.39365 c 2.456131,0.94352 3.702739,2.64095 3.468135,4.72236 -0.183296,1.62619 -1.22603,3.07676 -2.737801,3.80859 -1.528319,0.73985 -4.716097,0.95501 -6.320175,0.42659 z m 39.687498,0 c -1.6394,-0.54006 -2.23452,-0.93384 -2.79129,-1.84697 -0.7498,-1.22969 -0.67392,-2.40017 0.20015,-3.08772 0.8377,-0.65894 1.81094,-0.54294 2.525,0.30093 0.66283,0.78333 0.57274,1.73506 -0.23511,2.48376 l -0.69813,0.647 0.95421,0.3987 c 1.40064,0.58522 3.39385,0.51813 4.23371,-0.14251 1.16572,-0.91695 1.62283,-3.85214 0.87506,-5.61886 -0.57408,-1.35635 -1.27785,-1.80822 -3.06919,-1.97066 -1.91985,-0.17408 -2.00899,-0.6485 -0.17123,-0.91138 1.5028,-0.21497 1.9464,-0.54839 2.57857,-1.93811 0.49071,-1.07875 0.6149,-2.42856 0.32351,-3.51632 -0.18574,-0.69339 -1.3415,-1.37847 -2.32552,-1.37847 -0.6185,0 -2.79661,0.73425 -2.79661,0.94275 0,0.0503 0.29765,0.38919 0.66145,0.75299 1.17728,1.17728 0.56359,2.80218 -1.05833,2.80218 -1.54058,0 -2.24478,-1.76443 -1.27006,-3.18228 0.97437,-1.41734 2.42624,-2.06095 4.70964,-2.08778 2.14955,-0.0253 3.43671,0.37657 4.58905,1.4326 0.86528,0.79297 0.9672,1.02534 0.9672,2.20507 0,1.076 -0.14867,1.50238 -0.80784,2.31681 -0.44432,0.54897 -1.26264,1.23414 -1.8185,1.5226 l -1.01064,0.52448 1.02474,0.39365 c 2.45613,0.94352 3.70274,2.64095 3.46814,4.72236 -0.1833,1.62619 -1.22603,3.07676 -2.7378,3.80859 -1.52832,0.73985 -4.7161,0.95501 -6.32018,0.42659 z m -81.094789,-0.42894 c 0,-0.45425 0.216995,-0.52658 1.785938,-0.59531 l 1.785937,-0.0782 0.07053,-6.94231 0.07053,-6.94231 -1.988762,0.16811 c -1.870783,0.15814 -1.988762,0.1366 -1.988762,-0.36313 0,-0.45746 0.222547,-0.55142 1.602451,-0.67655 0.925255,-0.0839 2.194295,-0.43487 3.002934,-0.8305 2.453739,-1.2005 2.273781,-1.79542 2.273781,7.5169 v 8.20208 h 1.852084 c 1.675694,0 1.852083,0.0504 1.852083,0.52916 0,0.51108 -0.176389,0.52917 -5.159375,0.52917 -4.942779,0 -5.159375,-0.0217 -5.159375,-0.51708 z m 118.797919,0 c 0,-0.45425 0.21699,-0.52658 1.78593,-0.59531 l 1.78594,-0.0782 0.0705,-6.94231 0.0705,-6.94231 -1.98877,0.16811 c -1.87078,0.15814 -1.98876,0.1366 -1.98876,-0.36313 0,-0.45746 0.22255,-0.55142 1.60245,-0.67655 0.92526,-0.0839 2.1943,-0.43487 3.00294,-0.8305 2.45374,-1.2005 2.27378,-1.79542 2.27378,7.5169 v 8.20208 h 1.85208 c 1.6757,0 1.85209,0.0504 1.85209,0.52916 0,0.51108 -0.17639,0.52917 -5.15938,0.52917 -4.94278,0 -5.15937,-0.0217 -5.15937,-0.51708 z M 67.910031,105.4191 c 0,-0.45425 0.216994,-0.52659 1.785937,-0.59531 l 1.785938,-0.0782 0.07053,-6.942308 0.07053,-6.942309 -1.988762,0.168112 c -1.870783,0.158139 -1.988762,0.136597 -1.988762,-0.363131 0,-0.457464 0.222547,-0.551423 1.60245,-0.676548 0.925256,-0.0839 2.194295,-0.434867 3.002934,-0.830497 2.453739,-1.200503 2.273782,-1.795424 2.273782,7.51689 v 8.202081 h 1.852083 c 1.675695,0 1.852084,0.0504 1.852084,0.52917 0,0.51107 -0.176389,0.52917 -5.159375,0.52917 -4.942779,0 -5.159375,-0.0217 -5.159375,-0.51708 z m 38.364579,0.014 c 0,-0.28427 1.53939,-2.11779 3.53944,-4.21573 3.86469,-4.053838 4.92723,-5.706217 4.92723,-7.662438 0,-1.499055 -0.6682,-2.891511 -1.69862,-3.539732 -1.01094,-0.635973 -3.10651,-0.550222 -4.20853,0.172216 l -0.74777,0.490209 0.81392,0.636989 c 1.44026,1.127176 0.84846,2.979885 -0.95185,2.979885 -1.01557,0 -1.67382,-0.724265 -1.67382,-1.841687 0,-3.560509 6.12175,-5.334093 9.81668,-2.844076 1.39456,0.939792 2.13108,2.429321 2.01415,4.073395 -0.13931,1.958872 -0.85564,2.847514 -4.92296,6.107158 l -3.54317,2.839581 3.24139,0.0745 c 1.98789,0.0457 3.3709,-0.033 3.5763,-0.20344 0.1842,-0.15287 0.41071,-0.75195 0.50335,-1.33129 0.13086,-0.81838 0.28577,-1.05334 0.69447,-1.05334 0.28933,0 0.52368,0.0893 0.5208,0.19844 -0.008,0.29357 -0.49212,3.76808 -0.66392,4.7625 l -0.14856,0.8599 h -5.54427 c -5.27197,0 -5.54426,-0.0247 -5.54426,-0.50307 z m 40.74584,-0.014 c 0,-0.45425 0.21699,-0.52659 1.78593,-0.59531 l 1.78594,-0.0782 0.0705,-6.942308 0.0705,-6.942309 -1.98876,0.168112 c -1.87079,0.158139 -1.98877,0.136597 -1.98877,-0.363131 0,-0.457464 0.22255,-0.551423 1.60245,-0.676548 0.92526,-0.0839 2.1943,-0.434867 3.00294,-0.830497 2.45374,-1.200503 2.27378,-1.795424 2.27378,7.51689 v 8.202081 h 1.85208 c 1.6757,0 1.85209,0.0504 1.85209,0.52917 0,0.51107 -0.17639,0.52917 -5.15938,0.52917 -4.94278,0 -5.15937,-0.0217 -5.15937,-0.51708 z M 87.753781,72.875349 c 0,-0.454252 0.216994,-0.526584 1.785937,-0.595313 l 1.785937,-0.07823 0.07053,-6.942308 0.07053,-6.942309 -1.988762,0.168112 c -1.870782,0.158139 -1.988762,0.136597 -1.988762,-0.363131 0,-0.457464 0.222547,-0.551423 1.602451,-0.676548 0.925255,-0.0839 2.194295,-0.434867 3.002934,-0.830498 2.453739,-1.200502 2.273782,-1.795423 2.273782,7.516891 v 8.202083 h 1.852083 c 1.675694,0 1.852083,0.0504 1.852083,0.529167 0,0.511075 -0.176389,0.529166 -5.159375,0.529166 -4.942778,0 -5.159374,-0.02171 -5.159374,-0.517077 z m 39.422919,0 c 0,-0.454252 0.21699,-0.526584 1.78593,-0.595313 l 1.78594,-0.07823 0.0705,-6.942308 0.0705,-6.942309 -1.98876,0.168112 c -1.87079,0.158139 -1.98877,0.136597 -1.98877,-0.363131 0,-0.457464 0.22255,-0.551423 1.60245,-0.676548 0.92526,-0.0839 2.1943,-0.434867 3.00294,-0.830498 2.45374,-1.200502 2.27378,-1.795423 2.27378,7.516891 v 8.202083 h 1.85208 c 1.6757,0 1.85209,0.0504 1.85209,0.529167 0,0.511075 -0.17639,0.529166 -5.15938,0.529166 -4.94278,0 -5.15937,-0.02171 -5.15937,-0.517077 z M 107.33295,40.596183 c 0,-0.454252 0.21699,-0.526584 1.78593,-0.595313 l 1.78594,-0.07823 0.0705,-6.942309 0.0705,-6.942309 -1.98876,0.168112 c -1.87079,0.158139 -1.98877,0.136597 -1.98877,-0.363131 0,-0.457464 0.22255,-0.551423 1.60245,-0.676548 0.92526,-0.0839 2.1943,-0.434867 3.00294,-0.830497 2.45374,-1.200503 2.27378,-1.795424 2.27378,7.51689 v 8.202083 h 1.85208 c 1.6757,0 1.85209,0.0504 1.85209,0.529167 0,0.511075 -0.17639,0.529167 -5.15938,0.529167 -4.94278,0 -5.15937,-0.02171 -5.15937,-0.517078 z"
       id="path1" /></g></svg>
