<?xml version="1.0" encoding="UTF-8" standalone="no"?>
<!-- Created with Inkscape (http://www.inkscape.org/) -->

<svg
   width="210mm"
   height="297mm"
   viewBox="0 0 210 297"
   version="1.1"
   id="svg1"
   xml:space="preserve"
   sodipodi:docname="ssamo logo.svg"
   inkscape:version="1.4 (86a8ad7, 2024-10-11)"
   xmlns:inkscape="http://www.inkscape.org/namespaces/inkscape"
   xmlns:sodipodi="http://sodipodi.sourceforge.net/DTD/sodipodi-0.dtd"
   xmlns="http://www.w3.org/2000/svg"
   xmlns:svg="http://www.w3.org/2000/svg"><sodipodi:namedview
     id="namedview1"
     pagecolor="#ffffff"
     bordercolor="#000000"
     borderopacity="0.25"
     inkscape:showpageshadow="2"
     inkscape:pageopacity="0.0"
     inkscape:pagecheckerboard="0"
     inkscape:deskcolor="#d1d1d1"
     inkscape:document-units="mm"
     inkscape:zoom="1.0128998"
     inkscape:cx="396.38669"
     inkscape:cy="561.25986"
     inkscape:window-width="2560"
     inkscape:window-height="1351"
     inkscape:window-x="-9"
     inkscape:window-y="-9"
     inkscape:window-maximized="1"
     inkscape:current-layer="layer1" /><defs
     id="defs1" /><g
     inkscape:label="Layer 1"
     inkscape:groupmode="layer"
     id="layer1"><path
       style="fill:#000000"
       d="m 109.06018,211.38838 c -0.14515,-0.1819 -0.45195,-0.70125 -0.68177,-1.15412 l -0.41786,-0.82338 0.97098,-0.63183 c 0.53404,-0.3475 1.3105,-1.18258 1.72548,-1.85574 l 0.75449,-1.22392 -2.36883,-5.78753 c -1.30286,-3.18315 -2.56261,-6.23403 -2.79944,-6.77973 l -0.43062,-0.99219 h 1.98793 c 1.60767,0 1.98793,0.0774 1.98793,0.40467 0,0.71929 3.24925,8.88793 3.44862,8.66986 0.18298,-0.20013 2.55626,-6.45908 3.08976,-8.14849 0.24179,-0.76564 0.31316,-0.79652 2.01551,-0.87198 0.97067,-0.043 1.76486,-0.0335 1.76486,0.0212 0,0.20576 -5.6014,13.81125 -6.25435,15.19148 -0.7222,1.52659 -2.00183,2.97206 -3.36923,3.80586 -0.97818,0.59647 -1.07796,0.60879 -1.42346,0.17582 z m 36.9762,-9.5617 V 192.728 l 0.8599,-0.14839 c 0.47294,-0.0816 2.05552,-0.22751 3.51684,-0.32421 3.41764,-0.22616 5.3605,0.15161 6.66352,1.29567 3.39012,2.97652 2.61294,9.86574 -1.3195,11.69658 -1.49024,0.69381 -3.81077,0.8669 -5.42303,0.40451 l -0.85814,-0.24611 v 2.75965 2.75966 h -1.7198 -1.71979 z m 8.09263,0.46043 c 0.36612,-0.23989 0.83818,-0.76976 1.04902,-1.17749 0.5194,-1.00441 0.51017,-4.17296 -0.0143,-4.92181 -0.56401,-0.80523 -2.0588,-1.23074 -3.6036,-1.02582 -2.19298,0.29091 -2.08412,0.097 -2.08412,3.7127 0,3.09704 0.026,3.2511 0.59531,3.52566 0.93573,0.45129 3.29671,0.3854 4.05773,-0.11324 z m -134.433976,3.68755 -1.061142,-0.10062 -1.667266,-4.28736 c -0.916997,-2.35805 -2.06636,-5.1208 -2.55414,-6.13945 l -0.886873,-1.85208 -0.02274,6.15156 -0.02274,6.15157 h -1.5875 -1.5875 l -0.06302,-5.35782 c -0.119755,-10.18091 -0.05388,-13.29723 0.280485,-13.26885 0.171438,0.0145 1.145142,0.0443 2.163788,0.0661 1.064937,0.0228 1.852084,0.15517 1.852084,0.3114 0,0.25168 3.287783,8.14606 4.895578,11.75488 l 0.701935,1.57555 0.788761,-1.84013 c 0.433818,-1.01207 1.486543,-3.56654 2.339389,-5.67659 0.852845,-2.11005 1.79039,-4.37224 2.083434,-5.02708 l 0.532806,-1.19063 2.001965,0.0871 2.001965,0.0871 v 9.23951 9.23952 H 28.1693 26.454297 l -0.07093,-6.21963 -0.07093,-6.21962 -1.5875,4.12284 c -0.873125,2.26755 -1.955222,5.09615 -2.404661,6.28576 -0.473221,1.25257 -0.97435,2.17235 -1.190625,2.18529 -0.205405,0.0123 -0.850978,-0.0229 -1.434606,-0.0783 z m 158.211266,-0.45328 -0.80611,-0.63562 -1.57514,0.53456 c -1.92095,0.65191 -4.61403,0.55812 -5.90714,-0.20574 -1.78773,-1.05603 -2.38477,-3.98639 -1.14981,-5.6434 1.05858,-1.42035 2.0357,-1.7427 5.2826,-1.7427 h 2.97578 l 7.8e-4,-0.7276 c 9.2e-4,-0.85299 -0.75654,-1.70031 -1.74083,-1.94735 -0.75135,-0.18858 -4.35306,0.0247 -5.35102,0.31688 -0.58965,0.17264 -0.60759,0.13102 -0.52917,-1.22732 0.0755,-1.30777 0.13665,-1.42195 0.87493,-1.63394 0.43657,-0.12535 2.04663,-0.24834 3.57792,-0.27331 2.48298,-0.0405 2.92512,0.0252 4.08729,0.60696 2.31539,1.1591 2.37692,1.34632 2.46993,7.51535 l 0.081,5.37065 -0.61013,0.16342 c -0.83672,0.2241 -0.77896,0.24028 -1.68085,-0.47084 z m -2.23658,-2.74548 c 0.77465,-0.37738 0.93926,-0.60978 1.00691,-1.42162 l 0.0809,-0.9705 -1.49677,-0.18701 c -2.88346,-0.36026 -4.74179,0.82924 -3.72349,2.38338 0.38108,0.58159 0.62709,0.67058 1.82347,0.65958 0.76063,-0.007 1.79968,-0.21571 2.30901,-0.46383 z m -140.626044,2.74888 c -2.567546,-1.14116 -3.231254,-4.88029 -1.173598,-6.61169 1.125736,-0.94724 2.593963,-1.27017 5.379949,-1.18327 l 2.408232,0.0751 -0.08692,-0.78197 c -0.156328,-1.4064 -0.870481,-1.84031 -3.028848,-1.84031 -1.051223,0 -2.542786,0.0943 -3.314585,0.20944 l -1.403271,0.20943 0.08035,-1.39037 c 0.07792,-1.34832 0.108365,-1.39705 1.006396,-1.61101 0.509323,-0.12135 2.116667,-0.23496 3.571875,-0.25248 2.918919,-0.0351 4.189388,0.32974 5.491779,1.57721 1.071017,1.02586 1.251987,2.07636 1.253621,7.27705 l 0.0015,4.69636 h -1.158353 c -0.865087,0 -1.250256,-0.13507 -1.521354,-0.53351 l -0.363001,-0.5335 -1.391901,0.5335 c -1.623895,0.62243 -4.529562,0.70326 -5.751849,0.16001 z m 5.418604,-2.69794 c 0.982639,-0.39318 1.063688,-0.50282 1.063688,-1.439 0,-1.00004 -0.01588,-1.01577 -1.205284,-1.19413 -2.343172,-0.35139 -4.086383,0.3421 -4.086383,1.62563 0,0.33086 0.187098,0.78865 0.415774,1.01733 0.544319,0.54432 2.439464,0.53943 3.812205,-0.01 z m 9.322013,2.67281 c -1.514191,-0.65788 -1.643742,-1.36717 -1.643742,-8.99941 v -6.7692 l 1.389062,0.08 1.389063,0.08 0.132292,1.05834 0.132291,1.05833 1.785938,0.0782 1.785937,0.0782 v 1.44312 1.44312 h -1.5875 -1.5875 v 3.55267 c 0,3.52287 0.0058,3.55727 0.69714,4.10104 0.391589,0.30803 1.087377,0.54837 1.5875,0.54837 h 0.89036 v 1.32292 1.32292 l -2.050521,-0.0104 c -1.17159,-0.006 -2.42335,-0.17234 -2.92032,-0.38827 z m 7.616675,-8.99408 v -9.39271 h 1.301277 c 2.183453,0 2.138306,-0.0704 2.138306,3.3356 0,1.65792 0.02977,3.01385 0.06615,3.01317 0.03638,-6.7e-4 0.780521,-0.2955 1.653646,-0.65518 2.528685,-1.04166 4.499965,-0.84391 6.051857,0.60709 1.350108,1.26234 1.488768,1.95614 1.488768,7.44915 v 5.03559 H 68.38118 66.661388 v -4.65057 -4.65056 l -0.805357,-0.80535 c -0.725093,-0.7251 -0.91627,-0.78784 -1.918229,-0.62952 -0.61208,0.0967 -1.572201,0.47846 -2.133604,0.84835 -0.907198,0.59771 -1.002893,0.76171 -0.860355,1.4744 0.08821,0.44103 0.08256,2.51444 -0.01255,4.60756 l -0.172924,3.80569 h -1.6787 -1.6787 z m 27.516666,9.14529 c -3.816058,-1.165 -5.820833,-4.31477 -5.820833,-9.14529 0,-2.66709 0.702855,-5.14554 1.853663,-6.5365 1.827807,-2.20922 5.796213,-3.28315 9.651298,-2.61181 2.2843,0.39779 3.45604,0.99872 4.80864,2.46612 1.58733,1.72204 2.0754,3.38896 2.07277,7.07906 -0.002,2.90495 -0.0419,3.12413 -0.87935,4.84107 -1.50858,3.09289 -3.69182,4.17188 -8.360772,4.13202 -1.465177,-0.0125 -2.961614,-0.11361 -3.325416,-0.22467 z m 5.964068,-3.16033 c 2.11477,-0.9606 3.02881,-2.72684 3.02881,-5.85267 0,-3.12583 -0.91404,-4.89207 -3.02881,-5.85267 -1.28827,-0.58518 -4.014012,-0.65592 -5.257315,-0.13643 -1.066689,0.44569 -2.136612,1.68441 -2.596211,3.00581 -0.437842,1.25885 -0.432031,4.38943 0.01059,5.70199 0.763008,2.26268 2.756874,3.61968 5.318456,3.61968 0.847096,0 1.902044,-0.20297 2.524484,-0.48571 z m 9.646348,-5.85267 v -9.26042 h 1.71979 1.71979 v 9.26042 9.26042 h -1.71979 -1.71979 z m 21.69583,2.38125 v -6.87917 h 1.29347 c 1.26778,0 1.29691,0.0183 1.4665,0.92233 l 0.17303,0.92232 0.9809,-0.64475 c 2.24657,-1.47667 5.77803,-1.278 6.6626,0.37483 0.25656,0.47938 0.34422,0.4595 1.77644,-0.40294 1.29878,-0.78209 1.74038,-0.9072 3.20193,-0.9072 2.16628,0 3.2342,0.50869 4.04711,1.92781 0.60551,1.05704 0.64332,1.38606 0.72872,6.34041 l 0.0901,5.22553 h -1.74372 -1.74371 v -4.34841 c 0,-5.4294 -0.24613,-6.22169 -1.93563,-6.23088 -0.85169,-0.005 -1.63926,0.353 -2.49615,1.13347 -0.57228,0.52125 -0.59531,0.71439 -0.59531,4.99402 v 4.4518 h -1.71979 -1.71979 l -0.0196,-3.77032 c -0.0254,-4.88156 -0.19577,-5.96182 -1.03872,-6.58603 -0.54975,-0.40708 -0.82386,-0.4446 -1.62303,-0.22212 -0.52886,0.14722 -1.273,0.51265 -1.65365,0.81207 l -0.69207,0.54439 v 4.611 4.61101 h -1.7198 -1.71979 z m 39.42292,0 v -6.87917 h 1.85208 1.85209 v 6.87917 6.87917 h -1.85209 -1.85208 z m 25.29943,6.57053 c -1.36497,-0.38476 -2.89731,-1.96336 -3.43358,-3.53723 -0.51022,-1.4974 -0.55367,-5.1071 -0.0773,-6.42191 0.42644,-1.17702 1.86477,-2.60324 3.00477,-2.97947 0.55409,-0.18287 1.93493,-0.2631 3.41434,-0.1984 l 2.48401,0.10864 v -2.59191 -2.59192 h 1.85208 1.85208 v 8.721 8.721 l -1.38906,0.4263 c -1.72096,0.52815 -6.32493,0.73359 -7.70734,0.3439 z m 5.41474,-3.01257 c 0.13315,-0.0823 0.24208,-1.56458 0.24208,-3.29399 0,-3.75911 -0.14634,-3.96814 -2.77813,-3.96814 -1.95723,0 -2.57969,0.38877 -3.19277,1.9941 -0.39384,1.03125 -0.4141,1.39636 -0.1432,2.58013 0.55686,2.43337 1.62883,3.2161 4.08609,2.98359 0.84912,-0.0803 1.65279,-0.2134 1.78593,-0.29569 z M 161.6468,188.70036 v -1.32292 h 1.85208 1.85209 v 1.32292 1.32292 h -1.85209 -1.85208 z M 19.962426,177.84735 c -2.672599,-0.34338 -5.215579,-0.74955 -6.741074,-1.07671 l -1.328718,-0.28496 v -3.31623 c 0,-3.3151 2.02e-4,-3.31617 0.595313,-3.13923 1.591787,0.47326 5.685314,1.23264 7.90502,1.46644 5.7435,0.60494 9.15281,0.16383 10.94866,-1.41659 2.43957,-2.14692 1.48774,-7.07705 -1.480953,-7.67079 -0.459948,-0.092 -2.934746,-0.16932 -5.49955,-0.17185 -5.157928,-0.005 -7.357783,-0.33564 -9.517763,-1.43019 -3.533625,-1.79062 -5.2888295,-5.47773 -4.9848175,-10.47147 0.1755985,-2.88439 0.7387935,-4.44171 2.1900705,-6.05587 1.529171,-1.70081 3.229929,-2.75557 5.664854,-3.51317 1.83088,-0.56966 2.434625,-0.61666 7.805208,-0.60763 4.94771,0.008 6.268462,0.099 8.805029,0.60477 4.691512,0.93537 4.291846,0.53739 4.291846,4.27369 0,1.88407 -0.104905,3.18155 -0.257238,3.18155 -0.141481,0 -1.421402,-0.29715 -2.844271,-0.66032 -3.612715,-0.92212 -9.203964,-1.37969 -12.039793,-0.9853 -3.099161,0.43101 -4.090305,0.7687 -5.175761,1.76345 -0.869268,0.79663 -0.961956,1.02122 -1.060566,2.56986 -0.128586,2.0194 0.351772,3.39535 1.43301,4.10475 0.640017,0.41992 1.557521,0.50562 6.967412,0.65084 6.889729,0.18493 8.260394,0.42822 10.30694,1.82939 0.668282,0.45754 1.613528,1.35322 2.100546,1.9904 2.314275,3.02784 2.786824,9.22196 0.976141,12.79517 -0.71111,1.40331 -2.52052,3.17708 -4.018138,3.93899 -2.523539,1.28384 -4.539456,1.68417 -8.95599,1.77852 -2.328334,0.0497 -5.066771,-0.0166 -6.085417,-0.14751 z m 32.411458,-0.0115 c -3.519583,-0.4393 -7.263605,-1.08878 -7.739062,-1.34249 -0.401789,-0.2144 -0.463021,-0.66981 -0.463021,-3.44363 0,-3.19107 10e-4,-3.19624 0.595312,-3.0193 0.327422,0.0975 2.143125,0.48244 4.034896,0.85546 2.765908,0.54538 4.294633,0.68513 7.805209,0.71351 4.353102,0.0352 4.370178,0.033 5.953125,-0.75846 1.967537,-0.98377 2.51254,-1.91901 2.51313,-4.31262 4.85e-4,-1.96607 -0.47515,-3.04173 -1.66608,-3.76788 -0.75898,-0.46278 -1.355978,-0.51679 -5.741842,-0.51946 -5.697062,-0.003 -7.735183,-0.26998 -9.921875,-1.29736 -2.022001,-0.95001 -3.381359,-2.33363 -4.435648,-4.51483 -0.742232,-1.53558 -0.84669,-2.04217 -0.940552,-4.56135 -0.08675,-2.32822 -0.007,-3.15847 0.446845,-4.65269 0.609527,-2.00673 2.020318,-3.86402 3.777858,-4.97351 1.255351,-0.79247 4.678458,-1.95967 5.747207,-1.95967 0.51637,0 0.938655,-0.20047 1.19588,-0.56771 0.345562,-0.49336 0.569238,-0.54739 1.707947,-0.41252 1.517962,0.17978 1.778126,-0.017 2.639592,-1.99668 l 0.547043,-1.25711 -1.944334,-3.92929 c -1.114917,-2.25313 -2.237299,-4.15974 -2.631107,-4.46951 -0.377725,-0.29712 -0.686741,-0.58261 -0.686702,-0.63443 1.41e-4,-0.18831 4.194449,-0.0887 4.387475,0.10422 0.109211,0.10915 -0.0594,0.19844 -0.374699,0.19844 -0.919767,0 -0.718323,1.04347 0.776507,4.02227 l 1.349771,2.68973 1.163771,-2.83831 c 1.270343,-3.09822 1.36198,-3.54965 0.766896,-3.77801 -0.805624,-0.30914 -0.360028,-0.62484 0.881944,-0.62484 1.524881,0 1.786876,0.18255 1.091396,0.76045 -0.284735,0.23659 -1.098817,1.85892 -1.809072,3.60517 -0.710255,1.74625 -1.789317,4.30609 -2.397916,5.68854 -0.608599,1.38245 -1.17141,2.66237 -1.250693,2.84427 -0.107369,0.24635 0.318765,0.33124 1.670096,0.33274 2.474034,0.003 5.778077,0.40395 9.024141,1.0958 l 2.711979,0.57802 v 3.42373 c 0,3.15494 -0.03635,3.40917 -0.463021,3.2383 -3.503336,-1.403 -11.544964,-2.30626 -15.477269,-1.73845 -4.205933,0.60732 -5.590179,1.83452 -5.590179,4.95596 0,1.93339 0.497774,2.84086 1.97011,3.59162 0.77304,0.39418 1.689951,0.46335 6.198901,0.46761 7.755174,0.007 9.729635,0.53768 12.243912,3.2887 1.625571,1.77863 2.36373,3.60842 2.60037,6.44594 0.525283,6.29859 -2.109843,10.23097 -8.097407,12.0837 -1.743132,0.53938 -9.078042,0.77197 -12.170834,0.38593 z m 30.155156,-0.99476 c 0.804135,-1.99435 9.263182,-21.29731 9.387512,-21.42163 0.0462,-0.0462 0.44705,0.78532 0.89073,1.84788 0.44369,1.06257 1.51627,3.42022 2.38352,5.23923 2.3077,4.84024 6.935468,15.15872 6.840968,15.25322 -0.0302,0.0302 -4.542918,0.11429 -10.028308,0.18691 l -9.97345,0.13204 z m 48.71106,0.78482 c -0.14455,-0.2701 -1.50009,-3.75268 -3.01231,-7.73907 -1.51223,-3.98639 -3.63057,-9.5697 -4.70743,-12.40736 l -1.95794,-5.15937 -0.0687,12.76615 -0.0687,12.76614 h -3.58389 -3.58389 l 0.15593,-18.85156 0.15593,-18.85157 4.15811,-0.0668 4.1581,-0.0668 1.50498,3.63868 c 4.58693,11.09006 9.90488,23.6034 10.12427,23.82279 0.0687,0.0687 0.24383,-0.15838 0.38919,-0.50461 2.88277,-6.86643 6.87704,-16.57263 8.50164,-20.65926 1.14384,-2.87732 2.2095,-5.47399 2.36812,-5.77038 0.27452,-0.51295 0.4948,-0.53539 4.57511,-0.46625 l 4.28669,0.0726 0.002,18.85156 0.002,18.85156 h -3.6373 -3.6373 l -0.0687,-12.76614 -0.0687,-12.76615 -0.88335,2.24896 c -1.52642,3.88618 -2.04582,5.22635 -5.07587,13.09687 -1.62468,4.22011 -3.19745,8.298 -3.49503,9.06198 l -0.54107,1.38906 h -2.86438 c -2.51955,0 -2.89603,-0.0591 -3.12721,-0.49107 z m 42.81715,0.21757 c -4.22475,-0.49388 -7.6446,-1.94649 -10.24032,-4.34966 -3.67017,-3.39794 -5.63197,-10.0141 -5.06233,-17.07267 0.83605,-10.35961 6.56332,-16.01744 16.78282,-16.57933 7.07674,-0.38909 12.88392,1.42824 16.29038,5.09802 3.16182,3.40624 4.50177,7.52517 4.50969,13.86256 0.0144,11.5094 -5.01956,17.85813 -15.10458,19.04969 -2.50766,0.29628 -4.58886,0.29378 -7.17566,-0.009 z m 8.62392,-6.97547 c 4.35088,-1.9575 6.49541,-6.54275 6.13811,-13.12394 -0.3239,-5.96587 -2.40075,-9.33522 -6.71135,-10.88807 -2.06887,-0.74529 -6.67538,-0.82732 -8.85226,-0.15764 -4.43591,1.36464 -6.67929,4.84861 -7.0304,10.91823 -0.2602,4.49791 0.85677,8.61015 2.97579,10.95564 2.14879,2.37846 4.6342,3.23647 8.9822,3.10082 2.47333,-0.0772 3.14882,-0.19807 4.49791,-0.80504 z m -110.479663,5.85991 c 0.271829,-0.61846 1.202797,-2.67229 2.068817,-4.56406 4.138834,-9.04104 5.859095,-12.90386 9.868188,-22.15885 l 4.326623,-9.98803 h 3.614077 3.61407 l 0.73855,1.65365 c 0.4062,0.9095 1.805815,3.97536 3.110265,6.81302 1.304453,2.83766 2.998433,6.58813 3.764403,8.33438 0.76597,1.74625 2.96776,6.56828 4.89286,10.71562 1.9251,4.14735 3.78306,8.1657 4.12881,8.92969 l 0.62862,1.38906 h -4.05801 -4.05801 l -0.7487,-1.78594 c -0.41178,-0.98226 -1.80859,-4.10765 -3.10403,-6.94531 -3.624068,-7.93856 -8.584308,-19.11104 -8.792468,-19.80424 -0.10271,-0.34207 -0.27683,-0.52066 -0.38693,-0.39687 -0.1101,0.12379 -1.30208,2.78491 -2.648858,5.91361 -3.662469,8.5083 -7.860226,18.09176 -9.068633,20.70365 l -1.071098,2.3151 h -3.65639 -3.65639 z M 186.66039,140.99093 c -0.45308,-0.33785 -0.47751,-0.47715 -0.19313,-1.10131 0.30869,-0.6775 0.39334,-0.70522 1.63284,-0.53475 1.27325,0.17512 1.32129,0.15681 1.84645,-0.70351 1.29879,-2.12769 1.29158,-2.1835 -0.8595,-6.64875 -1.16413,-2.41652 -2.21622,-4.24967 -2.58875,-4.5106 -0.61189,-0.42858 -0.58365,-0.43957 1.12945,-0.43957 0.96636,0 1.94535,-0.0723 2.17553,-0.1606 0.23019,-0.0883 0.41852,-0.0427 0.41852,0.10143 0,0.14412 -0.23813,0.32431 -0.52917,0.40041 -0.29104,0.0761 -0.52916,0.32061 -0.52916,0.54333 0,0.50988 2.54612,5.7438 2.79918,5.75412 0.20647,0.008 2.03036,-4.22398 2.32188,-5.38802 0.15206,-0.60719 0.08,-0.77537 -0.41814,-0.97541 -0.45528,-0.18284 -0.18298,-0.24172 1.11791,-0.24172 1.21065,0 1.55423,0.0669 1.16055,0.22594 -0.5578,0.22536 -0.80833,0.76618 -4.18821,9.04112 -0.83884,2.05374 -1.54481,3.35971 -2.11477,3.91214 -1.00638,0.97542 -2.41553,1.29687 -3.18148,0.72575 z m -175.915967,-4.0624 c -0.243033,-0.24303 -0.220473,-4.84969 0.02373,-4.84607 0.109141,0.002 0.436563,0.61667 0.727604,1.36678 0.667071,1.71926 1.555483,2.38872 3.362465,2.53378 1.152573,0.0925 1.563717,10e-4 2.326077,-0.515 0.746067,-0.50546 0.942351,-0.82444 1.009958,-1.64125 0.111553,-1.34774 -0.472397,-1.94095 -3.536878,-3.59297 -3.08323,-1.66212 -4.087663,-2.74726 -4.087663,-4.41611 0,-3.06258 2.675475,-4.61111 6.11282,-3.53802 l 1.692388,0.52834 0.457137,-0.58977 c 0.442287,-0.5706 0.457329,-0.50595 0.463021,1.98993 0.0059,2.6005 -0.319276,3.43253 -0.616104,1.57627 -0.160791,-1.00553 -1.040529,-2.07022 -2.204889,-2.66842 -1.462385,-0.75132 -3.872238,0.0842 -4.218164,1.46248 -0.311973,1.243 0.367304,1.9474 3.453822,3.58154 3.374119,1.78641 4.030733,2.33937 4.39814,3.70381 0.492783,1.83006 -0.440285,3.72022 -2.310882,4.68126 -0.80135,0.4117 -3.455854,0.37147 -4.938869,-0.0749 -1.148896,-0.34577 -1.259866,-0.33663 -1.587137,0.13061 -0.193529,0.2763 -0.43049,0.42375 -0.526578,0.32766 z m 38.983628,-0.64574 v -0.81072 l -0.81405,0.68497 c -1.698562,1.42925 -4.300596,0.6261 -5.469804,-1.68832 -1.02357,-2.02613 -0.698352,-4.20119 0.908929,-6.07894 1.492036,-1.74311 3.144729,-2.26749 4.65827,-1.47801 l 0.738553,0.38523 -0.07709,-2.04051 -0.07709,-2.04051 -0.926041,-0.14132 -0.926042,-0.14133 1.233147,-0.56095 c 1.988789,-0.90469 2.279187,-0.95525 2.436425,-0.42423 0.07721,0.26075 0.120925,3.30885 0.09715,6.77356 -0.03619,5.27442 0.01979,6.33954 0.343985,6.54566 0.212963,0.1354 0.536035,0.19163 0.717936,0.12497 0.181901,-0.0667 0.330729,-0.008 0.330729,0.13152 0,0.2255 -0.740533,0.60862 -2.579688,1.33464 -0.538968,0.21277 -0.595312,0.15828 -0.595312,-0.57571 z m -0.895289,-0.89177 0.939798,-0.39268 -0.0884,-3.15867 c -0.08161,-2.91618 -0.137646,-3.21104 -0.729834,-3.84066 -0.878945,-0.93451 -2.085163,-0.91603 -2.977232,0.0456 -1.728229,1.86302 -1.644949,5.0419 0.179896,6.86675 0.978943,0.97894 1.330111,1.04189 2.675772,0.47964 z m 22.061956,-0.91655 c 0,-1.72647 0.09482,-2.63216 0.264583,-2.52724 0.145521,0.0899 0.264583,0.40639 0.264583,0.70323 0,1.1793 0.860869,2.39892 2.071154,2.93429 2.720887,1.20358 5.579303,-0.38522 4.786199,-2.66032 -0.316317,-0.90739 -1.036992,-1.46619 -3.666688,-2.84311 -1.082791,-0.56695 -2.356988,-1.41909 -2.83155,-1.89365 -2.961791,-2.9618 0.534871,-7.49433 4.670727,-6.05441 1.538894,0.53577 2.108042,0.52641 2.539346,-0.0418 0.299984,-0.39518 0.352716,-0.0828 0.359898,2.13228 0.0054,1.66484 -0.08644,2.53668 -0.256169,2.43178 -0.145521,-0.0899 -0.264583,-0.40053 -0.264583,-0.69021 0,-1.62971 -1.75946,-3.14361 -3.655415,-3.14526 -1.415059,-10e-4 -2.045641,0.32284 -2.55866,1.3149 -0.779893,1.50815 -0.277729,2.03494 4.610421,4.83647 2.438736,1.3977 3.058862,2.18872 3.058862,3.90181 0,1.44967 -0.562823,2.40777 -1.981685,3.37344 -1.057505,0.71973 -3.210118,0.80216 -5.186161,0.1986 -1.246905,-0.38086 -1.317328,-0.3744 -1.761842,0.1616 -0.447219,0.53926 -0.46302,0.46649 -0.46302,-2.13244 z m -37.022464,1.67041 c -0.715753,-0.90993 -0.719958,-2.45294 -0.0091,-3.35659 0.470557,-0.59822 2.852221,-1.92426 4.323614,-2.40727 0.416173,-0.13661 0.472938,-0.34419 0.34828,-1.27359 -0.165582,-1.23451 -0.721264,-1.79041 -1.789706,-1.79041 -0.889926,0 -1.237358,0.40905 -1.349272,1.58856 -0.07893,0.83187 -0.16767,0.92498 -0.881514,0.92498 -0.669903,0 -0.806851,-0.11392 -0.877714,-0.73013 -0.190498,-1.65653 2.371418,-2.94341 4.642357,-2.33191 1.814687,0.48864 1.966849,0.84666 2.022313,4.75816 0.05377,3.79235 0.27721,4.45284 1.218251,3.60121 0.852735,-0.77172 0.642193,0.0606 -0.237979,0.94073 -1.138142,1.13815 -2.666186,0.94357 -2.666186,-0.33951 0,-0.40982 -0.15644,-0.36458 -1.098031,0.3175 -1.45415,1.05338 -2.864077,1.09139 -3.645266,0.0983 z m 3.962686,-1.02944 c 0.752305,-0.38904 0.780611,-0.47123 0.780611,-2.26679 0,-1.81015 -0.01693,-1.8579 -0.595313,-1.67948 -1.951591,0.60202 -3.245973,1.91551 -2.970247,3.01409 0.350813,1.39774 1.28194,1.70941 2.784949,0.93218 z m 52.634942,1.13127 c -2.663777,-1.81023 -2.60482,-6.22288 0.11505,-8.61096 1.17942,-1.03555 2.40345,-1.28501 3.68264,-0.75053 l 0.96881,0.4048 v -1.93848 c 0,-2.03315 -0.32298,-2.69648 -1.15709,-2.3764 -0.23672,0.0908 -0.43041,0.0446 -0.43041,-0.10286 0,-0.14741 0.50602,-0.44521 1.12448,-0.66178 0.61846,-0.21656 1.33284,-0.47862 1.5875,-0.58234 0.43253,-0.17617 0.46403,0.20097 0.47827,5.7267 0.0189,7.32566 0.11286,7.97691 1.179555,8.17436 0.75337,0.13946 0.71936,0.1729 -0.741705,0.72948 -1.87819,0.71547 -2.0406,0.71978 -2.0406,0.0541 0,-0.29104 -0.0705,-0.52917 -0.1567,-0.52917 -0.0862,0 -0.45943,0.23813 -0.82943,0.52917 -0.93065,0.73205 -2.6501,0.70196 -3.78037,-0.0661 z m 3.86662,-0.89004 0.89988,-0.42703 v -2.99226 c 0,-2.83312 -0.0364,-3.03555 -0.68498,-3.80631 -2.00702,-2.3852 -4.92927,0.81784 -4.10265,4.49687 0.29461,1.31121 1.00012,2.35726 1.90272,2.82112 0.81908,0.42094 0.91242,0.41659 1.98503,-0.0924 z m 7.247188,0.89004 c -1.57381,-1.07113 -1.969383,-1.8659 -2.073863,-4.1668 -0.0814,-1.79123 -0.009,-2.23208 0.517933,-3.17021 1.72679,-3.0724 5.95996,-3.0387 7.22645,0.0575 0.28197,0.68933 0.45829,1.30771 0.39182,1.37418 -0.0665,0.0665 -1.60264,0.17729 -3.41373,0.24628 -1.86209,0.0709 -3.3315,0.2413 -3.38177,0.3921 -0.19575,0.58726 0.50548,2.35625 1.19465,3.01374 1.60684,1.53294 3.41587,1.47919 4.68239,-0.13913 0.88487,-1.13064 1.03608,-0.83403 0.31092,0.60987 -0.76597,1.52515 -2.00941,2.37776 -3.46773,2.37776 -0.71801,0 -1.42247,-0.21105 -1.98707,-0.59532 z m 3.97144,-6.42464 c 0,-0.0774 -0.16851,-0.54411 -0.37447,-1.03704 -0.39526,-0.94597 -1.09548,-1.46801 -1.96908,-1.46801 -0.73767,0 -2.06669,1.18699 -2.21857,1.98148 l -0.127,0.66436 h 2.34456 c 1.28951,0 2.34456,-0.0634 2.34456,-0.14079 z m 26.24843,6.57845 c -0.47925,-0.2362 -1.15771,-0.9181 -1.50769,-1.51533 -1.84381,-3.14645 -0.47024,-7.24477 2.70978,-8.08515 2.15415,-0.56927 4.43914,0.65304 4.25357,2.27536 -0.0734,0.64197 -0.2044,0.75516 -0.87376,0.75516 -0.64609,0 -0.82968,-0.14243 -1.02312,-0.79375 -0.40373,-1.3594 -0.599,-1.58499 -1.4451,-1.66949 -1.69876,-0.16967 -2.7028,1.16543 -2.69171,3.57923 0.0181,3.94539 2.9973,5.58436 5.36318,2.9505 0.8464,-0.94228 0.96114,-1.00597 0.73347,-0.40715 -1.15121,3.0279 -3.14598,4.07998 -5.51862,2.91062 z m 8.38045,-0.0557 c -0.9084,-0.71455 -1.14735,-1.94692 -0.6008,-3.09868 0.32295,-0.68056 0.86736,-1.11539 2.28353,-1.82387 1.02272,-0.51165 2.02861,-0.93026 2.23531,-0.93026 0.28239,0 0.35578,-0.30585 0.29518,-1.23015 -0.0635,-0.96823 -0.22909,-1.34057 -0.77788,-1.74878 -0.62257,-0.4631 -0.77841,-0.47987 -1.45521,-0.15661 -0.60052,0.28683 -0.78545,0.58138 -0.89026,1.41805 -0.10438,0.83327 -0.25409,1.07337 -0.7097,1.13823 -0.7879,0.11217 -1.21215,-0.70408 -0.79453,-1.52866 0.59471,-1.17422 1.61313,-1.68445 3.36222,-1.68445 1.39816,0 1.7087,0.0949 2.32524,0.71082 0.69008,0.68935 0.71414,0.81652 0.79701,4.21129 0.047,1.92525 0.19078,3.60853 0.31952,3.7406 0.13946,0.14308 0.41903,0.0896 0.69169,-0.13229 0.40688,-0.33113 0.43747,-0.31869 0.2758,0.11223 -0.10001,0.26656 -0.18183,0.5314 -0.18183,0.58852 0,0.26279 -1.6769,0.9335 -2.01223,0.80483 -0.20733,-0.0796 -0.49374,-0.4518 -0.63647,-0.82721 l -0.2595,-0.68254 -0.90256,0.68841 c -1.26195,0.96254 -2.48863,1.1195 -3.36453,0.43052 z m 3.48426,-1.2294 c 0.75122,-0.38847 0.78061,-0.47314 0.78061,-2.24896 0,-1.10093 -0.11098,-1.84529 -0.27512,-1.84529 -0.48925,0 -2.22409,0.98618 -2.74173,1.55855 -0.55762,0.61658 -0.63317,1.97013 -0.14293,2.56084 0.40845,0.49214 1.39911,0.48167 2.37917,-0.0251 z m 7.45292,1.28656 c -1.54663,-0.7623 -2.0421,-1.77895 -2.0421,-4.19018 0,-1.91256 0.0767,-2.23148 0.79557,-3.30729 1.30461,-1.95244 3.34018,-2.72345 5.2237,-1.97858 0.41426,0.16382 0.46302,-0.0115 0.46302,-1.66489 0,-1.94076 -0.33449,-2.60158 -1.15709,-2.28592 -0.23672,0.0908 -0.43041,0.0863 -0.43041,-0.01 0,-0.28075 2.92115,-1.49355 3.19288,-1.32561 0.14187,0.0877 0.24671,2.9527 0.24671,6.74213 0,6.34134 0.0201,6.60044 0.53463,6.87579 0.29405,0.15737 0.65124,0.21406 0.79375,0.12598 0.14251,-0.0881 0.25912,-0.056 0.25912,0.0714 0,0.24561 -2.56264,1.38722 -3.11397,1.38722 -0.17909,0 -0.32562,-0.30824 -0.32562,-0.68498 v -0.68497 l -0.81405,0.68497 c -0.95645,0.8048 -2.30539,0.89593 -3.62614,0.24496 z m 4.10798,-1.20114 c 0.23201,-0.19255 0.33221,-1.21191 0.33221,-3.37968 0,-2.92807 -0.0368,-3.14364 -0.64882,-3.80406 -0.93855,-1.01271 -2.25604,-0.96523 -3.16419,0.11405 -0.87186,1.03614 -1.03535,1.71595 -0.905,3.76313 0.11782,1.85027 0.66138,2.82606 1.93989,3.48242 0.80206,0.41177 1.82663,0.3381 2.44591,-0.17586 z m 6.8145,1.05584 c -2.56159,-1.47033 -3.03991,-5.83023 -0.90624,-8.26035 1.00129,-1.14039 2.92239,-1.67827 4.3323,-1.21296 1.15639,0.38165 2.52707,1.98887 2.52707,2.96318 0,0.62055 -0.13493,0.74679 -0.96455,0.90243 -0.5305,0.0995 -2.01878,0.11265 -3.30729,0.0292 l -2.34274,-0.15178 v 0.78506 c 0,1.768 1.13618,3.31068 2.69263,3.65596 1.39958,0.31049 2.55085,-0.13013 3.1957,-1.22309 0.72501,-1.22878 0.92301,-0.70484 0.23829,0.63054 -0.8187,1.5967 -1.69771,2.26375 -3.14143,2.38396 -0.97062,0.0808 -1.51195,-0.0362 -2.32374,-0.50212 z m 3.83646,-6.70811 c 0,-1.12905 -1.07165,-2.21042 -2.20316,-2.22315 -0.89177,-0.01 -2.29475,1.26649 -2.29475,2.0879 0,0.5132 0.14862,0.54952 2.24895,0.54952 1.86466,0 2.24896,-0.0708 2.24896,-0.41427 z m -143.333254,6.61044 0.732367,-0.39723 -0.07091,-6.27291 -0.07091,-6.27291 -0.73209,-0.0841 c -0.952843,-0.10952 -0.722155,-0.43593 0.776682,-1.09894 2.030988,-0.8984 1.979561,-0.97747 1.888346,2.90335 -0.04447,1.89203 -0.01231,3.43984 0.07146,3.43958 0.08377,-2.5e-4 0.433832,-0.30012 0.777905,-0.66637 0.829745,-0.88322 2.28394,-1.31318 3.224293,-0.95333 1.279413,0.48961 1.597187,1.5738 1.56032,5.32353 -0.03445,3.5043 0.07255,3.86001 1.296624,4.31009 0.218281,0.0803 -0.734219,0.15488 -2.116667,0.16583 l -2.513542,0.0199 0.859896,-0.52429 0.859896,-0.52429 v -3.06399 c 0,-2.92983 -0.208453,-3.95279 -0.899505,-4.41422 -0.548377,-0.36616 -1.299936,-0.20216 -2.192135,0.47836 l -0.892631,0.68084 0.07391,3.35081 c 0.06865,3.11272 0.111505,3.35756 0.603073,3.44588 0.291042,0.0523 0.642276,0.20258 0.780521,0.33397 0.150443,0.14299 -0.752445,0.23465 -2.248958,0.22831 -2.375089,-0.0101 -2.463634,-0.0305 -1.767946,-0.40782 z m 60.592011,-0.001 0.734794,-0.3985 -0.07334,-3.7581 -0.07334,-3.75809 -0.727604,-0.0837 c -0.400182,-0.0461 -0.727604,-0.16572 -0.727604,-0.26593 0,-0.17129 2.845076,-1.37014 3.251583,-1.37014 0.1034,0 0.188,2.07979 0.188,4.62176 v 4.62175 l 0.727604,0.39474 c 0.690454,0.37457 0.606021,0.39473 -1.653645,0.39473 -2.269836,0 -2.346871,-0.0186 -1.646456,-0.3985 z m 29.908083,0.24798 c 0.0944,-0.0944 0.44171,-0.30592 0.77171,-0.46997 0.57536,-0.28602 3.06783,-5.5515 5.52007,-11.66145 0.46724,-1.16417 0.94762,-2.22704 1.06751,-2.36195 0.12363,-0.13911 0.4029,0.20445 0.64521,0.79375 0.23498,0.57147 1.0007,2.34872 1.70159,3.94945 0.70089,1.60073 1.84059,4.26758 2.53267,5.92635 1.05985,2.54025 1.37666,3.0606 2.00865,3.29915 1.34277,0.50684 0.80005,0.69657 -1.96164,0.68578 -2.55575,-0.01 -2.67007,-0.0333 -1.98438,-0.40532 0.88492,-0.48008 0.90791,-0.98138 0.13229,-2.88486 l -0.59531,-1.46099 -2.94843,-3.7e-4 -2.94842,-3.7e-4 -0.6896,1.72258 c -0.37927,0.94742 -0.68959,1.7826 -0.68959,1.85597 0,0.0734 0.38695,0.36933 0.85989,0.65769 l 0.8599,0.52429 -2.22691,9.8e-4 c -1.2248,5.5e-4 -2.14964,-0.0763 -2.05521,-0.17071 z m 9.4415,-5.46353 c 0,-0.0434 -0.47441,-1.14478 -1.05424,-2.4474 -0.57983,-1.30262 -1.05608,-2.51021 -1.05834,-2.68352 -0.0169,-1.30208 -0.86449,0.17366 -2.87041,4.9978 -0.0485,0.11666 1.05282,0.2121 2.4474,0.2121 1.39457,0 2.53559,-0.0355 2.53559,-0.079 z m 46.96354,5.32971 c 1.07398,-0.58742 1.19076,-1.01151 1.18657,-4.30911 -0.002,-1.75482 -0.10224,-3.34537 -0.22224,-3.53456 -0.12001,-0.18919 -0.47537,-0.36335 -0.7897,-0.38703 -0.31433,-0.0237 -0.57151,-0.0838 -0.57151,-0.1336 0,-0.0961 2.83843,-1.38434 3.05025,-1.38434 0.0686,0 0.12475,0.4901 0.12475,1.08912 v 1.08912 l 1.0286,-0.92928 c 1.67228,-1.5108 3.44777,-1.54168 4.4077,-0.0767 l 0.43688,0.66677 0.85728,-0.65387 c 1.90522,-1.45319 3.53788,-1.41804 4.56758,0.0983 0.39704,0.58468 0.47677,1.27095 0.48106,4.14043 0.003,1.89177 0.10431,3.59675 0.22551,3.78885 0.12121,0.1921 0.47608,0.45245 0.78861,0.57854 0.37944,0.1531 -0.26691,0.22928 -1.9453,0.22928 -1.91824,0 -2.35865,-0.0618 -1.85955,-0.261 0.35969,-0.14354 0.74482,-0.40389 0.85584,-0.57854 0.11102,-0.17465 0.20368,-1.74957 0.20591,-3.49982 0.005,-3.91379 -0.25832,-4.4993 -1.92288,-4.27604 -1.92032,0.25757 -2.1366,0.72435 -2.06672,4.46035 0.0335,1.78839 0.18045,3.39575 0.32666,3.57193 0.14621,0.17617 0.52508,0.37077 0.84193,0.43245 0.31686,0.0617 -0.55499,0.1266 -1.93744,0.14428 -2.18497,0.0279 -2.42708,-0.0116 -1.85208,-0.30209 0.64902,-0.32793 0.66284,-0.3998 0.73523,-3.82493 0.0678,-3.20925 0.0305,-3.534 -0.46302,-4.02751 -0.70142,-0.70141 -1.56981,-0.67926 -2.68048,0.0684 l -0.89903,0.60517 -0.077,2.90056 c -0.0934,3.52113 0.005,3.97236 0.93632,4.31265 0.5797,0.21171 0.2157,0.26854 -1.7854,0.27877 -1.96049,0.01 -2.39711,-0.0508 -1.98437,-0.27659 z M 84.19003,123.43763 c -0.481228,-0.19418 -0.412478,-1.58887 0.08779,-1.78084 0.230183,-0.0883 0.519335,-0.1606 0.64256,-0.1606 0.291782,0 1.055593,0.76579 1.055593,1.05833 0,0.34419 -0.790125,1.06111 -1.143378,1.03745 -0.171507,-0.0115 -0.460659,-0.0809 -0.64256,-0.15434 z"
       id="path1" /></g></svg>
